<svg width="24" height="24" viewBox="0 0 24 24" fill="none" xmlns="http://www.w3.org/2000/svg">
<g clip-path="url(#clip0_305_8701)">
<path d="M10.2321 4.19962C11.5501 3.90139 12.9223 3.94191 14.2204 4.31741C15.5186 4.69291 16.7005 5.39113 17.6558 6.34694C17.6653 6.35643 17.675 6.36572 17.6848 6.37482L20.5288 9H17.0031C16.4508 9 16.0031 9.44772 16.0031 10C16.0031 10.5523 16.4508 11 17.0031 11H23.0031C23.5554 11 24.0031 10.5523 24.0031 10V4C24.0031 3.44772 23.5554 3 23.0031 3C22.4508 3 22.0031 3.44772 22.0031 4V7.6391L19.0558 4.9185C17.8642 3.73122 16.3922 2.86362 14.7761 2.39617C13.1534 1.9268 11.4383 1.87614 9.79069 2.24893C8.14312 2.62171 6.61682 3.40579 5.35423 4.52799C4.09163 5.6502 3.1339 7.07396 2.57038 8.66642C2.38614 9.18707 2.65885 9.75849 3.1795 9.94273C3.70014 10.127 4.27157 9.85426 4.45581 9.33361C4.90662 8.05964 5.67282 6.92064 6.68289 6.02287C7.69296 5.12511 8.914 4.49785 10.2321 4.19962Z" fill="#2D3648"/>
<path d="M1.00308 13C0.450797 13 0.00308228 13.4477 0.00308228 14V20C0.00308228 20.5523 0.450797 21 1.00308 21C1.55537 21 2.00308 20.5523 2.00308 20V16.3609L4.9504 19.0815C6.142 20.2688 7.61393 21.1364 9.23003 21.6038C10.8527 22.0732 12.5679 22.1239 14.2155 21.7511C15.8631 21.3783 17.3894 20.5942 18.6519 19.472C19.9145 18.3498 20.8723 16.9261 21.4358 15.3336C21.62 14.8129 21.3473 14.2415 20.8267 14.0573C20.306 13.873 19.7346 14.1458 19.5504 14.6664C19.0996 15.9404 18.3334 17.0794 17.3233 17.9771C16.3132 18.8749 15.0922 19.5022 13.7741 19.8004C12.456 20.0986 11.0839 20.0581 9.78575 19.6826C8.48759 19.3071 7.3057 18.6089 6.35037 17.6531C6.34089 17.6436 6.33122 17.6343 6.32136 17.6252L3.4774 15H7.00308C7.55537 15 8.00308 14.5523 8.00308 14C8.00308 13.4477 7.55537 13 7.00308 13H1.00308Z" fill="#2D3648"/>
</g>
<defs>
<clipPath id="clip0_305_8701">
<rect width="24" height="24" fill="white" transform="translate(0.00308228)"/>
</clipPath>
</defs>
</svg>
