<svg width="24" height="24" viewBox="0 0 24 24" fill="none" xmlns="http://www.w3.org/2000/svg">
<path fill-rule="evenodd" clip-rule="evenodd" d="M5.00308 2C4.20743 2 3.44437 2.31607 2.88176 2.87868C2.31915 3.44129 2.00308 4.20435 2.00308 5V21C2.00308 21.4045 2.24672 21.7691 2.6204 21.9239C2.99407 22.0787 3.42419 21.9931 3.71019 21.7071L7.4173 18H19.0031C19.7987 18 20.5618 17.6839 21.1244 17.1213C21.687 16.5587 22.0031 15.7957 22.0031 15V5C22.0031 4.20435 21.687 3.44129 21.1244 2.87868C20.5618 2.31607 19.7987 2 19.0031 2H5.00308ZM4.29598 4.29289C4.48351 4.10536 4.73787 4 5.00308 4H19.0031C19.2683 4 19.5227 4.10536 19.7102 4.29289C19.8977 4.48043 20.0031 4.73478 20.0031 5V15C20.0031 15.2652 19.8977 15.5196 19.7102 15.7071C19.5227 15.8946 19.2683 16 19.0031 16H7.00308C6.73787 16 6.48351 16.1054 6.29598 16.2929L4.00308 18.5858V5C4.00308 4.73478 4.10844 4.48043 4.29598 4.29289Z" fill="#2D3648"/>
</svg>
