<svg width="24" height="24" viewBox="0 0 24 24" fill="none" xmlns="http://www.w3.org/2000/svg">
<path fill-rule="evenodd" clip-rule="evenodd" d="M12.0031 1C10.1466 1 8.36609 1.7375 7.05334 3.05025C5.74058 4.36301 5.00308 6.14348 5.00308 8C5.00308 11.3527 4.28602 13.4346 3.62519 14.6461C3.29339 15.2544 2.97031 15.6535 2.74588 15.8904C2.63341 16.0091 2.54502 16.0878 2.49181 16.1322C2.46518 16.1544 2.44733 16.168 2.43963 16.1737L2.43677 16.1758C2.07829 16.4221 1.91965 16.8725 2.04599 17.2898C2.17369 17.7115 2.56242 18 3.00308 18H21.0031C21.4438 18 21.8325 17.7115 21.9602 17.2898C22.0865 16.8725 21.9279 16.4221 21.5694 16.1758L21.5665 16.1737C21.5588 16.168 21.541 16.1544 21.5144 16.1322C21.4611 16.0878 21.3728 16.0091 21.2603 15.8904C21.0359 15.6535 20.7128 15.2544 20.381 14.6461C19.7202 13.4346 19.0031 11.3527 19.0031 8C19.0031 6.14349 18.2656 4.36301 16.9528 3.05025C15.6401 1.7375 13.8596 1 12.0031 1ZM18.6252 15.6039C18.7013 15.7434 18.7777 15.8753 18.8538 16H5.15241C5.22849 15.8753 5.30488 15.7434 5.38098 15.6039C6.22015 14.0654 7.00308 11.6473 7.00308 8C7.00308 6.67392 7.52987 5.40215 8.46755 4.46447C9.40523 3.52678 10.677 3 12.0031 3C13.3292 3 14.6009 3.52678 15.5386 4.46447C16.4763 5.40215 17.0031 6.67392 17.0031 8C17.0031 11.6473 17.786 14.0654 18.6252 15.6039Z" fill="#2D3648"/>
<path d="M11.1381 20.4982C10.861 20.0205 10.2491 19.8579 9.77133 20.135C9.29361 20.4121 9.13098 21.024 9.4081 21.5018C9.67182 21.9564 10.0503 22.3337 10.5058 22.5961C10.9612 22.8584 11.4775 22.9965 12.0031 22.9965C12.5287 22.9965 13.045 22.8584 13.5004 22.5961C13.9559 22.3337 14.3344 21.9564 14.5981 21.5018C14.8752 21.024 14.7126 20.4121 14.2349 20.135C13.7571 19.8579 13.1452 20.0205 12.8681 20.4982C12.7802 20.6498 12.654 20.7756 12.5022 20.863C12.3504 20.9504 12.1783 20.9965 12.0031 20.9965C11.8279 20.9965 11.6558 20.9504 11.504 20.863C11.3522 20.7756 11.226 20.6498 11.1381 20.4982Z" fill="#2D3648"/>
</svg>
