<svg width="24" height="24" viewBox="0 0 24 24" fill="none" xmlns="http://www.w3.org/2000/svg">
<path d="M18.7102 6.70711C19.1007 6.31658 19.1007 5.68342 18.7102 5.29289C18.3197 4.90237 17.6865 4.90237 17.296 5.29289L12.0031 10.5858L6.71019 5.29289C6.31966 4.90237 5.6865 4.90237 5.29598 5.29289C4.90545 5.68342 4.90545 6.31658 5.29598 6.70711L10.5889 12L5.29598 17.2929C4.90545 17.6834 4.90545 18.3166 5.29598 18.7071C5.6865 19.0976 6.31966 19.0976 6.71019 18.7071L12.0031 13.4142L17.296 18.7071C17.6865 19.0976 18.3197 19.0976 18.7102 18.7071C19.1007 18.3166 19.1007 17.6834 18.7102 17.2929L13.4173 12L18.7102 6.70711Z" fill="#2D3648"/>
</svg>
