<svg width="62" height="13" viewBox="0 0 62 13" fill="none" xmlns="http://www.w3.org/2000/svg">
<path d="M5.97461 1.87891C5.7832 1.86979 5.64193 1.80599 5.55078 1.6875C5.46875 1.5599 5.42773 1.43685 5.42773 1.31836C5.42773 1.19076 5.47786 1.07227 5.57812 0.962891C5.67839 0.844401 5.81055 0.785156 5.97461 0.785156C6.5306 0.785156 6.99089 0.8125 7.35547 0.867188C7.72917 0.91276 8.02539 0.990234 8.24414 1.09961C8.47201 1.20898 8.63151 1.3457 8.72266 1.50977C8.82292 1.67383 8.87305 1.86979 8.87305 2.09766C8.87305 2.29818 8.85938 2.5306 8.83203 2.79492C8.8138 3.05924 8.7819 3.37826 8.73633 3.75195C8.7181 3.89779 8.69987 4.04362 8.68164 4.18945C8.67253 4.33529 8.64518 4.47201 8.59961 4.59961C8.56315 4.7181 8.49935 4.82292 8.4082 4.91406C8.32617 5.00521 8.20768 5.06901 8.05273 5.10547H8.02539C7.68815 5.10547 7.5013 4.93685 7.46484 4.59961V4.53125C7.46484 4.52214 7.46029 4.51302 7.45117 4.50391C7.45117 4.49479 7.45117 4.48112 7.45117 4.46289C7.45117 4.26237 7.47396 4.03906 7.51953 3.79297C7.57422 3.53776 7.61523 3.29622 7.64258 3.06836C7.66081 2.77669 7.66992 2.54883 7.66992 2.38477C7.67904 2.2207 7.68815 2.12044 7.69727 2.08398C7.48763 2.0293 7.22331 1.98372 6.9043 1.94727C6.58529 1.90169 6.27539 1.87891 5.97461 1.87891ZM2.00977 2.15234C1.81836 2.14323 1.67708 2.07943 1.58594 1.96094C1.50391 1.83333 1.46289 1.71029 1.46289 1.5918C1.46289 1.46419 1.51302 1.3457 1.61328 1.23633C1.71354 1.11784 1.8457 1.05859 2.00977 1.05859C2.54753 1.05859 2.9987 1.08594 3.36328 1.14062C3.73698 1.1862 4.03776 1.26367 4.26562 1.37305C4.49349 1.47331 4.65755 1.60547 4.75781 1.76953C4.85807 1.92448 4.9082 2.11133 4.9082 2.33008C4.9082 2.40299 4.90365 2.48047 4.89453 2.5625C4.89453 2.64453 4.88542 2.74023 4.86719 2.84961C4.85807 2.95898 4.8444 3.08659 4.82617 3.23242C4.80794 3.37826 4.78971 3.55143 4.77148 3.75195C4.75326 3.89779 4.73503 4.04362 4.7168 4.18945C4.70768 4.33529 4.68034 4.47201 4.63477 4.59961C4.59831 4.7181 4.53451 4.82292 4.44336 4.91406C4.36133 5.00521 4.24284 5.06901 4.08789 5.10547H4.06055C3.72331 5.10547 3.53646 4.93685 3.5 4.59961V4.53125C3.5 4.52214 3.49544 4.51302 3.48633 4.50391C3.48633 4.49479 3.48633 4.48112 3.48633 4.46289C3.48633 4.26237 3.51367 4.03906 3.56836 3.79297C3.62305 3.54688 3.65951 3.30534 3.67773 3.06836C3.69596 2.85872 3.70508 2.69922 3.70508 2.58984C3.70508 2.47135 3.71419 2.39388 3.73242 2.35742C3.52279 2.30273 3.25846 2.25716 2.93945 2.2207C2.62044 2.17513 2.31055 2.15234 2.00977 2.15234ZM6.39844 6.75977V6.89648C6.38932 7.05143 6.38932 7.23828 6.39844 7.45703C6.40755 7.67578 6.39844 7.88542 6.37109 8.08594C6.34375 8.28646 6.28906 8.45964 6.20703 8.60547C6.125 8.74219 5.99284 8.81055 5.81055 8.81055C5.68294 8.81055 5.54622 8.76497 5.40039 8.67383C5.26367 8.58268 5.19531 8.43229 5.19531 8.22266C5.1862 7.98568 5.1862 7.76237 5.19531 7.55273C5.20443 7.3431 5.20898 7.14258 5.20898 6.95117V6.77344C4.36133 6.76432 3.60482 6.74609 2.93945 6.71875C2.27409 6.69141 1.68164 6.64583 1.16211 6.58203C1.00716 6.57292 0.879557 6.51367 0.779297 6.4043C0.679036 6.29492 0.628906 6.16276 0.628906 6.00781C0.628906 5.86198 0.674479 5.73893 0.765625 5.63867C0.856771 5.5293 0.97526 5.46549 1.12109 5.44727C2.37891 5.58398 3.71419 5.65234 5.12695 5.65234C6.12044 5.65234 7.01367 5.62956 7.80664 5.58398C8.60872 5.53841 9.3151 5.47005 9.92578 5.37891H10.0352C10.2266 5.37891 10.3678 5.42448 10.459 5.51562C10.5592 5.60677 10.623 5.70247 10.6504 5.80273C10.6504 5.99414 10.6139 6.13997 10.541 6.24023C10.4772 6.34049 10.3496 6.42253 10.1582 6.48633C9.63867 6.55924 9.06445 6.61849 8.43555 6.66406C7.81576 6.70964 7.13672 6.74154 6.39844 6.75977ZM5.66016 9.23438C5.57812 9.23438 5.50065 9.23893 5.42773 9.24805C5.35482 9.24805 5.2819 9.24805 5.20898 9.24805C4.95378 9.24805 4.72135 9.23893 4.51172 9.2207C4.3112 9.19336 4.11979 9.17969 3.9375 9.17969C3.86458 9.17969 3.82357 9.22526 3.81445 9.31641C3.80534 9.39844 3.80078 9.4987 3.80078 9.61719C3.80078 10 3.80534 10.319 3.81445 10.5742C3.82357 10.8294 3.83724 11.0072 3.85547 11.1074L3.97852 11.1621C4.16992 11.2259 4.45703 11.2897 4.83984 11.3535C5.22266 11.4173 5.70573 11.4492 6.28906 11.4492C6.51693 11.4492 6.73568 11.4401 6.94531 11.4219C7.15495 11.4128 7.3418 11.3945 7.50586 11.3672C7.66992 11.349 7.79753 11.3216 7.88867 11.2852C7.98893 11.2487 8.03906 11.2077 8.03906 11.1621C8.04818 11.1165 8.05273 11.0573 8.05273 10.9844C8.06185 10.9115 8.06641 10.8249 8.06641 10.7246C8.06641 10.6517 8.06641 10.556 8.06641 10.4375C8.06641 10.319 8.06185 10.196 8.05273 10.0684C8.04362 9.94987 8.03451 9.83138 8.02539 9.71289C8.01628 9.5944 8.00716 9.49414 7.99805 9.41211C7.9707 9.40299 7.93424 9.39844 7.88867 9.39844C7.85221 9.39844 7.8112 9.39388 7.76562 9.38477C7.3099 9.33919 6.90885 9.30729 6.5625 9.28906C6.21615 9.26172 5.91536 9.24349 5.66016 9.23438ZM5.76953 8.16797C5.95182 8.16797 6.20703 8.17253 6.53516 8.18164C6.86328 8.18164 7.19141 8.19531 7.51953 8.22266C7.85677 8.25 8.16667 8.29102 8.44922 8.3457C8.73177 8.39128 8.91406 8.46419 8.99609 8.56445C9.04167 8.66471 9.07357 8.80599 9.0918 8.98828C9.11914 9.16146 9.13737 9.35742 9.14648 9.57617C9.16471 9.78581 9.17383 10.0046 9.17383 10.2324C9.17383 10.4694 9.17383 10.6927 9.17383 10.9023C9.17383 11.276 9.11458 11.5723 8.99609 11.791C8.8776 12.0098 8.69531 12.1738 8.44922 12.2832C8.20312 12.4017 7.88411 12.4746 7.49219 12.502C7.10938 12.5384 6.65365 12.5566 6.125 12.5566C5.98828 12.5566 5.77409 12.5521 5.48242 12.543C5.19076 12.5339 4.88086 12.5065 4.55273 12.4609C4.23372 12.4154 3.92839 12.347 3.63672 12.2559C3.35417 12.1647 3.14909 12.0371 3.02148 11.873C2.94857 11.7728 2.88932 11.6315 2.84375 11.4492C2.80729 11.276 2.77539 11.0755 2.74805 10.8477C2.72982 10.6289 2.71615 10.3919 2.70703 10.1367C2.69792 9.89062 2.69336 9.63997 2.69336 9.38477C2.69336 9.28451 2.69336 9.19792 2.69336 9.125C2.69336 9.05208 2.69792 8.97917 2.70703 8.90625V8.79688C2.70703 8.53255 2.76628 8.35482 2.88477 8.26367C3.00326 8.17253 3.17643 8.12695 3.4043 8.12695L5.76953 8.16797ZM13.5182 7.2793C13.5182 7.58008 13.5273 7.85807 13.5455 8.11328C13.5729 8.35938 13.6048 8.5599 13.6412 8.71484C13.7962 8.72396 13.9694 8.72852 14.1608 8.72852C14.3522 8.72852 14.5527 8.72852 14.7623 8.72852C14.972 8.72852 15.1634 8.72396 15.3366 8.71484C15.5189 8.69661 15.6784 8.67839 15.8151 8.66016C15.8242 8.53255 15.8287 8.39128 15.8287 8.23633C15.8287 8.07227 15.8287 7.89909 15.8287 7.7168C15.8196 7.64388 15.8151 7.57552 15.8151 7.51172C15.8151 7.4388 15.8151 7.36589 15.8151 7.29297C15.5052 7.29297 15.1588 7.29297 14.776 7.29297C14.4023 7.29297 13.983 7.28841 13.5182 7.2793ZM15.8424 6.11719C15.8424 6.07161 15.8424 6.0306 15.8424 5.99414C15.8515 5.94857 15.8561 5.90299 15.8561 5.85742C15.8561 5.81185 15.8515 5.77083 15.8424 5.73438C15.8424 5.6888 15.8424 5.64323 15.8424 5.59766V4.58594C15.8971 4.26693 16.0885 4.08464 16.4166 4.03906C16.6901 4.03906 16.886 4.21224 17.0045 4.55859V7.41602V8.04492C17.0045 8.55534 16.9544 8.94271 16.8541 9.20703C16.7539 9.46224 16.567 9.63997 16.2936 9.74023C16.0202 9.84049 15.6465 9.89062 15.1725 9.89062C14.6985 9.89062 14.0879 9.89062 13.3405 9.89062C13.1217 9.88151 12.9485 9.79948 12.8209 9.64453C12.7024 9.48047 12.6113 9.27539 12.5475 9.0293C12.4837 8.7832 12.4427 8.50521 12.4245 8.19531C12.4062 7.88542 12.388 7.56641 12.3698 7.23828L12.2877 5.78906C12.2695 5.54297 12.2649 5.32422 12.2741 5.13281C12.2832 4.94141 12.2832 4.77734 12.2741 4.64062C12.3196 4.45833 12.388 4.32617 12.4791 4.24414C12.5794 4.15299 12.7024 4.09831 12.8483 4.08008C13.0123 4.08008 13.1354 4.13021 13.2174 4.23047C13.3086 4.32161 13.3724 4.44466 13.4088 4.59961C13.4453 4.74544 13.4635 4.91862 13.4635 5.11914C13.4635 5.31055 13.4635 5.50651 13.4635 5.70703V6.10352C13.9375 6.11263 14.3704 6.11719 14.7623 6.11719C15.1634 6.11719 15.5234 6.11719 15.8424 6.11719ZM20.1901 5.89844C20.2357 5.90755 20.2812 5.91211 20.3268 5.91211C20.3815 5.91211 20.4316 5.91211 20.4772 5.91211C20.5683 5.91211 20.6549 5.91211 20.737 5.91211C20.819 5.90299 20.9101 5.89844 21.0104 5.89844C21.1562 5.89844 21.3021 5.90299 21.4479 5.91211C21.6028 5.92122 21.735 5.94857 21.8444 5.99414C21.9629 6.03971 22.0586 6.11263 22.1315 6.21289C22.2044 6.30404 22.2409 6.43164 22.2409 6.5957C22.2409 6.70508 22.1907 6.81445 22.0905 6.92383C21.9902 7.0332 21.8535 7.09245 21.6803 7.10156C21.498 7.08333 21.3157 7.06966 21.1334 7.06055C20.9603 7.05143 20.7962 7.04688 20.6412 7.04688H20.1627C20.1445 7.7487 20.1263 8.35482 20.108 8.86523C20.0989 9.37565 20.0761 9.79948 20.0397 10.1367C20.0215 10.3464 19.9485 10.4922 19.8209 10.5742C19.6933 10.6654 19.5657 10.7109 19.4381 10.7109C19.2832 10.7109 19.151 10.6562 19.0416 10.5469C18.9323 10.4375 18.8776 10.278 18.8776 10.0684L19.0006 7.60742C19.0189 7.42513 19.0325 7.22461 19.0416 7.00586C19.0508 6.78711 19.0553 6.55013 19.0553 6.29492C19.0553 6.05794 19.0462 5.78906 19.028 5.48828C19.0189 5.17839 19.0006 4.88672 18.9733 4.61328C18.9551 4.33073 18.9368 4.08008 18.9186 3.86133C18.9095 3.64258 18.9049 3.5013 18.9049 3.4375C18.9049 3.10938 18.9551 2.88151 19.0553 2.75391C19.1556 2.6263 19.3014 2.5625 19.4928 2.5625C19.6751 2.5625 19.8118 2.64909 19.903 2.82227C19.9941 2.98633 20.0534 3.18685 20.0807 3.42383C20.1172 3.65169 20.1354 3.88867 20.1354 4.13477C20.1354 4.37174 20.1399 4.55859 20.1491 4.69531C20.1582 4.91406 20.1673 5.1237 20.1764 5.32422C20.1855 5.52474 20.1901 5.71615 20.1901 5.89844ZM17.5377 3.49219C17.483 3.48307 17.3737 3.4375 17.2096 3.35547C17.0455 3.27344 16.8769 3.16406 16.7037 3.02734C16.5306 2.89062 16.3756 2.73112 16.2389 2.54883C16.1113 2.36654 16.0475 2.17513 16.0475 1.97461C16.0475 1.81055 16.1113 1.66471 16.2389 1.53711C16.3756 1.40039 16.526 1.33203 16.6901 1.33203C16.8177 1.33203 16.9316 1.35938 17.0319 1.41406C17.1321 1.46875 17.2142 1.53711 17.278 1.61914C17.3509 1.69206 17.4056 1.77409 17.442 1.86523C17.4876 1.94727 17.5195 2.01562 17.5377 2.07031C17.5377 2.01562 17.556 1.94727 17.5924 1.86523C17.638 1.7832 17.6927 1.70573 17.7565 1.63281C17.8294 1.55078 17.916 1.48242 18.0162 1.42773C18.1165 1.36393 18.235 1.33203 18.3717 1.33203C18.5358 1.33203 18.6862 1.40039 18.8229 1.53711C18.9596 1.66471 19.028 1.81055 19.028 1.97461C19.028 2.17513 18.9596 2.36654 18.8229 2.54883C18.6953 2.73112 18.5449 2.89062 18.3717 3.02734C18.1985 3.16406 18.0299 3.27344 17.8659 3.35547C17.7018 3.4375 17.5924 3.48307 17.5377 3.49219ZM29.1555 3.66992C29.1009 3.66081 28.9733 3.65169 28.7727 3.64258C28.5722 3.62435 28.3352 3.61068 28.0618 3.60156C27.7884 3.58333 27.4921 3.56966 27.1731 3.56055C26.8632 3.54232 26.567 3.52865 26.2845 3.51953C26.011 3.5013 25.7649 3.48763 25.5462 3.47852C25.3274 3.4694 25.177 3.46029 25.095 3.45117C24.8398 3.35091 24.7122 3.18229 24.7122 2.94531C24.7122 2.76302 24.776 2.62174 24.9036 2.52148C25.0403 2.41211 25.2545 2.35742 25.5462 2.35742C25.8287 2.35742 26.1705 2.36654 26.5716 2.38477C26.9726 2.40299 27.4329 2.42578 27.9524 2.45312C29.1555 2.52604 29.8665 2.60807 30.0852 2.69922C30.222 2.79036 30.3268 2.90885 30.3997 3.05469C30.4817 3.19141 30.5364 3.3418 30.5637 3.50586C30.6002 3.66081 30.6184 3.82031 30.6184 3.98438C30.6276 4.13932 30.6321 4.28516 30.6321 4.42188C30.6321 4.69531 30.6276 4.99609 30.6184 5.32422C30.6093 5.64323 30.5774 5.94401 30.5227 6.22656C30.4772 6.5 30.4042 6.72786 30.304 6.91016C30.2128 7.09245 30.0807 7.18359 29.9075 7.18359C29.7708 7.18359 29.6341 7.14258 29.4973 7.06055C29.3697 6.9694 29.2968 6.81901 29.2786 6.60938C29.2786 6.48177 29.2877 6.32227 29.3059 6.13086C29.3242 5.93034 29.347 5.72982 29.3743 5.5293C29.4016 5.31966 29.4244 5.1237 29.4427 4.94141C29.4609 4.75 29.47 4.59961 29.47 4.49023C29.47 4.45378 29.47 4.39453 29.47 4.3125C29.4791 4.23047 29.4746 4.14388 29.4563 4.05273C29.4381 3.96159 29.4062 3.87956 29.3606 3.80664C29.3151 3.73372 29.2467 3.68815 29.1555 3.66992ZM28.636 8.53711L28.6087 9.2207C28.5904 9.37565 28.5813 9.5625 28.5813 9.78125C28.5904 10 28.5813 10.2096 28.554 10.4102C28.5266 10.6107 28.472 10.7793 28.3899 10.916C28.317 11.0618 28.1894 11.1348 28.0071 11.1348C27.8795 11.1348 27.7428 11.0892 27.597 10.998C27.4602 10.9069 27.3919 10.7565 27.3919 10.5469C27.3828 10.3099 27.3828 10.0866 27.3919 9.87695C27.401 9.66732 27.4101 9.4668 27.4192 9.27539L27.4329 8.55078C26.5943 8.54167 25.8424 8.52344 25.177 8.49609C24.5117 8.46875 23.9238 8.42318 23.4134 8.35938C23.2584 8.35026 23.1308 8.29102 23.0305 8.18164C22.9303 8.07227 22.8802 7.9401 22.8802 7.78516C22.8802 7.63932 22.9257 7.51628 23.0169 7.41602C23.108 7.30664 23.2265 7.24284 23.3723 7.22461C24.6302 7.36133 25.9654 7.42969 27.3782 7.42969C28.3717 7.42969 29.2649 7.4069 30.0579 7.36133C30.86 7.31576 31.5664 7.2474 32.177 7.15625H32.2864C32.4778 7.15625 32.6191 7.20182 32.7102 7.29297C32.8105 7.38411 32.8743 7.47982 32.9016 7.58008C32.9016 7.77148 32.8652 7.91732 32.7923 8.01758C32.7285 8.11784 32.6009 8.19987 32.4095 8.26367C31.8808 8.33659 31.302 8.39583 30.6731 8.44141C30.0533 8.48698 29.3743 8.51888 28.636 8.53711ZM34.9355 8.46875C34.8808 8.33203 34.8261 8.14062 34.7714 7.89453C34.7167 7.63932 34.662 7.375 34.6073 7.10156C34.5527 6.81901 34.5071 6.54557 34.4706 6.28125C34.4342 6.01693 34.4114 5.79818 34.4023 5.625L34.3749 4.76367C34.384 4.56315 34.4524 4.41276 34.58 4.3125C34.7167 4.20312 34.8443 4.14844 34.9628 4.14844C35.1724 4.14844 35.3183 4.21224 35.4003 4.33984C35.4915 4.46745 35.5507 4.63607 35.578 4.8457C35.6054 5.05534 35.6191 5.29688 35.6191 5.57031C35.6191 5.83464 35.6419 6.10807 35.6874 6.39062C35.7148 6.71875 35.7603 7.04232 35.8241 7.36133C35.8971 7.67122 35.9609 7.89909 36.0155 8.04492L36.0839 8.16797C36.093 8.17708 36.1113 8.1862 36.1386 8.19531C36.1659 8.19531 36.2252 8.19531 36.3163 8.19531H36.453H36.6581C36.8404 8.19531 37.0546 8.1862 37.3007 8.16797C37.5559 8.14974 37.802 8.13151 38.039 8.11328C38.2851 8.08594 38.5038 8.06315 38.6952 8.04492C38.8866 8.01758 39.0188 7.99479 39.0917 7.97656C39.2011 7.94922 39.3059 7.93555 39.4062 7.93555C39.5429 7.93555 39.6659 7.98112 39.7753 8.07227C39.8847 8.1543 39.9394 8.28646 39.9394 8.46875C39.9394 8.6237 39.9029 8.74674 39.83 8.83789C39.7571 8.92904 39.6432 9.00195 39.4882 9.05664C39.3424 9.11133 39.151 9.1569 38.914 9.19336C38.677 9.2207 38.399 9.24805 38.08 9.27539C37.6607 9.32096 37.2916 9.35286 36.9726 9.37109C36.6627 9.38021 36.3938 9.38477 36.1659 9.38477C35.8105 9.38477 35.5416 9.31185 35.3593 9.16602C35.177 9.02018 35.0357 8.78776 34.9355 8.46875ZM41.9491 4.92773C41.9309 4.58138 41.9081 4.28516 41.8808 4.03906C41.8534 3.79297 41.8398 3.59245 41.8398 3.4375C41.8398 3.10938 41.8899 2.88151 41.9902 2.75391C42.0904 2.6263 42.2363 2.5625 42.4277 2.5625C42.6099 2.5625 42.7467 2.64909 42.8378 2.82227C42.929 2.98633 42.9882 3.18685 43.0155 3.42383C43.052 3.65169 43.0702 3.88867 43.0702 4.13477C43.0702 4.37174 43.0748 4.55859 43.0839 4.69531C43.093 4.93229 43.1021 5.16016 43.1113 5.37891C43.1204 5.59766 43.1249 5.81185 43.1249 6.02148C43.1249 6.98763 43.1067 7.8125 43.0702 8.49609C43.0429 9.17969 43.011 9.72656 42.9745 10.1367C42.9472 10.3464 42.8743 10.4922 42.7558 10.5742C42.6373 10.6654 42.5097 10.7109 42.373 10.7109C42.218 10.7109 42.0859 10.6562 41.9765 10.5469C41.8671 10.4375 41.8124 10.278 41.8124 10.0684L41.9355 7.60742C41.9537 7.42513 41.9674 7.22461 41.9765 7.00586C41.9856 6.78711 41.9902 6.55013 41.9902 6.29492C41.9902 5.89388 41.9765 5.43815 41.9491 4.92773ZM40.0624 3.49219C40.0077 3.48307 39.8984 3.4375 39.7343 3.35547C39.5702 3.27344 39.4016 3.16406 39.2284 3.02734C39.0553 2.89062 38.9003 2.73112 38.7636 2.54883C38.636 2.36654 38.5722 2.17513 38.5722 1.97461C38.5722 1.81055 38.636 1.66471 38.7636 1.53711C38.9003 1.40039 39.0507 1.33203 39.2148 1.33203C39.3424 1.33203 39.4563 1.35938 39.5566 1.41406C39.6568 1.46875 39.7389 1.53711 39.8027 1.61914C39.8756 1.69206 39.9303 1.77409 39.9667 1.86523C40.0123 1.94727 40.0442 2.01562 40.0624 2.07031C40.0624 2.01562 40.0807 1.94727 40.1171 1.86523C40.1627 1.7832 40.2174 1.70573 40.2812 1.63281C40.3541 1.55078 40.4407 1.48242 40.5409 1.42773C40.6412 1.36393 40.7597 1.33203 40.8964 1.33203C41.0605 1.33203 41.2109 1.40039 41.3476 1.53711C41.4843 1.66471 41.5527 1.81055 41.5527 1.97461C41.5527 2.17513 41.4843 2.36654 41.3476 2.54883C41.22 2.73112 41.0696 2.89062 40.8964 3.02734C40.7232 3.16406 40.5546 3.27344 40.3905 3.35547C40.2265 3.4375 40.1171 3.48307 40.0624 3.49219ZM45.2955 5.92578C45.2864 5.85286 45.2727 5.74805 45.2545 5.61133C45.2453 5.46549 45.2408 5.3151 45.2408 5.16016C45.2408 4.97786 45.259 4.79102 45.2955 4.59961C45.341 4.39909 45.414 4.2168 45.5142 4.05273C45.6236 3.88867 45.7694 3.75195 45.9517 3.64258C46.134 3.5332 46.371 3.47396 46.6627 3.46484C46.9179 3.45573 47.164 3.44661 47.4009 3.4375C47.6379 3.42839 47.8476 3.4056 48.0298 3.36914C48.2121 3.32357 48.3534 3.25977 48.4537 3.17773C48.563 3.0957 48.6177 2.97721 48.6177 2.82227C48.6177 2.74935 48.6132 2.68555 48.6041 2.63086C48.6041 2.56706 48.5995 2.51237 48.5904 2.4668C48.5813 2.42122 48.5767 2.38021 48.5767 2.34375C48.3397 2.29818 48.1164 2.27083 47.9068 2.26172C47.7063 2.24349 47.5012 2.23438 47.2916 2.23438C47.1548 2.23438 47.0136 2.23893 46.8677 2.24805C46.7219 2.24805 46.5715 2.24805 46.4166 2.24805C46.1796 2.20247 46.0246 2.125 45.9517 2.01562C45.8788 1.90625 45.8423 1.7832 45.8423 1.64648C45.8423 1.50977 45.8925 1.38672 45.9927 1.27734C46.1021 1.15885 46.2525 1.09961 46.4439 1.09961C46.6535 1.09961 46.8267 1.10417 46.9634 1.11328C47.1093 1.1224 47.2186 1.1224 47.2916 1.11328H48.0845C48.4856 1.11328 48.8 1.16341 49.0279 1.26367C49.2558 1.35482 49.4244 1.47331 49.5337 1.61914C49.6522 1.76497 49.7252 1.92904 49.7525 2.11133C49.7798 2.29362 49.7935 2.47135 49.7935 2.64453C49.7935 2.92708 49.7844 3.17773 49.7662 3.39648C49.7479 3.61523 49.6659 3.80664 49.5201 3.9707C49.3834 4.12565 49.1555 4.25326 48.8365 4.35352C48.5266 4.44466 48.08 4.50846 47.4966 4.54492C47.2779 4.56315 47.091 4.57682 46.9361 4.58594C46.7811 4.59505 46.6535 4.61328 46.5533 4.64062C46.4712 4.6862 46.4302 4.94596 46.4302 5.41992C46.4302 5.54753 46.4302 5.6569 46.4302 5.74805C46.4393 5.83008 46.4576 5.89844 46.4849 5.95312C46.5123 6.00781 46.5578 6.04883 46.6216 6.07617C46.6946 6.0944 46.7948 6.10352 46.9224 6.10352C47.1685 6.10352 47.4647 6.08529 47.8111 6.04883C48.1574 6.00326 48.4901 5.95312 48.8091 5.89844C49.1373 5.84375 49.4244 5.79362 49.6705 5.74805C49.9166 5.70247 50.0578 5.67057 50.0943 5.65234C50.2128 5.60677 50.3176 5.58398 50.4087 5.58398C50.5637 5.58398 50.6959 5.63867 50.8052 5.74805C50.9146 5.84831 50.9693 5.98047 50.9693 6.14453C50.9693 6.25391 50.9556 6.35417 50.9283 6.44531C50.9009 6.52734 50.8235 6.60482 50.6959 6.67773C50.5683 6.74154 50.3723 6.80534 50.108 6.86914C49.8528 6.93294 49.4927 6.99674 49.0279 7.06055C48.0526 7.19727 47.2551 7.26562 46.6353 7.26562C46.2707 7.26562 45.9973 7.19271 45.815 7.04688C45.6418 6.90104 45.5051 6.66862 45.4048 6.34961C45.3775 6.28581 45.3593 6.24479 45.3502 6.22656C45.341 6.19922 45.3319 6.18099 45.3228 6.17188C45.3228 6.15365 45.3183 6.13086 45.3091 6.10352C45.3091 6.06706 45.3046 6.00781 45.2955 5.92578ZM53.6216 3.57422C53.6672 3.58333 53.7128 3.58789 53.7584 3.58789C53.8039 3.58789 53.8495 3.58789 53.8951 3.58789C53.9862 3.58789 54.0728 3.58789 54.1548 3.58789C54.246 3.57878 54.3417 3.57422 54.442 3.57422C54.5878 3.57422 54.7336 3.57878 54.8795 3.58789C55.0344 3.59701 55.1666 3.62435 55.2759 3.66992C55.3944 3.71549 55.4901 3.78841 55.563 3.88867C55.636 3.97982 55.6724 4.10742 55.6724 4.27148C55.6724 4.38086 55.6223 4.49023 55.522 4.59961C55.4218 4.70898 55.2851 4.76823 55.1119 4.77734C54.9296 4.75911 54.7473 4.74544 54.565 4.73633C54.3918 4.72721 54.2278 4.72266 54.0728 4.72266H53.608C53.5989 5.04167 53.5897 5.35156 53.5806 5.65234C53.5806 5.94401 53.5578 6.20833 53.5123 6.44531C53.4758 6.67318 53.412 6.86003 53.3209 7.00586C53.2297 7.14258 53.0884 7.21094 52.897 7.21094C52.7421 7.21094 52.6099 7.15625 52.5005 7.04688C52.3912 6.9375 52.3365 6.77799 52.3365 6.56836L52.4459 4.68164C52.4641 4.50846 52.4778 4.33984 52.4869 4.17578C52.496 4.0026 52.5005 3.82487 52.5005 3.64258C52.5005 3.4056 52.4914 3.15951 52.4732 2.9043C52.455 2.63997 52.4367 2.38932 52.4185 2.15234C52.4003 1.91536 52.3821 1.70573 52.3638 1.52344C52.3456 1.34115 52.3365 1.20443 52.3365 1.11328C52.3365 0.785156 52.3866 0.557292 52.4869 0.429688C52.5871 0.302083 52.733 0.238281 52.9244 0.238281C53.1067 0.238281 53.2434 0.32487 53.3345 0.498047C53.4257 0.662109 53.4849 0.858073 53.5123 1.08594C53.5487 1.30469 53.567 1.53255 53.567 1.76953C53.5761 1.9974 53.5806 2.17969 53.5806 2.31641L53.6216 3.57422ZM49.274 11.0664C48.9641 10.9935 48.7271 10.8704 48.563 10.6973C48.4081 10.5332 48.2942 10.3281 48.2212 10.082C48.1574 9.83594 48.1164 9.55339 48.0982 9.23438C48.08 8.91536 48.0617 8.56445 48.0435 8.18164C48.0709 7.99935 48.1392 7.86263 48.2486 7.77148C48.3671 7.67122 48.4947 7.62109 48.6314 7.62109C48.7681 7.62109 48.8821 7.67122 48.9732 7.77148C49.0735 7.86263 49.1509 7.98568 49.2056 8.14062L49.2877 9.4668C49.2968 9.63086 49.3697 9.75846 49.5064 9.84961C49.6522 9.93164 49.8209 9.99089 50.0123 10.0273C50.2128 10.0638 50.4224 10.082 50.6412 10.082C50.8599 10.0911 51.0604 10.0957 51.2427 10.0957C51.7076 10.0957 52.1451 10.0638 52.5552 10C52.9654 9.9362 53.33 9.84049 53.649 9.71289C53.7037 9.69466 53.7538 9.68099 53.7994 9.67188C53.8541 9.66276 53.9042 9.6582 53.9498 9.6582C54.1321 9.6582 54.2688 9.72656 54.3599 9.86328C54.4602 9.99089 54.5103 10.1367 54.5103 10.3008C54.5103 10.4648 54.4146 10.6061 54.2232 10.7246C54.0409 10.8431 53.7903 10.9434 53.4712 11.0254C53.1614 11.1074 52.7968 11.1667 52.3775 11.2031C51.9673 11.2396 51.5344 11.2578 51.0787 11.2578C50.7597 11.2578 50.4498 11.2441 50.149 11.2168C49.8482 11.1895 49.5565 11.1393 49.274 11.0664ZM57.9934 3.20508C58.0207 3.25977 58.0389 3.31445 58.048 3.36914C58.0572 3.41471 58.0617 3.46029 58.0617 3.50586C58.0617 3.68815 57.9979 3.82943 57.8703 3.92969C57.7427 4.02083 57.6105 4.06641 57.4738 4.06641C57.328 4.06641 57.2049 4.02995 57.1047 3.95703C57.0044 3.875 56.9224 3.7793 56.8586 3.66992C56.7948 3.56055 56.7492 3.44661 56.7219 3.32812C56.6945 3.20052 56.6809 3.09115 56.6809 3C56.6809 2.78125 56.7447 2.57617 56.8723 2.38477C56.9999 2.18424 57.1639 2.01107 57.3645 1.86523C57.5741 1.7194 57.8111 1.60547 58.0754 1.52344C58.3488 1.44141 58.6314 1.40039 58.923 1.40039C59.1691 1.40039 59.4198 1.44141 59.675 1.52344C59.9302 1.59635 60.1626 1.71029 60.3723 1.86523C60.5819 2.02018 60.7505 2.21615 60.8781 2.45312C61.0148 2.6901 61.0832 2.9681 61.0832 3.28711C61.0832 3.55143 61.0285 3.79753 60.9191 4.02539C60.8189 4.24414 60.6867 4.45378 60.5227 4.6543C60.3586 4.85482 60.1763 5.04622 59.9758 5.22852C59.7844 5.41081 59.593 5.59766 59.4016 5.78906C59.3013 5.88932 59.201 5.97135 59.1008 6.03516L59.0734 6.0625C59.0734 6.10807 59.0689 6.16732 59.0598 6.24023C59.0598 6.30404 59.0598 6.3724 59.0598 6.44531C59.0871 6.66406 59.1053 6.89193 59.1145 7.12891C59.1327 7.35677 59.1464 7.59375 59.1555 7.83984C59.119 8.06771 59.037 8.23177 58.9094 8.33203C58.7909 8.42318 58.6542 8.46875 58.4992 8.46875C58.3716 8.46875 58.2486 8.41862 58.1301 8.31836C58.0116 8.20898 57.9523 8.06315 57.9523 7.88086C57.9523 7.67122 57.9296 7.42969 57.884 7.15625C57.8384 6.88281 57.8156 6.60026 57.8156 6.30859C57.8156 6.08073 57.8475 5.88021 57.9113 5.70703C57.9751 5.53385 58.0663 5.37891 58.1848 5.24219C58.3033 5.09635 58.44 4.96419 58.5949 4.8457C58.7499 4.7181 58.9185 4.58594 59.1008 4.44922C59.3286 4.27604 59.5109 4.10286 59.6477 3.92969C59.7935 3.7474 59.8664 3.53776 59.8664 3.30078C59.8664 3.05469 59.7798 2.87695 59.6066 2.76758C59.4426 2.64909 59.2466 2.58984 59.0187 2.58984C58.8 2.58984 58.5812 2.63542 58.3625 2.72656C58.1529 2.80859 57.9979 2.89974 57.8977 3C57.8977 3.02734 57.9296 3.0957 57.9934 3.20508ZM58.5676 9.2207H58.6359C58.7453 9.2207 58.841 9.24805 58.923 9.30273L58.9777 9.35742C59.1327 9.44857 59.2603 9.5944 59.3605 9.79492C59.4699 9.99544 59.5246 10.2005 59.5246 10.4102C59.5246 10.6562 59.4426 10.8796 59.2785 11.0801C59.1145 11.2897 58.8365 11.3945 58.4445 11.3945C58.1255 11.3945 57.8885 11.3079 57.7336 11.1348C57.5878 10.9707 57.5148 10.7474 57.5148 10.4648C57.5148 10.3281 57.5376 10.1914 57.5832 10.0547C57.6288 9.91797 57.6926 9.79492 57.7746 9.68555C57.8658 9.56706 57.9751 9.4668 58.1027 9.38477C58.2395 9.30273 58.3944 9.24805 58.5676 9.2207Z" fill="#717D96"/>
</svg>
