<svg width="73" height="14" viewBox="0 0 73 14" fill="none" xmlns="http://www.w3.org/2000/svg">
<path d="M3.80078 8.86719C3.79167 8.79427 3.77799 8.64844 3.75977 8.42969C3.74154 8.20182 3.72331 7.96029 3.70508 7.70508C3.69596 7.44987 3.68229 7.20833 3.66406 6.98047C3.65495 6.7526 3.65039 6.59766 3.65039 6.51562C3.64128 6.44271 3.63216 6.37891 3.62305 6.32422C3.62305 6.26953 3.62305 6.2194 3.62305 6.17383C3.62305 6.00977 3.67773 5.8776 3.78711 5.77734C3.9056 5.66797 4.05143 5.58138 4.22461 5.51758C4.4069 5.45378 4.60286 5.4082 4.8125 5.38086C5.03125 5.35352 5.24089 5.33984 5.44141 5.33984C5.64193 5.33073 5.82422 5.33073 5.98828 5.33984C6.15234 5.33984 6.26628 5.33984 6.33008 5.33984C6.50326 5.39453 6.63086 5.47201 6.71289 5.57227C6.80404 5.67253 6.84961 5.77734 6.84961 5.88672C6.83138 6.02344 6.78125 6.14193 6.69922 6.24219C6.61719 6.34245 6.48958 6.40625 6.31641 6.43359C6.125 6.43359 5.94271 6.42904 5.76953 6.41992C5.59635 6.41081 5.42318 6.40625 5.25 6.40625C5.07682 6.40625 4.91732 6.43359 4.77148 6.48828L4.88086 8.4707C4.89909 8.58008 4.9082 8.69857 4.9082 8.82617C4.91732 8.94466 4.93555 9.05404 4.96289 9.1543C4.99023 9.25456 5.03581 9.33659 5.09961 9.40039C5.17253 9.46419 5.28646 9.49609 5.44141 9.49609C5.55078 9.49609 5.67839 9.47331 5.82422 9.42773C5.97917 9.37305 6.12044 9.3457 6.24805 9.3457C6.40299 9.3457 6.5306 9.40039 6.63086 9.50977C6.73112 9.61003 6.78125 9.75586 6.78125 9.94727C6.78125 10.0749 6.74479 10.1797 6.67188 10.2617C6.59896 10.3438 6.50326 10.4076 6.38477 10.4531C6.26628 10.4987 6.125 10.5306 5.96094 10.5488C5.79688 10.5671 5.62826 10.5762 5.45508 10.5762C5.05404 10.5762 4.7487 10.5306 4.53906 10.4395C4.32943 10.3483 4.17448 10.2253 4.07422 10.0703C3.97396 9.91536 3.91016 9.73763 3.88281 9.53711C3.85547 9.32747 3.82812 9.10417 3.80078 8.86719ZM0.519531 8.86719C0.510417 8.79427 0.496745 8.64844 0.478516 8.42969C0.460286 8.20182 0.442057 7.96029 0.423828 7.70508C0.414714 7.44987 0.401042 7.20833 0.382812 6.98047C0.373698 6.7526 0.369141 6.59766 0.369141 6.51562C0.360026 6.44271 0.350911 6.37891 0.341797 6.32422C0.341797 6.26953 0.341797 6.2194 0.341797 6.17383C0.341797 6.00977 0.396484 5.8776 0.505859 5.77734C0.624349 5.66797 0.770182 5.58138 0.943359 5.51758C1.12565 5.45378 1.32161 5.4082 1.53125 5.38086C1.75 5.35352 1.95964 5.33984 2.16016 5.33984C2.36068 5.33073 2.53841 5.33073 2.69336 5.33984C2.85742 5.33984 2.97591 5.33984 3.04883 5.33984C3.22201 5.39453 3.34961 5.47201 3.43164 5.57227C3.52279 5.67253 3.56836 5.77734 3.56836 5.88672C3.55013 6.02344 3.5 6.14193 3.41797 6.24219C3.33594 6.34245 3.20833 6.40625 3.03516 6.43359C2.84375 6.43359 2.66146 6.42904 2.48828 6.41992C2.3151 6.41081 2.14193 6.40625 1.96875 6.40625C1.79557 6.40625 1.63607 6.43359 1.49023 6.48828L1.59961 8.4707C1.61784 8.58008 1.62695 8.69857 1.62695 8.82617C1.63607 8.94466 1.6543 9.05404 1.68164 9.1543C1.70898 9.25456 1.75456 9.33659 1.81836 9.40039C1.89128 9.46419 2.00521 9.49609 2.16016 9.49609C2.26953 9.49609 2.39714 9.47331 2.54297 9.42773C2.69792 9.37305 2.83919 9.3457 2.9668 9.3457C3.12174 9.3457 3.24935 9.40039 3.34961 9.50977C3.44987 9.61003 3.5 9.75586 3.5 9.94727C3.5 10.0749 3.46354 10.1797 3.39062 10.2617C3.31771 10.3438 3.22201 10.4076 3.10352 10.4531C2.98503 10.4987 2.84375 10.5306 2.67969 10.5488C2.51562 10.5671 2.34701 10.5762 2.17383 10.5762C1.77279 10.5762 1.46745 10.5306 1.25781 10.4395C1.04818 10.3483 0.893229 10.2253 0.792969 10.0703C0.692708 9.91536 0.628906 9.73763 0.601562 9.53711C0.574219 9.32747 0.546875 9.10417 0.519531 8.86719ZM9.06445 6.89844C9.11003 6.90755 9.1556 6.91211 9.20117 6.91211C9.25586 6.91211 9.30599 6.91211 9.35156 6.91211C9.44271 6.91211 9.5293 6.91211 9.61133 6.91211C9.69336 6.90299 9.78451 6.89844 9.88477 6.89844C10.0306 6.89844 10.1764 6.90299 10.3223 6.91211C10.4772 6.92122 10.6094 6.94857 10.7188 6.99414C10.8372 7.03971 10.9329 7.11263 11.0059 7.21289C11.0788 7.30404 11.1152 7.43164 11.1152 7.5957C11.1152 7.70508 11.0651 7.81445 10.9648 7.92383C10.8646 8.0332 10.7279 8.09245 10.5547 8.10156C10.3724 8.08333 10.1901 8.06966 10.0078 8.06055C9.83464 8.05143 9.67057 8.04688 9.51562 8.04688H9.03711C9.01888 8.7487 9.00065 9.35482 8.98242 9.86523C8.97331 10.3757 8.95052 10.7995 8.91406 11.1367C8.89583 11.3464 8.82292 11.4922 8.69531 11.5742C8.56771 11.6654 8.4401 11.7109 8.3125 11.7109C8.15755 11.7109 8.02539 11.6562 7.91602 11.5469C7.80664 11.4375 7.75195 11.278 7.75195 11.0684L7.875 8.60742C7.89323 8.42513 7.9069 8.22461 7.91602 8.00586C7.92513 7.78711 7.92969 7.55013 7.92969 7.29492C7.92969 7.05794 7.92057 6.78906 7.90234 6.48828C7.89323 6.17839 7.875 5.88672 7.84766 5.61328C7.82943 5.33073 7.8112 5.08008 7.79297 4.86133C7.78385 4.64258 7.7793 4.5013 7.7793 4.4375C7.7793 4.10938 7.82943 3.88151 7.92969 3.75391C8.02995 3.6263 8.17578 3.5625 8.36719 3.5625C8.54948 3.5625 8.6862 3.64909 8.77734 3.82227C8.86849 3.98633 8.92773 4.18685 8.95508 4.42383C8.99154 4.65169 9.00977 4.88867 9.00977 5.13477C9.00977 5.37174 9.01432 5.55859 9.02344 5.69531C9.03255 5.91406 9.04167 6.1237 9.05078 6.32422C9.0599 6.52474 9.06445 6.71615 9.06445 6.89844ZM6.41211 4.49219C6.35742 4.48307 6.24805 4.4375 6.08398 4.35547C5.91992 4.27344 5.7513 4.16406 5.57812 4.02734C5.40495 3.89062 5.25 3.73112 5.11328 3.54883C4.98568 3.36654 4.92188 3.17513 4.92188 2.97461C4.92188 2.81055 4.98568 2.66471 5.11328 2.53711C5.25 2.40039 5.40039 2.33203 5.56445 2.33203C5.69206 2.33203 5.80599 2.35938 5.90625 2.41406C6.00651 2.46875 6.08854 2.53711 6.15234 2.61914C6.22526 2.69206 6.27995 2.77409 6.31641 2.86523C6.36198 2.94727 6.39388 3.01562 6.41211 3.07031C6.41211 3.01562 6.43034 2.94727 6.4668 2.86523C6.51237 2.7832 6.56706 2.70573 6.63086 2.63281C6.70378 2.55078 6.79036 2.48242 6.89062 2.42773C6.99089 2.36393 7.10938 2.33203 7.24609 2.33203C7.41016 2.33203 7.56055 2.40039 7.69727 2.53711C7.83398 2.66471 7.90234 2.81055 7.90234 2.97461C7.90234 3.17513 7.83398 3.36654 7.69727 3.54883C7.56966 3.73112 7.41927 3.89062 7.24609 4.02734C7.07292 4.16406 6.9043 4.27344 6.74023 4.35547C6.57617 4.4375 6.4668 4.48307 6.41211 4.49219ZM17.1139 0.855469C17.2233 0.992188 17.3691 1.17904 17.5514 1.41602C17.7337 1.64388 17.9297 1.89453 18.1393 2.16797C18.3489 2.44141 18.5586 2.72396 18.7682 3.01562C18.9778 3.30729 19.1692 3.58529 19.3424 3.84961C19.5156 4.10482 19.6569 4.33724 19.7662 4.54688C19.8756 4.7474 19.9303 4.89323 19.9303 4.98438C19.9303 5.13932 19.903 5.27604 19.8483 5.39453C19.7936 5.51302 19.6386 5.57227 19.3834 5.57227C19.2741 5.57227 19.1692 5.53125 19.069 5.44922C18.9778 5.35807 18.8776 5.23958 18.7682 5.09375C18.6588 4.9388 18.5358 4.75651 18.3991 4.54688C18.2623 4.33724 18.1028 4.11393 17.9205 3.87695C17.6562 3.54883 17.4284 3.26172 17.237 3.01562C17.0547 2.76953 16.8997 2.56901 16.7721 2.41406L15.6647 3.89062C15.5189 4.08203 15.3502 4.32357 15.1588 4.61523C14.9765 4.89779 14.7578 5.23503 14.5026 5.62695C14.4388 5.72721 14.3613 5.80013 14.2702 5.8457C14.1881 5.89128 14.097 5.91406 13.9967 5.91406C13.6777 5.85938 13.5 5.67708 13.4635 5.36719C13.4635 5.23047 13.5136 5.06185 13.6139 4.86133C13.7142 4.66081 13.8372 4.44661 13.983 4.21875C14.138 3.99089 14.3021 3.76302 14.4752 3.53516C14.6484 3.29818 14.8125 3.08398 14.9674 2.89258C15.2409 2.53711 15.4915 2.19531 15.7194 1.86719C15.9564 1.53906 16.1751 1.22917 16.3756 0.9375C16.5032 0.809896 16.6399 0.746094 16.7858 0.746094C16.9043 0.746094 17.0136 0.782552 17.1139 0.855469ZM17.5241 7.75977V7.89648C17.5149 8.05143 17.5149 8.23828 17.5241 8.45703C17.5332 8.67578 17.5241 8.88542 17.4967 9.08594C17.4694 9.28646 17.4147 9.45964 17.3327 9.60547C17.2506 9.74219 17.1185 9.81055 16.9362 9.81055C16.8086 9.81055 16.6718 9.76497 16.526 9.67383C16.3893 9.58268 16.3209 9.43229 16.3209 9.22266C16.3118 8.98568 16.3118 8.76237 16.3209 8.55273C16.3301 8.3431 16.3346 8.14258 16.3346 7.95117V7.77344C15.487 7.76432 14.7304 7.74609 14.0651 7.71875C13.3997 7.69141 12.8073 7.64583 12.2877 7.58203C12.1328 7.57292 12.0052 7.51367 11.9049 7.4043C11.8047 7.29492 11.7545 7.16276 11.7545 7.00781C11.7545 6.86198 11.8001 6.73893 11.8912 6.63867C11.9824 6.5293 12.1009 6.46549 12.2467 6.44727C13.5045 6.58398 14.8398 6.65234 16.2526 6.65234C17.2461 6.65234 18.1393 6.62956 18.9323 6.58398C19.7343 6.53841 20.4407 6.47005 21.0514 6.37891H21.1608C21.3522 6.37891 21.4935 6.42448 21.5846 6.51562C21.6849 6.60677 21.7487 6.70247 21.776 6.80273C21.776 6.99414 21.7396 7.13997 21.6666 7.24023C21.6028 7.34049 21.4752 7.42253 21.2838 7.48633C20.7643 7.55924 20.1901 7.61849 19.5612 7.66406C18.9414 7.70964 18.2623 7.74154 17.5241 7.75977ZM16.7858 10.2344C16.7037 10.2344 16.6263 10.2389 16.5534 10.248C16.4804 10.248 16.4075 10.248 16.3346 10.248C16.0794 10.248 15.847 10.2389 15.6373 10.2207C15.4368 10.1934 15.2454 10.1797 15.0631 10.1797C14.9902 10.1797 14.9492 10.2253 14.9401 10.3164C14.931 10.3984 14.9264 10.4987 14.9264 10.6172C14.9264 11 14.931 11.319 14.9401 11.5742C14.9492 11.8294 14.9629 12.0072 14.9811 12.1074L15.1041 12.1621C15.2955 12.2259 15.5827 12.2897 15.9655 12.3535C16.3483 12.4173 16.8314 12.4492 17.4147 12.4492C17.6426 12.4492 17.8613 12.4401 18.0709 12.4219C18.2806 12.4128 18.4674 12.3945 18.6315 12.3672C18.7955 12.349 18.9232 12.3216 19.0143 12.2852C19.1146 12.2487 19.1647 12.2077 19.1647 12.1621C19.1738 12.1165 19.1784 12.0573 19.1784 11.9844C19.1875 11.9115 19.192 11.8249 19.192 11.7246C19.192 11.6517 19.192 11.556 19.192 11.4375C19.192 11.319 19.1875 11.196 19.1784 11.0684C19.1692 10.9499 19.1601 10.8314 19.151 10.7129C19.1419 10.5944 19.1328 10.4941 19.1237 10.4121C19.0963 10.403 19.0599 10.3984 19.0143 10.3984C18.9778 10.3984 18.9368 10.3939 18.8912 10.3848C18.4355 10.3392 18.0345 10.3073 17.6881 10.2891C17.3418 10.2617 17.041 10.2435 16.7858 10.2344ZM16.8952 9.16797C17.0774 9.16797 17.3327 9.17253 17.6608 9.18164C17.9889 9.18164 18.317 9.19531 18.6452 9.22266C18.9824 9.25 19.2923 9.29102 19.5748 9.3457C19.8574 9.39128 20.0397 9.46419 20.1217 9.56445C20.1673 9.66471 20.1992 9.80599 20.2174 9.98828C20.2448 10.1615 20.263 10.3574 20.2721 10.5762C20.2903 10.7858 20.2995 11.0046 20.2995 11.2324C20.2995 11.4694 20.2995 11.6927 20.2995 11.9023C20.2995 12.276 20.2402 12.5723 20.1217 12.791C20.0032 13.0098 19.8209 13.1738 19.5748 13.2832C19.3287 13.4017 19.0097 13.4746 18.6178 13.502C18.235 13.5384 17.7793 13.5566 17.2506 13.5566C17.1139 13.5566 16.8997 13.5521 16.608 13.543C16.3164 13.5339 16.0065 13.5065 15.6784 13.4609C15.3593 13.4154 15.054 13.347 14.7623 13.2559C14.4798 13.1647 14.2747 13.0371 14.1471 12.873C14.0742 12.7728 14.0149 12.6315 13.9694 12.4492C13.9329 12.276 13.901 12.0755 13.8737 11.8477C13.8554 11.6289 13.8418 11.3919 13.8327 11.1367C13.8235 10.8906 13.819 10.64 13.819 10.3848C13.819 10.2845 13.819 10.1979 13.819 10.125C13.819 10.0521 13.8235 9.97917 13.8327 9.90625V9.79688C13.8327 9.53255 13.8919 9.35482 14.0104 9.26367C14.1289 9.17253 14.3021 9.12695 14.5299 9.12695L16.8952 9.16797ZM24.6438 8.2793C24.6438 8.58008 24.6529 8.85807 24.6712 9.11328C24.6985 9.35938 24.7304 9.5599 24.7669 9.71484C24.9218 9.72396 25.095 9.72852 25.2864 9.72852C25.4778 9.72852 25.6783 9.72852 25.888 9.72852C26.0976 9.72852 26.289 9.72396 26.4622 9.71484C26.6445 9.69661 26.804 9.67839 26.9407 9.66016C26.9498 9.53255 26.9544 9.39128 26.9544 9.23633C26.9544 9.07227 26.9544 8.89909 26.9544 8.7168C26.9453 8.64388 26.9407 8.57552 26.9407 8.51172C26.9407 8.4388 26.9407 8.36589 26.9407 8.29297C26.6308 8.29297 26.2845 8.29297 25.9016 8.29297C25.5279 8.29297 25.1087 8.28841 24.6438 8.2793ZM26.968 7.11719C26.968 7.07161 26.968 7.0306 26.968 6.99414C26.9772 6.94857 26.9817 6.90299 26.9817 6.85742C26.9817 6.81185 26.9772 6.77083 26.968 6.73438C26.968 6.6888 26.968 6.64323 26.968 6.59766V5.58594C27.0227 5.26693 27.2141 5.08464 27.5423 5.03906C27.8157 5.03906 28.0117 5.21224 28.1302 5.55859V8.41602V9.04492C28.1302 9.55534 28.08 9.94271 27.9798 10.207C27.8795 10.4622 27.6927 10.64 27.4192 10.7402C27.1458 10.8405 26.7721 10.8906 26.2981 10.8906C25.8242 10.8906 25.2135 10.8906 24.4661 10.8906C24.2473 10.8815 24.0742 10.7995 23.9466 10.6445C23.8281 10.4805 23.7369 10.2754 23.6731 10.0293C23.6093 9.7832 23.5683 9.50521 23.5501 9.19531C23.5318 8.88542 23.5136 8.56641 23.4954 8.23828L23.4134 6.78906C23.3951 6.54297 23.3906 6.32422 23.3997 6.13281C23.4088 5.94141 23.4088 5.77734 23.3997 5.64062C23.4453 5.45833 23.5136 5.32617 23.6048 5.24414C23.705 5.15299 23.8281 5.09831 23.9739 5.08008C24.138 5.08008 24.261 5.13021 24.343 5.23047C24.4342 5.32161 24.498 5.44466 24.5345 5.59961C24.5709 5.74544 24.5891 5.91862 24.5891 6.11914C24.5891 6.31055 24.5891 6.50651 24.5891 6.70703V7.10352C25.0631 7.11263 25.496 7.11719 25.888 7.11719C26.289 7.11719 26.649 7.11719 26.968 7.11719ZM31.3157 6.89844C31.3613 6.90755 31.4068 6.91211 31.4524 6.91211C31.5071 6.91211 31.5572 6.91211 31.6028 6.91211C31.694 6.91211 31.7805 6.91211 31.8626 6.91211C31.9446 6.90299 32.0358 6.89844 32.136 6.89844C32.2818 6.89844 32.4277 6.90299 32.5735 6.91211C32.7285 6.92122 32.8606 6.94857 32.97 6.99414C33.0885 7.03971 33.1842 7.11263 33.2571 7.21289C33.33 7.30404 33.3665 7.43164 33.3665 7.5957C33.3665 7.70508 33.3164 7.81445 33.2161 7.92383C33.1158 8.0332 32.9791 8.09245 32.8059 8.10156C32.6236 8.08333 32.4414 8.06966 32.2591 8.06055C32.0859 8.05143 31.9218 8.04688 31.7669 8.04688H31.2884C31.2701 8.7487 31.2519 9.35482 31.2337 9.86523C31.2246 10.3757 31.2018 10.7995 31.1653 11.1367C31.1471 11.3464 31.0742 11.4922 30.9466 11.5742C30.819 11.6654 30.6914 11.7109 30.5637 11.7109C30.4088 11.7109 30.2766 11.6562 30.1673 11.5469C30.0579 11.4375 30.0032 11.278 30.0032 11.0684L30.1262 8.60742C30.1445 8.42513 30.1582 8.22461 30.1673 8.00586C30.1764 7.78711 30.1809 7.55013 30.1809 7.29492C30.1809 7.05794 30.1718 6.78906 30.1536 6.48828C30.1445 6.17839 30.1262 5.88672 30.0989 5.61328C30.0807 5.33073 30.0624 5.08008 30.0442 4.86133C30.0351 4.64258 30.0305 4.5013 30.0305 4.4375C30.0305 4.10938 30.0807 3.88151 30.1809 3.75391C30.2812 3.6263 30.427 3.5625 30.6184 3.5625C30.8007 3.5625 30.9374 3.64909 31.0286 3.82227C31.1197 3.98633 31.179 4.18685 31.2063 4.42383C31.2428 4.65169 31.261 4.88867 31.261 5.13477C31.261 5.37174 31.2656 5.55859 31.2747 5.69531C31.2838 5.91406 31.2929 6.1237 31.302 6.32422C31.3111 6.52474 31.3157 6.71615 31.3157 6.89844ZM28.6634 4.49219C28.6087 4.48307 28.4993 4.4375 28.3352 4.35547C28.1712 4.27344 28.0026 4.16406 27.8294 4.02734C27.6562 3.89062 27.5012 3.73112 27.3645 3.54883C27.2369 3.36654 27.1731 3.17513 27.1731 2.97461C27.1731 2.81055 27.2369 2.66471 27.3645 2.53711C27.5012 2.40039 27.6516 2.33203 27.8157 2.33203C27.9433 2.33203 28.0572 2.35938 28.1575 2.41406C28.2578 2.46875 28.3398 2.53711 28.4036 2.61914C28.4765 2.69206 28.5312 2.77409 28.5677 2.86523C28.6132 2.94727 28.6451 3.01562 28.6634 3.07031C28.6634 3.01562 28.6816 2.94727 28.718 2.86523C28.7636 2.7832 28.8183 2.70573 28.8821 2.63281C28.955 2.55078 29.0416 2.48242 29.1419 2.42773C29.2421 2.36393 29.3606 2.33203 29.4973 2.33203C29.6614 2.33203 29.8118 2.40039 29.9485 2.53711C30.0852 2.66471 30.1536 2.81055 30.1536 2.97461C30.1536 3.17513 30.0852 3.36654 29.9485 3.54883C29.8209 3.73112 29.6705 3.89062 29.4973 4.02734C29.3242 4.16406 29.1555 4.27344 28.9915 4.35547C28.8274 4.4375 28.718 4.48307 28.6634 4.49219ZM40.2812 4.66992C40.2265 4.66081 40.0989 4.65169 39.8984 4.64258C39.6978 4.62435 39.4609 4.61068 39.1874 4.60156C38.914 4.58333 38.6178 4.56966 38.2988 4.56055C37.9889 4.54232 37.6926 4.52865 37.4101 4.51953C37.1366 4.5013 36.8905 4.48763 36.6718 4.47852C36.453 4.4694 36.3027 4.46029 36.2206 4.45117C35.9654 4.35091 35.8378 4.18229 35.8378 3.94531C35.8378 3.76302 35.9016 3.62174 36.0292 3.52148C36.1659 3.41211 36.3801 3.35742 36.6718 3.35742C36.9544 3.35742 37.2961 3.36654 37.6972 3.38477C38.0982 3.40299 38.5585 3.42578 39.078 3.45312C40.2812 3.52604 40.9921 3.60807 41.2109 3.69922C41.3476 3.79036 41.4524 3.90885 41.5253 4.05469C41.6073 4.19141 41.662 4.3418 41.6894 4.50586C41.7258 4.66081 41.7441 4.82031 41.7441 4.98438C41.7532 5.13932 41.7577 5.28516 41.7577 5.42188C41.7577 5.69531 41.7532 5.99609 41.7441 6.32422C41.7349 6.64323 41.703 6.94401 41.6484 7.22656C41.6028 7.5 41.5299 7.72786 41.4296 7.91016C41.3385 8.09245 41.2063 8.18359 41.0331 8.18359C40.8964 8.18359 40.7597 8.14258 40.623 8.06055C40.4954 7.9694 40.4224 7.81901 40.4042 7.60938C40.4042 7.48177 40.4133 7.32227 40.4316 7.13086C40.4498 6.93034 40.4726 6.72982 40.4999 6.5293C40.5273 6.31966 40.5501 6.1237 40.5683 5.94141C40.5865 5.75 40.5956 5.59961 40.5956 5.49023C40.5956 5.45378 40.5956 5.39453 40.5956 5.3125C40.6047 5.23047 40.6002 5.14388 40.582 5.05273C40.5637 4.96159 40.5318 4.87956 40.4863 4.80664C40.4407 4.73372 40.3723 4.68815 40.2812 4.66992ZM39.7616 9.53711L39.7343 10.2207C39.7161 10.3757 39.707 10.5625 39.707 10.7812C39.7161 11 39.707 11.2096 39.6796 11.4102C39.6523 11.6107 39.5976 11.7793 39.5155 11.916C39.4426 12.0618 39.315 12.1348 39.1327 12.1348C39.0051 12.1348 38.8684 12.0892 38.7226 11.998C38.5859 11.9069 38.5175 11.7565 38.5175 11.5469C38.5084 11.3099 38.5084 11.0866 38.5175 10.877C38.5266 10.6673 38.5357 10.4668 38.5448 10.2754L38.5585 9.55078C37.72 9.54167 36.968 9.52344 36.3027 9.49609C35.6373 9.46875 35.0494 9.42318 34.539 9.35938C34.384 9.35026 34.2564 9.29102 34.1562 9.18164C34.0559 9.07227 34.0058 8.9401 34.0058 8.78516C34.0058 8.63932 34.0514 8.51628 34.1425 8.41602C34.2336 8.30664 34.3521 8.24284 34.498 8.22461C35.7558 8.36133 37.0911 8.42969 38.5038 8.42969C39.4973 8.42969 40.3905 8.4069 41.1835 8.36133C41.9856 8.31576 42.692 8.2474 43.3027 8.15625H43.412C43.6034 8.15625 43.7447 8.20182 43.8359 8.29297C43.9361 8.38411 43.9999 8.47982 44.0273 8.58008C44.0273 8.77148 43.9908 8.91732 43.9179 9.01758C43.8541 9.11784 43.7265 9.19987 43.5351 9.26367C43.0064 9.33659 42.4277 9.39583 41.7988 9.44141C41.179 9.48698 40.4999 9.51888 39.7616 9.53711ZM46.0611 9.46875C46.0064 9.33203 45.9517 9.14062 45.897 8.89453C45.8423 8.63932 45.7877 8.375 45.733 8.10156C45.6783 7.81901 45.6327 7.54557 45.5962 7.28125C45.5598 7.01693 45.537 6.79818 45.5279 6.625L45.5005 5.76367C45.5097 5.56315 45.578 5.41276 45.7056 5.3125C45.8423 5.20312 45.9699 5.14844 46.0884 5.14844C46.2981 5.14844 46.4439 5.21224 46.5259 5.33984C46.6171 5.46745 46.6763 5.63607 46.7037 5.8457C46.731 6.05534 46.7447 6.29688 46.7447 6.57031C46.7447 6.83464 46.7675 7.10807 46.813 7.39062C46.8404 7.71875 46.886 8.04232 46.9498 8.36133C47.0227 8.67122 47.0865 8.89909 47.1412 9.04492L47.2095 9.16797C47.2186 9.17708 47.2369 9.1862 47.2642 9.19531C47.2916 9.19531 47.3508 9.19531 47.442 9.19531H47.5787H47.7837C47.966 9.19531 48.1802 9.1862 48.4263 9.16797C48.6815 9.14974 48.9276 9.13151 49.1646 9.11328C49.4107 9.08594 49.6295 9.06315 49.8209 9.04492C50.0123 9.01758 50.1444 8.99479 50.2173 8.97656C50.3267 8.94922 50.4315 8.93555 50.5318 8.93555C50.6685 8.93555 50.7916 8.98112 50.9009 9.07227C51.0103 9.1543 51.065 9.28646 51.065 9.46875C51.065 9.6237 51.0285 9.74674 50.9556 9.83789C50.8827 9.92904 50.7688 10.002 50.6138 10.0566C50.468 10.1113 50.2766 10.1569 50.0396 10.1934C49.8026 10.2207 49.5246 10.248 49.2056 10.2754C48.7864 10.321 48.4172 10.3529 48.0982 10.3711C47.7883 10.3802 47.5194 10.3848 47.2916 10.3848C46.9361 10.3848 46.6672 10.3118 46.4849 10.166C46.3026 10.0202 46.1614 9.78776 46.0611 9.46875ZM53.0748 5.92773C53.0565 5.58138 53.0337 5.28516 53.0064 5.03906C52.9791 4.79297 52.9654 4.59245 52.9654 4.4375C52.9654 4.10938 53.0155 3.88151 53.1158 3.75391C53.216 3.6263 53.3619 3.5625 53.5533 3.5625C53.7356 3.5625 53.8723 3.64909 53.9634 3.82227C54.0546 3.98633 54.1138 4.18685 54.1412 4.42383C54.1776 4.65169 54.1959 4.88867 54.1959 5.13477C54.1959 5.37174 54.2004 5.55859 54.2095 5.69531C54.2186 5.93229 54.2278 6.16016 54.2369 6.37891C54.246 6.59766 54.2505 6.81185 54.2505 7.02148C54.2505 7.98763 54.2323 8.8125 54.1959 9.49609C54.1685 10.1797 54.1366 10.7266 54.1002 11.1367C54.0728 11.3464 53.9999 11.4922 53.8814 11.5742C53.7629 11.6654 53.6353 11.7109 53.4986 11.7109C53.3436 11.7109 53.2115 11.6562 53.1021 11.5469C52.9927 11.4375 52.938 11.278 52.938 11.0684L53.0611 8.60742C53.0793 8.42513 53.093 8.22461 53.1021 8.00586C53.1112 7.78711 53.1158 7.55013 53.1158 7.29492C53.1158 6.89388 53.1021 6.43815 53.0748 5.92773ZM51.188 4.49219C51.1334 4.48307 51.024 4.4375 50.8599 4.35547C50.6959 4.27344 50.5272 4.16406 50.3541 4.02734C50.1809 3.89062 50.0259 3.73112 49.8892 3.54883C49.7616 3.36654 49.6978 3.17513 49.6978 2.97461C49.6978 2.81055 49.7616 2.66471 49.8892 2.53711C50.0259 2.40039 50.1763 2.33203 50.3404 2.33203C50.468 2.33203 50.5819 2.35938 50.6822 2.41406C50.7824 2.46875 50.8645 2.53711 50.9283 2.61914C51.0012 2.69206 51.0559 2.77409 51.0923 2.86523C51.1379 2.94727 51.1698 3.01562 51.188 3.07031C51.188 3.01562 51.2063 2.94727 51.2427 2.86523C51.2883 2.7832 51.343 2.70573 51.4068 2.63281C51.4797 2.55078 51.5663 2.48242 51.6666 2.42773C51.7668 2.36393 51.8853 2.33203 52.022 2.33203C52.1861 2.33203 52.3365 2.40039 52.4732 2.53711C52.6099 2.66471 52.6783 2.81055 52.6783 2.97461C52.6783 3.17513 52.6099 3.36654 52.4732 3.54883C52.3456 3.73112 52.1952 3.89062 52.022 4.02734C51.8489 4.16406 51.6802 4.27344 51.5162 4.35547C51.3521 4.4375 51.2427 4.48307 51.188 4.49219ZM56.4211 6.92578C56.412 6.85286 56.3983 6.74805 56.3801 6.61133C56.371 6.46549 56.3664 6.3151 56.3664 6.16016C56.3664 5.97786 56.3846 5.79102 56.4211 5.59961C56.4667 5.39909 56.5396 5.2168 56.6398 5.05273C56.7492 4.88867 56.8951 4.75195 57.0773 4.64258C57.2596 4.5332 57.4966 4.47396 57.7883 4.46484C58.0435 4.45573 58.2896 4.44661 58.5266 4.4375C58.7635 4.42839 58.9732 4.4056 59.1555 4.36914C59.3378 4.32357 59.479 4.25977 59.5793 4.17773C59.6887 4.0957 59.7434 3.97721 59.7434 3.82227C59.7434 3.74935 59.7388 3.68555 59.7297 3.63086C59.7297 3.56706 59.7251 3.51237 59.716 3.4668C59.7069 3.42122 59.7023 3.38021 59.7023 3.34375C59.4654 3.29818 59.2421 3.27083 59.0324 3.26172C58.8319 3.24349 58.6268 3.23438 58.4172 3.23438C58.2805 3.23438 58.1392 3.23893 57.9934 3.24805C57.8475 3.24805 57.6971 3.24805 57.5422 3.24805C57.3052 3.20247 57.1503 3.125 57.0773 3.01562C57.0044 2.90625 56.968 2.7832 56.968 2.64648C56.968 2.50977 57.0181 2.38672 57.1184 2.27734C57.2277 2.15885 57.3781 2.09961 57.5695 2.09961C57.7792 2.09961 57.9523 2.10417 58.0891 2.11328C58.2349 2.1224 58.3443 2.1224 58.4172 2.11328H59.2102C59.6112 2.11328 59.9257 2.16341 60.1535 2.26367C60.3814 2.35482 60.55 2.47331 60.6594 2.61914C60.7779 2.76497 60.8508 2.92904 60.8781 3.11133C60.9055 3.29362 60.9191 3.47135 60.9191 3.64453C60.9191 3.92708 60.91 4.17773 60.8918 4.39648C60.8736 4.61523 60.7915 4.80664 60.6457 4.9707C60.509 5.12565 60.2811 5.25326 59.9621 5.35352C59.6522 5.44466 59.2056 5.50846 58.6223 5.54492C58.4035 5.56315 58.2167 5.57682 58.0617 5.58594C57.9068 5.59505 57.7792 5.61328 57.6789 5.64062C57.5969 5.6862 57.5559 5.94596 57.5559 6.41992C57.5559 6.54753 57.5559 6.6569 57.5559 6.74805C57.565 6.83008 57.5832 6.89844 57.6105 6.95312C57.6379 7.00781 57.6835 7.04883 57.7473 7.07617C57.8202 7.0944 57.9204 7.10352 58.048 7.10352C58.2941 7.10352 58.5904 7.08529 58.9367 7.04883C59.2831 7.00326 59.6158 6.95312 59.9348 6.89844C60.2629 6.84375 60.55 6.79362 60.7961 6.74805C61.0422 6.70247 61.1835 6.67057 61.2199 6.65234C61.3384 6.60677 61.4432 6.58398 61.5344 6.58398C61.6893 6.58398 61.8215 6.63867 61.9309 6.74805C62.0402 6.84831 62.0949 6.98047 62.0949 7.14453C62.0949 7.25391 62.0812 7.35417 62.0539 7.44531C62.0266 7.52734 61.9491 7.60482 61.8215 7.67773C61.6939 7.74154 61.4979 7.80534 61.2336 7.86914C60.9784 7.93294 60.6184 7.99674 60.1535 8.06055C59.1783 8.19727 58.3807 8.26562 57.7609 8.26562C57.3964 8.26562 57.1229 8.19271 56.9406 8.04688C56.7674 7.90104 56.6307 7.66862 56.5305 7.34961C56.5031 7.28581 56.4849 7.24479 56.4758 7.22656C56.4667 7.19922 56.4576 7.18099 56.4484 7.17188C56.4484 7.15365 56.4439 7.13086 56.4348 7.10352C56.4348 7.06706 56.4302 7.00781 56.4211 6.92578ZM64.7473 4.57422C64.7928 4.58333 64.8384 4.58789 64.884 4.58789C64.9296 4.58789 64.9751 4.58789 65.0207 4.58789C65.1118 4.58789 65.1984 4.58789 65.2805 4.58789C65.3716 4.57878 65.4673 4.57422 65.5676 4.57422C65.7134 4.57422 65.8592 4.57878 66.0051 4.58789C66.16 4.59701 66.2922 4.62435 66.4016 4.66992C66.5201 4.71549 66.6158 4.78841 66.6887 4.88867C66.7616 4.97982 66.798 5.10742 66.798 5.27148C66.798 5.38086 66.7479 5.49023 66.6477 5.59961C66.5474 5.70898 66.4107 5.76823 66.2375 5.77734C66.0552 5.75911 65.8729 5.74544 65.6906 5.73633C65.5174 5.72721 65.3534 5.72266 65.1984 5.72266H64.7336C64.7245 6.04167 64.7154 6.35156 64.7062 6.65234C64.7062 6.94401 64.6835 7.20833 64.6379 7.44531C64.6014 7.67318 64.5376 7.86003 64.4465 8.00586C64.3553 8.14258 64.2141 8.21094 64.0227 8.21094C63.8677 8.21094 63.7355 8.15625 63.6262 8.04688C63.5168 7.9375 63.4621 7.77799 63.4621 7.56836L63.5715 5.68164C63.5897 5.50846 63.6034 5.33984 63.6125 5.17578C63.6216 5.0026 63.6262 4.82487 63.6262 4.64258C63.6262 4.4056 63.6171 4.15951 63.5988 3.9043C63.5806 3.63997 63.5624 3.38932 63.5441 3.15234C63.5259 2.91536 63.5077 2.70573 63.4895 2.52344C63.4712 2.34115 63.4621 2.20443 63.4621 2.11328C63.4621 1.78516 63.5122 1.55729 63.6125 1.42969C63.7128 1.30208 63.8586 1.23828 64.05 1.23828C64.2323 1.23828 64.369 1.32487 64.4602 1.49805C64.5513 1.66211 64.6105 1.85807 64.6379 2.08594C64.6743 2.30469 64.6926 2.53255 64.6926 2.76953C64.7017 2.9974 64.7062 3.17969 64.7062 3.31641L64.7473 4.57422ZM60.3996 12.0664C60.0897 11.9935 59.8527 11.8704 59.6887 11.6973C59.5337 11.5332 59.4198 11.3281 59.3469 11.082C59.2831 10.8359 59.2421 10.5534 59.2238 10.2344C59.2056 9.91536 59.1874 9.56445 59.1691 9.18164C59.1965 8.99935 59.2648 8.86263 59.3742 8.77148C59.4927 8.67122 59.6203 8.62109 59.757 8.62109C59.8937 8.62109 60.0077 8.67122 60.0988 8.77148C60.1991 8.86263 60.2766 8.98568 60.3312 9.14062L60.4133 10.4668C60.4224 10.6309 60.4953 10.7585 60.632 10.8496C60.7779 10.9316 60.9465 10.9909 61.1379 11.0273C61.3384 11.0638 61.548 11.082 61.7668 11.082C61.9855 11.0911 62.1861 11.0957 62.3684 11.0957C62.8332 11.0957 63.2707 11.0638 63.6809 11C64.091 10.9362 64.4556 10.8405 64.7746 10.7129C64.8293 10.6947 64.8794 10.681 64.925 10.6719C64.9797 10.6628 65.0298 10.6582 65.0754 10.6582C65.2577 10.6582 65.3944 10.7266 65.4855 10.8633C65.5858 10.9909 65.6359 11.1367 65.6359 11.3008C65.6359 11.4648 65.5402 11.6061 65.3488 11.7246C65.1665 11.8431 64.9159 11.9434 64.5969 12.0254C64.287 12.1074 63.9224 12.1667 63.5031 12.2031C63.093 12.2396 62.66 12.2578 62.2043 12.2578C61.8853 12.2578 61.5754 12.2441 61.2746 12.2168C60.9738 12.1895 60.6822 12.1393 60.3996 12.0664ZM69.119 4.20508C69.1463 4.25977 69.1646 4.31445 69.1737 4.36914C69.1828 4.41471 69.1873 4.46029 69.1873 4.50586C69.1873 4.68815 69.1235 4.82943 68.9959 4.92969C68.8683 5.02083 68.7362 5.06641 68.5995 5.06641C68.4536 5.06641 68.3306 5.02995 68.2303 4.95703C68.1301 4.875 68.048 4.7793 67.9842 4.66992C67.9204 4.56055 67.8748 4.44661 67.8475 4.32812C67.8202 4.20052 67.8065 4.09115 67.8065 4C67.8065 3.78125 67.8703 3.57617 67.9979 3.38477C68.1255 3.18424 68.2896 3.01107 68.4901 2.86523C68.6997 2.7194 68.9367 2.60547 69.201 2.52344C69.4745 2.44141 69.757 2.40039 70.0487 2.40039C70.2948 2.40039 70.5454 2.44141 70.8006 2.52344C71.0558 2.59635 71.2883 2.71029 71.4979 2.86523C71.7075 3.02018 71.8761 3.21615 72.0038 3.45312C72.1405 3.6901 72.2088 3.9681 72.2088 4.28711C72.2088 4.55143 72.1541 4.79753 72.0448 5.02539C71.9445 5.24414 71.8123 5.45378 71.6483 5.6543C71.4842 5.85482 71.3019 6.04622 71.1014 6.22852C70.91 6.41081 70.7186 6.59766 70.5272 6.78906C70.4269 6.88932 70.3267 6.97135 70.2264 7.03516L70.1991 7.0625C70.1991 7.10807 70.1945 7.16732 70.1854 7.24023C70.1854 7.30404 70.1854 7.3724 70.1854 7.44531C70.2127 7.66406 70.231 7.89193 70.2401 8.12891C70.2583 8.35677 70.272 8.59375 70.2811 8.83984C70.2446 9.06771 70.1626 9.23177 70.035 9.33203C69.9165 9.42318 69.7798 9.46875 69.6248 9.46875C69.4972 9.46875 69.3742 9.41862 69.2557 9.31836C69.1372 9.20898 69.078 9.06315 69.078 8.88086C69.078 8.67122 69.0552 8.42969 69.0096 8.15625C68.964 7.88281 68.9413 7.60026 68.9413 7.30859C68.9413 7.08073 68.9732 6.88021 69.037 6.70703C69.1008 6.53385 69.1919 6.37891 69.3104 6.24219C69.4289 6.09635 69.5656 5.96419 69.7206 5.8457C69.8755 5.7181 70.0441 5.58594 70.2264 5.44922C70.4543 5.27604 70.6366 5.10286 70.7733 4.92969C70.9191 4.7474 70.992 4.53776 70.992 4.30078C70.992 4.05469 70.9054 3.87695 70.7323 3.76758C70.5682 3.64909 70.3722 3.58984 70.1444 3.58984C69.9256 3.58984 69.7069 3.63542 69.4881 3.72656C69.2785 3.80859 69.1235 3.89974 69.0233 4C69.0233 4.02734 69.0552 4.0957 69.119 4.20508ZM69.6932 10.2207H69.7616C69.8709 10.2207 69.9666 10.248 70.0487 10.3027L70.1034 10.3574C70.2583 10.4486 70.3859 10.5944 70.4862 10.7949C70.5956 10.9954 70.6502 11.2005 70.6502 11.4102C70.6502 11.6562 70.5682 11.8796 70.4041 12.0801C70.2401 12.2897 69.9621 12.3945 69.5702 12.3945C69.2511 12.3945 69.0142 12.3079 68.8592 12.1348C68.7134 11.9707 68.6405 11.7474 68.6405 11.4648C68.6405 11.3281 68.6633 11.1914 68.7088 11.0547C68.7544 10.918 68.8182 10.7949 68.9002 10.6855C68.9914 10.5671 69.1008 10.4668 69.2284 10.3848C69.3651 10.3027 69.52 10.248 69.6932 10.2207Z" fill="#717D96"/>
</svg>
