<svg width="281" height="61" viewBox="0 0 281 61" fill="none" xmlns="http://www.w3.org/2000/svg">
<path d="M11.9998 26C12.552 26 12.9998 26.4477 12.9998 27V31C12.9998 31.5523 12.552 32 11.9998 32C11.4475 32 10.9998 31.5523 10.9998 31V27C10.9998 26.4477 11.4475 26 11.9998 26Z" fill="#2D3648"/>
<path d="M11.9998 34C11.4475 34 10.9998 34.4477 10.9998 35C10.9998 35.5523 11.4475 36 11.9998 36H12.0098C12.562 36 13.0098 35.5523 13.0098 35C13.0098 34.4477 12.562 34 12.0098 34H11.9998Z" fill="#2D3648"/>
<path fill-rule="evenodd" clip-rule="evenodd" d="M10.528 20.2831C10.9773 20.0302 11.4842 19.8973 11.9998 19.8973C12.5154 19.8973 13.0223 20.0302 13.4716 20.2831C13.9209 20.5361 14.2974 20.9006 14.5648 21.3414L14.5677 21.3461L23.0376 35.4862L23.0458 35.5C23.3077 35.9536 23.4463 36.4679 23.4478 36.9917C23.4493 37.5156 23.3135 38.0307 23.0541 38.4858C22.7947 38.9408 22.4207 39.3201 21.9692 39.5857C21.5177 39.8514 21.0046 39.9942 20.4808 40L20.4698 40.0001L3.51879 40C2.99498 39.9943 2.48182 39.8514 2.03035 39.5857C1.57887 39.3201 1.20483 38.9408 0.945426 38.4858C0.686022 38.0307 0.550303 37.5156 0.55177 36.9917C0.553236 36.4679 0.691839 35.9536 0.953786 35.5L0.961909 35.4862L9.43191 21.3462L10.2898 21.86L9.43478 21.3414C9.70218 20.9006 10.0787 20.5361 10.528 20.2831ZM11.146 22.3767L2.68246 36.5058C2.59729 36.6556 2.55224 36.8249 2.55176 36.9973C2.55127 37.172 2.59651 37.3436 2.68298 37.4953C2.76945 37.647 2.89413 37.7735 3.04462 37.862C3.1938 37.9498 3.36317 37.9973 3.53617 38H20.4634C20.6364 37.9973 20.8058 37.9498 20.9549 37.862C21.1054 37.7735 21.2301 37.647 21.3166 37.4953C21.403 37.3436 21.4483 37.172 21.4478 36.9973C21.4473 36.825 21.4023 36.6557 21.3171 36.5059L12.8548 22.3786L12.8536 22.3767C12.7645 22.2306 12.6395 22.1098 12.4904 22.0259C12.3406 21.9416 12.1716 21.8973 11.9998 21.8973C11.8279 21.8973 11.6589 21.9416 11.5092 22.0259C11.3601 22.1098 11.235 22.2306 11.146 22.3767Z" fill="#2D3648"/>
<path d="M43.2347 5.60418L52.6857 5.62949L52.6833 6.50049L43.2324 6.47518L43.2347 5.60418ZM42.6719 11.8817L53.3189 11.9102L53.3165 12.7942L42.6695 12.7657L42.6719 11.8817ZM47.428 12.6094L48.507 12.6123L48.4978 16.0443L47.4188 16.0414L47.428 12.6094ZM47.9885 7.16392C50.3805 7.17032 51.7957 7.87612 51.7923 9.13711C51.7889 10.3851 50.37 11.0963 47.978 11.0899C45.573 11.0835 44.158 10.3647 44.1613 9.11668C44.1647 7.85568 45.5836 7.15748 47.9885 7.16392ZM47.9863 7.99591C46.2703 7.99132 45.2813 8.39167 45.2793 9.11967C45.2774 9.84767 46.2643 10.2533 47.9803 10.2579C49.6963 10.2625 50.6853 9.86215 50.6873 9.13415C50.6892 8.40615 49.7023 8.00051 47.9863 7.99591ZM47.4505 4.21147L48.5294 4.21436L48.5241 6.20335L47.4451 6.20046L47.4505 4.21147ZM63.0752 4.31831L64.1542 4.3212L64.1227 16.0732L63.0437 16.0703L63.0752 4.31831ZM59.6268 5.57008L60.6928 5.57293C60.6837 8.97892 59.1418 11.9518 55.2106 13.8653L54.6409 12.9928C58.0383 11.3638 59.618 8.87207 59.6264 5.75208L59.6268 5.57008ZM55.1939 5.55821L60.0948 5.57133L60.0925 6.45533L55.1915 6.4422L55.1939 5.55821ZM72.7467 5.35821L73.6307 5.36058L73.625 7.46657C73.6181 10.0666 72.2073 12.5978 70.3457 13.5808L69.685 12.721C71.3903 11.8676 72.7353 9.60919 72.7411 7.4642L72.7467 5.35821ZM72.9417 5.35873L73.8127 5.36106L73.807 7.46706C73.8015 9.53405 75.1088 11.6826 76.7705 12.519L76.1052 13.3752C74.2879 12.3954 72.9293 9.98671 72.9361 7.46472L72.9417 5.35873ZM77.8194 4.35779L78.9114 4.36071L78.8799 16.1127L77.7879 16.1097L77.8194 4.35779ZM78.6386 9.118L80.8226 9.12385L80.8202 10.0338L78.6362 10.028L78.6386 9.118ZM84.8219 5.66354L85.7189 5.66595L85.7157 6.86194C85.7099 9.01993 84.3791 10.8234 82.4012 11.5331L81.8445 10.6736C83.6141 10.0543 84.8142 8.53653 84.8187 6.85954L84.8219 5.66354ZM85.0299 5.6641L85.9269 5.6665L85.9237 6.8625C85.9194 8.44849 87.1376 9.88176 88.878 10.4714L88.3168 11.3149C86.3686 10.6467 85.0212 8.92709 85.0267 6.8601L85.0299 5.6641ZM82.1447 5.34437L88.5797 5.36161L88.5774 6.2326L82.1424 6.21537L82.1447 5.34437ZM90.2463 4.40407L91.3383 4.40699L91.3153 13L90.2233 12.997L90.2463 4.40407ZM83.7569 14.9817L91.6609 15.0029L91.6586 15.8869L83.7546 15.8657L83.7569 14.9817ZM83.7645 12.1737L84.8305 12.1766L84.8219 15.3746L83.7559 15.3717L83.7645 12.1737ZM98.2801 8.9756L100.503 8.98155L100.501 9.87854L98.2777 9.87259L98.2801 8.9756ZM102.478 4.42382L103.518 4.42661L103.487 16.1786L102.447 16.1758L102.478 4.42382ZM100.151 4.66459L101.178 4.66734L101.148 15.5873L100.121 15.5845L100.151 4.66459ZM96.1707 5.38193C97.6917 5.38601 98.6755 6.96165 98.6687 9.48364C98.662 12.0056 97.6697 13.576 96.1487 13.5719C94.6278 13.5678 93.657 11.9922 93.6637 9.47024C93.6705 6.94824 94.6497 5.37786 96.1707 5.38193ZM96.168 6.38293C95.245 6.38046 94.6568 7.57489 94.6517 9.47288C94.6466 11.3709 95.2284 12.5684 96.1514 12.5709C97.0874 12.5734 97.6756 11.379 97.6807 9.48099C97.6858 7.583 97.104 6.38544 96.168 6.38293ZM117.469 4.46396L118.548 4.46685L118.532 10.4468L117.453 10.4439L117.469 4.46396ZM114.693 7.05654L117.969 7.06531L117.967 7.94931L114.691 7.94054L114.693 7.05654ZM112.086 4.83955C113.841 4.84425 115.112 5.93966 115.108 7.52565C115.104 9.08565 113.827 10.1872 112.072 10.1825C110.317 10.1778 109.046 9.06942 109.05 7.50943C109.055 5.92344 110.331 4.83485 112.086 4.83955ZM112.084 5.73655C110.94 5.73348 110.093 6.47222 110.09 7.51222C110.087 8.55221 110.93 9.29547 112.074 9.29854C113.218 9.3016 114.065 8.56286 114.068 7.52287C114.071 6.48287 113.228 5.73961 112.084 5.73655ZM110.965 11.0636L118.531 11.0838L118.523 13.9178L112.036 13.9004L112.031 15.6684L110.978 15.6656L110.985 13.0916L117.459 13.109L117.462 11.939L110.962 11.9216L110.965 11.0636ZM110.98 15.1846L118.949 15.206L118.946 16.064L110.977 16.0426L110.98 15.1846ZM122.069 4.94428L129.635 4.96454L129.633 5.83554L122.067 5.81528L122.069 4.94428ZM120.707 8.71065L131.354 8.73916L131.352 9.61016L120.705 9.58165L120.707 8.71065ZM125.464 9.17839L126.543 9.18128L126.537 11.5083L125.458 11.5054L125.464 9.17839ZM128.933 4.96266L129.986 4.96548L129.984 5.71948C129.982 6.56448 129.979 7.65647 129.663 9.08563L128.61 8.96581C128.926 7.53665 128.929 6.53566 128.931 5.71666L128.933 4.96266ZM121.949 11.08L130.009 11.1016L130.001 13.9616L123.046 13.9429L123.042 15.5419L121.963 15.539L121.969 13.16L128.937 13.1787L128.94 11.9697L121.946 11.951L121.949 11.08ZM121.964 15.227L130.297 15.2494L130.294 16.1203L121.961 16.098L121.964 15.227ZM134.494 13.955L134.419 14.4534C134.366 14.8041 134.285 15.1793 134.176 15.5791C134.07 15.9789 133.96 16.3557 133.845 16.7093C133.73 17.0629 133.636 17.3443 133.561 17.5533L132.73 17.5511C132.771 17.3543 132.824 17.0943 132.889 16.7714C132.955 16.4484 133.02 16.0869 133.086 15.687C133.155 15.2902 133.211 14.8841 133.256 14.4687L133.312 13.9518L134.494 13.955ZM144.359 9.17699L146.582 9.18294L146.579 10.0669L144.356 10.061L144.359 9.17699ZM141.971 7.53259L142.803 7.53481L142.801 8.14581C142.795 10.4858 141.814 12.8492 140.095 13.8716L139.46 13.0509C141.049 12.1321 141.964 10.0676 141.969 8.14358L141.971 7.53259ZM142.166 7.53311L142.998 7.53534L142.996 8.14633C142.991 10.0183 143.922 11.9578 145.506 12.8201L144.893 13.6244C143.166 12.6578 142.158 10.4321 142.164 8.14411L142.166 7.53311ZM139.802 6.68178L145.171 6.69615L145.169 7.59315L139.8 7.57877L139.802 6.68178ZM141.978 4.94559L143.018 4.94838L143.012 7.37937L141.972 7.37659L141.978 4.94559ZM148.518 4.54711L149.558 4.54989L149.527 16.3018L148.487 16.2991L148.518 4.54711ZM146.164 4.8138L147.178 4.81652L147.149 15.6975L146.135 15.6948L146.164 4.8138ZM158.013 7.39354L160.405 7.39995L160.402 8.28394L158.01 8.27754L158.013 7.39354ZM157.993 9.6815L160.385 9.6879L160.383 10.5719L157.991 10.5655L157.993 9.6815ZM151.426 5.8419L158.004 5.85951L158.001 6.73051L151.423 6.71289L151.426 5.8419ZM154.75 7.3328C156.323 7.33702 157.399 8.1979 157.396 9.5109C157.392 10.8239 156.311 11.692 154.738 11.6878C153.165 11.6836 152.075 10.8097 152.079 9.49666C152.082 8.18366 153.177 7.32859 154.75 7.3328ZM154.747 8.1648C153.759 8.16215 153.095 8.68038 153.093 9.49937C153.091 10.3184 153.752 10.8531 154.74 10.8558C155.715 10.8584 156.393 10.3272 156.395 9.50822C156.397 8.68922 155.722 8.16741 154.747 8.1648ZM154.224 4.45839L155.303 4.46128L155.298 6.46327L154.219 6.46038L154.224 4.45839ZM159.996 4.57784L161.075 4.58073L161.055 12.1727L159.976 12.1698L159.996 4.57784ZM157.206 12.2794C159.637 12.2859 161.117 13.0309 161.114 14.3049C161.111 15.5789 159.627 16.3029 157.196 16.2964C154.752 16.2898 153.285 15.5579 153.288 14.2839C153.291 13.0099 154.762 12.2729 157.206 12.2794ZM157.204 13.1374C155.475 13.1328 154.408 13.5329 154.406 14.2869C154.404 15.0279 155.469 15.4598 157.198 15.4644C158.927 15.469 159.994 15.0429 159.996 14.3019C159.998 13.5479 158.933 13.142 157.204 13.1374ZM166.756 10.186L177.377 10.2144L177.375 11.1114L166.754 11.083L166.756 10.186ZM168.101 8.20056L176.148 8.22211L176.145 9.0931L168.098 9.07155L168.101 8.20056ZM168.109 5.06757L176.065 5.08887L176.063 5.97287L169.173 5.95442L169.166 8.61941L168.1 8.61656L168.109 5.06757ZM172.042 12.1111C174.551 12.1178 176.07 12.8889 176.066 14.2409C176.063 15.5929 174.54 16.3428 172.031 16.3361C169.522 16.3294 168.003 15.5713 168.007 14.2193C168.01 12.8673 169.533 12.1044 172.042 12.1111ZM172.04 12.9431C170.207 12.9382 169.101 13.4033 169.098 14.2223C169.096 15.0282 170.2 15.4862 172.033 15.4911C173.879 15.4961 174.972 15.044 174.974 14.238C174.977 13.419 173.886 12.9481 172.04 12.9431ZM183.139 5.18582L186.246 5.19414L186.244 6.07813L183.137 6.06981L183.139 5.18582ZM185.869 5.19313L186.909 5.19591L186.908 5.54691C186.906 6.24891 186.902 7.7049 186.351 9.70543L185.298 9.57261C185.863 7.59812 185.866 6.25912 185.868 5.54413L185.869 5.19313ZM187.78 5.19824L190.952 5.20674L190.95 6.09074L187.778 6.08224L187.78 5.19824ZM190.458 5.20542L191.498 5.2082L191.497 5.6892C191.495 6.4562 191.491 7.83419 191.018 9.76993L189.965 9.62411C190.451 7.72741 190.455 6.45341 190.457 5.68641L190.458 5.20542ZM182.101 9.25205L192.761 9.2806L192.759 10.1516L182.099 10.123L182.101 9.25205ZM186.87 9.94083L187.936 9.94368L187.929 12.5177L186.863 12.5148L186.87 9.94083ZM183.432 12.1026L191.388 12.1239L191.377 16.2579L183.421 16.2366L183.432 12.1026ZM190.333 12.9921L184.483 12.9764L184.477 15.3554L190.327 15.3711L190.333 12.9921ZM193.927 10.3757L204.548 10.4042L204.546 11.3012L193.925 11.2727L193.927 10.3757ZM198.696 11.0775L199.762 11.0804L199.748 16.4363L198.682 16.4335L198.696 11.0775ZM194.798 5.49004L197.905 5.49836L197.903 6.36936L194.796 6.36104L194.798 5.49004ZM197.541 5.49738L198.594 5.5002L198.593 5.8902C198.591 6.6832 198.587 8.36019 197.943 10.7765L196.877 10.6046C197.534 8.30537 197.538 6.70638 197.54 5.88738L197.541 5.49738ZM199.452 5.5025L202.767 5.51138L202.765 6.38238L199.45 6.3735L199.452 5.5025ZM202.312 5.51016L203.365 5.51298L203.364 6.04598C203.361 6.92997 203.357 8.50297 202.844 10.7766L201.778 10.6177C202.304 8.43515 202.308 6.92715 202.311 6.04316L202.312 5.51016ZM206.444 5.84623L211.852 5.86071L211.832 13.5177L206.424 13.5032L206.444 5.84623ZM210.797 6.72889L207.495 6.72004L207.479 12.635L210.781 12.6439L210.797 6.72889ZM214.312 4.71029L215.391 4.71318L215.36 16.4911L214.281 16.4882L214.312 4.71029ZM225.556 4.7404L226.648 4.74332L226.617 16.5083L225.525 16.5054L225.556 4.7404ZM226.336 9.51351L228.507 9.51932L228.505 10.4163L226.334 10.4105L226.336 9.51351ZM222.55 6.00635L223.603 6.00917C223.594 9.35016 222.052 12.362 218.251 14.2629L217.655 13.4293C220.909 11.787 222.541 9.28234 222.549 6.17535L222.55 6.00635ZM218.221 5.99476L223.109 6.00785L223.107 6.89185L218.219 6.87876L218.221 5.99476ZM234.323 8.71589L242.37 8.73744L242.368 9.62144L234.321 9.59989L234.323 8.71589ZM232.951 11.3642L243.598 11.3927L243.595 12.2767L232.948 12.2482L232.951 11.3642ZM237.695 11.8579L238.76 11.8608L238.748 16.5408L237.682 16.5379L237.695 11.8579ZM234.332 5.3619L235.411 5.36479L235.401 9.16078L234.322 9.15789L234.332 5.3619ZM246.148 5.43254L253.649 5.45263L253.646 6.32363L246.145 6.30354L246.148 5.43254ZM244.784 9.97891L255.43 10.0074L255.428 10.8784L244.781 10.8499L244.784 9.97891ZM249.605 10.5248L250.684 10.5277L250.676 13.6997L249.597 13.6968L249.605 10.5248ZM253.012 5.45092L254.065 5.45374L254.062 6.38974C254.059 7.45574 254.056 8.70373 253.661 10.4707L252.609 10.3249C253.003 8.63591 253.006 7.42692 253.009 6.38692L253.012 5.45092ZM246.108 15.4165L254.272 15.4383L254.27 16.3223L246.106 16.3005L246.108 15.4165ZM246.115 12.6345L247.194 12.6374L247.186 15.6534L246.107 15.6505L246.115 12.6345ZM259.729 6.52191L260.6 6.52425L260.595 8.43524C260.588 10.9182 259.086 13.4102 257.212 14.3282L256.59 13.4685C258.295 12.6671 259.718 10.4609 259.724 8.43291L259.729 6.52191ZM259.937 6.52247L260.808 6.5248L260.803 8.4358C260.797 10.4248 262.209 12.4566 263.936 13.2022L263.323 14.0586C261.427 13.1695 259.925 10.8775 259.932 8.43346L259.937 6.52247ZM257 6.03361L263.565 6.05119L263.563 6.96118L256.998 6.9436L257 6.03361ZM265.154 4.85944L266.233 4.86233L266.202 16.6143L265.123 16.6114L265.154 4.85944ZM42.6091 30.4646L53.2301 30.493L53.2277 31.377L42.6068 31.3486L42.6091 30.4646ZM43.7868 32.4698L51.8597 32.4914L51.8502 36.0404L50.7712 36.0375L50.7784 33.3725L43.7844 33.3538L43.7868 32.4698ZM44.0183 28.5314L51.9873 28.5527L51.985 29.3977L44.0161 29.3764L44.0183 28.5314ZM44.0289 24.5794L51.9459 24.6006L51.9436 25.4456L45.0926 25.4272L45.0833 28.9242L44.0173 28.9214L44.0289 24.5794ZM44.7777 26.5314L51.6287 26.5497L51.6265 27.3687L44.7755 27.3504L44.7777 26.5314ZM60.7255 27.3541L63.3775 27.3612L63.3751 28.2582L60.7231 28.2511L60.7255 27.3541ZM63.0477 24.3183L64.1266 24.3212L64.1079 31.3282L63.0289 31.3253L63.0477 24.3183ZM60.246 31.6688C62.6639 31.6753 64.1568 32.4983 64.1531 33.8763C64.1493 35.2673 62.6522 36.0563 60.2342 36.0498C57.8032 36.0433 56.3104 35.2463 56.3141 33.8553C56.3178 32.4773 57.815 31.6623 60.246 31.6688ZM60.2437 32.5138C58.4757 32.5091 57.3954 33.0002 57.3931 33.8582C57.3908 34.7032 58.4685 35.2001 60.2365 35.2048C62.0045 35.2096 63.0848 34.7184 63.0871 33.8734C63.0894 33.0154 62.0117 32.5186 60.2437 32.5138ZM57.4545 25.4863L58.3385 25.4887L58.336 26.4377C58.3301 28.6087 56.9992 30.4641 55.0472 31.1869L54.4905 30.3274C56.2342 29.6951 57.4474 28.1253 57.452 26.4353L57.4545 25.4863ZM57.6625 25.4869L58.5335 25.4892L58.531 26.4382C58.5269 27.9592 59.667 29.4183 61.3684 30.0208L60.8201 30.8774C58.9109 30.1832 57.6547 28.4119 57.66 26.4359L57.6625 25.4869ZM54.8294 25.1543L61.1084 25.1711L61.106 26.0551L54.827 26.0383L54.8294 25.1543ZM74.3307 24.3095L75.4097 24.3124L75.3923 30.7994L74.3133 30.7965L74.3307 24.3095ZM74.9471 27.1322L77.1441 27.1381L77.1417 28.0481L74.9447 28.0422L74.9471 27.1322ZM67.9287 31.3774L75.3907 31.3974L75.3837 34.0234L69.0137 34.0063L69.0099 35.4363L67.9439 35.4335L67.9498 33.2235L74.3328 33.2406L74.3355 32.2136L67.9266 32.1964L67.9287 31.3774ZM67.9447 35.1215L75.8097 35.1425L75.8075 35.9745L67.9425 35.9535L67.9447 35.1215ZM66.3198 25.3801L73.2618 25.3987L73.2595 26.2437L66.3175 26.2251L66.3198 25.3801ZM69.7871 26.7544C71.4771 26.7589 72.5931 27.5029 72.5899 28.6989C72.5868 29.8819 71.4668 30.6069 69.7768 30.6023C68.0608 30.5978 66.9578 29.8668 66.961 28.6838C66.9642 27.4878 68.0711 26.7498 69.7871 26.7544ZM69.785 27.5474C68.693 27.5444 67.9898 27.9846 67.988 28.6865C67.9861 29.3755 68.6869 29.8194 69.7789 29.8223C70.8579 29.8252 71.5611 29.3851 71.5629 28.6961C71.5648 27.9941 70.864 27.5502 69.785 27.5474ZM69.248 24.2049L70.327 24.2078L70.3222 25.9758L69.2432 25.9729L69.248 24.2049ZM86.3957 24.7968L87.3447 24.7994L87.3429 25.4494C87.3369 27.6984 85.0446 29.3042 82.5995 29.7137L82.1728 28.8415C84.3187 28.5223 86.3894 27.1238 86.3939 25.4468L86.3957 24.7968ZM86.5907 24.7973L87.5267 24.7999L87.5249 25.4499C87.5205 27.0878 89.6097 28.5364 91.7278 28.8671L91.2965 29.737C88.8796 29.3145 86.583 27.6703 86.5889 25.4473L86.5907 24.7973ZM86.3773 31.6608L87.4433 31.6637L87.4313 36.1356L86.3653 36.1328L86.3773 31.6608ZM81.6341 30.9851L92.255 31.0135L92.2526 31.9105L81.6317 31.8821L81.6341 30.9851ZM99.9126 31.645L100.745 31.6473L100.743 32.2843C100.739 33.8183 99.7727 35.3627 98.0809 36.0082L97.5371 35.2007C99.0205 34.6717 99.9079 33.413 99.9109 32.282L99.9126 31.645ZM100.147 31.6457L100.953 31.6478L100.951 32.2848C100.948 33.4678 101.646 34.7307 103.049 35.3065L102.592 36.1242C100.903 35.4567 100.141 33.8427 100.145 32.2827L100.147 31.6457ZM104.255 31.6567L105.061 31.6588L105.059 32.2958C105.055 33.6738 104.271 35.4137 102.592 36.1242L102.139 35.304C103.532 34.6708 104.25 33.3077 104.253 32.2937L104.255 31.6567ZM104.476 31.6573L105.308 31.6595L105.306 32.2965C105.303 33.5055 106.17 34.7168 107.664 35.2278L107.116 36.0324C105.402 35.4038 104.47 33.9193 104.474 32.2943L104.476 31.6573ZM105.548 24.4451L106.64 24.448L106.622 31.156L105.53 31.1531L105.548 24.4451ZM100.333 25.1072C102.114 25.1119 103.385 26.2333 103.381 27.8583C103.376 29.4833 102.099 30.5849 100.318 30.5801C98.5375 30.5754 97.2534 29.4669 97.2578 27.8419C97.2621 26.2169 98.5521 25.1024 100.333 25.1072ZM100.331 26.0041C99.1607 26.001 98.3137 26.7527 98.3108 27.8447C98.3079 28.9367 99.1509 29.68 100.321 29.6831C101.491 29.6863 102.338 28.9475 102.341 27.8555C102.344 26.7635 101.501 26.0073 100.331 26.0041ZM110.256 27.9677L118.238 27.9891L118.236 28.8731L110.254 28.8517L110.256 27.9677ZM108.807 30.4209L119.467 30.4494L119.465 31.3334L108.805 31.3049L108.807 30.4209ZM110.265 24.8737L111.331 24.8766L111.321 28.4126L110.255 28.4097L110.265 24.8737ZM110.16 35.0265L118.285 35.0483L118.282 35.9323L110.157 35.9105L110.16 35.0265ZM110.166 32.4785L111.232 32.4814L111.225 35.2634L110.159 35.2605L110.166 32.4785ZM126.775 30.534L127.841 30.5368L127.831 34.0598L126.765 34.057L126.775 30.534ZM131.117 30.5456L132.196 30.5485L132.186 34.0715L131.107 34.0686L131.117 30.5456ZM124.166 33.842L134.813 33.8705L134.811 34.7675L124.164 34.739L124.166 33.842ZM129.493 25.2372C131.976 25.2439 133.754 26.4316 133.749 28.2776C133.744 30.1106 131.96 31.2889 129.477 31.2822C126.981 31.2755 125.203 30.0878 125.208 28.2548C125.213 26.4088 126.997 25.2306 129.493 25.2372ZM129.491 26.0952C127.606 26.0902 126.252 26.9446 126.248 28.2576C126.245 29.5576 127.594 30.4192 129.479 30.4242C131.364 30.4293 132.705 29.5749 132.709 28.2749C132.712 26.9619 131.376 26.1003 129.491 26.0952ZM135.995 33.8477L146.642 33.8762L146.64 34.7732L135.993 34.7447L135.995 33.8477ZM140.735 31.0134L141.801 31.0162L141.792 34.1622L140.726 34.1593L140.735 31.0134ZM140.724 25.3063L141.66 25.3088L141.657 26.2188C141.651 28.7278 139.241 30.6584 136.873 31.146L136.421 30.2478C138.489 29.8763 140.716 28.1533 140.722 26.2163L140.724 25.3063ZM140.919 25.3068L141.855 25.3093L141.852 26.2193C141.847 28.1693 144.079 29.8913 146.145 30.2738L145.674 31.1696C143.31 30.6693 140.91 28.7258 140.917 26.2168L140.919 25.3068ZM155.792 24.5537L156.884 24.5566L156.852 36.3215L155.76 36.3186L155.792 24.5537ZM156.572 29.3268L158.743 29.3326L158.741 30.2296L156.57 30.2238L156.572 29.3268ZM152.786 25.8196L153.839 25.8224C153.83 29.1634 152.288 32.1753 148.486 34.0761L147.891 33.2425C151.145 31.6002 152.777 29.0956 152.785 25.9886L152.786 25.8196ZM148.457 25.808L153.345 25.8211L153.342 26.7051L148.454 26.692L148.457 25.808ZM163.179 33.9855L173.826 34.014L173.824 34.911L163.177 34.8825L163.179 33.9855ZM167.932 30.9562L169.011 30.9591L169.002 34.4041L167.923 34.4012L167.932 30.9562ZM164.124 25.707L172.847 25.7303L172.845 26.6143L164.122 26.591L164.124 25.707ZM164.137 30.439L172.821 30.4623L172.819 31.3333L164.135 31.31L164.137 30.439ZM165.955 26.4269L167.034 26.4298L167.023 30.6028L165.944 30.5999L165.955 26.4269ZM169.959 26.4376L171.025 26.4405L171.014 30.6134L169.948 30.6106L169.959 26.4376ZM183.067 24.6397L184.146 24.6426L184.127 31.7146L183.048 31.7117L183.067 24.6397ZM183.839 27.7618L185.88 27.7672L185.877 28.6642L183.836 28.6588L183.839 27.7618ZM176.741 32.3578L184.125 32.3776L184.115 36.2385L176.731 36.2188L176.741 32.3578ZM183.07 33.2457L177.792 33.2316L177.786 35.3506L183.064 35.3647L183.07 33.2457ZM175.056 25.8532L181.998 25.8718L181.995 26.7558L175.053 26.7372L175.056 25.8532ZM178.523 27.3185C180.2 27.323 181.329 28.1581 181.325 29.432C181.322 30.706 180.189 31.509 178.512 31.5045C176.822 31.5 175.693 30.691 175.696 29.417C175.7 28.143 176.833 27.314 178.523 27.3185ZM178.521 28.1505C177.442 28.1476 176.725 28.6397 176.723 29.4197C176.721 30.1867 177.435 30.6826 178.514 30.6855C179.567 30.6883 180.296 30.1963 180.298 29.4293C180.3 28.6493 179.574 28.1534 178.521 28.1505ZM177.984 24.5221L179.063 24.525L179.059 26.319L177.98 26.3161L177.984 24.5221ZM187.772 29.7093L193.79 29.7254L193.788 30.6094L187.769 30.5933L187.772 29.7093ZM190.175 30.4177L191.267 30.4207L191.259 33.1247L190.167 33.1217L190.175 30.4177ZM187.782 25.7573L193.736 25.7733L193.734 26.6573L188.859 26.6442L188.85 30.0242L187.771 30.0213L187.782 25.7573ZM195.351 24.6596L196.43 24.6625L196.399 36.4404L195.32 36.4375L195.351 24.6596ZM187.045 33.8674L186.892 32.97C189.193 32.9631 192.079 32.9449 194.563 32.6525L194.651 33.4587C192.076 33.8419 189.268 33.8863 187.045 33.8674ZM204.314 26.7636L207.603 26.7724L207.601 27.6564L204.312 27.6476L204.314 26.7636ZM204.308 29.2726L207.623 29.2815L207.62 30.1785L204.305 30.1696L204.308 29.2726ZM199.221 25.697L204.59 25.7113L204.575 31.2233L199.207 31.2089L199.221 25.697ZM203.522 26.5795L200.272 26.5708L200.262 30.3408L203.512 30.3495L203.522 26.5795ZM207.271 24.7175L208.35 24.7204L208.327 33.3004L207.248 33.2975L207.271 24.7175ZM200.769 35.2951L208.608 35.3161L208.605 36.2001L200.766 36.1791L200.769 35.2951ZM200.776 32.5001L201.855 32.503L201.846 35.701L200.767 35.6981L200.776 32.5001ZM214.589 26.0631L224.04 26.0884L224.037 26.9594L214.586 26.9341L214.589 26.0631ZM214.026 32.3406L224.673 32.3691L224.67 33.2531L214.023 33.2246L214.026 32.3406ZM218.782 33.0684L219.861 33.0713L219.852 36.5032L218.773 36.5003L218.782 33.0684ZM219.342 27.6228C221.734 27.6292 223.15 28.335 223.146 29.596C223.143 30.844 221.724 31.5552 219.332 31.5488C216.927 31.5424 215.512 30.8236 215.515 29.5756C215.519 28.3146 216.937 27.6164 219.342 27.6228ZM219.34 28.4548C217.624 28.4502 216.635 28.8506 216.633 29.5786C216.631 30.3066 217.618 30.7122 219.334 30.7168C221.05 30.7214 222.039 30.3211 222.041 29.5931C222.043 28.8651 221.056 28.4594 219.34 28.4548ZM218.804 24.6704L219.883 24.6733L219.878 26.6623L218.799 26.6594L218.804 24.6704ZM234.429 24.7772L235.508 24.7801L235.477 36.5321L234.398 36.5292L234.429 24.7772ZM230.981 26.029L232.047 26.0319C232.038 29.4378 230.496 32.4107 226.564 34.3242L225.995 33.4517C229.392 31.8228 230.972 29.331 230.98 26.211L230.981 26.029ZM226.548 26.0171L231.449 26.0303L231.446 26.9143L226.545 26.9011L226.548 26.0171ZM244.113 26.0122L244.997 26.0145L244.995 26.9635C244.989 29.1215 243.684 30.912 241.719 31.6088L241.149 30.7622C242.932 30.143 244.106 28.6382 244.111 26.9612L244.113 26.0122ZM244.308 26.0127L245.192 26.0151L245.19 26.9511C245.185 28.511 246.312 29.9571 248.04 30.5467L247.479 31.3902C245.543 30.709 244.3 28.9767 244.306 26.9487L244.308 26.0127ZM241.501 25.6152L247.78 25.632L247.778 26.516L241.499 26.4992L241.501 25.6152ZM249.264 24.817L250.343 24.8198L250.324 31.8918L249.245 31.8889L249.264 24.817ZM250.036 27.913L252.077 27.9185L252.075 28.8155L250.034 28.81L250.036 27.913ZM242.692 32.4954L250.323 32.5158L250.312 36.5718L249.233 36.5689L249.241 33.4099L242.689 33.3924L242.692 32.4954ZM256.008 25.498L256.905 25.5004L256.902 26.7094C256.896 28.9844 255.604 30.84 253.587 31.5886L253.031 30.7031C254.826 30.0709 256 28.501 256.005 26.707L256.008 25.498ZM256.203 25.4985L257.087 25.5009L257.084 26.6709C257.08 28.3349 258.22 29.807 259.934 30.4096L259.347 31.253C257.451 30.5329 256.195 28.8005 256.2 26.6685L256.203 25.4985ZM261.639 24.8501L262.718 24.853L262.7 31.808L261.621 31.8051L261.639 24.8501ZM258.838 32.1356C261.256 32.1421 262.748 32.9651 262.745 34.3691C262.741 35.7731 261.244 36.5751 258.826 36.5686C256.395 36.5621 254.902 35.7521 254.906 34.3481C254.91 32.9441 256.407 32.1291 258.838 32.1356ZM258.835 32.9936C257.067 32.9889 255.987 33.493 255.985 34.351C255.982 35.209 257.06 35.7189 258.828 35.7236C260.596 35.7283 261.676 35.2242 261.679 34.3662C261.681 33.5082 260.603 32.9984 258.835 32.9936ZM259.085 27.3263L261.867 27.3337L261.864 28.2307L259.082 28.2233L259.085 27.3263ZM273.416 24.8686L274.495 24.8715L274.464 36.6495L273.385 36.6466L273.416 24.8686ZM268.292 25.7649C270.034 25.7696 271.277 27.3719 271.271 29.8679C271.264 32.3769 270.012 33.9725 268.27 33.9679C266.541 33.9633 265.297 32.3609 265.304 29.8519C265.31 27.3559 266.563 25.7603 268.292 25.7649ZM268.289 26.7399C267.145 26.7368 266.336 27.9567 266.331 29.8547C266.326 31.7657 267.128 33.0158 268.272 33.0189C269.429 33.022 270.226 31.7761 270.231 29.8651C270.236 27.9671 269.446 26.743 268.289 26.7399ZM50.6191 44.2981L51.6981 44.301L51.675 52.92L50.596 52.9171L50.6191 44.2981ZM51.3506 47.8491L53.4306 47.8546L53.4282 48.7516L51.3482 48.7461L51.3506 47.8491ZM44.3508 54.8763L52.2027 54.8974L52.2004 55.7814L44.3484 55.7603L44.3508 54.8763ZM44.3583 52.0684L45.4373 52.0712L45.4292 55.0872L44.3502 55.0843L44.3583 52.0684ZM43.0639 45.1099L44.1299 45.1127L44.1247 47.0757L47.4396 47.0846L47.4449 45.1216L48.4979 45.1244L48.4823 50.9484L43.0483 50.9338L43.0639 45.1099ZM44.1224 47.9207L44.1167 50.0657L47.4316 50.0746L47.4374 47.9296L44.1224 47.9207ZM62.9941 44.3052L64.0731 44.3081L64.0416 56.0861L62.9626 56.0832L62.9941 44.3052ZM60.6729 46.99L63.2729 46.997L63.2706 47.881L60.6706 47.874L60.6729 46.99ZM54.8214 52.4214L55.6924 52.4237C57.5124 52.4286 59.0075 52.3806 60.8023 52.0994L60.9038 52.9967C59.0571 53.2777 57.5489 53.3387 55.6899 53.3337L54.8189 53.3314L54.8214 52.4214ZM54.8143 45.3493L59.9493 45.3631L59.938 49.5751L55.895 49.5642L55.8868 52.6322L54.8208 52.6294L54.8314 48.6774L58.8744 48.6882L58.8809 46.2572L54.8119 46.2463L54.8143 45.3493ZM60.5863 50.2008L63.1863 50.2078L63.184 51.0918L60.584 51.0848L60.5863 50.2008ZM67.3528 47.4109L72.9948 47.426L72.9926 48.258L67.3506 48.2429L67.3528 47.4109ZM67.3597 44.8239L72.8717 44.8387L72.8695 45.6837L68.4625 45.6719L68.4568 47.7909L67.3518 47.7879L67.3597 44.8239ZM69.6006 47.8849L70.6795 47.8878L70.6743 49.8508L69.5953 49.8479L69.6006 47.8849ZM74.797 44.3498L75.876 44.3527L75.8591 50.6707L74.7801 50.6678L74.797 44.3498ZM66.4349 50.3725L66.2942 49.5141C68.5692 49.5072 71.4423 49.4629 73.8741 49.1964L73.937 49.9506C71.4401 50.3079 68.6449 50.3784 66.4349 50.3725ZM68.1097 51.183L75.8577 51.2037L75.8503 53.9467L69.1814 53.9288L69.1773 55.4368L68.1113 55.434L68.1176 53.107L74.7995 53.1249L74.8024 52.0589L68.1074 52.041L68.1097 51.183ZM68.1122 55.096L76.2502 55.1178L76.2479 55.9758L68.1099 55.954L68.1122 55.096ZM86.3421 44.7968L87.2911 44.7993L87.2894 45.4493C87.2834 47.6983 84.991 49.3042 82.5459 49.7136L82.1193 48.8415C84.2651 48.5222 86.3359 47.1237 86.3404 45.4468L86.3421 44.7968ZM86.5371 44.7973L87.4731 44.7998L87.4714 45.4498C87.467 47.0878 89.5561 48.5364 91.6742 48.867L91.2429 49.7369C88.826 49.3144 86.5294 47.6703 86.5354 45.4473L86.5371 44.7973ZM86.3237 51.6607L87.3897 51.6636L87.3778 56.1356L86.3118 56.1327L86.3237 51.6607ZM81.5805 50.985L92.2015 51.0135L92.1991 51.9105L81.5781 51.882L81.5805 50.985ZM99.8591 51.645L100.691 51.6472L100.689 52.2842C100.685 53.8182 99.7191 55.3626 98.0274 56.0081L97.4835 55.2006C98.967 54.6716 99.8543 53.413 99.8574 52.282L99.8591 51.645ZM100.093 51.6456L100.899 51.6478L100.897 52.2848C100.894 53.4678 101.593 54.7306 102.995 55.3064L102.538 56.1242C100.85 55.4566 100.087 53.8426 100.091 52.2826L100.093 51.6456ZM104.201 51.6566L105.007 51.6588L105.005 52.2958C105.002 53.6738 104.217 55.4137 102.538 56.1242L102.085 55.304C103.478 54.6707 104.197 53.3076 104.199 52.2936L104.201 51.6566ZM104.422 51.6572L105.254 51.6594L105.252 52.2964C105.249 53.5054 106.117 54.7167 107.61 55.2277L107.062 56.0323C105.348 55.4037 104.416 53.9192 104.42 52.2942L104.422 51.6572ZM105.494 44.445L106.586 44.448L106.568 51.1559L105.476 51.153L105.494 44.445ZM100.28 45.1071C102.061 45.1118 103.332 46.2333 103.327 47.8582C103.323 49.4832 102.046 50.5848 100.265 50.5801C98.4839 50.5753 97.1999 49.4668 97.2042 47.8419C97.2086 46.2169 98.4986 45.1023 100.28 45.1071ZM100.277 46.0041C99.1072 46.0009 98.2602 46.7527 98.2572 47.8447C98.2543 48.9367 99.0973 49.6799 100.267 49.6831C101.437 49.6862 102.284 48.9475 102.287 47.8555C102.29 46.7635 101.447 46.0072 100.277 46.0041ZM110.203 47.9677L118.185 47.989L118.183 48.873L110.201 48.8517L110.203 47.9677ZM108.753 50.4208L119.413 50.4493L119.411 51.3333L108.751 51.3048L108.753 50.4208ZM110.211 44.8737L111.277 44.8765L111.268 48.4125L110.202 48.4097L110.211 44.8737ZM110.106 55.0264L118.231 55.0482L118.229 55.9322L110.104 55.9104L110.106 55.0264ZM110.113 52.4784L111.179 52.4813L111.171 55.2633L110.105 55.2604L110.113 52.4784ZM130.396 47.4367L133.009 47.4437L133.006 48.3407L130.393 48.3337L130.396 47.4367ZM132.718 44.5049L133.797 44.5078L133.778 51.3848L132.699 51.3819L132.718 44.5049ZM126.159 51.9364L133.777 51.9568L133.765 56.1038L126.147 56.0834L126.159 51.9364ZM132.721 52.812L127.209 52.7972L127.203 55.2152L132.715 55.23L132.721 52.812ZM127.125 45.608L128.009 45.6103L128.006 46.5593C128 48.7043 126.669 50.5338 124.704 51.2565L124.148 50.397C125.904 49.7777 127.118 48.221 127.122 46.557L127.125 45.608ZM127.333 45.6085L128.204 45.6109L128.201 46.5469C128.197 48.0678 129.337 49.5399 131.038 50.1425L130.49 50.999C128.581 50.3049 127.325 48.5205 127.33 46.5445L127.333 45.6085ZM124.5 45.2369L130.779 45.2538L130.776 46.1247L124.497 46.1079L124.5 45.2369ZM144.196 45.6927L145.132 45.6952L145.13 46.1892C145.125 48.2952 142.885 49.8362 140.517 50.2328L140.104 49.3737C142.172 49.0803 144.19 47.7337 144.194 46.1867L144.196 45.6927ZM144.469 45.6934L145.392 45.6959L145.39 46.1899C145.386 47.7369 147.411 49.0943 149.464 49.3988L149.058 50.2557C146.68 49.8463 144.462 48.2934 144.467 46.1874L144.469 45.6934ZM144.218 51.8028L145.284 51.8056L145.272 56.2906L144.206 56.2877L144.218 51.8028ZM139.475 51.2181L150.096 51.2465L150.093 52.1305L139.472 52.1021L139.475 51.2181ZM140.479 45.2537L149.085 45.2768L149.082 46.1478L140.476 46.1247L140.479 45.2537ZM155.128 45.41C156.961 45.4149 158.271 46.5494 158.267 48.1874C158.263 49.8384 156.947 50.9658 155.114 50.9609C153.281 50.956 151.958 49.8215 151.962 48.1705C151.966 46.5325 153.295 45.405 155.128 45.41ZM155.126 46.346C153.904 46.3427 153.018 47.0813 153.015 48.1733C153.012 49.2653 153.894 50.0217 155.116 50.0249C156.325 50.0282 157.211 49.2765 157.214 48.1845C157.217 47.0926 156.335 46.3492 155.126 46.346ZM159.811 44.5645L160.89 44.5674L160.858 56.3453L159.779 56.3424L159.811 44.5645ZM151.505 53.7463L151.351 52.8489C153.496 52.8546 156.46 52.8495 159.023 52.4534L159.111 53.2466C156.471 53.7466 153.598 53.7519 151.505 53.7463ZM174.62 44.6171L175.712 44.6201L175.68 56.372L174.588 56.3691L174.62 44.6171ZM175.439 49.2344L177.623 49.2402L177.621 50.1632L175.437 50.1574L175.439 49.2344ZM167.129 45.5851L168.195 45.5879L168.187 48.6949L171.541 48.7039L171.549 45.5969L172.615 45.5998L172.594 53.5428L167.108 53.5281L167.129 45.5851ZM168.185 49.5529L168.176 52.6469L171.53 52.6559L171.539 49.5619L168.185 49.5529ZM186.54 44.6621L187.619 44.665L187.601 51.1389L186.522 51.136L186.54 44.6621ZM187.286 47.4851L189.353 47.4906L189.351 48.3876L187.284 48.3821L187.286 47.4851ZM180.216 51.6522L181.269 51.655L181.265 53.072L186.53 53.0861L186.534 51.6691L187.6 51.6719L187.588 56.2479L180.204 56.2281L180.216 51.6522ZM181.263 53.93L181.259 55.347L186.524 55.3611L186.528 53.9441L181.263 53.93ZM178.999 49.9589L179.922 49.9614C182.054 49.9671 183.575 49.9061 185.409 49.5861L185.497 50.4833C183.637 50.7903 182.09 50.8512 179.919 50.8454L178.996 50.8429L178.999 49.9589ZM178.985 45.2008L184.276 45.215L184.268 48.374L180.056 48.3627L180.05 50.5077L178.997 50.5049L179.005 47.5279L183.204 47.5391L183.208 46.0961L178.983 46.0848L178.985 45.2008ZM198.876 44.6821L199.955 44.685L199.923 56.4369L198.844 56.4341L198.876 44.6821ZM191.073 45.8052L192.139 45.8081L192.119 53.088L191.053 53.0852L191.073 45.8052ZM191.055 52.4482L192.017 52.4508C193.798 52.4555 195.657 52.3305 197.647 51.9198L197.775 52.8432C195.733 53.2537 193.873 53.3917 192.014 53.3868L191.052 53.3842L191.055 52.4482ZM210.107 44.6992L211.199 44.7021L211.167 56.4801L210.075 56.4771L210.107 44.6992ZM210.926 49.3424L213.11 49.3482L213.108 50.2582L210.924 50.2524L210.926 49.3424ZM202.636 52.6222L203.559 52.6247C205.73 52.6305 207.252 52.5566 209.007 52.2363L209.122 53.1466C207.314 53.4797 205.767 53.5406 203.557 53.5347L202.634 53.5322L202.636 52.6222ZM202.655 45.8232L208.115 45.8378L208.112 46.7218L203.718 46.7101L203.701 53.0281L202.635 53.0252L202.655 45.8232ZM215.105 55.5375C214.877 55.5369 214.682 55.4548 214.519 55.2912C214.357 55.1277 214.276 54.932 214.276 54.7043C214.277 54.4765 214.359 54.2813 214.522 54.1186C214.686 53.956 214.882 53.8749 215.109 53.8755C215.337 53.8761 215.532 53.9582 215.695 54.1218C215.858 54.2853 215.939 54.481 215.938 54.7087C215.938 54.8595 215.899 54.9979 215.822 55.1239C215.747 55.2499 215.647 55.3512 215.521 55.4278C215.397 55.5013 215.259 55.5379 215.105 55.5375Z" fill="#2D3648"/>
</svg>
