<svg width="184" height="24" viewBox="0 0 184 24" fill="none" xmlns="http://www.w3.org/2000/svg">
<path d="M22.9746 7.87891C22.7832 7.86979 22.6419 7.80599 22.5508 7.6875C22.4688 7.5599 22.4277 7.43685 22.4277 7.31836C22.4277 7.19076 22.4779 7.07227 22.5781 6.96289C22.6784 6.8444 22.8105 6.78516 22.9746 6.78516C23.5306 6.78516 23.9909 6.8125 24.3555 6.86719C24.7292 6.91276 25.0254 6.99023 25.2441 7.09961C25.472 7.20898 25.6315 7.3457 25.7227 7.50977C25.8229 7.67383 25.873 7.86979 25.873 8.09766C25.873 8.29818 25.8594 8.5306 25.832 8.79492C25.8138 9.05924 25.7819 9.37826 25.7363 9.75195C25.7181 9.89779 25.6999 10.0436 25.6816 10.1895C25.6725 10.3353 25.6452 10.472 25.5996 10.5996C25.5632 10.7181 25.4993 10.8229 25.4082 10.9141C25.3262 11.0052 25.2077 11.069 25.0527 11.1055H25.0254C24.6882 11.1055 24.5013 10.9368 24.4648 10.5996V10.5312C24.4648 10.5221 24.4603 10.513 24.4512 10.5039C24.4512 10.4948 24.4512 10.4811 24.4512 10.4629C24.4512 10.2624 24.474 10.0391 24.5195 9.79297C24.5742 9.53776 24.6152 9.29622 24.6426 9.06836C24.6608 8.77669 24.6699 8.54883 24.6699 8.38477C24.679 8.2207 24.6882 8.12044 24.6973 8.08398C24.4876 8.0293 24.2233 7.98372 23.9043 7.94727C23.5853 7.90169 23.2754 7.87891 22.9746 7.87891ZM19.0098 8.15234C18.8184 8.14323 18.6771 8.07943 18.5859 7.96094C18.5039 7.83333 18.4629 7.71029 18.4629 7.5918C18.4629 7.46419 18.513 7.3457 18.6133 7.23633C18.7135 7.11784 18.8457 7.05859 19.0098 7.05859C19.5475 7.05859 19.9987 7.08594 20.3633 7.14062C20.737 7.1862 21.0378 7.26367 21.2656 7.37305C21.4935 7.47331 21.6576 7.60547 21.7578 7.76953C21.8581 7.92448 21.9082 8.11133 21.9082 8.33008C21.9082 8.40299 21.9036 8.48047 21.8945 8.5625C21.8945 8.64453 21.8854 8.74023 21.8672 8.84961C21.8581 8.95898 21.8444 9.08659 21.8262 9.23242C21.8079 9.37826 21.7897 9.55143 21.7715 9.75195C21.7533 9.89779 21.735 10.0436 21.7168 10.1895C21.7077 10.3353 21.6803 10.472 21.6348 10.5996C21.5983 10.7181 21.5345 10.8229 21.4434 10.9141C21.3613 11.0052 21.2428 11.069 21.0879 11.1055H21.0605C20.7233 11.1055 20.5365 10.9368 20.5 10.5996V10.5312C20.5 10.5221 20.4954 10.513 20.4863 10.5039C20.4863 10.4948 20.4863 10.4811 20.4863 10.4629C20.4863 10.2624 20.5137 10.0391 20.5684 9.79297C20.623 9.54688 20.6595 9.30534 20.6777 9.06836C20.696 8.85872 20.7051 8.69922 20.7051 8.58984C20.7051 8.47135 20.7142 8.39388 20.7324 8.35742C20.5228 8.30273 20.2585 8.25716 19.9395 8.2207C19.6204 8.17513 19.3105 8.15234 19.0098 8.15234ZM23.3984 12.7598V12.8965C23.3893 13.0514 23.3893 13.2383 23.3984 13.457C23.4076 13.6758 23.3984 13.8854 23.3711 14.0859C23.3438 14.2865 23.2891 14.4596 23.207 14.6055C23.125 14.7422 22.9928 14.8105 22.8105 14.8105C22.6829 14.8105 22.5462 14.765 22.4004 14.6738C22.2637 14.5827 22.1953 14.4323 22.1953 14.2227C22.1862 13.9857 22.1862 13.7624 22.1953 13.5527C22.2044 13.3431 22.209 13.1426 22.209 12.9512V12.7734C21.3613 12.7643 20.6048 12.7461 19.9395 12.7188C19.2741 12.6914 18.6816 12.6458 18.1621 12.582C18.0072 12.5729 17.8796 12.5137 17.7793 12.4043C17.679 12.2949 17.6289 12.1628 17.6289 12.0078C17.6289 11.862 17.6745 11.7389 17.7656 11.6387C17.8568 11.5293 17.9753 11.4655 18.1211 11.4473C19.3789 11.584 20.7142 11.6523 22.127 11.6523C23.1204 11.6523 24.0137 11.6296 24.8066 11.584C25.6087 11.5384 26.3151 11.4701 26.9258 11.3789H27.0352C27.2266 11.3789 27.3678 11.4245 27.459 11.5156C27.5592 11.6068 27.623 11.7025 27.6504 11.8027C27.6504 11.9941 27.6139 12.14 27.541 12.2402C27.4772 12.3405 27.3496 12.4225 27.1582 12.4863C26.6387 12.5592 26.0645 12.6185 25.4355 12.6641C24.8158 12.7096 24.1367 12.7415 23.3984 12.7598ZM22.6602 15.2344C22.5781 15.2344 22.5007 15.2389 22.4277 15.248C22.3548 15.248 22.2819 15.248 22.209 15.248C21.9538 15.248 21.7214 15.2389 21.5117 15.2207C21.3112 15.1934 21.1198 15.1797 20.9375 15.1797C20.8646 15.1797 20.8236 15.2253 20.8145 15.3164C20.8053 15.3984 20.8008 15.4987 20.8008 15.6172C20.8008 16 20.8053 16.319 20.8145 16.5742C20.8236 16.8294 20.8372 17.0072 20.8555 17.1074L20.9785 17.1621C21.1699 17.2259 21.457 17.2897 21.8398 17.3535C22.2227 17.4173 22.7057 17.4492 23.2891 17.4492C23.5169 17.4492 23.7357 17.4401 23.9453 17.4219C24.1549 17.4128 24.3418 17.3945 24.5059 17.3672C24.6699 17.349 24.7975 17.3216 24.8887 17.2852C24.9889 17.2487 25.0391 17.2077 25.0391 17.1621C25.0482 17.1165 25.0527 17.0573 25.0527 16.9844C25.0618 16.9115 25.0664 16.8249 25.0664 16.7246C25.0664 16.6517 25.0664 16.556 25.0664 16.4375C25.0664 16.319 25.0618 16.196 25.0527 16.0684C25.0436 15.9499 25.0345 15.8314 25.0254 15.7129C25.0163 15.5944 25.0072 15.4941 24.998 15.4121C24.9707 15.403 24.9342 15.3984 24.8887 15.3984C24.8522 15.3984 24.8112 15.3939 24.7656 15.3848C24.3099 15.3392 23.9089 15.3073 23.5625 15.2891C23.2161 15.2617 22.9154 15.2435 22.6602 15.2344ZM22.7695 14.168C22.9518 14.168 23.207 14.1725 23.5352 14.1816C23.8633 14.1816 24.1914 14.1953 24.5195 14.2227C24.8568 14.25 25.1667 14.291 25.4492 14.3457C25.7318 14.3913 25.9141 14.4642 25.9961 14.5645C26.0417 14.6647 26.0736 14.806 26.0918 14.9883C26.1191 15.1615 26.1374 15.3574 26.1465 15.5762C26.1647 15.7858 26.1738 16.0046 26.1738 16.2324C26.1738 16.4694 26.1738 16.6927 26.1738 16.9023C26.1738 17.276 26.1146 17.5723 25.9961 17.791C25.8776 18.0098 25.6953 18.1738 25.4492 18.2832C25.2031 18.4017 24.8841 18.4746 24.4922 18.502C24.1094 18.5384 23.6536 18.5566 23.125 18.5566C22.9883 18.5566 22.7741 18.5521 22.4824 18.543C22.1908 18.5339 21.8809 18.5065 21.5527 18.4609C21.2337 18.4154 20.9284 18.347 20.6367 18.2559C20.3542 18.1647 20.1491 18.0371 20.0215 17.873C19.9486 17.7728 19.8893 17.6315 19.8438 17.4492C19.8073 17.276 19.7754 17.0755 19.748 16.8477C19.7298 16.6289 19.7161 16.3919 19.707 16.1367C19.6979 15.8906 19.6934 15.64 19.6934 15.3848C19.6934 15.2845 19.6934 15.1979 19.6934 15.125C19.6934 15.0521 19.6979 14.9792 19.707 14.9062V14.7969C19.707 14.5326 19.7663 14.3548 19.8848 14.2637C20.0033 14.1725 20.1764 14.127 20.4043 14.127L22.7695 14.168ZM30.5182 13.2793C30.5182 13.5801 30.5273 13.8581 30.5455 14.1133C30.5729 14.3594 30.6048 14.5599 30.6412 14.7148C30.7962 14.724 30.9694 14.7285 31.1608 14.7285C31.3522 14.7285 31.5527 14.7285 31.7623 14.7285C31.972 14.7285 32.1634 14.724 32.3366 14.7148C32.5189 14.6966 32.6784 14.6784 32.8151 14.6602C32.8242 14.5326 32.8287 14.3913 32.8287 14.2363C32.8287 14.0723 32.8287 13.8991 32.8287 13.7168C32.8196 13.6439 32.8151 13.5755 32.8151 13.5117C32.8151 13.4388 32.8151 13.3659 32.8151 13.293C32.5052 13.293 32.1588 13.293 31.776 13.293C31.4023 13.293 30.983 13.2884 30.5182 13.2793ZM32.8424 12.1172C32.8424 12.0716 32.8424 12.0306 32.8424 11.9941C32.8515 11.9486 32.8561 11.903 32.8561 11.8574C32.8561 11.8118 32.8515 11.7708 32.8424 11.7344C32.8424 11.6888 32.8424 11.6432 32.8424 11.5977V10.5859C32.8971 10.2669 33.0885 10.0846 33.4166 10.0391C33.6901 10.0391 33.886 10.2122 34.0045 10.5586V13.416V14.0449C34.0045 14.5553 33.9544 14.9427 33.8541 15.207C33.7539 15.4622 33.567 15.64 33.2936 15.7402C33.0202 15.8405 32.6465 15.8906 32.1725 15.8906C31.6985 15.8906 31.0879 15.8906 30.3405 15.8906C30.1217 15.8815 29.9485 15.7995 29.8209 15.6445C29.7024 15.4805 29.6113 15.2754 29.5475 15.0293C29.4837 14.7832 29.4427 14.5052 29.4245 14.1953C29.4062 13.8854 29.388 13.5664 29.3698 13.2383L29.2877 11.7891C29.2695 11.543 29.2649 11.3242 29.2741 11.1328C29.2832 10.9414 29.2832 10.7773 29.2741 10.6406C29.3196 10.4583 29.388 10.3262 29.4791 10.2441C29.5794 10.153 29.7024 10.0983 29.8483 10.0801C30.0123 10.0801 30.1354 10.1302 30.2174 10.2305C30.3086 10.3216 30.3724 10.4447 30.4088 10.5996C30.4453 10.7454 30.4635 10.9186 30.4635 11.1191C30.4635 11.3105 30.4635 11.5065 30.4635 11.707V12.1035C30.9375 12.1126 31.3704 12.1172 31.7623 12.1172C32.1634 12.1172 32.5234 12.1172 32.8424 12.1172ZM37.1901 11.8984C37.2357 11.9076 37.2812 11.9121 37.3268 11.9121C37.3815 11.9121 37.4316 11.9121 37.4772 11.9121C37.5683 11.9121 37.6549 11.9121 37.737 11.9121C37.819 11.903 37.9101 11.8984 38.0104 11.8984C38.1562 11.8984 38.3021 11.903 38.4479 11.9121C38.6028 11.9212 38.735 11.9486 38.8444 11.9941C38.9629 12.0397 39.0586 12.1126 39.1315 12.2129C39.2044 12.304 39.2409 12.4316 39.2409 12.5957C39.2409 12.7051 39.1907 12.8145 39.0905 12.9238C38.9902 13.0332 38.8535 13.0924 38.6803 13.1016C38.498 13.0833 38.3157 13.0697 38.1334 13.0605C37.9603 13.0514 37.7962 13.0469 37.6412 13.0469H37.1627C37.1445 13.7487 37.1263 14.3548 37.108 14.8652C37.0989 15.3757 37.0761 15.7995 37.0397 16.1367C37.0215 16.3464 36.9485 16.4922 36.8209 16.5742C36.6933 16.6654 36.5657 16.7109 36.4381 16.7109C36.2832 16.7109 36.151 16.6562 36.0416 16.5469C35.9323 16.4375 35.8776 16.278 35.8776 16.0684L36.0006 13.6074C36.0189 13.4251 36.0325 13.2246 36.0416 13.0059C36.0508 12.7871 36.0553 12.5501 36.0553 12.2949C36.0553 12.0579 36.0462 11.7891 36.028 11.4883C36.0189 11.1784 36.0006 10.8867 35.9733 10.6133C35.9551 10.3307 35.9368 10.0801 35.9186 9.86133C35.9095 9.64258 35.9049 9.5013 35.9049 9.4375C35.9049 9.10938 35.9551 8.88151 36.0553 8.75391C36.1556 8.6263 36.3014 8.5625 36.4928 8.5625C36.6751 8.5625 36.8118 8.64909 36.903 8.82227C36.9941 8.98633 37.0534 9.18685 37.0807 9.42383C37.1172 9.65169 37.1354 9.88867 37.1354 10.1348C37.1354 10.3717 37.1399 10.5586 37.1491 10.6953C37.1582 10.9141 37.1673 11.1237 37.1764 11.3242C37.1855 11.5247 37.1901 11.7161 37.1901 11.8984ZM34.5377 9.49219C34.483 9.48307 34.3737 9.4375 34.2096 9.35547C34.0455 9.27344 33.8769 9.16406 33.7037 9.02734C33.5306 8.89062 33.3756 8.73112 33.2389 8.54883C33.1113 8.36654 33.0475 8.17513 33.0475 7.97461C33.0475 7.81055 33.1113 7.66471 33.2389 7.53711C33.3756 7.40039 33.526 7.33203 33.6901 7.33203C33.8177 7.33203 33.9316 7.35938 34.0319 7.41406C34.1321 7.46875 34.2142 7.53711 34.278 7.61914C34.3509 7.69206 34.4056 7.77409 34.442 7.86523C34.4876 7.94727 34.5195 8.01562 34.5377 8.07031C34.5377 8.01562 34.556 7.94727 34.5924 7.86523C34.638 7.7832 34.6927 7.70573 34.7565 7.63281C34.8294 7.55078 34.916 7.48242 35.0162 7.42773C35.1165 7.36393 35.235 7.33203 35.3717 7.33203C35.5358 7.33203 35.6862 7.40039 35.8229 7.53711C35.9596 7.66471 36.028 7.81055 36.028 7.97461C36.028 8.17513 35.9596 8.36654 35.8229 8.54883C35.6953 8.73112 35.5449 8.89062 35.3717 9.02734C35.1985 9.16406 35.0299 9.27344 34.8659 9.35547C34.7018 9.4375 34.5924 9.48307 34.5377 9.49219ZM46.1555 9.66992C46.1009 9.66081 45.9733 9.65169 45.7727 9.64258C45.5722 9.62435 45.3352 9.61068 45.0618 9.60156C44.7884 9.58333 44.4921 9.56966 44.1731 9.56055C43.8632 9.54232 43.567 9.52865 43.2845 9.51953C43.011 9.5013 42.7649 9.48763 42.5462 9.47852C42.3274 9.4694 42.177 9.46029 42.095 9.45117C41.8398 9.35091 41.7122 9.18229 41.7122 8.94531C41.7122 8.76302 41.776 8.62174 41.9036 8.52148C42.0403 8.41211 42.2545 8.35742 42.5462 8.35742C42.8287 8.35742 43.1705 8.36654 43.5716 8.38477C43.9726 8.40299 44.4329 8.42578 44.9524 8.45312C46.1555 8.52604 46.8665 8.60807 47.0852 8.69922C47.222 8.79036 47.3268 8.90885 47.3997 9.05469C47.4817 9.19141 47.5364 9.3418 47.5637 9.50586C47.6002 9.66081 47.6184 9.82031 47.6184 9.98438C47.6276 10.1393 47.6321 10.2852 47.6321 10.4219C47.6321 10.6953 47.6276 10.9961 47.6184 11.3242C47.6093 11.6432 47.5774 11.944 47.5227 12.2266C47.4772 12.5 47.4042 12.7279 47.304 12.9102C47.2128 13.0924 47.0807 13.1836 46.9075 13.1836C46.7708 13.1836 46.6341 13.1426 46.4973 13.0605C46.3697 12.9694 46.2968 12.819 46.2786 12.6094C46.2786 12.4818 46.2877 12.3223 46.3059 12.1309C46.3242 11.9303 46.347 11.7298 46.3743 11.5293C46.4016 11.3197 46.4244 11.1237 46.4427 10.9414C46.4609 10.75 46.47 10.5996 46.47 10.4902C46.47 10.4538 46.47 10.3945 46.47 10.3125C46.4791 10.2305 46.4746 10.1439 46.4563 10.0527C46.4381 9.96159 46.4062 9.87956 46.3606 9.80664C46.3151 9.73372 46.2467 9.68815 46.1555 9.66992ZM45.636 14.5371L45.6087 15.2207C45.5904 15.3757 45.5813 15.5625 45.5813 15.7812C45.5904 16 45.5813 16.2096 45.554 16.4102C45.5266 16.6107 45.472 16.7793 45.3899 16.916C45.317 17.0618 45.1894 17.1348 45.0071 17.1348C44.8795 17.1348 44.7428 17.0892 44.597 16.998C44.4602 16.9069 44.3919 16.7565 44.3919 16.5469C44.3828 16.3099 44.3828 16.0866 44.3919 15.877C44.401 15.6673 44.4101 15.4668 44.4192 15.2754L44.4329 14.5508C43.5943 14.5417 42.8424 14.5234 42.177 14.4961C41.5117 14.4688 40.9238 14.4232 40.4134 14.3594C40.2584 14.3503 40.1308 14.291 40.0305 14.1816C39.9303 14.0723 39.8802 13.9401 39.8802 13.7852C39.8802 13.6393 39.9257 13.5163 40.0169 13.416C40.108 13.3066 40.2265 13.2428 40.3723 13.2246C41.6302 13.3613 42.9654 13.4297 44.3782 13.4297C45.3717 13.4297 46.2649 13.4069 47.0579 13.3613C47.86 13.3158 48.5664 13.2474 49.177 13.1562H49.2864C49.4778 13.1562 49.6191 13.2018 49.7102 13.293C49.8105 13.3841 49.8743 13.4798 49.9016 13.5801C49.9016 13.7715 49.8652 13.9173 49.7923 14.0176C49.7285 14.1178 49.6009 14.1999 49.4095 14.2637C48.8808 14.3366 48.302 14.3958 47.6731 14.4414C47.0533 14.487 46.3743 14.5189 45.636 14.5371ZM51.9355 14.4688C51.8808 14.332 51.8261 14.1406 51.7714 13.8945C51.7167 13.6393 51.662 13.375 51.6073 13.1016C51.5527 12.819 51.5071 12.5456 51.4706 12.2812C51.4342 12.0169 51.4114 11.7982 51.4023 11.625L51.3749 10.7637C51.384 10.5632 51.4524 10.4128 51.58 10.3125C51.7167 10.2031 51.8443 10.1484 51.9628 10.1484C52.1724 10.1484 52.3183 10.2122 52.4003 10.3398C52.4915 10.4674 52.5507 10.6361 52.578 10.8457C52.6054 11.0553 52.6191 11.2969 52.6191 11.5703C52.6191 11.8346 52.6419 12.1081 52.6874 12.3906C52.7148 12.7188 52.7603 13.0423 52.8241 13.3613C52.8971 13.6712 52.9609 13.8991 53.0155 14.0449L53.0839 14.168C53.093 14.1771 53.1113 14.1862 53.1386 14.1953C53.1659 14.1953 53.2252 14.1953 53.3163 14.1953H53.453H53.6581C53.8404 14.1953 54.0546 14.1862 54.3007 14.168C54.5559 14.1497 54.802 14.1315 55.039 14.1133C55.2851 14.0859 55.5038 14.0632 55.6952 14.0449C55.8866 14.0176 56.0188 13.9948 56.0917 13.9766C56.2011 13.9492 56.3059 13.9355 56.4062 13.9355C56.5429 13.9355 56.6659 13.9811 56.7753 14.0723C56.8847 14.1543 56.9394 14.2865 56.9394 14.4688C56.9394 14.6237 56.9029 14.7467 56.83 14.8379C56.7571 14.929 56.6432 15.002 56.4882 15.0566C56.3424 15.1113 56.151 15.1569 55.914 15.1934C55.677 15.2207 55.399 15.248 55.08 15.2754C54.6607 15.321 54.2916 15.3529 53.9726 15.3711C53.6627 15.3802 53.3938 15.3848 53.1659 15.3848C52.8105 15.3848 52.5416 15.3118 52.3593 15.166C52.177 15.0202 52.0357 14.7878 51.9355 14.4688ZM58.9491 10.9277C58.9309 10.5814 58.9081 10.2852 58.8808 10.0391C58.8534 9.79297 58.8398 9.59245 58.8398 9.4375C58.8398 9.10938 58.8899 8.88151 58.9902 8.75391C59.0904 8.6263 59.2363 8.5625 59.4277 8.5625C59.6099 8.5625 59.7467 8.64909 59.8378 8.82227C59.929 8.98633 59.9882 9.18685 60.0155 9.42383C60.052 9.65169 60.0702 9.88867 60.0702 10.1348C60.0702 10.3717 60.0748 10.5586 60.0839 10.6953C60.093 10.9323 60.1021 11.1602 60.1113 11.3789C60.1204 11.5977 60.1249 11.8118 60.1249 12.0215C60.1249 12.9876 60.1067 13.8125 60.0702 14.4961C60.0429 15.1797 60.011 15.7266 59.9745 16.1367C59.9472 16.3464 59.8743 16.4922 59.7558 16.5742C59.6373 16.6654 59.5097 16.7109 59.373 16.7109C59.218 16.7109 59.0859 16.6562 58.9765 16.5469C58.8671 16.4375 58.8124 16.278 58.8124 16.0684L58.9355 13.6074C58.9537 13.4251 58.9674 13.2246 58.9765 13.0059C58.9856 12.7871 58.9902 12.5501 58.9902 12.2949C58.9902 11.8939 58.9765 11.4382 58.9491 10.9277ZM57.0624 9.49219C57.0077 9.48307 56.8984 9.4375 56.7343 9.35547C56.5702 9.27344 56.4016 9.16406 56.2284 9.02734C56.0553 8.89062 55.9003 8.73112 55.7636 8.54883C55.636 8.36654 55.5722 8.17513 55.5722 7.97461C55.5722 7.81055 55.636 7.66471 55.7636 7.53711C55.9003 7.40039 56.0507 7.33203 56.2148 7.33203C56.3424 7.33203 56.4563 7.35938 56.5566 7.41406C56.6568 7.46875 56.7389 7.53711 56.8027 7.61914C56.8756 7.69206 56.9303 7.77409 56.9667 7.86523C57.0123 7.94727 57.0442 8.01562 57.0624 8.07031C57.0624 8.01562 57.0807 7.94727 57.1171 7.86523C57.1627 7.7832 57.2174 7.70573 57.2812 7.63281C57.3541 7.55078 57.4407 7.48242 57.5409 7.42773C57.6412 7.36393 57.7597 7.33203 57.8964 7.33203C58.0605 7.33203 58.2109 7.40039 58.3476 7.53711C58.4843 7.66471 58.5527 7.81055 58.5527 7.97461C58.5527 8.17513 58.4843 8.36654 58.3476 8.54883C58.22 8.73112 58.0696 8.89062 57.8964 9.02734C57.7232 9.16406 57.5546 9.27344 57.3905 9.35547C57.2265 9.4375 57.1171 9.48307 57.0624 9.49219ZM64.2095 12.6094C64.2004 12.5365 64.1867 12.4316 64.1685 12.2949C64.1594 12.1491 64.1548 11.9987 64.1548 11.8438C64.1548 11.6523 64.1731 11.4609 64.2095 11.2695C64.246 11.069 64.3189 10.8867 64.4283 10.7227C64.5377 10.5586 64.6926 10.4264 64.8931 10.3262C65.1028 10.2168 65.3762 10.1576 65.7134 10.1484C66.0962 10.1393 66.4198 10.1302 66.6841 10.1211C66.9485 10.1029 67.1627 10.071 67.3267 10.0254C67.4999 9.9707 67.6229 9.88867 67.6959 9.7793C67.7688 9.66992 67.8052 9.51042 67.8052 9.30078C67.8052 9.11849 67.7916 9.02734 67.7642 9.02734C67.5637 8.99089 67.3449 8.96354 67.108 8.94531C66.8801 8.92708 66.6249 8.91797 66.3423 8.91797C66.0598 8.91797 65.8 8.91797 65.563 8.91797C65.3352 8.91797 65.121 8.92253 64.9205 8.93164C64.6835 8.88607 64.5285 8.80859 64.4556 8.69922C64.3827 8.58984 64.3462 8.4668 64.3462 8.33008C64.3462 8.19336 64.3964 8.07031 64.4966 7.96094C64.606 7.84245 64.7564 7.7832 64.9478 7.7832C65.5311 7.79232 66.0689 7.79232 66.5611 7.7832C67.0624 7.76497 67.4908 7.79232 67.8462 7.86523C68.2017 7.93815 68.4797 8.08398 68.6802 8.30273C68.8808 8.52148 68.981 8.86328 68.981 9.32812C68.981 9.61979 68.9719 9.87956 68.9537 10.1074C68.9354 10.3262 68.8489 10.513 68.6939 10.668C68.5481 10.8229 68.3111 10.9505 67.983 11.0508C67.6548 11.1419 67.1763 11.2012 66.5474 11.2285C66.2831 11.2467 66.0598 11.2604 65.8775 11.2695C65.7043 11.2786 65.5676 11.2969 65.4673 11.3242C65.3853 11.3698 65.3443 11.6296 65.3443 12.1035C65.3443 12.2311 65.3443 12.3405 65.3443 12.4316C65.3534 12.5137 65.3716 12.582 65.399 12.6367C65.4263 12.6914 65.4719 12.7324 65.5357 12.7598C65.6086 12.778 65.7089 12.7871 65.8365 12.7871C66.0826 12.7871 66.3925 12.7689 66.7662 12.7324C67.149 12.6868 67.5181 12.6367 67.8736 12.582C68.2382 12.5273 68.5572 12.4772 68.8306 12.4316C69.1041 12.377 69.2545 12.3451 69.2818 12.3359C69.4003 12.2904 69.5051 12.2676 69.5962 12.2676C69.7512 12.2676 69.8834 12.3223 69.9927 12.4316C70.1021 12.5319 70.1568 12.6641 70.1568 12.8281C70.1568 12.9375 70.1431 13.0378 70.1158 13.1289C70.0884 13.2109 70.0064 13.2884 69.8697 13.3613C69.733 13.4251 69.5233 13.4889 69.2408 13.5527C68.9673 13.6165 68.58 13.6803 68.0787 13.7441C67.0123 13.8809 66.1692 13.9492 65.5494 13.9492C65.1848 13.9492 64.9114 13.8763 64.7291 13.7305C64.5559 13.5846 64.4192 13.3522 64.3189 13.0332C64.2916 12.9694 64.2733 12.9284 64.2642 12.9102C64.2551 12.8828 64.246 12.8646 64.2369 12.8555C64.2369 12.8372 64.2323 12.8145 64.2232 12.7871C64.2232 12.7507 64.2186 12.6914 64.2095 12.6094ZM67.4634 16.0273C68.2655 16.0091 68.9947 15.9772 69.6509 15.9316C70.3072 15.8861 70.8996 15.8268 71.4283 15.7539H71.5377C71.7291 15.7539 71.8703 15.7995 71.9615 15.8906C72.0617 15.9818 72.1255 16.0775 72.1529 16.1777C72.1529 16.3691 72.1164 16.515 72.0435 16.6152C71.9797 16.7155 71.8521 16.7975 71.6607 16.8613C71.0318 16.9525 70.3345 17.0208 69.5689 17.0664C68.8124 17.1211 67.9739 17.1484 67.0533 17.1484C66.1236 17.1484 65.2942 17.1302 64.565 17.0938C63.8449 17.0573 63.2115 17.0117 62.6646 16.957C62.5097 16.9388 62.3821 16.875 62.2818 16.7656C62.1815 16.6654 62.1314 16.5378 62.1314 16.3828C62.1314 16.237 62.177 16.1094 62.2681 16C62.3593 15.8997 62.4778 15.8405 62.6236 15.8223C63.7903 15.9499 65.0162 16.0182 66.3013 16.0273V15.207V15.2207C66.2922 15.2207 66.274 14.765 66.2466 13.8535C66.2831 13.6803 66.3515 13.5527 66.4517 13.4707C66.5611 13.3796 66.675 13.334 66.7935 13.334C66.9211 13.334 67.0442 13.3704 67.1627 13.4434C67.2811 13.5163 67.3632 13.6348 67.4087 13.7988C67.4179 14.2546 67.4315 14.6009 67.4498 14.8379C67.4589 14.9746 67.4634 15.0885 67.4634 15.1797V16.0273ZM79.9256 9.86133C80.3084 9.86133 80.5864 9.7793 80.7596 9.61523C80.9419 9.45117 81.033 9.15039 81.033 8.71289C81.033 8.36654 80.9556 8.0931 80.8006 7.89258C80.6457 7.69206 80.354 7.5918 79.9256 7.5918C79.5155 7.5918 79.2284 7.69206 79.0643 7.89258C78.9002 8.0931 78.8182 8.36654 78.8182 8.71289C78.8182 9.15039 78.9139 9.45117 79.1053 9.61523C79.3058 9.7793 79.5793 9.86133 79.9256 9.86133ZM79.912 11.0234C79.1646 11.0234 78.5949 10.8184 78.203 10.4082C77.8202 9.99805 77.6287 9.4375 77.6287 8.72656C77.6287 8.4349 77.6698 8.15234 77.7518 7.87891C77.8338 7.59635 77.966 7.35026 78.1483 7.14062C78.3306 6.92188 78.5676 6.7487 78.8592 6.62109C79.1509 6.49349 79.5064 6.42969 79.9256 6.42969C80.3176 6.42969 80.6548 6.48893 80.9373 6.60742C81.229 6.72591 81.4705 6.88997 81.662 7.09961C81.8534 7.30013 81.9946 7.54622 82.0858 7.83789C82.186 8.12044 82.2362 8.42578 82.2362 8.75391C82.2362 9.45573 82.0265 10.0117 81.6073 10.4219C81.188 10.8229 80.6229 11.0234 79.912 11.0234ZM80.5682 13.0195C80.5682 13.2018 80.5545 13.4069 80.5272 13.6348C80.509 13.8535 80.4998 14.127 80.4998 14.4551C80.4998 14.6647 80.4406 14.8242 80.3221 14.9336C80.2036 15.0339 80.0806 15.084 79.953 15.084C79.8254 15.084 79.6886 15.0384 79.5428 14.9473C79.4061 14.8561 79.3377 14.7057 79.3377 14.4961C79.3377 14.168 79.3423 13.8945 79.3514 13.6758C79.3696 13.4479 79.3787 13.2383 79.3787 13.0469H79.0643C78.8911 13.0469 78.6724 13.0514 78.408 13.0605C78.1437 13.0697 77.8885 13.056 77.6424 13.0195C77.3963 12.9831 77.1821 12.9147 76.9998 12.8145C76.8267 12.7142 76.7401 12.5592 76.7401 12.3496C76.7401 12.222 76.7811 12.1126 76.8631 12.0215C76.9543 11.9303 77.0728 11.862 77.2186 11.8164C77.7655 11.8346 78.244 11.8529 78.6541 11.8711C79.0643 11.8802 79.4015 11.8848 79.6659 11.8848C80.076 11.8848 80.5272 11.8757 81.0194 11.8574C81.5207 11.8301 82.0767 11.7799 82.6873 11.707H82.7694C82.979 11.707 83.1294 11.7617 83.2205 11.8711C83.3208 11.9805 83.3801 12.0853 83.3983 12.1855C83.3983 12.377 83.3618 12.5182 83.2889 12.6094C83.2251 12.6914 83.0975 12.7643 82.9061 12.8281C82.4504 12.8737 82.0265 12.9147 81.6346 12.9512C81.2518 12.9785 80.8963 13.0013 80.5682 13.0195ZM85.5174 10.832H84.7655C84.6105 10.832 84.4419 10.8366 84.2596 10.8457C84.0864 10.8548 83.9087 10.8685 83.7264 10.8867C83.535 10.8776 83.3937 10.8138 83.3026 10.6953C83.2114 10.5768 83.1659 10.4583 83.1659 10.3398C83.1659 10.1849 83.2023 10.0618 83.2752 9.9707C83.3482 9.87956 83.4439 9.81576 83.5623 9.7793C83.6808 9.73372 83.813 9.70638 83.9588 9.69727C84.1047 9.68815 84.2505 9.68359 84.3963 9.68359C84.4966 9.68359 84.5877 9.68815 84.6698 9.69727C84.7518 9.69727 84.8657 9.69727 85.0116 9.69727C85.0936 9.69727 85.1802 9.69727 85.2713 9.69727C85.3625 9.69727 85.4627 9.69271 85.5721 9.68359V9.41016C85.5721 9.18229 85.563 8.94987 85.5448 8.71289C85.5357 8.47591 85.5174 8.2526 85.4901 8.04297C85.4718 7.83333 85.4536 7.64648 85.4354 7.48242C85.4263 7.31836 85.4217 7.19531 85.4217 7.11328C85.4217 6.78516 85.4718 6.55729 85.5721 6.42969C85.6724 6.30208 85.8182 6.23828 86.0096 6.23828C86.1919 6.23828 86.3286 6.32487 86.4198 6.49805C86.5109 6.66211 86.5702 6.85807 86.5975 7.08594C86.634 7.30469 86.6522 7.53255 86.6522 7.76953C86.6522 7.9974 86.6567 8.17969 86.6659 8.31641C86.6932 8.99089 86.7069 9.5651 86.7069 10.0391C86.7069 10.4401 86.7069 10.832 86.7069 11.2148C86.7069 11.5885 86.6841 11.9258 86.6385 12.2266C86.6021 12.5182 86.5337 12.7552 86.4334 12.9375C86.3332 13.1198 86.1828 13.2109 85.9823 13.2109C85.8273 13.2109 85.6952 13.1562 85.5858 13.0469C85.4764 12.9375 85.4217 12.778 85.4217 12.5684L85.5174 10.832ZM81.9764 17.8867C81.6665 17.8138 81.4295 17.6908 81.2655 17.5176C81.1105 17.3535 80.9966 17.1484 80.9237 16.9023C80.8599 16.6562 80.8189 16.3737 80.8006 16.0547C80.7824 15.7357 80.7642 15.3848 80.7459 15.002C80.7733 14.8197 80.8416 14.6829 80.951 14.5918C81.0695 14.4915 81.1971 14.4414 81.3338 14.4414C81.4705 14.4414 81.5845 14.4915 81.6756 14.5918C81.7759 14.6829 81.8534 14.806 81.908 14.9609L81.9901 16.2871C81.9992 16.4512 82.0721 16.5742 82.2088 16.6562C82.3547 16.7474 82.5233 16.8112 82.7147 16.8477C82.9152 16.8841 83.1248 16.9023 83.3436 16.9023C83.5623 16.9115 83.7629 16.916 83.9452 16.916C84.41 16.916 84.8475 16.8841 85.2577 16.8203C85.6678 16.7565 86.0324 16.6608 86.3514 16.5332C86.4061 16.515 86.4562 16.5013 86.5018 16.4922C86.5565 16.4831 86.6066 16.4785 86.6522 16.4785C86.8345 16.4785 86.9712 16.5423 87.0623 16.6699C87.1626 16.8066 87.2127 16.957 87.2127 17.1211C87.2127 17.2852 87.117 17.4264 86.9256 17.5449C86.7433 17.6634 86.4927 17.7637 86.1737 17.8457C85.8638 17.9277 85.4992 17.987 85.0799 18.0234C84.6698 18.0599 84.2368 18.0781 83.7811 18.0781C83.4621 18.0781 83.1522 18.0645 82.8514 18.0371C82.5506 18.0098 82.259 17.9596 81.9764 17.8867ZM88.2485 12.1992C88.0571 12.1901 87.9158 12.1263 87.8247 12.0078C87.7427 11.8893 87.7016 11.7663 87.7016 11.6387C87.7016 11.502 87.7518 11.3789 87.852 11.2695C87.9523 11.151 88.0936 11.0918 88.2759 11.0918C88.6222 11.0736 88.9686 11.0599 89.3149 11.0508C89.6704 11.0417 90.0259 11.0371 90.3813 11.0371H92.4321C92.7602 11.1829 92.9243 11.3743 92.9243 11.6113C92.9061 11.748 92.8559 11.8665 92.7739 11.9668C92.6919 12.0579 92.5734 12.1217 92.4184 12.1582H90.2993C89.5701 12.1582 88.8865 12.1719 88.2485 12.1992ZM88.3305 14.4277C88.3488 14.127 88.4171 13.8626 88.5356 13.6348C88.6541 13.3978 88.8045 13.2064 88.9868 13.0605C89.1782 12.9056 89.3924 12.7917 89.6294 12.7188C89.8664 12.6367 90.1079 12.5957 90.354 12.5957C90.518 12.5957 90.7094 12.623 90.9282 12.6777C91.1561 12.7233 91.3703 12.8145 91.5708 12.9512C91.7804 13.0879 91.9581 13.2793 92.104 13.5254C92.2498 13.7624 92.3227 14.0723 92.3227 14.4551C92.3227 14.8197 92.2544 15.125 92.1177 15.3711C91.99 15.6081 91.826 15.7995 91.6255 15.9453C91.4341 16.082 91.2199 16.1777 90.9829 16.2324C90.755 16.2962 90.5454 16.3281 90.354 16.3281C90.0988 16.3281 89.8527 16.2871 89.6157 16.2051C89.3787 16.1322 89.1645 16.0182 88.9731 15.8633C88.7908 15.7083 88.6404 15.5124 88.5219 15.2754C88.4035 15.0293 88.3397 14.7467 88.3305 14.4277ZM89.8891 13.8535C89.7524 13.9447 89.6476 14.0449 89.5747 14.1543C89.5109 14.2546 89.479 14.3138 89.479 14.332V14.4414C89.479 14.6237 89.5109 14.765 89.5747 14.8652C89.6385 14.9655 89.7114 15.0384 89.7934 15.084C89.8846 15.1296 89.9712 15.1569 90.0532 15.166C90.1443 15.1751 90.2127 15.1797 90.2583 15.1797C90.5044 15.1797 90.7186 15.125 90.9009 15.0156C91.0831 14.9062 91.1743 14.7285 91.1743 14.4824C91.1743 14.3275 91.1469 14.1999 91.0923 14.0996C91.0376 13.9993 90.9692 13.9219 90.8872 13.8672C90.8143 13.8125 90.7277 13.776 90.6274 13.7578C90.5363 13.7396 90.4497 13.7305 90.3677 13.7305C90.1945 13.7305 90.035 13.7715 89.8891 13.8535ZM89.2876 10.2168C89.1053 10.0983 88.9822 9.98893 88.9184 9.88867C88.8546 9.7793 88.8227 9.67448 88.8227 9.57422C88.8227 9.38281 88.882 9.24154 89.0005 9.15039C89.1281 9.05924 89.2557 9.01367 89.3833 9.01367C89.5018 9.01367 89.6157 9.04102 89.7251 9.0957C89.9985 9.18685 90.2309 9.25065 90.4223 9.28711C90.6137 9.32357 90.8416 9.36003 91.1059 9.39648C91.3065 9.44206 91.4432 9.52409 91.5161 9.64258C91.589 9.75195 91.6255 9.875 91.6255 10.0117C91.6072 10.1484 91.5571 10.276 91.4751 10.3945C91.4022 10.5039 91.27 10.5586 91.0786 10.5586L90.1626 10.4766C90.0714 10.4674 89.9529 10.4401 89.8071 10.3945C89.6704 10.349 89.4972 10.2897 89.2876 10.2168ZM96.438 11.8984C96.4835 11.9076 96.5291 11.9121 96.5747 11.9121C96.6294 11.9121 96.6795 11.9121 96.7251 11.9121C96.8162 11.9121 96.9028 11.9121 96.9848 11.9121C97.0669 11.903 97.158 11.8984 97.2583 11.8984C97.4041 11.8984 97.5499 11.903 97.6958 11.9121C97.8507 11.9212 97.9829 11.9486 98.0923 11.9941C98.2108 12.0397 98.3065 12.1126 98.3794 12.2129C98.4523 12.304 98.4887 12.4316 98.4887 12.5957C98.4887 12.7051 98.4386 12.8145 98.3384 12.9238C98.2381 13.0332 98.1014 13.0924 97.9282 13.1016C97.7459 13.0833 97.5636 13.0697 97.3813 13.0605C97.2081 13.0514 97.0441 13.0469 96.8891 13.0469H96.4106C96.3924 13.7487 96.3742 14.3548 96.3559 14.8652C96.3468 15.3757 96.324 15.7995 96.2876 16.1367C96.2693 16.3464 96.1964 16.4922 96.0688 16.5742C95.9412 16.6654 95.8136 16.7109 95.686 16.7109C95.5311 16.7109 95.3989 16.6562 95.2895 16.5469C95.1802 16.4375 95.1255 16.278 95.1255 16.0684L95.2485 13.6074C95.2667 13.4251 95.2804 13.2246 95.2895 13.0059C95.2986 12.7871 95.3032 12.5501 95.3032 12.2949C95.3032 12.0579 95.2941 11.7891 95.2759 11.4883C95.2667 11.1784 95.2485 10.8867 95.2212 10.6133C95.2029 10.3307 95.1847 10.0801 95.1665 9.86133C95.1574 9.64258 95.1528 9.5013 95.1528 9.4375C95.1528 9.10938 95.2029 8.88151 95.3032 8.75391C95.4035 8.6263 95.5493 8.5625 95.7407 8.5625C95.923 8.5625 96.0597 8.64909 96.1509 8.82227C96.242 8.98633 96.3012 9.18685 96.3286 9.42383C96.365 9.65169 96.3833 9.88867 96.3833 10.1348C96.3833 10.3717 96.3878 10.5586 96.3969 10.6953C96.4061 10.9141 96.4152 11.1237 96.4243 11.3242C96.4334 11.5247 96.438 11.7161 96.438 11.8984ZM93.7856 9.49219C93.7309 9.48307 93.6216 9.4375 93.4575 9.35547C93.2934 9.27344 93.1248 9.16406 92.9516 9.02734C92.7785 8.89062 92.6235 8.73112 92.4868 8.54883C92.3592 8.36654 92.2954 8.17513 92.2954 7.97461C92.2954 7.81055 92.3592 7.66471 92.4868 7.53711C92.6235 7.40039 92.7739 7.33203 92.938 7.33203C93.0656 7.33203 93.1795 7.35938 93.2798 7.41406C93.38 7.46875 93.4621 7.53711 93.5259 7.61914C93.5988 7.69206 93.6535 7.77409 93.6899 7.86523C93.7355 7.94727 93.7674 8.01562 93.7856 8.07031C93.7856 8.01562 93.8039 7.94727 93.8403 7.86523C93.8859 7.7832 93.9406 7.70573 94.0044 7.63281C94.0773 7.55078 94.1639 7.48242 94.2641 7.42773C94.3644 7.36393 94.4829 7.33203 94.6196 7.33203C94.7837 7.33203 94.9341 7.40039 95.0708 7.53711C95.2075 7.66471 95.2759 7.81055 95.2759 7.97461C95.2759 8.17513 95.2075 8.36654 95.0708 8.54883C94.9432 8.73112 94.7928 8.89062 94.6196 9.02734C94.4464 9.16406 94.2778 9.27344 94.1137 9.35547C93.9497 9.4375 93.8403 9.48307 93.7856 9.49219ZM101.562 9.61523C101.516 9.48763 101.461 9.29622 101.398 9.04102C101.343 8.77669 101.288 8.51237 101.234 8.24805C101.179 7.98372 101.133 7.74674 101.097 7.53711C101.06 7.32747 101.038 7.20898 101.028 7.18164C101.019 7.16341 101.015 7.11328 101.015 7.03125C101.015 6.42057 101.215 6.11523 101.616 6.11523C101.78 6.11523 101.903 6.14714 101.985 6.21094C102.067 6.27474 102.127 6.37044 102.163 6.49805C102.209 6.62565 102.236 6.78971 102.245 6.99023C102.263 7.18164 102.286 7.40951 102.314 7.67383C102.35 8.00195 102.396 8.30273 102.45 8.57617C102.514 8.84049 102.578 9.04557 102.642 9.19141L102.71 9.31445C102.719 9.32357 102.737 9.33268 102.765 9.3418C102.792 9.3418 102.851 9.3418 102.942 9.3418H103.079H103.298C103.48 9.3418 103.704 9.33268 103.968 9.31445C104.232 9.29622 104.492 9.27799 104.747 9.25977C105.012 9.23242 105.244 9.20964 105.444 9.19141C105.654 9.16406 105.791 9.14128 105.855 9.12305C105.964 9.0957 106.069 9.08203 106.169 9.08203C106.306 9.08203 106.429 9.1276 106.538 9.21875C106.648 9.30078 106.702 9.43294 106.702 9.61523C106.702 9.77018 106.666 9.89323 106.593 9.98438C106.52 10.0755 106.401 10.1484 106.237 10.2031C106.082 10.2578 105.882 10.3034 105.636 10.3398C105.399 10.3672 105.112 10.3945 104.775 10.4219C104.328 10.4674 103.941 10.4993 103.612 10.5176C103.284 10.5267 103.011 10.5312 102.792 10.5312C102.437 10.5312 102.168 10.4583 101.985 10.3125C101.803 10.1667 101.662 9.93424 101.562 9.61523ZM104.023 12.1992C104.925 12.1901 105.741 12.1628 106.47 12.1172C107.199 12.0716 107.851 12.0078 108.425 11.9258H108.534C108.726 11.9258 108.867 11.9714 108.958 12.0625C109.058 12.1536 109.122 12.2493 109.15 12.3496C109.15 12.541 109.113 12.6868 109.04 12.7871C108.976 12.8874 108.849 12.9694 108.657 13.0332C108.028 13.1243 107.331 13.1973 106.566 13.252C105.809 13.2975 104.97 13.3203 104.05 13.3203C103.12 13.3203 102.291 13.3021 101.562 13.2656C100.842 13.2292 100.208 13.1836 99.6612 13.1289C99.5063 13.1107 99.3787 13.0514 99.2784 12.9512C99.1782 12.8418 99.128 12.7096 99.128 12.5547C99.128 12.4089 99.1736 12.2858 99.2648 12.1855C99.3559 12.0762 99.4744 12.0124 99.6202 11.9941C100.878 12.1309 102.213 12.1992 103.626 12.1992H104.023ZM102.45 17.6133C102.14 17.5404 101.903 17.4173 101.739 17.2441C101.584 17.0801 101.47 16.875 101.398 16.6289C101.334 16.3828 101.293 16.1003 101.275 15.7812C101.256 15.4622 101.238 15.1113 101.22 14.7285C101.247 14.5462 101.316 14.4095 101.425 14.3184C101.543 14.2181 101.671 14.168 101.808 14.168C101.944 14.168 102.058 14.2181 102.15 14.3184C102.25 14.4095 102.327 14.5326 102.382 14.6875L102.464 16.0137C102.473 16.1777 102.546 16.3008 102.683 16.3828C102.829 16.474 102.997 16.5378 103.189 16.5742C103.389 16.6107 103.599 16.6289 103.817 16.6289C104.036 16.638 104.237 16.6426 104.419 16.6426C104.884 16.6426 105.321 16.6107 105.732 16.5469C106.142 16.4831 106.506 16.3874 106.825 16.2598C106.88 16.2415 106.93 16.2279 106.976 16.2188C107.03 16.2096 107.081 16.2051 107.126 16.2051C107.308 16.2051 107.445 16.2689 107.536 16.3965C107.637 16.5332 107.687 16.6836 107.687 16.8477C107.687 17.0117 107.591 17.153 107.4 17.2715C107.217 17.39 106.967 17.4902 106.648 17.5723C106.338 17.6543 105.973 17.7135 105.554 17.75C105.144 17.7865 104.711 17.8047 104.255 17.8047C103.936 17.8047 103.626 17.791 103.325 17.7637C103.025 17.7363 102.733 17.6862 102.45 17.6133ZM116.116 6.29297C116.17 6.08333 116.261 5.9375 116.389 5.85547C116.526 5.76432 116.672 5.71875 116.827 5.71875C116.927 5.73698 117.013 5.77344 117.086 5.82812C117.159 5.82812 117.246 5.82812 117.346 5.82812C117.455 5.81901 117.583 5.8099 117.729 5.80078L118.782 5.75977C119.046 5.75065 119.31 5.74154 119.575 5.73242C119.839 5.71419 120.099 5.70508 120.354 5.70508C120.636 5.70508 120.851 5.75065 120.996 5.8418C121.151 5.93294 121.265 6.11068 121.338 6.375C121.411 6.63021 121.457 6.98568 121.475 7.44141C121.493 7.89714 121.516 8.49414 121.543 9.23242C121.543 9.55143 121.516 9.8112 121.461 10.0117C121.407 10.2122 121.27 10.3672 121.051 10.4766C120.842 10.5859 120.518 10.6634 120.08 10.709C119.643 10.7454 119.041 10.7637 118.276 10.7637C118.121 10.7637 117.98 10.7637 117.852 10.7637C117.724 10.7546 117.61 10.75 117.51 10.75C117.41 10.75 117.328 10.7546 117.264 10.7637C117.2 10.7637 117.146 10.7637 117.1 10.7637C117.018 10.7637 116.927 10.75 116.827 10.7227C116.726 10.6953 116.626 10.6543 116.526 10.5996C116.435 10.5449 116.348 10.472 116.266 10.3809C116.184 10.2897 116.129 10.1758 116.102 10.0391C116.093 9.76562 116.084 9.5013 116.075 9.24609C116.075 8.99089 116.075 8.73568 116.075 8.48047C116.075 7.78776 116.088 7.05859 116.116 6.29297ZM117.25 6.96289C117.241 7.10872 117.232 7.24544 117.223 7.37305C117.223 7.50065 117.223 7.6237 117.223 7.74219C117.223 8.31641 117.223 8.75846 117.223 9.06836C117.232 9.37826 117.241 9.56055 117.25 9.61523C117.378 9.60612 117.524 9.60156 117.688 9.60156C117.852 9.60156 118.025 9.60156 118.207 9.60156C118.636 9.60156 119.023 9.60156 119.37 9.60156C119.725 9.60156 120.044 9.60612 120.327 9.61523C120.327 9.58789 120.327 9.53776 120.327 9.46484C120.336 9.39193 120.34 9.29622 120.34 9.17773C120.34 9.05013 120.336 8.89062 120.327 8.69922C120.327 8.4987 120.322 8.28906 120.313 8.07031C120.304 7.85156 120.29 7.63737 120.272 7.42773C120.263 7.20898 120.249 7.02214 120.231 6.86719L117.25 6.96289ZM119.643 12.7598V12.8965C119.634 13.0514 119.634 13.2383 119.643 13.457C119.652 13.6758 119.643 13.8854 119.616 14.0859C119.588 14.2865 119.534 14.4596 119.452 14.6055C119.37 14.7422 119.237 14.8105 119.055 14.8105C118.927 14.8105 118.791 14.765 118.645 14.6738C118.508 14.5827 118.44 14.4323 118.44 14.2227C118.431 13.9857 118.431 13.7624 118.44 13.5527C118.449 13.3431 118.454 13.1426 118.454 12.9512V12.7734C117.606 12.7643 116.849 12.7461 116.184 12.7188C115.519 12.6914 114.926 12.6458 114.407 12.582C114.252 12.5729 114.124 12.5137 114.024 12.4043C113.924 12.2949 113.873 12.1628 113.873 12.0078C113.873 11.862 113.919 11.7389 114.01 11.6387C114.101 11.5293 114.22 11.4655 114.366 11.4473C115.623 11.584 116.959 11.6523 118.371 11.6523C119.365 11.6523 120.258 11.6296 121.051 11.584C121.853 11.5384 122.56 11.4701 123.17 11.3789H123.28C123.471 11.3789 123.612 11.4245 123.704 11.5156C123.804 11.6068 123.868 11.7025 123.895 11.8027C123.895 11.9941 123.858 12.14 123.786 12.2402C123.722 12.3405 123.594 12.4225 123.403 12.4863C122.883 12.5592 122.309 12.6185 121.68 12.6641C121.06 12.7096 120.381 12.7415 119.643 12.7598ZM116.088 17.8594C116.079 17.7865 116.07 17.7227 116.061 17.668C116.052 17.6224 116.047 17.5677 116.047 17.5039C116.065 17.3125 116.093 17.1257 116.129 16.9434C116.166 16.7611 116.239 16.5924 116.348 16.4375C116.457 16.2917 116.612 16.1686 116.813 16.0684C117.013 15.9772 117.282 15.9271 117.62 15.918C118.33 15.8997 118.905 15.8542 119.342 15.7812C119.78 15.7083 119.998 15.5944 119.998 15.4395C119.998 15.3757 119.93 15.3301 119.793 15.3027C119.666 15.2663 119.511 15.2435 119.329 15.2344C119.146 15.2161 118.959 15.207 118.768 15.207C118.577 15.207 118.422 15.207 118.303 15.207C118.112 15.207 117.92 15.2116 117.729 15.2207C117.547 15.2207 117.378 15.2207 117.223 15.2207C116.986 15.1751 116.831 15.0977 116.758 14.9883C116.685 14.8789 116.649 14.7559 116.649 14.6191C116.649 14.4824 116.699 14.3594 116.799 14.25C116.909 14.1315 117.059 14.0723 117.25 14.0723C117.834 14.0814 118.362 14.0814 118.836 14.0723C119.319 14.0632 119.734 14.0951 120.08 14.168C120.427 14.2409 120.696 14.3822 120.887 14.5918C121.079 14.8014 121.174 15.125 121.174 15.5625C121.174 15.8451 121.147 16.0729 121.092 16.2461C121.047 16.4193 120.933 16.556 120.75 16.6562C120.577 16.7656 120.317 16.8431 119.971 16.8887C119.634 16.9342 119.174 16.9707 118.59 16.998C118.335 17.0072 118.121 17.0117 117.948 17.0117C117.774 17.0117 117.633 17.0254 117.524 17.0527C117.424 17.0801 117.351 17.1302 117.305 17.2031C117.26 17.276 117.237 17.39 117.237 17.5449C117.237 17.6543 117.241 17.7409 117.25 17.8047C117.269 17.8685 117.314 17.9186 117.387 17.9551C117.46 18.0007 117.579 18.028 117.743 18.0371C117.907 18.0553 118.139 18.0645 118.44 18.0645C118.713 18.0645 118.991 18.0553 119.274 18.0371C119.565 18.0189 119.843 17.9915 120.108 17.9551C120.381 17.9186 120.632 17.873 120.86 17.8184C121.097 17.7728 121.297 17.7227 121.461 17.668C121.58 17.6133 121.694 17.5859 121.803 17.5859C121.958 17.5859 122.086 17.6406 122.186 17.75C122.295 17.8594 122.35 18.0007 122.35 18.1738C122.35 18.5384 122.013 18.7982 121.338 18.9531C120.664 19.1172 119.625 19.1992 118.221 19.1992C117.893 19.1992 117.615 19.1901 117.387 19.1719C117.159 19.1628 116.968 19.1263 116.813 19.0625C116.658 18.9987 116.53 18.9076 116.43 18.7891C116.339 18.6706 116.261 18.502 116.198 18.2832C116.179 18.2194 116.166 18.1784 116.157 18.1602C116.148 18.1419 116.138 18.1237 116.129 18.1055C116.129 18.0964 116.125 18.0736 116.116 18.0371C116.107 18.0098 116.097 17.9505 116.088 17.8594ZM129.265 9.42383C129.483 9.42383 129.725 9.41927 129.989 9.41016C130.254 9.40104 130.481 9.39648 130.673 9.39648L130.769 7.72852C130.805 7.40039 130.996 7.23633 131.343 7.23633C131.68 7.23633 131.871 7.40039 131.917 7.72852L131.821 9.36914L132.519 9.3418C132.683 9.4056 132.801 9.49674 132.874 9.61523C132.947 9.72461 132.983 9.83854 132.983 9.95703C132.983 10.1484 132.906 10.2852 132.751 10.3672C132.605 10.4401 132.4 10.4902 132.136 10.5176C131.881 10.5449 131.571 10.5586 131.206 10.5586C130.851 10.5495 130.463 10.554 130.044 10.5723C129.515 10.5905 129.05 10.6087 128.649 10.627C128.258 10.6361 127.92 10.6406 127.638 10.6406C127.437 10.6406 127.287 10.5859 127.187 10.4766C127.086 10.3672 127.036 10.2487 127.036 10.1211C127.036 9.97526 127.082 9.8431 127.173 9.72461C127.273 9.60612 127.437 9.52865 127.665 9.49219L128.116 9.46484L128.021 7.72852C128.057 7.40039 128.248 7.23633 128.595 7.23633C128.932 7.23633 129.123 7.39583 129.169 7.71484L129.265 9.42383ZM128.116 5.86914C128.207 5.86003 128.385 5.85547 128.649 5.85547C128.923 5.85547 129.292 5.8418 129.757 5.81445L132.519 5.74609C132.683 5.8099 132.801 5.90104 132.874 6.01953C132.947 6.12891 132.983 6.24284 132.983 6.36133C132.983 6.55273 132.906 6.68945 132.751 6.77148C132.605 6.8444 132.4 6.89453 132.136 6.92188C131.881 6.94922 131.571 6.96289 131.206 6.96289C130.851 6.95378 130.463 6.95833 130.044 6.97656C129.515 6.99479 129.05 7.01302 128.649 7.03125C128.258 7.04036 127.92 7.04492 127.638 7.04492C127.437 7.04492 127.287 6.99023 127.187 6.88086C127.086 6.77148 127.036 6.65299 127.036 6.52539C127.036 6.37956 127.082 6.2474 127.173 6.12891C127.273 6.01042 127.437 5.93294 127.665 5.89648L128.116 5.86914ZM130.769 12.7598V12.8965C130.759 13.0514 130.759 13.2383 130.769 13.457C130.778 13.6758 130.769 13.8854 130.741 14.0859C130.714 14.2865 130.659 14.4596 130.577 14.6055C130.495 14.7422 130.363 14.8105 130.181 14.8105C130.053 14.8105 129.916 14.765 129.771 14.6738C129.634 14.5827 129.565 14.4323 129.565 14.2227C129.556 13.9857 129.556 13.7624 129.565 13.5527C129.575 13.3431 129.579 13.1426 129.579 12.9512V12.7734C128.731 12.7643 127.975 12.7461 127.31 12.7188C126.644 12.6914 126.052 12.6458 125.532 12.582C125.377 12.5729 125.25 12.5137 125.149 12.4043C125.049 12.2949 124.999 12.1628 124.999 12.0078C124.999 11.862 125.045 11.7389 125.136 11.6387C125.227 11.5293 125.345 11.4655 125.491 11.4473C126.749 11.584 128.084 11.6523 129.497 11.6523C130.491 11.6523 131.384 11.6296 132.177 11.584C132.979 11.5384 133.685 11.4701 134.296 11.3789H134.405C134.597 11.3789 134.738 11.4245 134.829 11.5156C134.929 11.6068 134.993 11.7025 135.021 11.8027C135.021 11.9941 134.984 12.14 134.911 12.2402C134.847 12.3405 134.72 12.4225 134.528 12.4863C134.009 12.5592 133.435 12.6185 132.806 12.6641C132.186 12.7096 131.507 12.7415 130.769 12.7598ZM130.03 15.2344C129.948 15.2344 129.871 15.2389 129.798 15.248C129.725 15.248 129.652 15.248 129.579 15.248C129.324 15.248 129.092 15.2389 128.882 15.2207C128.681 15.1934 128.49 15.1797 128.308 15.1797C128.235 15.1797 128.194 15.2253 128.185 15.3164C128.175 15.3984 128.171 15.4987 128.171 15.6172C128.171 16 128.175 16.319 128.185 16.5742C128.194 16.8294 128.207 17.0072 128.226 17.1074L128.349 17.1621C128.54 17.2259 128.827 17.2897 129.21 17.3535C129.593 17.4173 130.076 17.4492 130.659 17.4492C130.887 17.4492 131.106 17.4401 131.315 17.4219C131.525 17.4128 131.712 17.3945 131.876 17.3672C132.04 17.349 132.168 17.3216 132.259 17.2852C132.359 17.2487 132.409 17.2077 132.409 17.1621C132.418 17.1165 132.423 17.0573 132.423 16.9844C132.432 16.9115 132.437 16.8249 132.437 16.7246C132.437 16.6517 132.437 16.556 132.437 16.4375C132.437 16.319 132.432 16.196 132.423 16.0684C132.414 15.9499 132.405 15.8314 132.396 15.7129C132.386 15.5944 132.377 15.4941 132.368 15.4121C132.341 15.403 132.304 15.3984 132.259 15.3984C132.222 15.3984 132.181 15.3939 132.136 15.3848C131.68 15.3392 131.279 15.3073 130.933 15.2891C130.586 15.2617 130.286 15.2435 130.03 15.2344ZM130.14 14.168C130.322 14.168 130.577 14.1725 130.905 14.1816C131.233 14.1816 131.562 14.1953 131.89 14.2227C132.227 14.25 132.537 14.291 132.819 14.3457C133.102 14.3913 133.284 14.4642 133.366 14.5645C133.412 14.6647 133.444 14.806 133.462 14.9883C133.489 15.1615 133.508 15.3574 133.517 15.5762C133.535 15.7858 133.544 16.0046 133.544 16.2324C133.544 16.4694 133.544 16.6927 133.544 16.9023C133.544 17.276 133.485 17.5723 133.366 17.791C133.248 18.0098 133.065 18.1738 132.819 18.2832C132.573 18.4017 132.254 18.4746 131.862 18.502C131.48 18.5384 131.024 18.5566 130.495 18.5566C130.358 18.5566 130.144 18.5521 129.853 18.543C129.561 18.5339 129.251 18.5065 128.923 18.4609C128.604 18.4154 128.299 18.347 128.007 18.2559C127.724 18.1647 127.519 18.0371 127.392 17.873C127.319 17.7728 127.259 17.6315 127.214 17.4492C127.177 17.276 127.146 17.0755 127.118 16.8477C127.1 16.6289 127.086 16.3919 127.077 16.1367C127.068 15.8906 127.064 15.64 127.064 15.3848C127.064 15.2845 127.064 15.1979 127.064 15.125C127.064 15.0521 127.068 14.9792 127.077 14.9062V14.7969C127.077 14.5326 127.136 14.3548 127.255 14.2637C127.373 14.1725 127.547 14.127 127.774 14.127L130.14 14.168ZM142.588 10.1484C142.397 10.1393 142.256 10.0755 142.164 9.95703C142.082 9.83854 142.041 9.71549 142.041 9.58789C142.041 9.45117 142.091 9.32812 142.192 9.21875C142.292 9.10026 142.433 9.04102 142.616 9.04102C142.962 9.02279 143.317 9.00911 143.682 9C144.056 8.99089 144.448 8.98633 144.858 8.98633H147.045C147.373 9.13216 147.537 9.32357 147.537 9.56055C147.519 9.69727 147.469 9.81576 147.387 9.91602C147.305 10.0072 147.187 10.071 147.032 10.1074H146.485C146.585 10.2533 146.662 10.4173 146.717 10.5996C146.772 10.7728 146.799 10.9642 146.799 11.1738C146.799 11.5384 146.731 11.8438 146.594 12.0898C146.466 12.3268 146.302 12.5182 146.102 12.6641C145.91 12.8008 145.696 12.901 145.459 12.9648C145.231 13.0195 145.022 13.0469 144.83 13.0469C144.575 13.0469 144.329 13.0104 144.092 12.9375C143.855 12.8555 143.641 12.737 143.45 12.582C143.267 12.4271 143.117 12.2311 142.998 11.9941C142.88 11.748 142.816 11.4655 142.807 11.1465C142.834 10.7181 142.944 10.3809 143.135 10.1348C143.035 10.1348 142.939 10.1348 142.848 10.1348C142.766 10.1348 142.679 10.1393 142.588 10.1484ZM144.366 10.5723C144.229 10.6634 144.124 10.7637 144.051 10.873C143.987 10.9733 143.955 11.0326 143.955 11.0508V11.1602C143.955 11.3424 143.987 11.4837 144.051 11.584C144.115 11.6842 144.188 11.7572 144.27 11.8027C144.361 11.8483 144.448 11.8757 144.53 11.8848C144.621 11.8939 144.689 11.8984 144.735 11.8984C144.981 11.8984 145.195 11.8438 145.377 11.7344C145.56 11.625 145.651 11.4473 145.651 11.2012C145.651 11.0462 145.623 10.9186 145.569 10.8184C145.514 10.7181 145.446 10.6406 145.364 10.5859C145.291 10.5312 145.204 10.4948 145.104 10.4766C145.013 10.4583 144.926 10.4492 144.844 10.4492C144.671 10.4492 144.511 10.4902 144.366 10.5723ZM143.627 8.16602C143.445 8.04753 143.322 7.93815 143.258 7.83789C143.194 7.72852 143.162 7.6237 143.162 7.52344C143.162 7.33203 143.222 7.19076 143.34 7.09961C143.468 7.00846 143.595 6.96289 143.723 6.96289C143.841 6.96289 143.955 6.99023 144.065 7.04492C144.284 7.11784 144.516 7.16797 144.762 7.19531C145.017 7.22266 145.254 7.26367 145.473 7.31836C145.692 7.36393 145.874 7.43229 146.02 7.52344C146.166 7.61458 146.239 7.76042 146.239 7.96094C146.22 8.09766 146.17 8.22526 146.088 8.34375C146.015 8.45312 145.883 8.50781 145.692 8.50781C145.482 8.50781 145.295 8.50326 145.131 8.49414C144.976 8.48503 144.821 8.47135 144.666 8.45312C144.511 8.42578 144.352 8.38932 144.188 8.34375C144.024 8.29818 143.837 8.23893 143.627 8.16602ZM145.5 14.9473L145.473 15.7676C145.455 15.9225 145.446 16.1094 145.446 16.3281C145.455 16.5469 145.446 16.7565 145.418 16.957C145.391 17.1576 145.336 17.3262 145.254 17.4629C145.181 17.6087 145.054 17.6816 144.871 17.6816C144.744 17.6816 144.607 17.6361 144.461 17.5449C144.325 17.4538 144.256 17.3034 144.256 17.0938C144.247 16.8568 144.247 16.6335 144.256 16.4238C144.265 16.2142 144.274 16.0137 144.284 15.8223L144.297 14.9609C143.459 14.9518 142.707 14.9336 142.041 14.9062C141.376 14.8789 140.788 14.8333 140.278 14.7695C140.123 14.7604 139.995 14.7012 139.895 14.5918C139.795 14.4824 139.744 14.3503 139.744 14.1953C139.744 14.0495 139.79 13.9264 139.881 13.8262C139.972 13.7168 140.091 13.653 140.237 13.6348C141.494 13.7715 142.83 13.8398 144.243 13.8398C145.236 13.8398 146.129 13.8171 146.922 13.7715C147.724 13.7259 148.431 13.6576 149.041 13.5664H149.151C149.342 13.5664 149.483 13.612 149.575 13.7031C149.675 13.7943 149.739 13.89 149.766 13.9902C149.766 14.1816 149.729 14.3275 149.657 14.4277C149.593 14.528 149.465 14.61 149.274 14.6738C148.745 14.7467 148.166 14.806 147.537 14.8516C146.918 14.8971 146.239 14.929 145.5 14.9473ZM153.919 9.86133C154.302 9.86133 154.58 9.7793 154.753 9.61523C154.935 9.45117 155.026 9.15039 155.026 8.71289C155.026 8.36654 154.949 8.0931 154.794 7.89258C154.639 7.69206 154.347 7.5918 153.919 7.5918C153.509 7.5918 153.222 7.69206 153.058 7.89258C152.894 8.0931 152.811 8.36654 152.811 8.71289C152.811 9.15039 152.907 9.45117 153.099 9.61523C153.299 9.7793 153.573 9.86133 153.919 9.86133ZM153.905 11.0234C153.158 11.0234 152.588 10.8184 152.196 10.4082C151.813 9.99805 151.622 9.4375 151.622 8.72656C151.622 8.4349 151.663 8.15234 151.745 7.87891C151.827 7.59635 151.959 7.35026 152.142 7.14062C152.324 6.92188 152.561 6.7487 152.852 6.62109C153.144 6.49349 153.5 6.42969 153.919 6.42969C154.311 6.42969 154.648 6.48893 154.931 6.60742C155.222 6.72591 155.464 6.88997 155.655 7.09961C155.847 7.30013 155.988 7.54622 156.079 7.83789C156.179 8.12044 156.229 8.42578 156.229 8.75391C156.229 9.45573 156.02 10.0117 155.601 10.4219C155.181 10.8229 154.616 11.0234 153.905 11.0234ZM154.561 13.0195C154.561 13.2018 154.548 13.4069 154.52 13.6348C154.502 13.8535 154.493 14.127 154.493 14.4551C154.493 14.6647 154.434 14.8242 154.315 14.9336C154.197 15.0339 154.074 15.084 153.946 15.084C153.819 15.084 153.682 15.0384 153.536 14.9473C153.399 14.8561 153.331 14.7057 153.331 14.4961C153.331 14.168 153.336 13.8945 153.345 13.6758C153.363 13.4479 153.372 13.2383 153.372 13.0469H153.058C152.884 13.0469 152.666 13.0514 152.401 13.0605C152.137 13.0697 151.882 13.056 151.636 13.0195C151.39 12.9831 151.175 12.9147 150.993 12.8145C150.82 12.7142 150.733 12.5592 150.733 12.3496C150.733 12.222 150.774 12.1126 150.856 12.0215C150.948 11.9303 151.066 11.862 151.212 11.8164C151.759 11.8346 152.237 11.8529 152.647 11.8711C153.058 11.8802 153.395 11.8848 153.659 11.8848C154.069 11.8848 154.52 11.8757 155.013 11.8574C155.514 11.8301 156.07 11.7799 156.681 11.707H156.763C156.972 11.707 157.123 11.7617 157.214 11.8711C157.314 11.9805 157.373 12.0853 157.392 12.1855C157.392 12.377 157.355 12.5182 157.282 12.6094C157.218 12.6914 157.091 12.7643 156.899 12.8281C156.444 12.8737 156.02 12.9147 155.628 12.9512C155.245 12.9785 154.89 13.0013 154.561 13.0195ZM159.511 10.832H158.759C158.604 10.832 158.435 10.8366 158.253 10.8457C158.08 10.8548 157.902 10.8685 157.72 10.8867C157.528 10.8776 157.387 10.8138 157.296 10.6953C157.205 10.5768 157.159 10.4583 157.159 10.3398C157.159 10.1849 157.196 10.0618 157.269 9.9707C157.341 9.87956 157.437 9.81576 157.556 9.7793C157.674 9.73372 157.806 9.70638 157.952 9.69727C158.098 9.68815 158.244 9.68359 158.39 9.68359C158.49 9.68359 158.581 9.68815 158.663 9.69727C158.745 9.69727 158.859 9.69727 159.005 9.69727C159.087 9.69727 159.173 9.69727 159.265 9.69727C159.356 9.69727 159.456 9.69271 159.565 9.68359V9.41016C159.565 9.18229 159.556 8.94987 159.538 8.71289C159.529 8.47591 159.511 8.2526 159.483 8.04297C159.465 7.83333 159.447 7.64648 159.429 7.48242C159.42 7.31836 159.415 7.19531 159.415 7.11328C159.415 6.78516 159.465 6.55729 159.565 6.42969C159.666 6.30208 159.811 6.23828 160.003 6.23828C160.185 6.23828 160.322 6.32487 160.413 6.49805C160.504 6.66211 160.563 6.85807 160.591 7.08594C160.627 7.30469 160.645 7.53255 160.645 7.76953C160.645 7.9974 160.65 8.17969 160.659 8.31641C160.686 8.99089 160.7 9.5651 160.7 10.0391C160.7 10.4401 160.7 10.832 160.7 11.2148C160.7 11.5885 160.677 11.9258 160.632 12.2266C160.595 12.5182 160.527 12.7552 160.427 12.9375C160.326 13.1198 160.176 13.2109 159.976 13.2109C159.821 13.2109 159.688 13.1562 159.579 13.0469C159.47 12.9375 159.415 12.778 159.415 12.5684L159.511 10.832ZM155.97 17.8867C155.66 17.8138 155.423 17.6908 155.259 17.5176C155.104 17.3535 154.99 17.1484 154.917 16.9023C154.853 16.6562 154.812 16.3737 154.794 16.0547C154.776 15.7357 154.757 15.3848 154.739 15.002C154.767 14.8197 154.835 14.6829 154.944 14.5918C155.063 14.4915 155.19 14.4414 155.327 14.4414C155.464 14.4414 155.578 14.4915 155.669 14.5918C155.769 14.6829 155.847 14.806 155.901 14.9609L155.983 16.2871C155.992 16.4512 156.065 16.5742 156.202 16.6562C156.348 16.7474 156.517 16.8112 156.708 16.8477C156.908 16.8841 157.118 16.9023 157.337 16.9023C157.556 16.9115 157.756 16.916 157.938 16.916C158.403 16.916 158.841 16.8841 159.251 16.8203C159.661 16.7565 160.026 16.6608 160.345 16.5332C160.399 16.515 160.449 16.5013 160.495 16.4922C160.55 16.4831 160.6 16.4785 160.645 16.4785C160.828 16.4785 160.964 16.5423 161.056 16.6699C161.156 16.8066 161.206 16.957 161.206 17.1211C161.206 17.2852 161.11 17.4264 160.919 17.5449C160.737 17.6634 160.486 17.7637 160.167 17.8457C159.857 17.9277 159.492 17.987 159.073 18.0234C158.663 18.0599 158.23 18.0781 157.774 18.0781C157.455 18.0781 157.145 18.0645 156.845 18.0371C156.544 18.0098 156.252 17.9596 155.97 17.8867ZM163.759 10.8184C163.787 10.9915 163.805 11.1966 163.814 11.4336C163.832 11.6706 163.855 11.8529 163.882 11.9805C164.037 11.9896 164.211 11.9941 164.402 11.9941C164.593 11.9941 164.794 11.9941 165.004 11.9941C165.213 11.9941 165.405 11.9896 165.578 11.9805C165.76 11.9622 165.92 11.944 166.056 11.9258C166.065 11.7982 166.07 11.6706 166.07 11.543C166.07 11.4062 166.07 11.265 166.07 11.1191C166.061 11.0736 166.056 11.028 166.056 10.9824C166.056 10.9277 166.056 10.8776 166.056 10.832C165.746 10.832 165.4 10.832 165.017 10.832C164.643 10.832 164.224 10.8275 163.759 10.8184ZM166.084 9.65625C166.084 9.61068 166.084 9.56966 166.084 9.5332C166.093 9.48763 166.097 9.44206 166.097 9.39648C166.097 9.35091 166.093 9.3099 166.084 9.27344C166.084 9.22786 166.084 9.18229 166.084 9.13672V8.125C166.138 7.80599 166.33 7.6237 166.658 7.57812C166.931 7.57812 167.127 7.7513 167.246 8.09766V10.9551V11.543C167.246 11.9987 167.182 12.3405 167.054 12.5684C166.936 12.7871 166.735 12.9421 166.453 13.0332C166.17 13.1152 165.792 13.1562 165.318 13.1562C164.853 13.1562 164.274 13.1562 163.582 13.1562C163.372 13.1471 163.203 13.0742 163.076 12.9375C162.957 12.8008 162.866 12.6276 162.802 12.418C162.739 12.1992 162.693 11.9486 162.666 11.666C162.647 11.3835 162.629 11.0872 162.611 10.7773L162.529 9.32812C162.511 9.08203 162.506 8.86328 162.515 8.67188C162.524 8.48047 162.524 8.31641 162.515 8.17969C162.561 7.9974 162.629 7.86523 162.72 7.7832C162.821 7.69206 162.944 7.63737 163.089 7.61914C163.254 7.61914 163.377 7.66927 163.459 7.76953C163.55 7.86068 163.614 7.98372 163.65 8.13867C163.686 8.28451 163.705 8.45768 163.705 8.6582C163.705 8.84961 163.705 9.04557 163.705 9.24609V9.64258C164.179 9.65169 164.612 9.65625 165.004 9.65625C165.405 9.65625 165.765 9.65625 166.084 9.65625ZM170.486 9.57422C170.532 9.58333 170.577 9.58789 170.623 9.58789C170.668 9.58789 170.714 9.58789 170.759 9.58789C170.851 9.58789 170.937 9.58789 171.019 9.58789C171.11 9.57878 171.206 9.57422 171.306 9.57422C171.452 9.57422 171.598 9.57878 171.744 9.58789C171.899 9.59701 172.031 9.62435 172.14 9.66992C172.259 9.71549 172.354 9.78841 172.427 9.88867C172.5 9.97982 172.537 10.1074 172.537 10.2715C172.537 10.3809 172.487 10.4902 172.386 10.5996C172.286 10.709 172.149 10.7682 171.976 10.7773C171.794 10.7591 171.612 10.7454 171.429 10.7363C171.256 10.7272 171.092 10.7227 170.937 10.7227H170.472C170.463 11.0417 170.454 11.3516 170.445 11.6523C170.445 11.944 170.422 12.2083 170.377 12.4453C170.34 12.6732 170.276 12.86 170.185 13.0059C170.094 13.1426 169.953 13.2109 169.761 13.2109C169.606 13.2109 169.474 13.1562 169.365 13.0469C169.255 12.9375 169.201 12.778 169.201 12.5684L169.31 10.6816C169.328 10.5085 169.342 10.3398 169.351 10.1758C169.36 10.0026 169.365 9.82487 169.365 9.64258C169.365 9.4056 169.356 9.15951 169.337 8.9043C169.319 8.63997 169.301 8.38932 169.283 8.15234C169.265 7.91536 169.246 7.70573 169.228 7.52344C169.21 7.34115 169.201 7.20443 169.201 7.11328C169.201 6.78516 169.251 6.55729 169.351 6.42969C169.451 6.30208 169.597 6.23828 169.789 6.23828C169.971 6.23828 170.108 6.32487 170.199 6.49805C170.29 6.66211 170.349 6.85807 170.377 7.08594C170.413 7.30469 170.431 7.53255 170.431 7.76953C170.44 7.9974 170.445 8.17969 170.445 8.31641L170.486 9.57422ZM166.193 16.793C166.722 16.875 167.264 16.916 167.82 16.916C168.339 16.916 168.804 16.8932 169.214 16.8477C169.634 16.8021 169.989 16.7428 170.281 16.6699C170.445 16.6243 170.573 16.6016 170.664 16.6016C170.819 16.6016 170.937 16.6608 171.019 16.7793C171.101 16.8978 171.142 17.0345 171.142 17.1895C171.142 17.3717 171.051 17.5176 170.869 17.627C170.696 17.7363 170.454 17.8184 170.144 17.873C169.843 17.9368 169.483 17.9779 169.064 17.9961C168.645 18.0143 168.189 18.0234 167.697 18.0234C166.886 18.0234 166.152 17.9551 165.496 17.8184C165.386 17.7272 165.291 17.5996 165.209 17.4355C165.127 17.2715 165.063 17.0846 165.017 16.875C164.972 16.6745 164.935 16.4557 164.908 16.2188C164.89 15.9909 164.88 15.7585 164.88 15.5215C164.88 15.1842 164.931 14.9199 165.031 14.7285C165.14 14.528 165.295 14.3776 165.496 14.2773C165.705 14.168 165.961 14.0996 166.261 14.0723C166.562 14.0358 166.908 14.0176 167.3 14.0176C167.701 14.0176 168.143 14.0221 168.627 14.0312C169.11 14.0312 169.638 14.013 170.212 13.9766C170.404 13.9766 170.554 14.0267 170.664 14.127C170.773 14.2181 170.828 14.3411 170.828 14.4961C170.828 14.6602 170.791 14.7878 170.718 14.8789C170.655 14.9609 170.522 15.0247 170.322 15.0703C170.13 15.1068 169.857 15.1296 169.502 15.1387C169.155 15.1387 168.699 15.1387 168.134 15.1387C167.041 15.1387 166.352 15.2025 166.07 15.3301C166.061 15.403 166.052 15.4805 166.043 15.5625C166.043 15.6354 166.043 15.7129 166.043 15.7949C166.043 15.959 166.052 16.1276 166.07 16.3008C166.097 16.474 166.138 16.638 166.193 16.793ZM177.319 10.8457C177.501 10.9642 177.633 11.1374 177.715 11.3652C177.806 11.5931 177.852 11.8118 177.852 12.0215C177.852 12.2676 177.824 12.5365 177.77 12.8281C177.724 13.1198 177.66 13.4115 177.578 13.7031C177.505 13.9857 177.423 14.2591 177.332 14.5234C177.25 14.7786 177.168 14.9974 177.086 15.1797C177.004 15.3711 176.904 15.5033 176.785 15.5762C176.676 15.6491 176.544 15.681 176.389 15.6719C176.27 15.6719 176.161 15.6263 176.061 15.5352C175.961 15.444 175.91 15.321 175.91 15.166C175.91 15.0931 175.933 14.9928 175.979 14.8652C176.024 14.7285 176.074 14.5781 176.129 14.4141C176.193 14.25 176.257 14.0859 176.321 13.9219C176.384 13.7487 176.434 13.5938 176.471 13.457C176.608 12.9648 176.676 12.5638 176.676 12.2539C176.676 12.099 176.653 11.9805 176.608 11.8984C176.571 11.8164 176.494 11.7708 176.375 11.7617L173.422 11.5293C173.167 11.4382 173.039 11.265 173.039 11.0098C173.039 10.627 173.313 10.4355 173.86 10.4355C174.115 10.4355 174.425 10.4538 174.789 10.4902C175.154 10.5176 175.509 10.554 175.856 10.5996C176.202 10.6361 176.512 10.6771 176.785 10.7227C177.068 10.7682 177.246 10.8092 177.319 10.8457ZM181.065 10.9277C181.046 10.5814 181.024 10.2852 180.996 10.0391C180.969 9.79297 180.955 9.59245 180.955 9.4375C180.955 9.10938 181.005 8.88151 181.106 8.75391C181.206 8.6263 181.352 8.5625 181.543 8.5625C181.725 8.5625 181.862 8.64909 181.953 8.82227C182.044 8.98633 182.104 9.18685 182.131 9.42383C182.168 9.65169 182.186 9.88867 182.186 10.1348C182.186 10.3717 182.19 10.5586 182.199 10.6953C182.209 10.9323 182.218 11.1602 182.227 11.3789C182.236 11.5977 182.24 11.8118 182.24 12.0215C182.24 12.9876 182.222 13.8125 182.186 14.4961C182.158 15.1797 182.127 15.7266 182.09 16.1367C182.063 16.3464 181.99 16.4922 181.871 16.5742C181.753 16.6654 181.625 16.7109 181.489 16.7109C181.334 16.7109 181.201 16.6562 181.092 16.5469C180.983 16.4375 180.928 16.278 180.928 16.0684L181.051 13.6074C181.069 13.4251 181.083 13.2246 181.092 13.0059C181.101 12.7871 181.106 12.5501 181.106 12.2949C181.106 11.8939 181.092 11.4382 181.065 10.9277ZM179.178 9.49219C179.123 9.48307 179.014 9.4375 178.85 9.35547C178.686 9.27344 178.517 9.16406 178.344 9.02734C178.171 8.89062 178.016 8.73112 177.879 8.54883C177.752 8.36654 177.688 8.17513 177.688 7.97461C177.688 7.81055 177.752 7.66471 177.879 7.53711C178.016 7.40039 178.166 7.33203 178.33 7.33203C178.458 7.33203 178.572 7.35938 178.672 7.41406C178.772 7.46875 178.854 7.53711 178.918 7.61914C178.991 7.69206 179.046 7.77409 179.082 7.86523C179.128 7.94727 179.16 8.01562 179.178 8.07031C179.178 8.01562 179.196 7.94727 179.233 7.86523C179.278 7.7832 179.333 7.70573 179.397 7.63281C179.47 7.55078 179.556 7.48242 179.656 7.42773C179.757 7.36393 179.875 7.33203 180.012 7.33203C180.176 7.33203 180.326 7.40039 180.463 7.53711C180.6 7.66471 180.668 7.81055 180.668 7.97461C180.668 8.17513 180.6 8.36654 180.463 8.54883C180.336 8.73112 180.185 8.89062 180.012 9.02734C179.839 9.16406 179.67 9.27344 179.506 9.35547C179.342 9.4375 179.233 9.48307 179.178 9.49219Z" fill="#EC4058"/>
<path d="M17 18.1465H183.758V18.4883H17V18.1465Z" fill="#EC4058"/>
<g clip-path="url(#clip0_936_849)">
<path d="M6.35355 9.64645L8.35355 11.6464C8.54882 11.8417 8.54882 12.1583 8.35355 12.3536C8.15829 12.5488 7.84171 12.5488 7.64645 12.3536L6.5 11.2071V14C6.5 14.2761 6.27614 14.5 6 14.5C5.72386 14.5 5.5 14.2761 5.5 14V11.2071L4.35355 12.3536C4.15829 12.5488 3.84171 12.5488 3.64645 12.3536C3.45118 12.1583 3.45118 11.8417 3.64645 11.6464L5.64645 9.64645C5.84171 9.45118 6.15829 9.45118 6.35355 9.64645Z" fill="#EC4058"/>
<path fill-rule="evenodd" clip-rule="evenodd" d="M0.5 12C0.5 8.96243 2.96243 6.5 6 6.5C9.03757 6.5 11.5 8.96243 11.5 12C11.5 15.0376 9.03757 17.5 6 17.5C2.96243 17.5 0.5 15.0376 0.5 12ZM6 7.5C3.51472 7.5 1.5 9.51472 1.5 12C1.5 14.4853 3.51472 16.5 6 16.5C8.48528 16.5 10.5 14.4853 10.5 12C10.5 9.51472 8.48528 7.5 6 7.5Z" fill="#EC4058"/>
</g>
<defs>
<clipPath id="clip0_936_849">
<rect width="12" height="12" fill="white" transform="translate(0 6)"/>
</clipPath>
</defs>
</svg>
