<svg width="121" height="24" viewBox="0 0 121 24" fill="none" xmlns="http://www.w3.org/2000/svg">
<path d="M22.9746 7.87891C22.7832 7.86979 22.6419 7.80599 22.5508 7.6875C22.4688 7.5599 22.4277 7.43685 22.4277 7.31836C22.4277 7.19076 22.4779 7.07227 22.5781 6.96289C22.6784 6.8444 22.8105 6.78516 22.9746 6.78516C23.5306 6.78516 23.9909 6.8125 24.3555 6.86719C24.7292 6.91276 25.0254 6.99023 25.2441 7.09961C25.472 7.20898 25.6315 7.3457 25.7227 7.50977C25.8229 7.67383 25.873 7.86979 25.873 8.09766C25.873 8.29818 25.8594 8.5306 25.832 8.79492C25.8138 9.05924 25.7819 9.37826 25.7363 9.75195C25.7181 9.89779 25.6999 10.0436 25.6816 10.1895C25.6725 10.3353 25.6452 10.472 25.5996 10.5996C25.5632 10.7181 25.4993 10.8229 25.4082 10.9141C25.3262 11.0052 25.2077 11.069 25.0527 11.1055H25.0254C24.6882 11.1055 24.5013 10.9368 24.4648 10.5996V10.5312C24.4648 10.5221 24.4603 10.513 24.4512 10.5039C24.4512 10.4948 24.4512 10.4811 24.4512 10.4629C24.4512 10.2624 24.474 10.0391 24.5195 9.79297C24.5742 9.53776 24.6152 9.29622 24.6426 9.06836C24.6608 8.77669 24.6699 8.54883 24.6699 8.38477C24.679 8.2207 24.6882 8.12044 24.6973 8.08398C24.4876 8.0293 24.2233 7.98372 23.9043 7.94727C23.5853 7.90169 23.2754 7.87891 22.9746 7.87891ZM19.0098 8.15234C18.8184 8.14323 18.6771 8.07943 18.5859 7.96094C18.5039 7.83333 18.4629 7.71029 18.4629 7.5918C18.4629 7.46419 18.513 7.3457 18.6133 7.23633C18.7135 7.11784 18.8457 7.05859 19.0098 7.05859C19.5475 7.05859 19.9987 7.08594 20.3633 7.14062C20.737 7.1862 21.0378 7.26367 21.2656 7.37305C21.4935 7.47331 21.6576 7.60547 21.7578 7.76953C21.8581 7.92448 21.9082 8.11133 21.9082 8.33008C21.9082 8.40299 21.9036 8.48047 21.8945 8.5625C21.8945 8.64453 21.8854 8.74023 21.8672 8.84961C21.8581 8.95898 21.8444 9.08659 21.8262 9.23242C21.8079 9.37826 21.7897 9.55143 21.7715 9.75195C21.7533 9.89779 21.735 10.0436 21.7168 10.1895C21.7077 10.3353 21.6803 10.472 21.6348 10.5996C21.5983 10.7181 21.5345 10.8229 21.4434 10.9141C21.3613 11.0052 21.2428 11.069 21.0879 11.1055H21.0605C20.7233 11.1055 20.5365 10.9368 20.5 10.5996V10.5312C20.5 10.5221 20.4954 10.513 20.4863 10.5039C20.4863 10.4948 20.4863 10.4811 20.4863 10.4629C20.4863 10.2624 20.5137 10.0391 20.5684 9.79297C20.623 9.54688 20.6595 9.30534 20.6777 9.06836C20.696 8.85872 20.7051 8.69922 20.7051 8.58984C20.7051 8.47135 20.7142 8.39388 20.7324 8.35742C20.5228 8.30273 20.2585 8.25716 19.9395 8.2207C19.6204 8.17513 19.3105 8.15234 19.0098 8.15234ZM23.3984 12.7598V12.8965C23.3893 13.0514 23.3893 13.2383 23.3984 13.457C23.4076 13.6758 23.3984 13.8854 23.3711 14.0859C23.3438 14.2865 23.2891 14.4596 23.207 14.6055C23.125 14.7422 22.9928 14.8105 22.8105 14.8105C22.6829 14.8105 22.5462 14.765 22.4004 14.6738C22.2637 14.5827 22.1953 14.4323 22.1953 14.2227C22.1862 13.9857 22.1862 13.7624 22.1953 13.5527C22.2044 13.3431 22.209 13.1426 22.209 12.9512V12.7734C21.3613 12.7643 20.6048 12.7461 19.9395 12.7188C19.2741 12.6914 18.6816 12.6458 18.1621 12.582C18.0072 12.5729 17.8796 12.5137 17.7793 12.4043C17.679 12.2949 17.6289 12.1628 17.6289 12.0078C17.6289 11.862 17.6745 11.7389 17.7656 11.6387C17.8568 11.5293 17.9753 11.4655 18.1211 11.4473C19.3789 11.584 20.7142 11.6523 22.127 11.6523C23.1204 11.6523 24.0137 11.6296 24.8066 11.584C25.6087 11.5384 26.3151 11.4701 26.9258 11.3789H27.0352C27.2266 11.3789 27.3678 11.4245 27.459 11.5156C27.5592 11.6068 27.623 11.7025 27.6504 11.8027C27.6504 11.9941 27.6139 12.14 27.541 12.2402C27.4772 12.3405 27.3496 12.4225 27.1582 12.4863C26.6387 12.5592 26.0645 12.6185 25.4355 12.6641C24.8158 12.7096 24.1367 12.7415 23.3984 12.7598ZM22.6602 15.2344C22.5781 15.2344 22.5007 15.2389 22.4277 15.248C22.3548 15.248 22.2819 15.248 22.209 15.248C21.9538 15.248 21.7214 15.2389 21.5117 15.2207C21.3112 15.1934 21.1198 15.1797 20.9375 15.1797C20.8646 15.1797 20.8236 15.2253 20.8145 15.3164C20.8053 15.3984 20.8008 15.4987 20.8008 15.6172C20.8008 16 20.8053 16.319 20.8145 16.5742C20.8236 16.8294 20.8372 17.0072 20.8555 17.1074L20.9785 17.1621C21.1699 17.2259 21.457 17.2897 21.8398 17.3535C22.2227 17.4173 22.7057 17.4492 23.2891 17.4492C23.5169 17.4492 23.7357 17.4401 23.9453 17.4219C24.1549 17.4128 24.3418 17.3945 24.5059 17.3672C24.6699 17.349 24.7975 17.3216 24.8887 17.2852C24.9889 17.2487 25.0391 17.2077 25.0391 17.1621C25.0482 17.1165 25.0527 17.0573 25.0527 16.9844C25.0618 16.9115 25.0664 16.8249 25.0664 16.7246C25.0664 16.6517 25.0664 16.556 25.0664 16.4375C25.0664 16.319 25.0618 16.196 25.0527 16.0684C25.0436 15.9499 25.0345 15.8314 25.0254 15.7129C25.0163 15.5944 25.0072 15.4941 24.998 15.4121C24.9707 15.403 24.9342 15.3984 24.8887 15.3984C24.8522 15.3984 24.8112 15.3939 24.7656 15.3848C24.3099 15.3392 23.9089 15.3073 23.5625 15.2891C23.2161 15.2617 22.9154 15.2435 22.6602 15.2344ZM22.7695 14.168C22.9518 14.168 23.207 14.1725 23.5352 14.1816C23.8633 14.1816 24.1914 14.1953 24.5195 14.2227C24.8568 14.25 25.1667 14.291 25.4492 14.3457C25.7318 14.3913 25.9141 14.4642 25.9961 14.5645C26.0417 14.6647 26.0736 14.806 26.0918 14.9883C26.1191 15.1615 26.1374 15.3574 26.1465 15.5762C26.1647 15.7858 26.1738 16.0046 26.1738 16.2324C26.1738 16.4694 26.1738 16.6927 26.1738 16.9023C26.1738 17.276 26.1146 17.5723 25.9961 17.791C25.8776 18.0098 25.6953 18.1738 25.4492 18.2832C25.2031 18.4017 24.8841 18.4746 24.4922 18.502C24.1094 18.5384 23.6536 18.5566 23.125 18.5566C22.9883 18.5566 22.7741 18.5521 22.4824 18.543C22.1908 18.5339 21.8809 18.5065 21.5527 18.4609C21.2337 18.4154 20.9284 18.347 20.6367 18.2559C20.3542 18.1647 20.1491 18.0371 20.0215 17.873C19.9486 17.7728 19.8893 17.6315 19.8438 17.4492C19.8073 17.276 19.7754 17.0755 19.748 16.8477C19.7298 16.6289 19.7161 16.3919 19.707 16.1367C19.6979 15.8906 19.6934 15.64 19.6934 15.3848C19.6934 15.2845 19.6934 15.1979 19.6934 15.125C19.6934 15.0521 19.6979 14.9792 19.707 14.9062V14.7969C19.707 14.5326 19.7663 14.3548 19.8848 14.2637C20.0033 14.1725 20.1764 14.127 20.4043 14.127L22.7695 14.168ZM30.5182 13.2793C30.5182 13.5801 30.5273 13.8581 30.5455 14.1133C30.5729 14.3594 30.6048 14.5599 30.6412 14.7148C30.7962 14.724 30.9694 14.7285 31.1608 14.7285C31.3522 14.7285 31.5527 14.7285 31.7623 14.7285C31.972 14.7285 32.1634 14.724 32.3366 14.7148C32.5189 14.6966 32.6784 14.6784 32.8151 14.6602C32.8242 14.5326 32.8287 14.3913 32.8287 14.2363C32.8287 14.0723 32.8287 13.8991 32.8287 13.7168C32.8196 13.6439 32.8151 13.5755 32.8151 13.5117C32.8151 13.4388 32.8151 13.3659 32.8151 13.293C32.5052 13.293 32.1588 13.293 31.776 13.293C31.4023 13.293 30.983 13.2884 30.5182 13.2793ZM32.8424 12.1172C32.8424 12.0716 32.8424 12.0306 32.8424 11.9941C32.8515 11.9486 32.8561 11.903 32.8561 11.8574C32.8561 11.8118 32.8515 11.7708 32.8424 11.7344C32.8424 11.6888 32.8424 11.6432 32.8424 11.5977V10.5859C32.8971 10.2669 33.0885 10.0846 33.4166 10.0391C33.6901 10.0391 33.886 10.2122 34.0045 10.5586V13.416V14.0449C34.0045 14.5553 33.9544 14.9427 33.8541 15.207C33.7539 15.4622 33.567 15.64 33.2936 15.7402C33.0202 15.8405 32.6465 15.8906 32.1725 15.8906C31.6985 15.8906 31.0879 15.8906 30.3405 15.8906C30.1217 15.8815 29.9485 15.7995 29.8209 15.6445C29.7024 15.4805 29.6113 15.2754 29.5475 15.0293C29.4837 14.7832 29.4427 14.5052 29.4245 14.1953C29.4062 13.8854 29.388 13.5664 29.3698 13.2383L29.2877 11.7891C29.2695 11.543 29.2649 11.3242 29.2741 11.1328C29.2832 10.9414 29.2832 10.7773 29.2741 10.6406C29.3196 10.4583 29.388 10.3262 29.4791 10.2441C29.5794 10.153 29.7024 10.0983 29.8483 10.0801C30.0123 10.0801 30.1354 10.1302 30.2174 10.2305C30.3086 10.3216 30.3724 10.4447 30.4088 10.5996C30.4453 10.7454 30.4635 10.9186 30.4635 11.1191C30.4635 11.3105 30.4635 11.5065 30.4635 11.707V12.1035C30.9375 12.1126 31.3704 12.1172 31.7623 12.1172C32.1634 12.1172 32.5234 12.1172 32.8424 12.1172ZM37.1901 11.8984C37.2357 11.9076 37.2812 11.9121 37.3268 11.9121C37.3815 11.9121 37.4316 11.9121 37.4772 11.9121C37.5683 11.9121 37.6549 11.9121 37.737 11.9121C37.819 11.903 37.9101 11.8984 38.0104 11.8984C38.1562 11.8984 38.3021 11.903 38.4479 11.9121C38.6028 11.9212 38.735 11.9486 38.8444 11.9941C38.9629 12.0397 39.0586 12.1126 39.1315 12.2129C39.2044 12.304 39.2409 12.4316 39.2409 12.5957C39.2409 12.7051 39.1907 12.8145 39.0905 12.9238C38.9902 13.0332 38.8535 13.0924 38.6803 13.1016C38.498 13.0833 38.3157 13.0697 38.1334 13.0605C37.9603 13.0514 37.7962 13.0469 37.6412 13.0469H37.1627C37.1445 13.7487 37.1263 14.3548 37.108 14.8652C37.0989 15.3757 37.0761 15.7995 37.0397 16.1367C37.0215 16.3464 36.9485 16.4922 36.8209 16.5742C36.6933 16.6654 36.5657 16.7109 36.4381 16.7109C36.2832 16.7109 36.151 16.6562 36.0416 16.5469C35.9323 16.4375 35.8776 16.278 35.8776 16.0684L36.0006 13.6074C36.0189 13.4251 36.0325 13.2246 36.0416 13.0059C36.0508 12.7871 36.0553 12.5501 36.0553 12.2949C36.0553 12.0579 36.0462 11.7891 36.028 11.4883C36.0189 11.1784 36.0006 10.8867 35.9733 10.6133C35.9551 10.3307 35.9368 10.0801 35.9186 9.86133C35.9095 9.64258 35.9049 9.5013 35.9049 9.4375C35.9049 9.10938 35.9551 8.88151 36.0553 8.75391C36.1556 8.6263 36.3014 8.5625 36.4928 8.5625C36.6751 8.5625 36.8118 8.64909 36.903 8.82227C36.9941 8.98633 37.0534 9.18685 37.0807 9.42383C37.1172 9.65169 37.1354 9.88867 37.1354 10.1348C37.1354 10.3717 37.1399 10.5586 37.1491 10.6953C37.1582 10.9141 37.1673 11.1237 37.1764 11.3242C37.1855 11.5247 37.1901 11.7161 37.1901 11.8984ZM34.5377 9.49219C34.483 9.48307 34.3737 9.4375 34.2096 9.35547C34.0455 9.27344 33.8769 9.16406 33.7037 9.02734C33.5306 8.89062 33.3756 8.73112 33.2389 8.54883C33.1113 8.36654 33.0475 8.17513 33.0475 7.97461C33.0475 7.81055 33.1113 7.66471 33.2389 7.53711C33.3756 7.40039 33.526 7.33203 33.6901 7.33203C33.8177 7.33203 33.9316 7.35938 34.0319 7.41406C34.1321 7.46875 34.2142 7.53711 34.278 7.61914C34.3509 7.69206 34.4056 7.77409 34.442 7.86523C34.4876 7.94727 34.5195 8.01562 34.5377 8.07031C34.5377 8.01562 34.556 7.94727 34.5924 7.86523C34.638 7.7832 34.6927 7.70573 34.7565 7.63281C34.8294 7.55078 34.916 7.48242 35.0162 7.42773C35.1165 7.36393 35.235 7.33203 35.3717 7.33203C35.5358 7.33203 35.6862 7.40039 35.8229 7.53711C35.9596 7.66471 36.028 7.81055 36.028 7.97461C36.028 8.17513 35.9596 8.36654 35.8229 8.54883C35.6953 8.73112 35.5449 8.89062 35.3717 9.02734C35.1985 9.16406 35.0299 9.27344 34.8659 9.35547C34.7018 9.4375 34.5924 9.48307 34.5377 9.49219ZM46.1555 9.66992C46.1009 9.66081 45.9733 9.65169 45.7727 9.64258C45.5722 9.62435 45.3352 9.61068 45.0618 9.60156C44.7884 9.58333 44.4921 9.56966 44.1731 9.56055C43.8632 9.54232 43.567 9.52865 43.2845 9.51953C43.011 9.5013 42.7649 9.48763 42.5462 9.47852C42.3274 9.4694 42.177 9.46029 42.095 9.45117C41.8398 9.35091 41.7122 9.18229 41.7122 8.94531C41.7122 8.76302 41.776 8.62174 41.9036 8.52148C42.0403 8.41211 42.2545 8.35742 42.5462 8.35742C42.8287 8.35742 43.1705 8.36654 43.5716 8.38477C43.9726 8.40299 44.4329 8.42578 44.9524 8.45312C46.1555 8.52604 46.8665 8.60807 47.0852 8.69922C47.222 8.79036 47.3268 8.90885 47.3997 9.05469C47.4817 9.19141 47.5364 9.3418 47.5637 9.50586C47.6002 9.66081 47.6184 9.82031 47.6184 9.98438C47.6276 10.1393 47.6321 10.2852 47.6321 10.4219C47.6321 10.6953 47.6276 10.9961 47.6184 11.3242C47.6093 11.6432 47.5774 11.944 47.5227 12.2266C47.4772 12.5 47.4042 12.7279 47.304 12.9102C47.2128 13.0924 47.0807 13.1836 46.9075 13.1836C46.7708 13.1836 46.6341 13.1426 46.4973 13.0605C46.3697 12.9694 46.2968 12.819 46.2786 12.6094C46.2786 12.4818 46.2877 12.3223 46.3059 12.1309C46.3242 11.9303 46.347 11.7298 46.3743 11.5293C46.4016 11.3197 46.4244 11.1237 46.4427 10.9414C46.4609 10.75 46.47 10.5996 46.47 10.4902C46.47 10.4538 46.47 10.3945 46.47 10.3125C46.4791 10.2305 46.4746 10.1439 46.4563 10.0527C46.4381 9.96159 46.4062 9.87956 46.3606 9.80664C46.3151 9.73372 46.2467 9.68815 46.1555 9.66992ZM45.636 14.5371L45.6087 15.2207C45.5904 15.3757 45.5813 15.5625 45.5813 15.7812C45.5904 16 45.5813 16.2096 45.554 16.4102C45.5266 16.6107 45.472 16.7793 45.3899 16.916C45.317 17.0618 45.1894 17.1348 45.0071 17.1348C44.8795 17.1348 44.7428 17.0892 44.597 16.998C44.4602 16.9069 44.3919 16.7565 44.3919 16.5469C44.3828 16.3099 44.3828 16.0866 44.3919 15.877C44.401 15.6673 44.4101 15.4668 44.4192 15.2754L44.4329 14.5508C43.5943 14.5417 42.8424 14.5234 42.177 14.4961C41.5117 14.4688 40.9238 14.4232 40.4134 14.3594C40.2584 14.3503 40.1308 14.291 40.0305 14.1816C39.9303 14.0723 39.8802 13.9401 39.8802 13.7852C39.8802 13.6393 39.9257 13.5163 40.0169 13.416C40.108 13.3066 40.2265 13.2428 40.3723 13.2246C41.6302 13.3613 42.9654 13.4297 44.3782 13.4297C45.3717 13.4297 46.2649 13.4069 47.0579 13.3613C47.86 13.3158 48.5664 13.2474 49.177 13.1562H49.2864C49.4778 13.1562 49.6191 13.2018 49.7102 13.293C49.8105 13.3841 49.8743 13.4798 49.9016 13.5801C49.9016 13.7715 49.8652 13.9173 49.7923 14.0176C49.7285 14.1178 49.6009 14.1999 49.4095 14.2637C48.8808 14.3366 48.302 14.3958 47.6731 14.4414C47.0533 14.487 46.3743 14.5189 45.636 14.5371ZM51.9355 14.4688C51.8808 14.332 51.8261 14.1406 51.7714 13.8945C51.7167 13.6393 51.662 13.375 51.6073 13.1016C51.5527 12.819 51.5071 12.5456 51.4706 12.2812C51.4342 12.0169 51.4114 11.7982 51.4023 11.625L51.3749 10.7637C51.384 10.5632 51.4524 10.4128 51.58 10.3125C51.7167 10.2031 51.8443 10.1484 51.9628 10.1484C52.1724 10.1484 52.3183 10.2122 52.4003 10.3398C52.4915 10.4674 52.5507 10.6361 52.578 10.8457C52.6054 11.0553 52.6191 11.2969 52.6191 11.5703C52.6191 11.8346 52.6419 12.1081 52.6874 12.3906C52.7148 12.7188 52.7603 13.0423 52.8241 13.3613C52.8971 13.6712 52.9609 13.8991 53.0155 14.0449L53.0839 14.168C53.093 14.1771 53.1113 14.1862 53.1386 14.1953C53.1659 14.1953 53.2252 14.1953 53.3163 14.1953H53.453H53.6581C53.8404 14.1953 54.0546 14.1862 54.3007 14.168C54.5559 14.1497 54.802 14.1315 55.039 14.1133C55.2851 14.0859 55.5038 14.0632 55.6952 14.0449C55.8866 14.0176 56.0188 13.9948 56.0917 13.9766C56.2011 13.9492 56.3059 13.9355 56.4062 13.9355C56.5429 13.9355 56.6659 13.9811 56.7753 14.0723C56.8847 14.1543 56.9394 14.2865 56.9394 14.4688C56.9394 14.6237 56.9029 14.7467 56.83 14.8379C56.7571 14.929 56.6432 15.002 56.4882 15.0566C56.3424 15.1113 56.151 15.1569 55.914 15.1934C55.677 15.2207 55.399 15.248 55.08 15.2754C54.6607 15.321 54.2916 15.3529 53.9726 15.3711C53.6627 15.3802 53.3938 15.3848 53.1659 15.3848C52.8105 15.3848 52.5416 15.3118 52.3593 15.166C52.177 15.0202 52.0357 14.7878 51.9355 14.4688ZM58.9491 10.9277C58.9309 10.5814 58.9081 10.2852 58.8808 10.0391C58.8534 9.79297 58.8398 9.59245 58.8398 9.4375C58.8398 9.10938 58.8899 8.88151 58.9902 8.75391C59.0904 8.6263 59.2363 8.5625 59.4277 8.5625C59.6099 8.5625 59.7467 8.64909 59.8378 8.82227C59.929 8.98633 59.9882 9.18685 60.0155 9.42383C60.052 9.65169 60.0702 9.88867 60.0702 10.1348C60.0702 10.3717 60.0748 10.5586 60.0839 10.6953C60.093 10.9323 60.1021 11.1602 60.1113 11.3789C60.1204 11.5977 60.1249 11.8118 60.1249 12.0215C60.1249 12.9876 60.1067 13.8125 60.0702 14.4961C60.0429 15.1797 60.011 15.7266 59.9745 16.1367C59.9472 16.3464 59.8743 16.4922 59.7558 16.5742C59.6373 16.6654 59.5097 16.7109 59.373 16.7109C59.218 16.7109 59.0859 16.6562 58.9765 16.5469C58.8671 16.4375 58.8124 16.278 58.8124 16.0684L58.9355 13.6074C58.9537 13.4251 58.9674 13.2246 58.9765 13.0059C58.9856 12.7871 58.9902 12.5501 58.9902 12.2949C58.9902 11.8939 58.9765 11.4382 58.9491 10.9277ZM57.0624 9.49219C57.0077 9.48307 56.8984 9.4375 56.7343 9.35547C56.5702 9.27344 56.4016 9.16406 56.2284 9.02734C56.0553 8.89062 55.9003 8.73112 55.7636 8.54883C55.636 8.36654 55.5722 8.17513 55.5722 7.97461C55.5722 7.81055 55.636 7.66471 55.7636 7.53711C55.9003 7.40039 56.0507 7.33203 56.2148 7.33203C56.3424 7.33203 56.4563 7.35938 56.5566 7.41406C56.6568 7.46875 56.7389 7.53711 56.8027 7.61914C56.8756 7.69206 56.9303 7.77409 56.9667 7.86523C57.0123 7.94727 57.0442 8.01562 57.0624 8.07031C57.0624 8.01562 57.0807 7.94727 57.1171 7.86523C57.1627 7.7832 57.2174 7.70573 57.2812 7.63281C57.3541 7.55078 57.4407 7.48242 57.5409 7.42773C57.6412 7.36393 57.7597 7.33203 57.8964 7.33203C58.0605 7.33203 58.2109 7.40039 58.3476 7.53711C58.4843 7.66471 58.5527 7.81055 58.5527 7.97461C58.5527 8.17513 58.4843 8.36654 58.3476 8.54883C58.22 8.73112 58.0696 8.89062 57.8964 9.02734C57.7232 9.16406 57.5546 9.27344 57.3905 9.35547C57.2265 9.4375 57.1171 9.48307 57.0624 9.49219ZM64.2095 12.6094C64.2004 12.5365 64.1867 12.4316 64.1685 12.2949C64.1594 12.1491 64.1548 11.9987 64.1548 11.8438C64.1548 11.6523 64.1731 11.4609 64.2095 11.2695C64.246 11.069 64.3189 10.8867 64.4283 10.7227C64.5377 10.5586 64.6926 10.4264 64.8931 10.3262C65.1028 10.2168 65.3762 10.1576 65.7134 10.1484C66.0962 10.1393 66.4198 10.1302 66.6841 10.1211C66.9485 10.1029 67.1627 10.071 67.3267 10.0254C67.4999 9.9707 67.6229 9.88867 67.6959 9.7793C67.7688 9.66992 67.8052 9.51042 67.8052 9.30078C67.8052 9.11849 67.7916 9.02734 67.7642 9.02734C67.5637 8.99089 67.3449 8.96354 67.108 8.94531C66.8801 8.92708 66.6249 8.91797 66.3423 8.91797C66.0598 8.91797 65.8 8.91797 65.563 8.91797C65.3352 8.91797 65.121 8.92253 64.9205 8.93164C64.6835 8.88607 64.5285 8.80859 64.4556 8.69922C64.3827 8.58984 64.3462 8.4668 64.3462 8.33008C64.3462 8.19336 64.3964 8.07031 64.4966 7.96094C64.606 7.84245 64.7564 7.7832 64.9478 7.7832C65.5311 7.79232 66.0689 7.79232 66.5611 7.7832C67.0624 7.76497 67.4908 7.79232 67.8462 7.86523C68.2017 7.93815 68.4797 8.08398 68.6802 8.30273C68.8808 8.52148 68.981 8.86328 68.981 9.32812C68.981 9.61979 68.9719 9.87956 68.9537 10.1074C68.9354 10.3262 68.8489 10.513 68.6939 10.668C68.5481 10.8229 68.3111 10.9505 67.983 11.0508C67.6548 11.1419 67.1763 11.2012 66.5474 11.2285C66.2831 11.2467 66.0598 11.2604 65.8775 11.2695C65.7043 11.2786 65.5676 11.2969 65.4673 11.3242C65.3853 11.3698 65.3443 11.6296 65.3443 12.1035C65.3443 12.2311 65.3443 12.3405 65.3443 12.4316C65.3534 12.5137 65.3716 12.582 65.399 12.6367C65.4263 12.6914 65.4719 12.7324 65.5357 12.7598C65.6086 12.778 65.7089 12.7871 65.8365 12.7871C66.0826 12.7871 66.3925 12.7689 66.7662 12.7324C67.149 12.6868 67.5181 12.6367 67.8736 12.582C68.2382 12.5273 68.5572 12.4772 68.8306 12.4316C69.1041 12.377 69.2545 12.3451 69.2818 12.3359C69.4003 12.2904 69.5051 12.2676 69.5962 12.2676C69.7512 12.2676 69.8834 12.3223 69.9927 12.4316C70.1021 12.5319 70.1568 12.6641 70.1568 12.8281C70.1568 12.9375 70.1431 13.0378 70.1158 13.1289C70.0884 13.2109 70.0064 13.2884 69.8697 13.3613C69.733 13.4251 69.5233 13.4889 69.2408 13.5527C68.9673 13.6165 68.58 13.6803 68.0787 13.7441C67.0123 13.8809 66.1692 13.9492 65.5494 13.9492C65.1848 13.9492 64.9114 13.8763 64.7291 13.7305C64.5559 13.5846 64.4192 13.3522 64.3189 13.0332C64.2916 12.9694 64.2733 12.9284 64.2642 12.9102C64.2551 12.8828 64.246 12.8646 64.2369 12.8555C64.2369 12.8372 64.2323 12.8145 64.2232 12.7871C64.2232 12.7507 64.2186 12.6914 64.2095 12.6094ZM67.4634 16.0273C68.2655 16.0091 68.9947 15.9772 69.6509 15.9316C70.3072 15.8861 70.8996 15.8268 71.4283 15.7539H71.5377C71.7291 15.7539 71.8703 15.7995 71.9615 15.8906C72.0617 15.9818 72.1255 16.0775 72.1529 16.1777C72.1529 16.3691 72.1164 16.515 72.0435 16.6152C71.9797 16.7155 71.8521 16.7975 71.6607 16.8613C71.0318 16.9525 70.3345 17.0208 69.5689 17.0664C68.8124 17.1211 67.9739 17.1484 67.0533 17.1484C66.1236 17.1484 65.2942 17.1302 64.565 17.0938C63.8449 17.0573 63.2115 17.0117 62.6646 16.957C62.5097 16.9388 62.3821 16.875 62.2818 16.7656C62.1815 16.6654 62.1314 16.5378 62.1314 16.3828C62.1314 16.237 62.177 16.1094 62.2681 16C62.3593 15.8997 62.4778 15.8405 62.6236 15.8223C63.7903 15.9499 65.0162 16.0182 66.3013 16.0273V15.207V15.2207C66.2922 15.2207 66.274 14.765 66.2466 13.8535C66.2831 13.6803 66.3515 13.5527 66.4517 13.4707C66.5611 13.3796 66.675 13.334 66.7935 13.334C66.9211 13.334 67.0442 13.3704 67.1627 13.4434C67.2811 13.5163 67.3632 13.6348 67.4087 13.7988C67.4179 14.2546 67.4315 14.6009 67.4498 14.8379C67.4589 14.9746 67.4634 15.0885 67.4634 15.1797V16.0273ZM79.7205 10.1484C79.5291 10.1393 79.3879 10.0755 79.2967 9.95703C79.2147 9.83854 79.1737 9.71549 79.1737 9.58789C79.1737 9.45117 79.2238 9.32812 79.3241 9.21875C79.4243 9.10026 79.5656 9.04102 79.7479 9.04102C80.0942 9.02279 80.4497 9.00911 80.8143 9C81.188 8.99089 81.5799 8.98633 81.9901 8.98633H84.1776C84.5057 9.13216 84.6698 9.32357 84.6698 9.56055C84.6515 9.69727 84.6014 9.81576 84.5194 9.91602C84.4373 10.0072 84.3189 10.071 84.1639 10.1074H83.617C83.7173 10.2533 83.7948 10.4173 83.8495 10.5996C83.9041 10.7728 83.9315 10.9642 83.9315 11.1738C83.9315 11.5384 83.8631 11.8438 83.7264 12.0898C83.5988 12.3268 83.4347 12.5182 83.2342 12.6641C83.0428 12.8008 82.8286 12.901 82.5916 12.9648C82.3638 13.0195 82.1541 13.0469 81.9627 13.0469C81.7075 13.0469 81.4614 13.0104 81.2245 12.9375C80.9875 12.8555 80.7733 12.737 80.5819 12.582C80.3996 12.4271 80.2492 12.2311 80.1307 11.9941C80.0122 11.748 79.9484 11.4655 79.9393 11.1465C79.9666 10.7181 80.076 10.3809 80.2674 10.1348C80.1672 10.1348 80.0715 10.1348 79.9803 10.1348C79.8983 10.1348 79.8117 10.1393 79.7205 10.1484ZM81.4979 10.5723C81.3612 10.6634 81.2564 10.7637 81.1834 10.873C81.1196 10.9733 81.0877 11.0326 81.0877 11.0508V11.1602C81.0877 11.3424 81.1196 11.4837 81.1834 11.584C81.2472 11.6842 81.3202 11.7572 81.4022 11.8027C81.4933 11.8483 81.5799 11.8757 81.662 11.8848C81.7531 11.8939 81.8215 11.8984 81.867 11.8984C82.1131 11.8984 82.3273 11.8438 82.5096 11.7344C82.6919 11.625 82.783 11.4473 82.783 11.2012C82.783 11.0462 82.7557 10.9186 82.701 10.8184C82.6463 10.7181 82.578 10.6406 82.4959 10.5859C82.423 10.5312 82.3364 10.4948 82.2362 10.4766C82.145 10.4583 82.0584 10.4492 81.9764 10.4492C81.8032 10.4492 81.6437 10.4902 81.4979 10.5723ZM80.7596 8.16602C80.5773 8.04753 80.4543 7.93815 80.3905 7.83789C80.3267 7.72852 80.2948 7.6237 80.2948 7.52344C80.2948 7.33203 80.354 7.19076 80.4725 7.09961C80.6001 7.00846 80.7277 6.96289 80.8553 6.96289C80.9738 6.96289 81.0877 6.99023 81.1971 7.04492C81.4159 7.11784 81.6483 7.16797 81.8944 7.19531C82.1496 7.22266 82.3866 7.26367 82.6053 7.31836C82.8241 7.36393 83.0064 7.43229 83.1522 7.52344C83.298 7.61458 83.3709 7.76042 83.3709 7.96094C83.3527 8.09766 83.3026 8.22526 83.2205 8.34375C83.1476 8.45312 83.0155 8.50781 82.8241 8.50781C82.6144 8.50781 82.4276 8.50326 82.2635 8.49414C82.1086 8.48503 81.9536 8.47135 81.7987 8.45312C81.6437 8.42578 81.4842 8.38932 81.3202 8.34375C81.1561 8.29818 80.9692 8.23893 80.7596 8.16602ZM82.6327 14.9473L82.6053 15.7676C82.5871 15.9225 82.578 16.1094 82.578 16.3281C82.5871 16.5469 82.578 16.7565 82.5506 16.957C82.5233 17.1576 82.4686 17.3262 82.3866 17.4629C82.3136 17.6087 82.186 17.6816 82.0037 17.6816C81.8761 17.6816 81.7394 17.6361 81.5936 17.5449C81.4569 17.4538 81.3885 17.3034 81.3885 17.0938C81.3794 16.8568 81.3794 16.6335 81.3885 16.4238C81.3976 16.2142 81.4067 16.0137 81.4159 15.8223L81.4295 14.9609C80.591 14.9518 79.839 14.9336 79.1737 14.9062C78.5083 14.8789 77.9204 14.8333 77.41 14.7695C77.2551 14.7604 77.1274 14.7012 77.0272 14.5918C76.9269 14.4824 76.8768 14.3503 76.8768 14.1953C76.8768 14.0495 76.9224 13.9264 77.0135 13.8262C77.1047 13.7168 77.2232 13.653 77.369 13.6348C78.6268 13.7715 79.9621 13.8398 81.3748 13.8398C82.3683 13.8398 83.2616 13.8171 84.0545 13.7715C84.8566 13.7259 85.563 13.6576 86.1737 13.5664H86.283C86.4745 13.5664 86.6157 13.612 86.7069 13.7031C86.8071 13.7943 86.8709 13.89 86.8983 13.9902C86.8983 14.1816 86.8618 14.3275 86.7889 14.4277C86.7251 14.528 86.5975 14.61 86.4061 14.6738C85.8774 14.7467 85.2987 14.806 84.6698 14.8516C84.05 14.8971 83.3709 14.929 82.6327 14.9473ZM91.0512 9.86133C91.4341 9.86133 91.7121 9.7793 91.8852 9.61523C92.0675 9.45117 92.1587 9.15039 92.1587 8.71289C92.1587 8.36654 92.0812 8.0931 91.9262 7.89258C91.7713 7.69206 91.4796 7.5918 91.0512 7.5918C90.6411 7.5918 90.354 7.69206 90.1899 7.89258C90.0259 8.0931 89.9438 8.36654 89.9438 8.71289C89.9438 9.15039 90.0395 9.45117 90.2309 9.61523C90.4315 9.7793 90.7049 9.86133 91.0512 9.86133ZM91.0376 11.0234C90.2902 11.0234 89.7205 10.8184 89.3286 10.4082C88.9458 9.99805 88.7544 9.4375 88.7544 8.72656C88.7544 8.4349 88.7954 8.15234 88.8774 7.87891C88.9594 7.59635 89.0916 7.35026 89.2739 7.14062C89.4562 6.92188 89.6932 6.7487 89.9848 6.62109C90.2765 6.49349 90.632 6.42969 91.0512 6.42969C91.4432 6.42969 91.7804 6.48893 92.063 6.60742C92.3546 6.72591 92.5962 6.88997 92.7876 7.09961C92.979 7.30013 93.1203 7.54622 93.2114 7.83789C93.3117 8.12044 93.3618 8.42578 93.3618 8.75391C93.3618 9.45573 93.1522 10.0117 92.7329 10.4219C92.3136 10.8229 91.7485 11.0234 91.0376 11.0234ZM91.6938 13.0195C91.6938 13.2018 91.6802 13.4069 91.6528 13.6348C91.6346 13.8535 91.6255 14.127 91.6255 14.4551C91.6255 14.6647 91.5662 14.8242 91.4477 14.9336C91.3292 15.0339 91.2062 15.084 91.0786 15.084C90.951 15.084 90.8143 15.0384 90.6684 14.9473C90.5317 14.8561 90.4634 14.7057 90.4634 14.4961C90.4634 14.168 90.4679 13.8945 90.477 13.6758C90.4953 13.4479 90.5044 13.2383 90.5044 13.0469H90.1899C90.0167 13.0469 89.798 13.0514 89.5337 13.0605C89.2693 13.0697 89.0141 13.056 88.768 13.0195C88.5219 12.9831 88.3078 12.9147 88.1255 12.8145C87.9523 12.7142 87.8657 12.5592 87.8657 12.3496C87.8657 12.222 87.9067 12.1126 87.9887 12.0215C88.0799 11.9303 88.1984 11.862 88.3442 11.8164C88.8911 11.8346 89.3696 11.8529 89.7798 11.8711C90.1899 11.8802 90.5272 11.8848 90.7915 11.8848C91.2016 11.8848 91.6528 11.8757 92.145 11.8574C92.6463 11.8301 93.2023 11.7799 93.813 11.707H93.895C94.1046 11.707 94.255 11.7617 94.3462 11.8711C94.4464 11.9805 94.5057 12.0853 94.5239 12.1855C94.5239 12.377 94.4874 12.5182 94.4145 12.6094C94.3507 12.6914 94.2231 12.7643 94.0317 12.8281C93.576 12.8737 93.1522 12.9147 92.7602 12.9512C92.3774 12.9785 92.0219 13.0013 91.6938 13.0195ZM96.643 10.832H95.8911C95.7361 10.832 95.5675 10.8366 95.3852 10.8457C95.2121 10.8548 95.0343 10.8685 94.852 10.8867C94.6606 10.8776 94.5193 10.8138 94.4282 10.6953C94.3371 10.5768 94.2915 10.4583 94.2915 10.3398C94.2915 10.1849 94.3279 10.0618 94.4009 9.9707C94.4738 9.87956 94.5695 9.81576 94.688 9.7793C94.8065 9.73372 94.9386 9.70638 95.0844 9.69727C95.2303 9.68815 95.3761 9.68359 95.5219 9.68359C95.6222 9.68359 95.7134 9.68815 95.7954 9.69727C95.8774 9.69727 95.9914 9.69727 96.1372 9.69727C96.2192 9.69727 96.3058 9.69727 96.3969 9.69727C96.4881 9.69727 96.5884 9.69271 96.6977 9.68359V9.41016C96.6977 9.18229 96.6886 8.94987 96.6704 8.71289C96.6613 8.47591 96.643 8.2526 96.6157 8.04297C96.5975 7.83333 96.5792 7.64648 96.561 7.48242C96.5519 7.31836 96.5473 7.19531 96.5473 7.11328C96.5473 6.78516 96.5975 6.55729 96.6977 6.42969C96.798 6.30208 96.9438 6.23828 97.1352 6.23828C97.3175 6.23828 97.4542 6.32487 97.5454 6.49805C97.6365 6.66211 97.6958 6.85807 97.7231 7.08594C97.7596 7.30469 97.7778 7.53255 97.7778 7.76953C97.7778 7.9974 97.7824 8.17969 97.7915 8.31641C97.8188 8.99089 97.8325 9.5651 97.8325 10.0391C97.8325 10.4401 97.8325 10.832 97.8325 11.2148C97.8325 11.5885 97.8097 11.9258 97.7641 12.2266C97.7277 12.5182 97.6593 12.7552 97.5591 12.9375C97.4588 13.1198 97.3084 13.2109 97.1079 13.2109C96.9529 13.2109 96.8208 13.1562 96.7114 13.0469C96.602 12.9375 96.5473 12.778 96.5473 12.5684L96.643 10.832ZM93.102 17.8867C92.7921 17.8138 92.5552 17.6908 92.3911 17.5176C92.2361 17.3535 92.1222 17.1484 92.0493 16.9023C91.9855 16.6562 91.9445 16.3737 91.9262 16.0547C91.908 15.7357 91.8898 15.3848 91.8716 15.002C91.8989 14.8197 91.9673 14.6829 92.0766 14.5918C92.1951 14.4915 92.3227 14.4414 92.4594 14.4414C92.5962 14.4414 92.7101 14.4915 92.8012 14.5918C92.9015 14.6829 92.979 14.806 93.0337 14.9609L93.1157 16.2871C93.1248 16.4512 93.1977 16.5742 93.3344 16.6562C93.4803 16.7474 93.6489 16.8112 93.8403 16.8477C94.0408 16.8841 94.2505 16.9023 94.4692 16.9023C94.688 16.9115 94.8885 16.916 95.0708 16.916C95.5356 16.916 95.9731 16.8841 96.3833 16.8203C96.7934 16.7565 97.158 16.6608 97.477 16.5332C97.5317 16.515 97.5818 16.5013 97.6274 16.4922C97.6821 16.4831 97.7322 16.4785 97.7778 16.4785C97.9601 16.4785 98.0968 16.5423 98.188 16.6699C98.2882 16.8066 98.3384 16.957 98.3384 17.1211C98.3384 17.2852 98.2427 17.4264 98.0512 17.5449C97.869 17.6634 97.6183 17.7637 97.2993 17.8457C96.9894 17.9277 96.6248 17.987 96.2055 18.0234C95.7954 18.0599 95.3624 18.0781 94.9067 18.0781C94.5877 18.0781 94.2778 18.0645 93.977 18.0371C93.6762 18.0098 93.3846 17.9596 93.102 17.8867ZM100.892 10.8184C100.919 10.9915 100.937 11.1966 100.946 11.4336C100.965 11.6706 100.987 11.8529 101.015 11.9805C101.17 11.9896 101.343 11.9941 101.534 11.9941C101.726 11.9941 101.926 11.9941 102.136 11.9941C102.345 11.9941 102.537 11.9896 102.71 11.9805C102.892 11.9622 103.052 11.944 103.189 11.9258C103.198 11.7982 103.202 11.6706 103.202 11.543C103.202 11.4062 103.202 11.265 103.202 11.1191C103.193 11.0736 103.189 11.028 103.189 10.9824C103.189 10.9277 103.189 10.8776 103.189 10.832C102.879 10.832 102.532 10.832 102.15 10.832C101.776 10.832 101.357 10.8275 100.892 10.8184ZM103.216 9.65625C103.216 9.61068 103.216 9.56966 103.216 9.5332C103.225 9.48763 103.23 9.44206 103.23 9.39648C103.23 9.35091 103.225 9.3099 103.216 9.27344C103.216 9.22786 103.216 9.18229 103.216 9.13672V8.125C103.271 7.80599 103.462 7.6237 103.79 7.57812C104.064 7.57812 104.26 7.7513 104.378 8.09766V10.9551V11.543C104.378 11.9987 104.314 12.3405 104.187 12.5684C104.068 12.7871 103.868 12.9421 103.585 13.0332C103.303 13.1152 102.924 13.1562 102.45 13.1562C101.985 13.1562 101.407 13.1562 100.714 13.1562C100.504 13.1471 100.336 13.0742 100.208 12.9375C100.09 12.8008 99.9985 12.6276 99.9347 12.418C99.8709 12.1992 99.8253 11.9486 99.798 11.666C99.7797 11.3835 99.7615 11.0872 99.7433 10.7773L99.6612 9.32812C99.643 9.08203 99.6385 8.86328 99.6476 8.67188C99.6567 8.48047 99.6567 8.31641 99.6476 8.17969C99.6931 7.9974 99.7615 7.86523 99.8527 7.7832C99.9529 7.69206 100.076 7.63737 100.222 7.61914C100.386 7.61914 100.509 7.66927 100.591 7.76953C100.682 7.86068 100.746 7.98372 100.782 8.13867C100.819 8.28451 100.837 8.45768 100.837 8.6582C100.837 8.84961 100.837 9.04557 100.837 9.24609V9.64258C101.311 9.65169 101.744 9.65625 102.136 9.65625C102.537 9.65625 102.897 9.65625 103.216 9.65625ZM107.618 9.57422C107.664 9.58333 107.709 9.58789 107.755 9.58789C107.801 9.58789 107.846 9.58789 107.892 9.58789C107.983 9.58789 108.069 9.58789 108.151 9.58789C108.243 9.57878 108.338 9.57422 108.439 9.57422C108.584 9.57422 108.73 9.57878 108.876 9.58789C109.031 9.59701 109.163 9.62435 109.273 9.66992C109.391 9.71549 109.487 9.78841 109.56 9.88867C109.633 9.97982 109.669 10.1074 109.669 10.2715C109.669 10.3809 109.619 10.4902 109.519 10.5996C109.418 10.709 109.282 10.7682 109.109 10.7773C108.926 10.7591 108.744 10.7454 108.562 10.7363C108.388 10.7272 108.224 10.7227 108.069 10.7227H107.605C107.595 11.0417 107.586 11.3516 107.577 11.6523C107.577 11.944 107.554 12.2083 107.509 12.4453C107.472 12.6732 107.409 12.86 107.317 13.0059C107.226 13.1426 107.085 13.2109 106.894 13.2109C106.739 13.2109 106.607 13.1562 106.497 13.0469C106.388 12.9375 106.333 12.778 106.333 12.5684L106.442 10.6816C106.461 10.5085 106.474 10.3398 106.484 10.1758C106.493 10.0026 106.497 9.82487 106.497 9.64258C106.497 9.4056 106.488 9.15951 106.47 8.9043C106.452 8.63997 106.433 8.38932 106.415 8.15234C106.397 7.91536 106.379 7.70573 106.36 7.52344C106.342 7.34115 106.333 7.20443 106.333 7.11328C106.333 6.78516 106.383 6.55729 106.484 6.42969C106.584 6.30208 106.73 6.23828 106.921 6.23828C107.103 6.23828 107.24 6.32487 107.331 6.49805C107.422 6.66211 107.482 6.85807 107.509 7.08594C107.545 7.30469 107.564 7.53255 107.564 7.76953C107.573 7.9974 107.577 8.17969 107.577 8.31641L107.618 9.57422ZM103.325 16.793C103.854 16.875 104.396 16.916 104.952 16.916C105.472 16.916 105.937 16.8932 106.347 16.8477C106.766 16.8021 107.122 16.7428 107.413 16.6699C107.577 16.6243 107.705 16.6016 107.796 16.6016C107.951 16.6016 108.069 16.6608 108.151 16.7793C108.234 16.8978 108.275 17.0345 108.275 17.1895C108.275 17.3717 108.183 17.5176 108.001 17.627C107.828 17.7363 107.586 17.8184 107.276 17.873C106.976 17.9368 106.616 17.9779 106.196 17.9961C105.777 18.0143 105.321 18.0234 104.829 18.0234C104.018 18.0234 103.284 17.9551 102.628 17.8184C102.519 17.7272 102.423 17.5996 102.341 17.4355C102.259 17.2715 102.195 17.0846 102.15 16.875C102.104 16.6745 102.067 16.4557 102.04 16.2188C102.022 15.9909 102.013 15.7585 102.013 15.5215C102.013 15.1842 102.063 14.9199 102.163 14.7285C102.273 14.528 102.428 14.3776 102.628 14.2773C102.838 14.168 103.093 14.0996 103.394 14.0723C103.694 14.0358 104.041 14.0176 104.433 14.0176C104.834 14.0176 105.276 14.0221 105.759 14.0312C106.242 14.0312 106.771 14.013 107.345 13.9766C107.536 13.9766 107.687 14.0267 107.796 14.127C107.905 14.2181 107.96 14.3411 107.96 14.4961C107.96 14.6602 107.924 14.7878 107.851 14.8789C107.787 14.9609 107.655 15.0247 107.454 15.0703C107.263 15.1068 106.989 15.1296 106.634 15.1387C106.288 15.1387 105.832 15.1387 105.267 15.1387C104.173 15.1387 103.485 15.2025 103.202 15.3301C103.193 15.403 103.184 15.4805 103.175 15.5625C103.175 15.6354 103.175 15.7129 103.175 15.7949C103.175 15.959 103.184 16.1276 103.202 16.3008C103.23 16.474 103.271 16.638 103.325 16.793ZM114.451 10.8457C114.633 10.9642 114.765 11.1374 114.847 11.3652C114.939 11.5931 114.984 11.8118 114.984 12.0215C114.984 12.2676 114.957 12.5365 114.902 12.8281C114.857 13.1198 114.793 13.4115 114.711 13.7031C114.638 13.9857 114.556 14.2591 114.465 14.5234C114.383 14.7786 114.301 14.9974 114.219 15.1797C114.136 15.3711 114.036 15.5033 113.918 15.5762C113.808 15.6491 113.676 15.681 113.521 15.6719C113.403 15.6719 113.293 15.6263 113.193 15.5352C113.093 15.444 113.043 15.321 113.043 15.166C113.043 15.0931 113.066 14.9928 113.111 14.8652C113.157 14.7285 113.207 14.5781 113.261 14.4141C113.325 14.25 113.389 14.0859 113.453 13.9219C113.517 13.7487 113.567 13.5938 113.603 13.457C113.74 12.9648 113.808 12.5638 113.808 12.2539C113.808 12.099 113.786 11.9805 113.74 11.8984C113.704 11.8164 113.626 11.7708 113.508 11.7617L110.554 11.5293C110.299 11.4382 110.172 11.265 110.172 11.0098C110.172 10.627 110.445 10.4355 110.992 10.4355C111.247 10.4355 111.557 10.4538 111.922 10.4902C112.286 10.5176 112.642 10.554 112.988 10.5996C113.334 10.6361 113.644 10.6771 113.918 10.7227C114.2 10.7682 114.378 10.8092 114.451 10.8457ZM118.197 10.9277C118.179 10.5814 118.156 10.2852 118.129 10.0391C118.101 9.79297 118.088 9.59245 118.088 9.4375C118.088 9.10938 118.138 8.88151 118.238 8.75391C118.338 8.6263 118.484 8.5625 118.676 8.5625C118.858 8.5625 118.995 8.64909 119.086 8.82227C119.177 8.98633 119.236 9.18685 119.263 9.42383C119.3 9.65169 119.318 9.88867 119.318 10.1348C119.318 10.3717 119.323 10.5586 119.332 10.6953C119.341 10.9323 119.35 11.1602 119.359 11.3789C119.368 11.5977 119.373 11.8118 119.373 12.0215C119.373 12.9876 119.355 13.8125 119.318 14.4961C119.291 15.1797 119.259 15.7266 119.222 16.1367C119.195 16.3464 119.122 16.4922 119.004 16.5742C118.885 16.6654 118.758 16.7109 118.621 16.7109C118.466 16.7109 118.334 16.6562 118.224 16.5469C118.115 16.4375 118.06 16.278 118.06 16.0684L118.183 13.6074C118.202 13.4251 118.215 13.2246 118.224 13.0059C118.233 12.7871 118.238 12.5501 118.238 12.2949C118.238 11.8939 118.224 11.4382 118.197 10.9277ZM116.31 9.49219C116.256 9.48307 116.146 9.4375 115.982 9.35547C115.818 9.27344 115.65 9.16406 115.476 9.02734C115.303 8.89062 115.148 8.73112 115.011 8.54883C114.884 8.36654 114.82 8.17513 114.82 7.97461C114.82 7.81055 114.884 7.66471 115.011 7.53711C115.148 7.40039 115.299 7.33203 115.463 7.33203C115.59 7.33203 115.704 7.35938 115.804 7.41406C115.905 7.46875 115.987 7.53711 116.051 7.61914C116.123 7.69206 116.178 7.77409 116.215 7.86523C116.26 7.94727 116.292 8.01562 116.31 8.07031C116.31 8.01562 116.329 7.94727 116.365 7.86523C116.411 7.7832 116.465 7.70573 116.529 7.63281C116.602 7.55078 116.689 7.48242 116.789 7.42773C116.889 7.36393 117.008 7.33203 117.144 7.33203C117.308 7.33203 117.459 7.40039 117.595 7.53711C117.732 7.66471 117.801 7.81055 117.801 7.97461C117.801 8.17513 117.732 8.36654 117.595 8.54883C117.468 8.73112 117.317 8.89062 117.144 9.02734C116.971 9.16406 116.802 9.27344 116.638 9.35547C116.474 9.4375 116.365 9.48307 116.31 9.49219Z" fill="#EC4058"/>
<path d="M17 18.1465H120.89V18.4883H17V18.1465Z" fill="#EC4058"/>
<g clip-path="url(#clip0_1029_846)">
<path d="M6.35355 9.64645L8.35355 11.6464C8.54882 11.8417 8.54882 12.1583 8.35355 12.3536C8.15829 12.5488 7.84171 12.5488 7.64645 12.3536L6.5 11.2071V14C6.5 14.2761 6.27614 14.5 6 14.5C5.72386 14.5 5.5 14.2761 5.5 14V11.2071L4.35355 12.3536C4.15829 12.5488 3.84171 12.5488 3.64645 12.3536C3.45118 12.1583 3.45118 11.8417 3.64645 11.6464L5.64645 9.64645C5.84171 9.45118 6.15829 9.45118 6.35355 9.64645Z" fill="#EC4058"/>
<path fill-rule="evenodd" clip-rule="evenodd" d="M0.5 12C0.5 8.96243 2.96243 6.5 6 6.5C9.03757 6.5 11.5 8.96243 11.5 12C11.5 15.0376 9.03757 17.5 6 17.5C2.96243 17.5 0.5 15.0376 0.5 12ZM6 7.5C3.51472 7.5 1.5 9.51472 1.5 12C1.5 14.4853 3.51472 16.5 6 16.5C8.48528 16.5 10.5 14.4853 10.5 12C10.5 9.51472 8.48528 7.5 6 7.5Z" fill="#EC4058"/>
</g>
<defs>
<clipPath id="clip0_1029_846">
<rect width="12" height="12" fill="white" transform="translate(0 6)"/>
</clipPath>
</defs>
</svg>
