<svg width="112" height="15" viewBox="0 0 112 15" fill="none" xmlns="http://www.w3.org/2000/svg">
<path d="M3.67773 4.86133C4.06055 4.86133 4.33854 4.7793 4.51172 4.61523C4.69401 4.45117 4.78516 4.15039 4.78516 3.71289C4.78516 3.36654 4.70768 3.0931 4.55273 2.89258C4.39779 2.69206 4.10612 2.5918 3.67773 2.5918C3.26758 2.5918 2.98047 2.69206 2.81641 2.89258C2.65234 3.0931 2.57031 3.36654 2.57031 3.71289C2.57031 4.15039 2.66602 4.45117 2.85742 4.61523C3.05794 4.7793 3.33138 4.86133 3.67773 4.86133ZM3.66406 6.02344C2.91667 6.02344 2.34701 5.81836 1.95508 5.4082C1.57227 4.99805 1.38086 4.4375 1.38086 3.72656C1.38086 3.4349 1.42188 3.15234 1.50391 2.87891C1.58594 2.59635 1.7181 2.35026 1.90039 2.14062C2.08268 1.92188 2.31966 1.7487 2.61133 1.62109C2.90299 1.49349 3.25846 1.42969 3.67773 1.42969C4.06966 1.42969 4.4069 1.48893 4.68945 1.60742C4.98112 1.72591 5.22266 1.88997 5.41406 2.09961C5.60547 2.30013 5.74674 2.54622 5.83789 2.83789C5.93815 3.12044 5.98828 3.42578 5.98828 3.75391C5.98828 4.45573 5.77865 5.01172 5.35938 5.42188C4.9401 5.82292 4.375 6.02344 3.66406 6.02344ZM4.32031 8.01953C4.32031 8.20182 4.30664 8.4069 4.2793 8.63477C4.26107 8.85352 4.25195 9.12695 4.25195 9.45508C4.25195 9.66471 4.19271 9.82422 4.07422 9.93359C3.95573 10.0339 3.83268 10.084 3.70508 10.084C3.57747 10.084 3.44076 10.0384 3.29492 9.94727C3.1582 9.85612 3.08984 9.70573 3.08984 9.49609C3.08984 9.16797 3.0944 8.89453 3.10352 8.67578C3.12174 8.44792 3.13086 8.23828 3.13086 8.04688H2.81641C2.64323 8.04688 2.42448 8.05143 2.16016 8.06055C1.89583 8.06966 1.64062 8.05599 1.39453 8.01953C1.14844 7.98307 0.934245 7.91471 0.751953 7.81445C0.578776 7.71419 0.492188 7.55924 0.492188 7.34961C0.492188 7.22201 0.533203 7.11263 0.615234 7.02148C0.70638 6.93034 0.82487 6.86198 0.970703 6.81641C1.51758 6.83464 1.99609 6.85286 2.40625 6.87109C2.81641 6.88021 3.15365 6.88477 3.41797 6.88477C3.82812 6.88477 4.2793 6.87565 4.77148 6.85742C5.27279 6.83008 5.82878 6.77995 6.43945 6.70703H6.52148C6.73112 6.70703 6.88151 6.76172 6.97266 6.87109C7.07292 6.98047 7.13216 7.08529 7.15039 7.18555C7.15039 7.37695 7.11393 7.51823 7.04102 7.60938C6.97721 7.69141 6.84961 7.76432 6.6582 7.82812C6.20247 7.8737 5.77865 7.91471 5.38672 7.95117C5.00391 7.97852 4.64844 8.0013 4.32031 8.01953ZM9.26953 5.83203H8.51758C8.36263 5.83203 8.19401 5.83659 8.01172 5.8457C7.83854 5.85482 7.66081 5.86849 7.47852 5.88672C7.28711 5.8776 7.14583 5.8138 7.05469 5.69531C6.96354 5.57682 6.91797 5.45833 6.91797 5.33984C6.91797 5.1849 6.95443 5.06185 7.02734 4.9707C7.10026 4.87956 7.19596 4.81576 7.31445 4.7793C7.43294 4.73372 7.5651 4.70638 7.71094 4.69727C7.85677 4.68815 8.0026 4.68359 8.14844 4.68359C8.2487 4.68359 8.33984 4.68815 8.42188 4.69727C8.50391 4.69727 8.61784 4.69727 8.76367 4.69727C8.8457 4.69727 8.93229 4.69727 9.02344 4.69727C9.11458 4.69727 9.21484 4.69271 9.32422 4.68359V4.41016C9.32422 4.18229 9.3151 3.94987 9.29688 3.71289C9.28776 3.47591 9.26953 3.2526 9.24219 3.04297C9.22396 2.83333 9.20573 2.64648 9.1875 2.48242C9.17839 2.31836 9.17383 2.19531 9.17383 2.11328C9.17383 1.78516 9.22396 1.55729 9.32422 1.42969C9.42448 1.30208 9.57031 1.23828 9.76172 1.23828C9.94401 1.23828 10.0807 1.32487 10.1719 1.49805C10.263 1.66211 10.3223 1.85807 10.3496 2.08594C10.3861 2.30469 10.4043 2.53255 10.4043 2.76953C10.4043 2.9974 10.4089 3.17969 10.418 3.31641C10.4453 3.99089 10.459 4.5651 10.459 5.03906C10.459 5.4401 10.459 5.83203 10.459 6.21484C10.459 6.58854 10.4362 6.92578 10.3906 7.22656C10.3542 7.51823 10.2858 7.75521 10.1855 7.9375C10.0853 8.11979 9.9349 8.21094 9.73438 8.21094C9.57943 8.21094 9.44727 8.15625 9.33789 8.04688C9.22852 7.9375 9.17383 7.77799 9.17383 7.56836L9.26953 5.83203ZM5.72852 12.8867C5.41862 12.8138 5.18164 12.6908 5.01758 12.5176C4.86263 12.3535 4.7487 12.1484 4.67578 11.9023C4.61198 11.6562 4.57096 11.3737 4.55273 11.0547C4.53451 10.7357 4.51628 10.3848 4.49805 10.002C4.52539 9.81966 4.59375 9.68294 4.70312 9.5918C4.82161 9.49154 4.94922 9.44141 5.08594 9.44141C5.22266 9.44141 5.33659 9.49154 5.42773 9.5918C5.52799 9.68294 5.60547 9.80599 5.66016 9.96094L5.74219 11.2871C5.7513 11.4512 5.82422 11.5742 5.96094 11.6562C6.10677 11.7474 6.27539 11.8112 6.4668 11.8477C6.66732 11.8841 6.87695 11.9023 7.0957 11.9023C7.31445 11.9115 7.51497 11.916 7.69727 11.916C8.16211 11.916 8.59961 11.8841 9.00977 11.8203C9.41992 11.7565 9.78451 11.6608 10.1035 11.5332C10.1582 11.515 10.2083 11.5013 10.2539 11.4922C10.3086 11.4831 10.3587 11.4785 10.4043 11.4785C10.5866 11.4785 10.7233 11.5423 10.8145 11.6699C10.9147 11.8066 10.9648 11.957 10.9648 12.1211C10.9648 12.2852 10.8691 12.4264 10.6777 12.5449C10.4954 12.6634 10.2448 12.7637 9.92578 12.8457C9.61589 12.9277 9.2513 12.987 8.83203 13.0234C8.42188 13.0599 7.98893 13.0781 7.5332 13.0781C7.21419 13.0781 6.9043 13.0645 6.60352 13.0371C6.30273 13.0098 6.01107 12.9596 5.72852 12.8867ZM12.0006 7.19922C11.8092 7.1901 11.6679 7.1263 11.5768 7.00781C11.4948 6.88932 11.4537 6.76628 11.4537 6.63867C11.4537 6.50195 11.5039 6.37891 11.6041 6.26953C11.7044 6.15104 11.8457 6.0918 12.028 6.0918C12.3743 6.07357 12.7207 6.0599 13.067 6.05078C13.4225 6.04167 13.778 6.03711 14.1334 6.03711H16.1842C16.5123 6.18294 16.6764 6.37435 16.6764 6.61133C16.6582 6.74805 16.608 6.86654 16.526 6.9668C16.444 7.05794 16.3255 7.12174 16.1705 7.1582H14.0514C13.3222 7.1582 12.6386 7.17188 12.0006 7.19922ZM12.0827 9.42773C12.1009 9.12695 12.1692 8.86263 12.2877 8.63477C12.4062 8.39779 12.5566 8.20638 12.7389 8.06055C12.9303 7.9056 13.1445 7.79167 13.3815 7.71875C13.6185 7.63672 13.86 7.5957 14.1061 7.5957C14.2702 7.5957 14.4616 7.62305 14.6803 7.67773C14.9082 7.72331 15.1224 7.81445 15.3229 7.95117C15.5325 8.08789 15.7103 8.2793 15.8561 8.52539C16.0019 8.76237 16.0748 9.07227 16.0748 9.45508C16.0748 9.81966 16.0065 10.125 15.8698 10.3711C15.7422 10.6081 15.5781 10.7995 15.3776 10.9453C15.1862 11.082 14.972 11.1777 14.735 11.2324C14.5071 11.2962 14.2975 11.3281 14.1061 11.3281C13.8509 11.3281 13.6048 11.2871 13.3678 11.2051C13.1308 11.1322 12.9166 11.0182 12.7252 10.8633C12.5429 10.7083 12.3926 10.5124 12.2741 10.2754C12.1556 10.0293 12.0918 9.74674 12.0827 9.42773ZM13.6412 8.85352C13.5045 8.94466 13.3997 9.04492 13.3268 9.1543C13.263 9.25456 13.2311 9.3138 13.2311 9.33203V9.44141C13.2311 9.6237 13.263 9.76497 13.3268 9.86523C13.3906 9.96549 13.4635 10.0384 13.5455 10.084C13.6367 10.1296 13.7233 10.1569 13.8053 10.166C13.8965 10.1751 13.9648 10.1797 14.0104 10.1797C14.2565 10.1797 14.4707 10.125 14.653 10.0156C14.8353 9.90625 14.9264 9.72852 14.9264 9.48242C14.9264 9.32747 14.8991 9.19987 14.8444 9.09961C14.7897 8.99935 14.7213 8.92188 14.6393 8.86719C14.5664 8.8125 14.4798 8.77604 14.3795 8.75781C14.2884 8.73958 14.2018 8.73047 14.1198 8.73047C13.9466 8.73047 13.7871 8.77148 13.6412 8.85352ZM13.0397 5.2168C12.8574 5.09831 12.7343 4.98893 12.6705 4.88867C12.6067 4.7793 12.5748 4.67448 12.5748 4.57422C12.5748 4.38281 12.6341 4.24154 12.7526 4.15039C12.8802 4.05924 13.0078 4.01367 13.1354 4.01367C13.2539 4.01367 13.3678 4.04102 13.4772 4.0957C13.7506 4.18685 13.983 4.25065 14.1745 4.28711C14.3659 4.32357 14.5937 4.36003 14.858 4.39648C15.0586 4.44206 15.1953 4.52409 15.2682 4.64258C15.3411 4.75195 15.3776 4.875 15.3776 5.01172C15.3593 5.14844 15.3092 5.27604 15.2272 5.39453C15.1543 5.50391 15.0221 5.55859 14.8307 5.55859L13.9147 5.47656C13.8235 5.46745 13.7051 5.4401 13.5592 5.39453C13.4225 5.34896 13.2493 5.28971 13.0397 5.2168ZM20.1901 6.89844C20.2357 6.90755 20.2812 6.91211 20.3268 6.91211C20.3815 6.91211 20.4316 6.91211 20.4772 6.91211C20.5683 6.91211 20.6549 6.91211 20.737 6.91211C20.819 6.90299 20.9101 6.89844 21.0104 6.89844C21.1562 6.89844 21.3021 6.90299 21.4479 6.91211C21.6028 6.92122 21.735 6.94857 21.8444 6.99414C21.9629 7.03971 22.0586 7.11263 22.1315 7.21289C22.2044 7.30404 22.2409 7.43164 22.2409 7.5957C22.2409 7.70508 22.1907 7.81445 22.0905 7.92383C21.9902 8.0332 21.8535 8.09245 21.6803 8.10156C21.498 8.08333 21.3157 8.06966 21.1334 8.06055C20.9603 8.05143 20.7962 8.04688 20.6412 8.04688H20.1627C20.1445 8.7487 20.1263 9.35482 20.108 9.86523C20.0989 10.3757 20.0761 10.7995 20.0397 11.1367C20.0215 11.3464 19.9485 11.4922 19.8209 11.5742C19.6933 11.6654 19.5657 11.7109 19.4381 11.7109C19.2832 11.7109 19.151 11.6562 19.0416 11.5469C18.9323 11.4375 18.8776 11.278 18.8776 11.0684L19.0006 8.60742C19.0189 8.42513 19.0325 8.22461 19.0416 8.00586C19.0508 7.78711 19.0553 7.55013 19.0553 7.29492C19.0553 7.05794 19.0462 6.78906 19.028 6.48828C19.0189 6.17839 19.0006 5.88672 18.9733 5.61328C18.9551 5.33073 18.9368 5.08008 18.9186 4.86133C18.9095 4.64258 18.9049 4.5013 18.9049 4.4375C18.9049 4.10938 18.9551 3.88151 19.0553 3.75391C19.1556 3.6263 19.3014 3.5625 19.4928 3.5625C19.6751 3.5625 19.8118 3.64909 19.903 3.82227C19.9941 3.98633 20.0534 4.18685 20.0807 4.42383C20.1172 4.65169 20.1354 4.88867 20.1354 5.13477C20.1354 5.37174 20.1399 5.55859 20.1491 5.69531C20.1582 5.91406 20.1673 6.1237 20.1764 6.32422C20.1855 6.52474 20.1901 6.71615 20.1901 6.89844ZM17.5377 4.49219C17.483 4.48307 17.3737 4.4375 17.2096 4.35547C17.0455 4.27344 16.8769 4.16406 16.7037 4.02734C16.5306 3.89062 16.3756 3.73112 16.2389 3.54883C16.1113 3.36654 16.0475 3.17513 16.0475 2.97461C16.0475 2.81055 16.1113 2.66471 16.2389 2.53711C16.3756 2.40039 16.526 2.33203 16.6901 2.33203C16.8177 2.33203 16.9316 2.35938 17.0319 2.41406C17.1321 2.46875 17.2142 2.53711 17.278 2.61914C17.3509 2.69206 17.4056 2.77409 17.442 2.86523C17.4876 2.94727 17.5195 3.01562 17.5377 3.07031C17.5377 3.01562 17.556 2.94727 17.5924 2.86523C17.638 2.7832 17.6927 2.70573 17.7565 2.63281C17.8294 2.55078 17.916 2.48242 18.0162 2.42773C18.1165 2.36393 18.235 2.33203 18.3717 2.33203C18.5358 2.33203 18.6862 2.40039 18.8229 2.53711C18.9596 2.66471 19.028 2.81055 19.028 2.97461C19.028 3.17513 18.9596 3.36654 18.8229 3.54883C18.6953 3.73112 18.5449 3.89062 18.3717 4.02734C18.1985 4.16406 18.0299 4.27344 17.8659 4.35547C17.7018 4.4375 17.5924 4.48307 17.5377 4.49219ZM25.3137 4.61523C25.2682 4.48763 25.2135 4.29622 25.1497 4.04102C25.095 3.77669 25.0403 3.51237 24.9856 3.24805C24.9309 2.98372 24.8854 2.74674 24.8489 2.53711C24.8124 2.32747 24.7897 2.20898 24.7805 2.18164C24.7714 2.16341 24.7669 2.11328 24.7669 2.03125C24.7669 1.42057 24.9674 1.11523 25.3684 1.11523C25.5325 1.11523 25.6555 1.14714 25.7376 1.21094C25.8196 1.27474 25.8789 1.37044 25.9153 1.49805C25.9609 1.62565 25.9882 1.78971 25.9973 1.99023C26.0156 2.18164 26.0384 2.40951 26.0657 2.67383C26.1022 3.00195 26.1477 3.30273 26.2024 3.57617C26.2662 3.84049 26.33 4.04557 26.3938 4.19141L26.4622 4.31445C26.4713 4.32357 26.4895 4.33268 26.5169 4.3418C26.5442 4.3418 26.6035 4.3418 26.6946 4.3418H26.8313H27.0501C27.2324 4.3418 27.4557 4.33268 27.72 4.31445C27.9843 4.29622 28.2441 4.27799 28.4993 4.25977C28.7636 4.23242 28.996 4.20964 29.1966 4.19141C29.4062 4.16406 29.5429 4.14128 29.6067 4.12305C29.7161 4.0957 29.8209 4.08203 29.9212 4.08203C30.0579 4.08203 30.1809 4.1276 30.2903 4.21875C30.3997 4.30078 30.4544 4.43294 30.4544 4.61523C30.4544 4.77018 30.4179 4.89323 30.345 4.98438C30.2721 5.07552 30.1536 5.14844 29.9895 5.20312C29.8346 5.25781 29.6341 5.30339 29.388 5.33984C29.151 5.36719 28.8639 5.39453 28.5266 5.42188C28.08 5.46745 27.6927 5.49935 27.3645 5.51758C27.0364 5.52669 26.763 5.53125 26.5442 5.53125C26.1887 5.53125 25.9199 5.45833 25.7376 5.3125C25.5553 5.16667 25.414 4.93424 25.3137 4.61523ZM27.7747 7.19922C28.677 7.1901 29.4928 7.16276 30.222 7.11719C30.9511 7.07161 31.6028 7.00781 32.177 6.92578H32.2864C32.4778 6.92578 32.6191 6.97135 32.7102 7.0625C32.8105 7.15365 32.8743 7.24935 32.9016 7.34961C32.9016 7.54102 32.8652 7.68685 32.7923 7.78711C32.7285 7.88737 32.6009 7.9694 32.4095 8.0332C31.7805 8.12435 31.0833 8.19727 30.3177 8.25195C29.5611 8.29753 28.7226 8.32031 27.802 8.32031C26.8723 8.32031 26.0429 8.30208 25.3137 8.26562C24.5937 8.22917 23.9602 8.18359 23.4134 8.12891C23.2584 8.11068 23.1308 8.05143 23.0305 7.95117C22.9303 7.8418 22.8802 7.70964 22.8802 7.55469C22.8802 7.40885 22.9257 7.28581 23.0169 7.18555C23.108 7.07617 23.2265 7.01237 23.3723 6.99414C24.6302 7.13086 25.9654 7.19922 27.3782 7.19922H27.7747ZM26.2024 12.6133C25.8925 12.5404 25.6555 12.4173 25.4915 12.2441C25.3365 12.0801 25.2226 11.875 25.1497 11.6289C25.0859 11.3828 25.0449 11.1003 25.0266 10.7812C25.0084 10.4622 24.9902 10.1113 24.972 9.72852C24.9993 9.54622 25.0677 9.40951 25.177 9.31836C25.2955 9.2181 25.4231 9.16797 25.5598 9.16797C25.6966 9.16797 25.8105 9.2181 25.9016 9.31836C26.0019 9.40951 26.0794 9.53255 26.1341 9.6875L26.2161 11.0137C26.2252 11.1777 26.2981 11.3008 26.4348 11.3828C26.5807 11.474 26.7493 11.5378 26.9407 11.5742C27.1412 11.6107 27.3509 11.6289 27.5696 11.6289C27.7884 11.638 27.9889 11.6426 28.1712 11.6426C28.636 11.6426 29.0735 11.6107 29.4837 11.5469C29.8938 11.4831 30.2584 11.3874 30.5774 11.2598C30.6321 11.2415 30.6822 11.2279 30.7278 11.2188C30.7825 11.2096 30.8326 11.2051 30.8782 11.2051C31.0605 11.2051 31.1972 11.2689 31.2884 11.3965C31.3886 11.5332 31.4387 11.6836 31.4387 11.8477C31.4387 12.0117 31.343 12.153 31.1516 12.2715C30.9693 12.39 30.7187 12.4902 30.3997 12.5723C30.0898 12.6543 29.7252 12.7135 29.3059 12.75C28.8958 12.7865 28.4628 12.8047 28.0071 12.8047C27.6881 12.8047 27.3782 12.791 27.0774 12.7637C26.7766 12.7363 26.485 12.6862 26.2024 12.6133ZM39.8677 1.29297C39.9224 1.08333 40.0136 0.9375 40.1412 0.855469C40.2779 0.764323 40.4237 0.71875 40.5787 0.71875C40.6789 0.736979 40.7655 0.773438 40.8384 0.828125C40.9114 0.828125 40.9979 0.828125 41.0982 0.828125C41.2076 0.81901 41.3352 0.809896 41.481 0.800781L42.5337 0.759766C42.7981 0.750651 43.0624 0.741536 43.3267 0.732422C43.591 0.714193 43.8508 0.705078 44.106 0.705078C44.3886 0.705078 44.6028 0.750651 44.7486 0.841797C44.9035 0.932943 45.0175 1.11068 45.0904 1.375C45.1633 1.63021 45.2089 1.98568 45.2271 2.44141C45.2453 2.89714 45.2681 3.49414 45.2955 4.23242C45.2955 4.55143 45.2681 4.8112 45.2134 5.01172C45.1587 5.21224 45.022 5.36719 44.8033 5.47656C44.5936 5.58594 44.2701 5.66341 43.8326 5.70898C43.3951 5.74544 42.7935 5.76367 42.0279 5.76367C41.8729 5.76367 41.7317 5.76367 41.6041 5.76367C41.4765 5.75456 41.3625 5.75 41.2623 5.75C41.162 5.75 41.08 5.75456 41.0162 5.76367C40.9524 5.76367 40.8977 5.76367 40.8521 5.76367C40.7701 5.76367 40.6789 5.75 40.5787 5.72266C40.4784 5.69531 40.3781 5.6543 40.2779 5.59961C40.1867 5.54492 40.1002 5.47201 40.0181 5.38086C39.9361 5.28971 39.8814 5.17578 39.8541 5.03906C39.8449 4.76562 39.8358 4.5013 39.8267 4.24609C39.8267 3.99089 39.8267 3.73568 39.8267 3.48047C39.8267 2.78776 39.8404 2.05859 39.8677 1.29297ZM41.0025 1.96289C40.9934 2.10872 40.9843 2.24544 40.9752 2.37305C40.9752 2.50065 40.9752 2.6237 40.9752 2.74219C40.9752 3.31641 40.9752 3.75846 40.9752 4.06836C40.9843 4.37826 40.9934 4.56055 41.0025 4.61523C41.1301 4.60612 41.2759 4.60156 41.44 4.60156C41.6041 4.60156 41.7772 4.60156 41.9595 4.60156C42.3879 4.60156 42.7753 4.60156 43.1216 4.60156C43.4771 4.60156 43.7961 4.60612 44.0787 4.61523C44.0787 4.58789 44.0787 4.53776 44.0787 4.46484C44.0878 4.39193 44.0923 4.29622 44.0923 4.17773C44.0923 4.05013 44.0878 3.89062 44.0787 3.69922C44.0787 3.4987 44.0741 3.28906 44.065 3.07031C44.0559 2.85156 44.0422 2.63737 44.024 2.42773C44.0149 2.20898 44.0012 2.02214 43.983 1.86719L41.0025 1.96289ZM43.3951 7.75977V7.89648C43.386 8.05143 43.386 8.23828 43.3951 8.45703C43.4042 8.67578 43.3951 8.88542 43.3677 9.08594C43.3404 9.28646 43.2857 9.45964 43.2037 9.60547C43.1216 9.74219 42.9895 9.81055 42.8072 9.81055C42.6796 9.81055 42.5429 9.76497 42.397 9.67383C42.2603 9.58268 42.192 9.43229 42.192 9.22266C42.1828 8.98568 42.1828 8.76237 42.192 8.55273C42.2011 8.3431 42.2056 8.14258 42.2056 7.95117V7.77344C41.358 7.76432 40.6015 7.74609 39.9361 7.71875C39.2707 7.69141 38.6783 7.64583 38.1587 7.58203C38.0038 7.57292 37.8762 7.51367 37.7759 7.4043C37.6757 7.29492 37.6255 7.16276 37.6255 7.00781C37.6255 6.86198 37.6711 6.73893 37.7623 6.63867C37.8534 6.5293 37.9719 6.46549 38.1177 6.44727C39.3755 6.58398 40.7108 6.65234 42.1236 6.65234C43.1171 6.65234 44.0103 6.62956 44.8033 6.58398C45.6054 6.53841 46.3117 6.47005 46.9224 6.37891H47.0318C47.2232 6.37891 47.3645 6.42448 47.4556 6.51562C47.5559 6.60677 47.6197 6.70247 47.647 6.80273C47.647 6.99414 47.6106 7.13997 47.5377 7.24023C47.4739 7.34049 47.3462 7.42253 47.1548 7.48633C46.6353 7.55924 46.0611 7.61849 45.4322 7.66406C44.8124 7.70964 44.1334 7.74154 43.3951 7.75977ZM39.8404 12.8594C39.8313 12.7865 39.8222 12.7227 39.813 12.668C39.8039 12.6224 39.7994 12.5677 39.7994 12.5039C39.8176 12.3125 39.8449 12.1257 39.8814 11.9434C39.9179 11.7611 39.9908 11.5924 40.1002 11.4375C40.2095 11.2917 40.3645 11.1686 40.565 11.0684C40.7655 10.9772 41.0344 10.9271 41.3716 10.918C42.0826 10.8997 42.6568 10.8542 43.0943 10.7812C43.5318 10.7083 43.7505 10.5944 43.7505 10.4395C43.7505 10.3757 43.6822 10.3301 43.5455 10.3027C43.4179 10.2663 43.2629 10.2435 43.0806 10.2344C42.8983 10.2161 42.7115 10.207 42.5201 10.207C42.3287 10.207 42.1737 10.207 42.0552 10.207C41.8638 10.207 41.6724 10.2116 41.481 10.2207C41.2987 10.2207 41.1301 10.2207 40.9752 10.2207C40.7382 10.1751 40.5832 10.0977 40.5103 9.98828C40.4374 9.87891 40.4009 9.75586 40.4009 9.61914C40.4009 9.48242 40.4511 9.35938 40.5513 9.25C40.6607 9.13151 40.8111 9.07227 41.0025 9.07227C41.5858 9.08138 42.1145 9.08138 42.5884 9.07227C43.0715 9.06315 43.4862 9.09505 43.8326 9.16797C44.1789 9.24089 44.4478 9.38216 44.6392 9.5918C44.8306 9.80143 44.9263 10.125 44.9263 10.5625C44.9263 10.8451 44.899 11.0729 44.8443 11.2461C44.7987 11.4193 44.6848 11.556 44.5025 11.6562C44.3293 11.7656 44.0696 11.8431 43.7232 11.8887C43.386 11.9342 42.9257 11.9707 42.3423 11.998C42.0871 12.0072 41.8729 12.0117 41.6998 12.0117C41.5266 12.0117 41.3853 12.0254 41.2759 12.0527C41.1757 12.0801 41.1028 12.1302 41.0572 12.2031C41.0116 12.276 40.9888 12.39 40.9888 12.5449C40.9888 12.6543 40.9934 12.7409 41.0025 12.8047C41.0207 12.8685 41.0663 12.9186 41.1392 12.9551C41.2121 13.0007 41.3306 13.028 41.4947 13.0371C41.6587 13.0553 41.8912 13.0645 42.192 13.0645C42.4654 13.0645 42.7434 13.0553 43.0259 13.0371C43.3176 13.0189 43.5956 12.9915 43.8599 12.9551C44.1334 12.9186 44.384 12.873 44.6119 12.8184C44.8489 12.7728 45.0494 12.7227 45.2134 12.668C45.3319 12.6133 45.4459 12.5859 45.5552 12.5859C45.7102 12.5859 45.8378 12.6406 45.938 12.75C46.0474 12.8594 46.1021 13.0007 46.1021 13.1738C46.1021 13.5384 45.7649 13.7982 45.0904 13.9531C44.4159 14.1172 43.3768 14.1992 41.9732 14.1992C41.6451 14.1992 41.3671 14.1901 41.1392 14.1719C40.9114 14.1628 40.7199 14.1263 40.565 14.0625C40.4101 13.9987 40.2824 13.9076 40.1822 13.7891C40.091 13.6706 40.0136 13.502 39.9498 13.2832C39.9315 13.2194 39.9179 13.1784 39.9087 13.1602C39.8996 13.1419 39.8905 13.1237 39.8814 13.1055C39.8814 13.0964 39.8768 13.0736 39.8677 13.0371C39.8586 13.0098 39.8495 12.9505 39.8404 12.8594ZM53.0168 4.42383C53.2355 4.42383 53.4771 4.41927 53.7414 4.41016C54.0057 4.40104 54.2336 4.39648 54.425 4.39648L54.5207 2.72852C54.5572 2.40039 54.7486 2.23633 55.0949 2.23633C55.4322 2.23633 55.6236 2.40039 55.6691 2.72852L55.5734 4.36914L56.2707 4.3418C56.4348 4.4056 56.5533 4.49674 56.6262 4.61523C56.6991 4.72461 56.7355 4.83854 56.7355 4.95703C56.7355 5.14844 56.6581 5.28516 56.5031 5.36719C56.3573 5.4401 56.1522 5.49023 55.8879 5.51758C55.6327 5.54492 55.3228 5.55859 54.9582 5.55859C54.6027 5.54948 54.2154 5.55404 53.7961 5.57227C53.2674 5.59049 52.8026 5.60872 52.4016 5.62695C52.0096 5.63607 51.6724 5.64062 51.3898 5.64062C51.1893 5.64062 51.0389 5.58594 50.9387 5.47656C50.8384 5.36719 50.7883 5.2487 50.7883 5.12109C50.7883 4.97526 50.8339 4.8431 50.925 4.72461C51.0253 4.60612 51.1893 4.52865 51.4172 4.49219L51.8684 4.46484L51.7727 2.72852C51.8091 2.40039 52.0005 2.23633 52.3469 2.23633C52.6841 2.23633 52.8755 2.39583 52.9211 2.71484L53.0168 4.42383ZM51.8684 0.869141C51.9595 0.860026 52.1372 0.855469 52.4016 0.855469C52.675 0.855469 53.0441 0.841797 53.509 0.814453L56.2707 0.746094C56.4348 0.809896 56.5533 0.901042 56.6262 1.01953C56.6991 1.12891 56.7355 1.24284 56.7355 1.36133C56.7355 1.55273 56.6581 1.68945 56.5031 1.77148C56.3573 1.8444 56.1522 1.89453 55.8879 1.92188C55.6327 1.94922 55.3228 1.96289 54.9582 1.96289C54.6027 1.95378 54.2154 1.95833 53.7961 1.97656C53.2674 1.99479 52.8026 2.01302 52.4016 2.03125C52.0096 2.04036 51.6724 2.04492 51.3898 2.04492C51.1893 2.04492 51.0389 1.99023 50.9387 1.88086C50.8384 1.77148 50.7883 1.65299 50.7883 1.52539C50.7883 1.37956 50.8339 1.2474 50.925 1.12891C51.0253 1.01042 51.1893 0.932943 51.4172 0.896484L51.8684 0.869141ZM54.5207 7.75977V7.89648C54.5116 8.05143 54.5116 8.23828 54.5207 8.45703C54.5298 8.67578 54.5207 8.88542 54.4934 9.08594C54.466 9.28646 54.4113 9.45964 54.3293 9.60547C54.2473 9.74219 54.1151 9.81055 53.9328 9.81055C53.8052 9.81055 53.6685 9.76497 53.5227 9.67383C53.3859 9.58268 53.3176 9.43229 53.3176 9.22266C53.3085 8.98568 53.3085 8.76237 53.3176 8.55273C53.3267 8.3431 53.3312 8.14258 53.3312 7.95117V7.77344C52.4836 7.76432 51.7271 7.74609 51.0617 7.71875C50.3964 7.69141 49.8039 7.64583 49.2844 7.58203C49.1294 7.57292 49.0018 7.51367 48.9016 7.4043C48.8013 7.29492 48.7512 7.16276 48.7512 7.00781C48.7512 6.86198 48.7967 6.73893 48.8879 6.63867C48.979 6.5293 49.0975 6.46549 49.2434 6.44727C50.5012 6.58398 51.8365 6.65234 53.2492 6.65234C54.2427 6.65234 55.1359 6.62956 55.9289 6.58398C56.731 6.53841 57.4374 6.47005 58.048 6.37891H58.1574C58.3488 6.37891 58.4901 6.42448 58.5812 6.51562C58.6815 6.60677 58.7453 6.70247 58.7727 6.80273C58.7727 6.99414 58.7362 7.13997 58.6633 7.24023C58.5995 7.34049 58.4719 7.42253 58.2805 7.48633C57.7609 7.55924 57.1867 7.61849 56.5578 7.66406C55.938 7.70964 55.259 7.74154 54.5207 7.75977ZM53.7824 10.2344C53.7004 10.2344 53.6229 10.2389 53.55 10.248C53.4771 10.248 53.4042 10.248 53.3312 10.248C53.076 10.248 52.8436 10.2389 52.634 10.2207C52.4335 10.1934 52.2421 10.1797 52.0598 10.1797C51.9868 10.1797 51.9458 10.2253 51.9367 10.3164C51.9276 10.3984 51.923 10.4987 51.923 10.6172C51.923 11 51.9276 11.319 51.9367 11.5742C51.9458 11.8294 51.9595 12.0072 51.9777 12.1074L52.1008 12.1621C52.2922 12.2259 52.5793 12.2897 52.9621 12.3535C53.3449 12.4173 53.828 12.4492 54.4113 12.4492C54.6392 12.4492 54.8579 12.4401 55.0676 12.4219C55.2772 12.4128 55.4641 12.3945 55.6281 12.3672C55.7922 12.349 55.9198 12.3216 56.0109 12.2852C56.1112 12.2487 56.1613 12.2077 56.1613 12.1621C56.1704 12.1165 56.175 12.0573 56.175 11.9844C56.1841 11.9115 56.1887 11.8249 56.1887 11.7246C56.1887 11.6517 56.1887 11.556 56.1887 11.4375C56.1887 11.319 56.1841 11.196 56.175 11.0684C56.1659 10.9499 56.1568 10.8314 56.1477 10.7129C56.1385 10.5944 56.1294 10.4941 56.1203 10.4121C56.093 10.403 56.0565 10.3984 56.0109 10.3984C55.9745 10.3984 55.9335 10.3939 55.8879 10.3848C55.4322 10.3392 55.0311 10.3073 54.6848 10.2891C54.3384 10.2617 54.0376 10.2435 53.7824 10.2344ZM53.8918 9.16797C54.0741 9.16797 54.3293 9.17253 54.6574 9.18164C54.9855 9.18164 55.3137 9.19531 55.6418 9.22266C55.979 9.25 56.2889 9.29102 56.5715 9.3457C56.854 9.39128 57.0363 9.46419 57.1184 9.56445C57.1639 9.66471 57.1958 9.80599 57.2141 9.98828C57.2414 10.1615 57.2596 10.3574 57.2687 10.5762C57.287 10.7858 57.2961 11.0046 57.2961 11.2324C57.2961 11.4694 57.2961 11.6927 57.2961 11.9023C57.2961 12.276 57.2368 12.5723 57.1184 12.791C56.9999 13.0098 56.8176 13.1738 56.5715 13.2832C56.3254 13.4017 56.0064 13.4746 55.6145 13.502C55.2316 13.5384 54.7759 13.5566 54.2473 13.5566C54.1105 13.5566 53.8964 13.5521 53.6047 13.543C53.313 13.5339 53.0031 13.5065 52.675 13.4609C52.356 13.4154 52.0507 13.347 51.759 13.2559C51.4764 13.1647 51.2714 13.0371 51.1437 12.873C51.0708 12.7728 51.0116 12.6315 50.966 12.4492C50.9296 12.276 50.8977 12.0755 50.8703 11.8477C50.8521 11.6289 50.8384 11.3919 50.8293 11.1367C50.8202 10.8906 50.8156 10.64 50.8156 10.3848C50.8156 10.2845 50.8156 10.1979 50.8156 10.125C50.8156 10.0521 50.8202 9.97917 50.8293 9.90625V9.79688C50.8293 9.53255 50.8885 9.35482 51.007 9.26367C51.1255 9.17253 51.2987 9.12695 51.5266 9.12695L53.8918 9.16797ZM62.4471 9.26367C62.9666 9.26367 63.3267 9.14062 63.5272 8.89453C63.7277 8.63932 63.828 8.28841 63.828 7.8418C63.828 7.67773 63.8052 7.51367 63.7596 7.34961C63.7232 7.18555 63.6502 7.03971 63.5409 6.91211C63.4406 6.77539 63.2993 6.66602 63.117 6.58398C62.9439 6.49284 62.7205 6.44727 62.4471 6.44727C62.1737 6.44727 61.9458 6.48828 61.7635 6.57031C61.5903 6.65234 61.4491 6.76172 61.3397 6.89844C61.2394 7.02604 61.1665 7.17643 61.1209 7.34961C61.0845 7.51367 61.0662 7.67773 61.0662 7.8418C61.0662 8.28841 61.1711 8.63932 61.3807 8.89453C61.5903 9.14062 61.9458 9.26367 62.4471 9.26367ZM62.4334 10.4258C61.9959 10.4258 61.6131 10.3574 61.285 10.2207C60.966 10.0749 60.7017 9.88802 60.492 9.66016C60.2824 9.42318 60.1274 9.14974 60.0272 8.83984C59.9269 8.52995 59.8768 8.20182 59.8768 7.85547C59.8859 7.53646 59.936 7.22201 60.0272 6.91211C60.1183 6.60221 60.2642 6.32878 60.4647 6.0918C60.6743 5.8457 60.9432 5.64974 61.2713 5.50391C61.6086 5.35807 62.0233 5.28516 62.5155 5.28516C62.9803 5.28516 63.3722 5.36263 63.6912 5.51758C64.0103 5.67253 64.2655 5.8776 64.4569 6.13281C64.6574 6.37891 64.8032 6.66146 64.8944 6.98047C64.9855 7.29036 65.0311 7.60482 65.0311 7.92383C65.0311 8.25195 64.9764 8.57096 64.867 8.88086C64.7577 9.18164 64.5936 9.44596 64.3748 9.67383C64.1561 9.90169 63.8827 10.084 63.5545 10.2207C63.2355 10.3574 62.8618 10.4258 62.4334 10.4258ZM67.8202 5.92773C67.8019 5.58138 67.7791 5.28516 67.7518 5.03906C67.7245 4.79297 67.7108 4.59245 67.7108 4.4375C67.7108 4.10938 67.7609 3.88151 67.8612 3.75391C67.9614 3.6263 68.1073 3.5625 68.2987 3.5625C68.481 3.5625 68.6177 3.64909 68.7088 3.82227C68.8 3.98633 68.8592 4.18685 68.8866 4.42383C68.923 4.65169 68.9412 4.88867 68.9412 5.13477C68.9412 5.37174 68.9458 5.55859 68.9549 5.69531C68.964 5.93229 68.9732 6.16016 68.9823 6.37891C68.9914 6.59766 68.9959 6.81185 68.9959 7.02148C68.9959 7.98763 68.9777 8.8125 68.9412 9.49609C68.9139 10.1797 68.882 10.7266 68.8455 11.1367C68.8182 11.3464 68.7453 11.4922 68.6268 11.5742C68.5083 11.6654 68.3807 11.7109 68.244 11.7109C68.089 11.7109 67.9569 11.6562 67.8475 11.5469C67.7381 11.4375 67.6834 11.278 67.6834 11.0684L67.8065 8.60742C67.8247 8.42513 67.8384 8.22461 67.8475 8.00586C67.8566 7.78711 67.8612 7.55013 67.8612 7.29492C67.8612 6.89388 67.8475 6.43815 67.8202 5.92773ZM65.9334 4.49219C65.8787 4.48307 65.7694 4.4375 65.6053 4.35547C65.4412 4.27344 65.2726 4.16406 65.0995 4.02734C64.9263 3.89062 64.7713 3.73112 64.6346 3.54883C64.507 3.36654 64.4432 3.17513 64.4432 2.97461C64.4432 2.81055 64.507 2.66471 64.6346 2.53711C64.7713 2.40039 64.9217 2.33203 65.0858 2.33203C65.2134 2.33203 65.3273 2.35938 65.4276 2.41406C65.5278 2.46875 65.6099 2.53711 65.6737 2.61914C65.7466 2.69206 65.8013 2.77409 65.8377 2.86523C65.8833 2.94727 65.9152 3.01562 65.9334 3.07031C65.9334 3.01562 65.9517 2.94727 65.9881 2.86523C66.0337 2.7832 66.0884 2.70573 66.1522 2.63281C66.2251 2.55078 66.3117 2.48242 66.412 2.42773C66.5122 2.36393 66.6307 2.33203 66.7674 2.33203C66.9315 2.33203 67.0819 2.40039 67.2186 2.53711C67.3553 2.66471 67.4237 2.81055 67.4237 2.97461C67.4237 3.17513 67.3553 3.36654 67.2186 3.54883C67.091 3.73112 66.9406 3.89062 66.7674 4.02734C66.5942 4.16406 66.4256 4.27344 66.2616 4.35547C66.0975 4.4375 65.9881 4.48307 65.9334 4.49219ZM77.4659 6.39258C77.8487 6.39258 78.1267 6.31055 78.2999 6.14648C78.4822 5.98242 78.5734 5.68164 78.5734 5.24414C78.5734 4.89779 78.4959 4.62435 78.3409 4.42383C78.186 4.22331 77.8943 4.12305 77.4659 4.12305C77.0558 4.12305 76.7687 4.22331 76.6046 4.42383C76.4405 4.62435 76.3585 4.89779 76.3585 5.24414C76.3585 5.68164 76.4542 5.98242 76.6456 6.14648C76.8461 6.31055 77.1196 6.39258 77.4659 6.39258ZM77.4523 7.55469C76.7049 7.55469 76.1352 7.34961 75.7433 6.93945C75.3605 6.5293 75.1691 5.96875 75.1691 5.25781C75.1691 4.96615 75.2101 4.68359 75.2921 4.41016C75.3741 4.1276 75.5063 3.88151 75.6886 3.67188C75.8709 3.45312 76.1079 3.27995 76.3995 3.15234C76.6912 3.02474 77.0467 2.96094 77.4659 2.96094C77.8579 2.96094 78.1951 3.02018 78.4777 3.13867C78.7693 3.25716 79.0109 3.42122 79.2023 3.63086C79.3937 3.83138 79.5349 4.07747 79.6261 4.36914C79.7264 4.65169 79.7765 4.95703 79.7765 5.28516C79.7765 5.98698 79.5668 6.54297 79.1476 6.95312C78.7283 7.35417 78.1632 7.55469 77.4523 7.55469ZM82.9347 5.83203H82.2374C82.0278 5.83203 81.8227 5.83659 81.6222 5.8457C81.4308 5.85482 81.2439 5.86849 81.0616 5.88672C80.8702 5.8776 80.729 5.8138 80.6378 5.69531C80.5467 5.57682 80.5011 5.45833 80.5011 5.33984C80.5011 5.1849 80.5375 5.06185 80.6105 4.9707C80.6834 4.87956 80.7791 4.81576 80.8976 4.7793C81.0252 4.73372 81.1665 4.70638 81.3214 4.69727C81.4764 4.68815 81.6404 4.68359 81.8136 4.68359C81.9321 4.68359 82.0415 4.68815 82.1417 4.69727C82.2511 4.69727 82.3696 4.69727 82.4972 4.69727C82.5701 4.69727 82.6476 4.69727 82.7296 4.69727C82.8116 4.69727 82.8982 4.69271 82.9894 4.68359V4.41016C82.9894 4.18229 82.9803 3.94987 82.962 3.71289C82.9529 3.47591 82.9347 3.2526 82.9073 3.04297C82.8891 2.83333 82.8709 2.64648 82.8527 2.48242C82.8435 2.31836 82.839 2.19531 82.839 2.11328C82.839 1.78516 82.8891 1.55729 82.9894 1.42969C83.0896 1.30208 83.2355 1.23828 83.4269 1.23828C83.6092 1.23828 83.7459 1.32487 83.837 1.49805C83.9282 1.66211 83.9874 1.85807 84.0148 2.08594C84.0512 2.30469 84.0695 2.53255 84.0695 2.76953C84.0695 2.9974 84.074 3.17969 84.0831 3.31641C84.0922 3.51693 84.1014 3.72201 84.1105 3.93164C84.1196 4.13216 84.1241 4.34635 84.1241 4.57422C84.1241 5.84115 84.0831 6.86198 84.0011 7.63672C83.9829 7.84635 83.9099 7.99674 83.7823 8.08789C83.6547 8.16992 83.5271 8.21094 83.3995 8.21094C83.2446 8.21094 83.1124 8.15625 83.003 8.04688C82.8937 7.9375 82.839 7.77799 82.839 7.56836L82.9347 5.83203ZM79.38 10.0977C79.3618 9.95182 79.3572 9.82878 79.3663 9.72852C79.3754 9.62826 79.3754 9.54622 79.3663 9.48242C79.3663 9.36393 79.4073 9.25 79.4894 9.14062C79.5714 9.03125 79.6899 8.97656 79.8448 8.97656C80.1365 8.97656 80.3142 9.17253 80.378 9.56445C80.4418 9.95638 80.4737 10.599 80.4737 11.4922C80.4737 11.9023 80.4555 12.235 80.4191 12.4902C80.3917 12.7546 80.3097 12.9596 80.173 13.1055C80.0454 13.2604 79.8448 13.3652 79.5714 13.4199C79.298 13.4746 78.9243 13.502 78.4503 13.502C78.0402 13.502 77.7211 13.4655 77.4933 13.3926C77.2745 13.3197 77.1105 13.1784 77.0011 12.9688C76.8917 12.7591 76.8142 12.4629 76.7687 12.0801C76.7322 11.6973 76.6958 11.1914 76.6593 10.5625C76.632 10.1432 76.6183 9.76497 76.6183 9.42773C76.6639 9.27279 76.7413 9.15885 76.8507 9.08594C76.9601 9.01302 77.0695 8.96745 77.1788 8.94922C77.3429 8.94922 77.4614 8.99479 77.5343 9.08594C77.6163 9.16797 77.671 9.28646 77.6984 9.44141C77.7348 9.58724 77.753 9.76042 77.753 9.96094C77.753 10.1523 77.7576 10.3529 77.7667 10.5625C77.9399 10.5625 78.0265 10.5579 78.0265 10.5488L79.421 10.4941L79.38 10.0977ZM79.4484 11.5469L77.8624 11.6016C77.8715 11.9388 77.9125 12.2031 77.9855 12.3945C78.1131 12.4128 78.2361 12.4219 78.3546 12.4219C78.4731 12.4219 78.587 12.4219 78.6964 12.4219C78.9425 12.4219 79.1704 12.4082 79.38 12.3809C79.4256 12.3444 79.4484 12.1712 79.4484 11.8613V11.5469ZM83.1124 9.20898C83.4132 9.62826 83.673 10.0794 83.8917 10.5625C84.1105 11.0456 84.3338 11.5605 84.5616 12.1074C84.5981 12.1895 84.63 12.2669 84.6573 12.3398C84.6847 12.4128 84.6938 12.4811 84.6847 12.5449C84.6847 12.6725 84.6482 12.791 84.5753 12.9004C84.5115 13.0098 84.3702 13.0645 84.1515 13.0645C83.9692 13.0645 83.8188 13.0007 83.7003 12.873C83.5271 12.4629 83.3767 12.071 83.2491 11.6973C83.1215 11.3236 82.9666 10.9727 82.7843 10.6445C82.6111 10.9727 82.4881 11.2142 82.4152 11.3691C82.3514 11.5332 82.2967 11.6745 82.2511 11.793C82.2055 11.9206 82.1508 12.0618 82.087 12.2168C82.0323 12.3717 81.9321 12.6178 81.7862 12.9551C81.6313 13.1556 81.4536 13.2604 81.253 13.2695C80.934 13.2422 80.7609 13.0736 80.7335 12.7637C80.7335 12.6543 80.7609 12.513 80.8155 12.3398C80.8793 12.1667 80.9523 11.9844 81.0343 11.793C81.1163 11.6016 81.2029 11.4147 81.2941 11.2324C81.3852 11.0592 81.4581 10.918 81.5128 10.8086C81.5584 10.7174 81.6267 10.5762 81.7179 10.3848C81.809 10.1934 81.9139 10.002 82.0323 9.81055C82.1508 9.61914 82.2739 9.45508 82.4015 9.31836C82.5291 9.17253 82.6567 9.09961 82.7843 9.09961C82.9028 9.09961 83.0122 9.13607 83.1124 9.20898ZM88.3181 9.26367C88.8377 9.26367 89.1977 9.14062 89.3982 8.89453C89.5987 8.63932 89.699 8.28841 89.699 7.8418C89.699 7.67773 89.6762 7.51367 89.6306 7.34961C89.5942 7.18555 89.5212 7.03971 89.4119 6.91211C89.3116 6.77539 89.1703 6.66602 88.988 6.58398C88.8149 6.49284 88.5916 6.44727 88.3181 6.44727C88.0447 6.44727 87.8168 6.48828 87.6345 6.57031C87.4614 6.65234 87.3201 6.76172 87.2107 6.89844C87.1104 7.02604 87.0375 7.17643 86.992 7.34961C86.9555 7.51367 86.9373 7.67773 86.9373 7.8418C86.9373 8.28841 87.0421 8.63932 87.2517 8.89453C87.4614 9.14062 87.8168 9.26367 88.3181 9.26367ZM88.3045 10.4258C87.867 10.4258 87.4841 10.3574 87.156 10.2207C86.837 10.0749 86.5727 9.88802 86.363 9.66016C86.1534 9.42318 85.9985 9.14974 85.8982 8.83984C85.7979 8.52995 85.7478 8.20182 85.7478 7.85547C85.7569 7.53646 85.8071 7.22201 85.8982 6.91211C85.9893 6.60221 86.1352 6.32878 86.3357 6.0918C86.5453 5.8457 86.8142 5.64974 87.1423 5.50391C87.4796 5.35807 87.8943 5.28516 88.3865 5.28516C88.8513 5.28516 89.2433 5.36263 89.5623 5.51758C89.8813 5.67253 90.1365 5.8776 90.3279 6.13281C90.5284 6.37891 90.6742 6.66146 90.7654 6.98047C90.8565 7.29036 90.9021 7.60482 90.9021 7.92383C90.9021 8.25195 90.8474 8.57096 90.738 8.88086C90.6287 9.18164 90.4646 9.44596 90.2459 9.67383C90.0271 9.90169 89.7537 10.084 89.4255 10.2207C89.1065 10.3574 88.7328 10.4258 88.3045 10.4258ZM94.1287 8.06055C93.8097 8.05143 93.5408 8.04688 93.322 8.04688C93.1033 8.04688 92.9347 8.04688 92.8162 8.04688C92.6612 8.04688 92.4926 8.05143 92.3103 8.06055C92.1371 8.06966 91.9594 8.08333 91.7771 8.10156C91.5857 8.09245 91.4444 8.02865 91.3533 7.91016C91.2621 7.79167 91.2166 7.67318 91.2166 7.55469C91.2166 7.39974 91.253 7.27669 91.3259 7.18555C91.3989 7.0944 91.4946 7.0306 91.613 6.99414C91.7315 6.94857 91.8637 6.92122 92.0095 6.91211C92.1554 6.90299 92.3012 6.89844 92.447 6.89844C92.5382 6.89844 92.6202 6.90299 92.6931 6.91211C92.766 6.91211 92.8617 6.91211 92.9802 6.91211C93.117 6.91211 93.281 6.91211 93.4724 6.91211C93.6729 6.90299 93.8962 6.89388 94.1423 6.88477L94.1013 5.92773C94.0831 5.58138 94.0603 5.28516 94.033 5.03906C94.0056 4.79297 93.992 4.59245 93.992 4.4375C93.992 4.10938 94.0421 3.88151 94.1423 3.75391C94.2426 3.6263 94.3884 3.5625 94.5798 3.5625C94.7621 3.5625 94.8989 3.64909 94.99 3.82227C95.0811 3.98633 95.1404 4.18685 95.1677 4.42383C95.2042 4.65169 95.2224 4.88867 95.2224 5.13477C95.2224 5.37174 95.227 5.55859 95.2361 5.69531C95.2452 5.93229 95.2543 6.16016 95.2634 6.37891C95.2725 6.59766 95.2771 6.81185 95.2771 7.02148C95.2771 7.98763 95.2589 8.8125 95.2224 9.49609C95.1951 10.1797 95.1632 10.7266 95.1267 11.1367C95.0994 11.3464 95.0265 11.4922 94.908 11.5742C94.7895 11.6654 94.6619 11.7109 94.5252 11.7109C94.3702 11.7109 94.238 11.6562 94.1287 11.5469C94.0193 11.4375 93.9646 11.278 93.9646 11.0684L94.0877 8.60742L94.1287 8.06055ZM92.0095 4.49219C91.9548 4.48307 91.8455 4.4375 91.6814 4.35547C91.5173 4.27344 91.3487 4.16406 91.1755 4.02734C91.0024 3.89062 90.8474 3.73112 90.7107 3.54883C90.5831 3.36654 90.5193 3.17513 90.5193 2.97461C90.5193 2.81055 90.5831 2.66471 90.7107 2.53711C90.8474 2.40039 90.9978 2.33203 91.1619 2.33203C91.2895 2.33203 91.4034 2.35938 91.5037 2.41406C91.6039 2.46875 91.686 2.53711 91.7498 2.61914C91.8227 2.69206 91.8774 2.77409 91.9138 2.86523C91.9594 2.94727 91.9913 3.01562 92.0095 3.07031C92.0095 3.01562 92.0278 2.94727 92.0642 2.86523C92.1098 2.7832 92.1645 2.70573 92.2283 2.63281C92.3012 2.55078 92.3878 2.48242 92.488 2.42773C92.5883 2.36393 92.7068 2.33203 92.8435 2.33203C93.0076 2.33203 93.158 2.40039 93.2947 2.53711C93.4314 2.66471 93.4998 2.81055 93.4998 2.97461C93.4998 3.17513 93.4314 3.36654 93.2947 3.54883C93.1671 3.73112 93.0167 3.89062 92.8435 4.02734C92.6703 4.16406 92.5017 4.27344 92.3377 4.35547C92.1736 4.4375 92.0642 4.48307 92.0095 4.49219ZM101.836 6.36523C102.219 6.36523 102.497 6.2832 102.67 6.11914C102.853 5.95508 102.944 5.6543 102.944 5.2168C102.944 4.87044 102.866 4.59701 102.711 4.39648C102.556 4.19596 102.265 4.0957 101.836 4.0957C101.426 4.0957 101.139 4.19596 100.975 4.39648C100.811 4.59701 100.729 4.87044 100.729 5.2168C100.729 5.6543 100.825 5.95508 101.016 6.11914C101.217 6.2832 101.49 6.36523 101.836 6.36523ZM101.823 7.52734C101.075 7.52734 100.506 7.32227 100.114 6.91211C99.7309 6.50195 99.5395 5.94141 99.5395 5.23047C99.5395 4.9388 99.5805 4.65625 99.6625 4.38281C99.7445 4.10026 99.8767 3.85417 100.059 3.64453C100.241 3.42578 100.478 3.2526 100.77 3.125C101.062 2.9974 101.417 2.93359 101.836 2.93359C102.228 2.93359 102.565 2.99284 102.848 3.11133C103.14 3.22982 103.381 3.39388 103.573 3.60352C103.764 3.80404 103.905 4.05013 103.996 4.3418C104.097 4.62435 104.147 4.92969 104.147 5.25781C104.147 5.95964 103.937 6.51562 103.518 6.92578C103.099 7.32682 102.534 7.52734 101.823 7.52734ZM99.7855 10.1797C99.7673 9.86979 99.7582 9.71484 99.7582 9.71484V9.72852C99.74 9.72852 99.7172 9.27279 99.6898 8.36133C99.7263 8.18815 99.7947 8.06055 99.8949 7.97852C100.004 7.88737 100.118 7.8418 100.237 7.8418C100.483 7.8418 100.651 7.9375 100.743 8.12891C100.834 8.32031 100.884 8.53451 100.893 8.77148C100.911 8.99935 100.911 9.20898 100.893 9.40039C100.884 9.5918 100.898 9.6875 100.934 9.6875V9.82422C100.934 9.86979 100.934 9.92448 100.934 9.98828C100.934 10.0521 100.939 10.125 100.948 10.207H101.768C101.95 10.207 102.123 10.207 102.287 10.207C102.461 10.207 102.629 10.2025 102.793 10.1934C102.775 9.87435 102.766 9.71484 102.766 9.71484V9.72852C102.748 9.72852 102.725 9.27279 102.698 8.36133C102.734 8.18815 102.802 8.06055 102.903 7.97852C103.012 7.88737 103.126 7.8418 103.245 7.8418C103.491 7.8418 103.659 7.9375 103.75 8.12891C103.842 8.32031 103.892 8.53451 103.901 8.77148C103.919 8.99935 103.919 9.20898 103.901 9.40039C103.892 9.5918 103.905 9.6875 103.942 9.6875V9.79688C103.942 9.84245 103.942 9.89258 103.942 9.94727C103.942 10.002 103.946 10.0658 103.955 10.1387C104.393 10.1204 104.808 10.084 105.2 10.0293C105.592 9.96549 105.952 9.93359 106.28 9.93359C106.471 9.93359 106.612 9.97917 106.704 10.0703C106.804 10.1615 106.868 10.2572 106.895 10.3574C106.895 10.5488 106.858 10.6947 106.786 10.7949C106.722 10.8952 106.594 10.9772 106.403 11.041C105.774 11.1322 105.077 11.2005 104.311 11.2461C103.554 11.3008 102.716 11.3281 101.795 11.3281C100.866 11.3281 100.036 11.3099 99.307 11.2734C98.587 11.237 97.9535 11.1914 97.4066 11.1367C97.2517 11.1185 97.1241 11.0592 97.0238 10.959C96.9236 10.8496 96.8734 10.7174 96.8734 10.5625C96.8734 10.4167 96.919 10.2936 97.0102 10.1934C97.1013 10.084 97.2198 10.0202 97.3656 10.002C97.7576 10.0475 98.154 10.084 98.5551 10.1113C98.9561 10.1387 99.3663 10.1615 99.7855 10.1797ZM110.31 9.40039H110.378C110.487 9.40039 110.583 9.42773 110.665 9.48242L110.72 9.53711C110.875 9.62826 111.002 9.77409 111.103 9.97461C111.212 10.1751 111.267 10.3802 111.267 10.5898C111.267 10.8359 111.185 11.0592 111.021 11.2598C110.856 11.4694 110.578 11.5742 110.187 11.5742C109.868 11.5742 109.631 11.4876 109.476 11.3145C109.33 11.1504 109.257 10.9271 109.257 10.6445C109.257 10.5078 109.28 10.3711 109.325 10.2344C109.371 10.0977 109.435 9.97461 109.517 9.86523C109.608 9.74674 109.717 9.64648 109.845 9.56445C109.981 9.48242 110.136 9.42773 110.31 9.40039ZM109.817 2.98828C109.845 2.82422 109.913 2.69661 110.022 2.60547C110.141 2.50521 110.264 2.45508 110.392 2.45508C110.519 2.45508 110.642 2.49609 110.761 2.57812C110.879 2.65104 110.97 2.77409 111.034 2.94727C111.034 3.80404 111.016 4.63346 110.98 5.43555C110.943 6.23763 110.925 7.06706 110.925 7.92383C110.897 8.15169 110.825 8.31576 110.706 8.41602C110.588 8.51628 110.455 8.56641 110.31 8.56641C110.173 8.56641 110.041 8.52083 109.913 8.42969C109.786 8.32943 109.722 8.17448 109.722 7.96484C109.722 7.10807 109.735 6.27865 109.763 5.47656C109.799 4.67448 109.817 3.84505 109.817 2.98828Z" fill="#1A202C"/>
</svg>
