<svg width="208" height="15" viewBox="0 0 208 15" fill="none" xmlns="http://www.w3.org/2000/svg">
<path d="M3.47266 5.14844C3.28125 5.13932 3.13997 5.07552 3.04883 4.95703C2.9668 4.83854 2.92578 4.71549 2.92578 4.58789C2.92578 4.45117 2.97591 4.32812 3.07617 4.21875C3.17643 4.10026 3.31771 4.04102 3.5 4.04102C3.84635 4.02279 4.20182 4.00911 4.56641 4C4.9401 3.99089 5.33203 3.98633 5.74219 3.98633H7.92969C8.25781 4.13216 8.42188 4.32357 8.42188 4.56055C8.40365 4.69727 8.35352 4.81576 8.27148 4.91602C8.18945 5.00716 8.07096 5.07096 7.91602 5.10742H7.36914C7.4694 5.25326 7.54688 5.41732 7.60156 5.59961C7.65625 5.77279 7.68359 5.96419 7.68359 6.17383C7.68359 6.53841 7.61523 6.84375 7.47852 7.08984C7.35091 7.32682 7.18685 7.51823 6.98633 7.66406C6.79492 7.80078 6.58073 7.90104 6.34375 7.96484C6.11589 8.01953 5.90625 8.04688 5.71484 8.04688C5.45964 8.04688 5.21354 8.01042 4.97656 7.9375C4.73958 7.85547 4.52539 7.73698 4.33398 7.58203C4.15169 7.42708 4.0013 7.23112 3.88281 6.99414C3.76432 6.74805 3.70052 6.46549 3.69141 6.14648C3.71875 5.7181 3.82812 5.38086 4.01953 5.13477C3.91927 5.13477 3.82357 5.13477 3.73242 5.13477C3.65039 5.13477 3.5638 5.13932 3.47266 5.14844ZM5.25 5.57227C5.11328 5.66341 5.00846 5.76367 4.93555 5.87305C4.87174 5.97331 4.83984 6.03255 4.83984 6.05078V6.16016C4.83984 6.34245 4.87174 6.48372 4.93555 6.58398C4.99935 6.68424 5.07227 6.75716 5.1543 6.80273C5.24544 6.84831 5.33203 6.87565 5.41406 6.88477C5.50521 6.89388 5.57357 6.89844 5.61914 6.89844C5.86523 6.89844 6.07943 6.84375 6.26172 6.73438C6.44401 6.625 6.53516 6.44727 6.53516 6.20117C6.53516 6.04622 6.50781 5.91862 6.45312 5.81836C6.39844 5.7181 6.33008 5.64062 6.24805 5.58594C6.17513 5.53125 6.08854 5.49479 5.98828 5.47656C5.89714 5.45833 5.81055 5.44922 5.72852 5.44922C5.55534 5.44922 5.39583 5.49023 5.25 5.57227ZM4.51172 3.16602C4.32943 3.04753 4.20638 2.93815 4.14258 2.83789C4.07878 2.72852 4.04688 2.6237 4.04688 2.52344C4.04688 2.33203 4.10612 2.19076 4.22461 2.09961C4.35221 2.00846 4.47982 1.96289 4.60742 1.96289C4.72591 1.96289 4.83984 1.99023 4.94922 2.04492C5.16797 2.11784 5.40039 2.16797 5.64648 2.19531C5.90169 2.22266 6.13867 2.26367 6.35742 2.31836C6.57617 2.36393 6.75846 2.43229 6.9043 2.52344C7.05013 2.61458 7.12305 2.76042 7.12305 2.96094C7.10482 3.09766 7.05469 3.22526 6.97266 3.34375C6.89974 3.45312 6.76758 3.50781 6.57617 3.50781C6.36654 3.50781 6.17969 3.50326 6.01562 3.49414C5.86068 3.48503 5.70573 3.47135 5.55078 3.45312C5.39583 3.42578 5.23633 3.38932 5.07227 3.34375C4.9082 3.29818 4.72135 3.23893 4.51172 3.16602ZM6.38477 9.94727L6.35742 10.7676C6.33919 10.9225 6.33008 11.1094 6.33008 11.3281C6.33919 11.5469 6.33008 11.7565 6.30273 11.957C6.27539 12.1576 6.2207 12.3262 6.13867 12.4629C6.06576 12.6087 5.93815 12.6816 5.75586 12.6816C5.62826 12.6816 5.49154 12.6361 5.3457 12.5449C5.20898 12.4538 5.14062 12.3034 5.14062 12.0938C5.13151 11.8568 5.13151 11.6335 5.14062 11.4238C5.14974 11.2142 5.15885 11.0137 5.16797 10.8223L5.18164 9.96094C4.3431 9.95182 3.59115 9.93359 2.92578 9.90625C2.26042 9.87891 1.67253 9.83333 1.16211 9.76953C1.00716 9.76042 0.879557 9.70117 0.779297 9.5918C0.679036 9.48242 0.628906 9.35026 0.628906 9.19531C0.628906 9.04948 0.674479 8.92643 0.765625 8.82617C0.856771 8.7168 0.97526 8.65299 1.12109 8.63477C2.37891 8.77148 3.71419 8.83984 5.12695 8.83984C6.12044 8.83984 7.01367 8.81706 7.80664 8.77148C8.60872 8.72591 9.3151 8.65755 9.92578 8.56641H10.0352C10.2266 8.56641 10.3678 8.61198 10.459 8.70312C10.5592 8.79427 10.623 8.88997 10.6504 8.99023C10.6504 9.18164 10.6139 9.32747 10.541 9.42773C10.4772 9.52799 10.3496 9.61003 10.1582 9.67383C9.62956 9.74674 9.05078 9.80599 8.42188 9.85156C7.80208 9.89714 7.12305 9.92904 6.38477 9.94727ZM14.8034 4.86133C15.1862 4.86133 15.4642 4.7793 15.6373 4.61523C15.8196 4.45117 15.9108 4.15039 15.9108 3.71289C15.9108 3.36654 15.8333 3.0931 15.6784 2.89258C15.5234 2.69206 15.2317 2.5918 14.8034 2.5918C14.3932 2.5918 14.1061 2.69206 13.942 2.89258C13.778 3.0931 13.6959 3.36654 13.6959 3.71289C13.6959 4.15039 13.7916 4.45117 13.983 4.61523C14.1836 4.7793 14.457 4.86133 14.8034 4.86133ZM14.7897 6.02344C14.0423 6.02344 13.4726 5.81836 13.0807 5.4082C12.6979 4.99805 12.5065 4.4375 12.5065 3.72656C12.5065 3.4349 12.5475 3.15234 12.6295 2.87891C12.7116 2.59635 12.8437 2.35026 13.026 2.14062C13.2083 1.92188 13.4453 1.7487 13.737 1.62109C14.0286 1.49349 14.3841 1.42969 14.8034 1.42969C15.1953 1.42969 15.5325 1.48893 15.8151 1.60742C16.1067 1.72591 16.3483 1.88997 16.5397 2.09961C16.7311 2.30013 16.8724 2.54622 16.9635 2.83789C17.0638 3.12044 17.1139 3.42578 17.1139 3.75391C17.1139 4.45573 16.9043 5.01172 16.485 5.42188C16.0657 5.82292 15.5006 6.02344 14.7897 6.02344ZM15.4459 8.01953C15.4459 8.20182 15.4323 8.4069 15.4049 8.63477C15.3867 8.85352 15.3776 9.12695 15.3776 9.45508C15.3776 9.66471 15.3183 9.82422 15.1998 9.93359C15.0814 10.0339 14.9583 10.084 14.8307 10.084C14.7031 10.084 14.5664 10.0384 14.4205 9.94727C14.2838 9.85612 14.2155 9.70573 14.2155 9.49609C14.2155 9.16797 14.22 8.89453 14.2291 8.67578C14.2474 8.44792 14.2565 8.23828 14.2565 8.04688H13.942C13.7689 8.04688 13.5501 8.05143 13.2858 8.06055C13.0215 8.06966 12.7662 8.05599 12.5202 8.01953C12.2741 7.98307 12.0599 7.91471 11.8776 7.81445C11.7044 7.71419 11.6178 7.55924 11.6178 7.34961C11.6178 7.22201 11.6588 7.11263 11.7409 7.02148C11.832 6.93034 11.9505 6.86198 12.0963 6.81641C12.6432 6.83464 13.1217 6.85286 13.5319 6.87109C13.942 6.88021 14.2793 6.88477 14.5436 6.88477C14.9537 6.88477 15.4049 6.87565 15.8971 6.85742C16.3984 6.83008 16.9544 6.77995 17.5651 6.70703H17.6471C17.8567 6.70703 18.0071 6.76172 18.0983 6.87109C18.1985 6.98047 18.2578 7.08529 18.276 7.18555C18.276 7.37695 18.2396 7.51823 18.1666 7.60938C18.1028 7.69141 17.9752 7.76432 17.7838 7.82812C17.3281 7.8737 16.9043 7.91471 16.5123 7.95117C16.1295 7.97852 15.7741 8.0013 15.4459 8.01953ZM20.3952 5.83203H19.6432C19.4883 5.83203 19.3196 5.83659 19.1373 5.8457C18.9642 5.85482 18.7864 5.86849 18.6041 5.88672C18.4127 5.8776 18.2715 5.8138 18.1803 5.69531C18.0892 5.57682 18.0436 5.45833 18.0436 5.33984C18.0436 5.1849 18.0801 5.06185 18.153 4.9707C18.2259 4.87956 18.3216 4.81576 18.4401 4.7793C18.5586 4.73372 18.6907 4.70638 18.8366 4.69727C18.9824 4.68815 19.1282 4.68359 19.2741 4.68359C19.3743 4.68359 19.4655 4.68815 19.5475 4.69727C19.6295 4.69727 19.7435 4.69727 19.8893 4.69727C19.9713 4.69727 20.0579 4.69727 20.1491 4.69727C20.2402 4.69727 20.3405 4.69271 20.4498 4.68359V4.41016C20.4498 4.18229 20.4407 3.94987 20.4225 3.71289C20.4134 3.47591 20.3952 3.2526 20.3678 3.04297C20.3496 2.83333 20.3314 2.64648 20.3131 2.48242C20.304 2.31836 20.2995 2.19531 20.2995 2.11328C20.2995 1.78516 20.3496 1.55729 20.4498 1.42969C20.5501 1.30208 20.6959 1.23828 20.8873 1.23828C21.0696 1.23828 21.2064 1.32487 21.2975 1.49805C21.3886 1.66211 21.4479 1.85807 21.4752 2.08594C21.5117 2.30469 21.5299 2.53255 21.5299 2.76953C21.5299 2.9974 21.5345 3.17969 21.5436 3.31641C21.5709 3.99089 21.5846 4.5651 21.5846 5.03906C21.5846 5.4401 21.5846 5.83203 21.5846 6.21484C21.5846 6.58854 21.5618 6.92578 21.5162 7.22656C21.4798 7.51823 21.4114 7.75521 21.3112 7.9375C21.2109 8.11979 21.0605 8.21094 20.86 8.21094C20.7051 8.21094 20.5729 8.15625 20.4635 8.04688C20.3541 7.9375 20.2995 7.77799 20.2995 7.56836L20.3952 5.83203ZM16.8541 12.8867C16.5442 12.8138 16.3073 12.6908 16.1432 12.5176C15.9883 12.3535 15.8743 12.1484 15.8014 11.9023C15.7376 11.6562 15.6966 11.3737 15.6784 11.0547C15.6601 10.7357 15.6419 10.3848 15.6237 10.002C15.651 9.81966 15.7194 9.68294 15.8287 9.5918C15.9472 9.49154 16.0748 9.44141 16.2116 9.44141C16.3483 9.44141 16.4622 9.49154 16.5534 9.5918C16.6536 9.68294 16.7311 9.80599 16.7858 9.96094L16.8678 11.2871C16.8769 11.4512 16.9498 11.5742 17.0866 11.6562C17.2324 11.7474 17.401 11.8112 17.5924 11.8477C17.7929 11.8841 18.0026 11.9023 18.2213 11.9023C18.4401 11.9115 18.6406 11.916 18.8229 11.916C19.2877 11.916 19.7252 11.8841 20.1354 11.8203C20.5455 11.7565 20.9101 11.6608 21.2291 11.5332C21.2838 11.515 21.334 11.5013 21.3795 11.4922C21.4342 11.4831 21.4843 11.4785 21.5299 11.4785C21.7122 11.4785 21.8489 11.5423 21.9401 11.6699C22.0403 11.8066 22.0905 11.957 22.0905 12.1211C22.0905 12.2852 21.9948 12.4264 21.8034 12.5449C21.6211 12.6634 21.3704 12.7637 21.0514 12.8457C20.7415 12.9277 20.3769 12.987 19.9577 13.0234C19.5475 13.0599 19.1146 13.0781 18.6588 13.0781C18.3398 13.0781 18.0299 13.0645 17.7291 13.0371C17.4284 13.0098 17.1367 12.9596 16.8541 12.8867ZM26.3118 6.1875C26.4576 6.40625 26.6262 6.67057 26.8177 6.98047C27.0091 7.28125 27.1914 7.59115 27.3645 7.91016C27.5377 8.22005 27.6835 8.51172 27.802 8.78516C27.9205 9.05859 27.9798 9.26823 27.9798 9.41406C27.9798 9.56901 27.9524 9.71029 27.8977 9.83789C27.843 9.95638 27.6881 10.0156 27.4329 10.0156C27.3053 10.0156 27.1959 9.97005 27.1048 9.87891C27.0136 9.78776 26.9225 9.66471 26.8313 9.50977C26.7493 9.35482 26.6627 9.17708 26.5716 8.97656C26.4804 8.77604 26.3756 8.56641 26.2571 8.34766C26.1568 8.15625 26.0566 7.98307 25.9563 7.82812C25.8652 7.66406 25.7832 7.51823 25.7102 7.39062C25.5826 7.59115 25.4687 7.78255 25.3684 7.96484C25.2773 8.13802 25.177 8.32943 25.0677 8.53906C24.9674 8.73958 24.858 8.96289 24.7395 9.20898C24.6302 9.45508 24.4934 9.74219 24.3294 10.0703C24.1927 10.2617 24.024 10.3574 23.8235 10.3574C23.5045 10.3027 23.3268 10.1204 23.2903 9.81055C23.2903 9.69206 23.3268 9.53255 23.3997 9.33203C23.4817 9.13151 23.5729 8.92643 23.6731 8.7168C23.7825 8.49805 23.8919 8.28841 24.0012 8.08789C24.1197 7.88737 24.2154 7.72331 24.2884 7.5957C24.416 7.36784 24.5527 7.13542 24.6985 6.89844C24.8443 6.66146 24.9993 6.41536 25.1634 6.16016C24.9264 6.16927 24.7031 6.17839 24.4934 6.1875C24.2838 6.1875 24.0878 6.19661 23.9055 6.21484C23.6868 6.20573 23.5364 6.14193 23.4544 6.02344C23.3723 5.89583 23.3313 5.76367 23.3313 5.62695C23.3313 5.47201 23.3769 5.35352 23.468 5.27148C23.5592 5.18945 23.6822 5.13021 23.8372 5.09375C24.0012 5.05729 24.1881 5.03906 24.3977 5.03906C24.6074 5.02995 24.8352 5.02539 25.0813 5.02539C25.5917 5.02539 26.0338 5.02995 26.4075 5.03906C26.7903 5.04818 27.1048 5.07552 27.3509 5.12109C27.597 5.15755 27.7792 5.22135 27.8977 5.3125C28.0253 5.40365 28.0891 5.53125 28.0891 5.69531C28.0891 5.83203 28.0527 5.96419 27.9798 6.0918C27.9068 6.21029 27.7519 6.27409 27.5149 6.2832C27.36 6.26497 27.1822 6.24674 26.9817 6.22852C26.7903 6.21029 26.567 6.19661 26.3118 6.1875ZM31.3157 6.89844C31.3613 6.90755 31.4068 6.91211 31.4524 6.91211C31.5071 6.91211 31.5572 6.91211 31.6028 6.91211C31.694 6.91211 31.7805 6.91211 31.8626 6.91211C31.9446 6.90299 32.0358 6.89844 32.136 6.89844C32.2818 6.89844 32.4277 6.90299 32.5735 6.91211C32.7285 6.92122 32.8606 6.94857 32.97 6.99414C33.0885 7.03971 33.1842 7.11263 33.2571 7.21289C33.33 7.30404 33.3665 7.43164 33.3665 7.5957C33.3665 7.70508 33.3164 7.81445 33.2161 7.92383C33.1158 8.0332 32.9791 8.09245 32.8059 8.10156C32.6236 8.08333 32.4414 8.06966 32.2591 8.06055C32.0859 8.05143 31.9218 8.04688 31.7669 8.04688H31.2884C31.2701 8.7487 31.2519 9.35482 31.2337 9.86523C31.2246 10.3757 31.2018 10.7995 31.1653 11.1367C31.1471 11.3464 31.0742 11.4922 30.9466 11.5742C30.819 11.6654 30.6914 11.7109 30.5637 11.7109C30.4088 11.7109 30.2766 11.6562 30.1673 11.5469C30.0579 11.4375 30.0032 11.278 30.0032 11.0684L30.1262 8.60742C30.1445 8.42513 30.1582 8.22461 30.1673 8.00586C30.1764 7.78711 30.1809 7.55013 30.1809 7.29492C30.1809 7.05794 30.1718 6.78906 30.1536 6.48828C30.1445 6.17839 30.1262 5.88672 30.0989 5.61328C30.0807 5.33073 30.0624 5.08008 30.0442 4.86133C30.0351 4.64258 30.0305 4.5013 30.0305 4.4375C30.0305 4.10938 30.0807 3.88151 30.1809 3.75391C30.2812 3.6263 30.427 3.5625 30.6184 3.5625C30.8007 3.5625 30.9374 3.64909 31.0286 3.82227C31.1197 3.98633 31.179 4.18685 31.2063 4.42383C31.2428 4.65169 31.261 4.88867 31.261 5.13477C31.261 5.37174 31.2656 5.55859 31.2747 5.69531C31.2838 5.91406 31.2929 6.1237 31.302 6.32422C31.3111 6.52474 31.3157 6.71615 31.3157 6.89844ZM28.6634 4.49219C28.6087 4.48307 28.4993 4.4375 28.3352 4.35547C28.1712 4.27344 28.0026 4.16406 27.8294 4.02734C27.6562 3.89062 27.5012 3.73112 27.3645 3.54883C27.2369 3.36654 27.1731 3.17513 27.1731 2.97461C27.1731 2.81055 27.2369 2.66471 27.3645 2.53711C27.5012 2.40039 27.6516 2.33203 27.8157 2.33203C27.9433 2.33203 28.0572 2.35938 28.1575 2.41406C28.2578 2.46875 28.3398 2.53711 28.4036 2.61914C28.4765 2.69206 28.5312 2.77409 28.5677 2.86523C28.6132 2.94727 28.6451 3.01562 28.6634 3.07031C28.6634 3.01562 28.6816 2.94727 28.718 2.86523C28.7636 2.7832 28.8183 2.70573 28.8821 2.63281C28.955 2.55078 29.0416 2.48242 29.1419 2.42773C29.2421 2.36393 29.3606 2.33203 29.4973 2.33203C29.6614 2.33203 29.8118 2.40039 29.9485 2.53711C30.0852 2.66471 30.1536 2.81055 30.1536 2.97461C30.1536 3.17513 30.0852 3.36654 29.9485 3.54883C29.8209 3.73112 29.6705 3.89062 29.4973 4.02734C29.3242 4.16406 29.1555 4.27344 28.9915 4.35547C28.8274 4.4375 28.718 4.48307 28.6634 4.49219ZM36.4394 9.26367C36.9589 9.26367 37.3189 9.14062 37.5195 8.89453C37.72 8.63932 37.8202 8.28841 37.8202 7.8418C37.8202 7.67773 37.7974 7.51367 37.7519 7.34961C37.7154 7.18555 37.6425 7.03971 37.5331 6.91211C37.4329 6.77539 37.2916 6.66602 37.1093 6.58398C36.9361 6.49284 36.7128 6.44727 36.4394 6.44727C36.1659 6.44727 35.9381 6.48828 35.7558 6.57031C35.5826 6.65234 35.4413 6.76172 35.332 6.89844C35.2317 7.02604 35.1588 7.17643 35.1132 7.34961C35.0767 7.51367 35.0585 7.67773 35.0585 7.8418C35.0585 8.28841 35.1633 8.63932 35.373 8.89453C35.5826 9.14062 35.9381 9.26367 36.4394 9.26367ZM36.4257 10.4258C35.9882 10.4258 35.6054 10.3574 35.2773 10.2207C34.9583 10.0749 34.6939 9.88802 34.4843 9.66016C34.2747 9.42318 34.1197 9.14974 34.0195 8.83984C33.9192 8.52995 33.8691 8.20182 33.8691 7.85547C33.8782 7.53646 33.9283 7.22201 34.0195 6.91211C34.1106 6.60221 34.2564 6.32878 34.457 6.0918C34.6666 5.8457 34.9355 5.64974 35.2636 5.50391C35.6008 5.35807 36.0155 5.28516 36.5077 5.28516C36.9726 5.28516 37.3645 5.36263 37.6835 5.51758C38.0025 5.67253 38.2577 5.8776 38.4491 6.13281C38.6497 6.37891 38.7955 6.66146 38.8866 6.98047C38.9778 7.29036 39.0234 7.60482 39.0234 7.92383C39.0234 8.25195 38.9687 8.57096 38.8593 8.88086C38.7499 9.18164 38.5859 9.44596 38.3671 9.67383C38.1484 9.90169 37.8749 10.084 37.5468 10.2207C37.2278 10.3574 36.8541 10.4258 36.4257 10.4258ZM40.8691 8.32031H40.2538C40.0989 8.32031 39.9303 8.32487 39.748 8.33398C39.5748 8.3431 39.3971 8.35677 39.2148 8.375C39.0234 8.36589 38.8821 8.30208 38.7909 8.18359C38.6998 8.0651 38.6542 7.94661 38.6542 7.82812C38.6542 7.67318 38.6907 7.55013 38.7636 7.45898C38.8365 7.36784 38.9322 7.30404 39.0507 7.26758C39.1692 7.22201 39.3014 7.19466 39.4472 7.18555C39.593 7.17643 39.7389 7.17188 39.8847 7.17188C39.9303 7.17188 39.9622 7.17188 39.9804 7.17188C40.0077 7.17188 40.0351 7.17643 40.0624 7.18555C40.0989 7.18555 40.1399 7.18555 40.1855 7.18555C40.231 7.18555 40.2948 7.18555 40.3769 7.18555C40.4498 7.18555 40.5273 7.18555 40.6093 7.18555C40.6913 7.18555 40.787 7.18099 40.8964 7.17188L40.8554 6.20117C40.8372 5.98242 40.8144 5.77279 40.787 5.57227C40.7597 5.36263 40.746 5.16667 40.746 4.98438C40.746 4.65625 40.7961 4.42839 40.8964 4.30078C40.9967 4.17318 41.1425 4.10938 41.3339 4.10938C41.4889 4.10938 41.6028 4.15495 41.6757 4.24609C41.7577 4.32812 41.817 4.45117 41.8534 4.61523C41.899 4.77018 41.9264 4.96159 41.9355 5.18945C41.9537 5.41732 41.9719 5.67708 41.9902 5.96875C42.0175 6.45182 42.0312 6.86654 42.0312 7.21289C42.0312 7.98763 42.0129 8.66667 41.9765 9.25C41.9491 9.82422 41.9172 10.3164 41.8808 10.7266C41.8534 10.9362 41.7805 11.082 41.662 11.1641C41.5435 11.2552 41.4159 11.3008 41.2792 11.3008C41.1243 11.3008 40.9921 11.2461 40.8827 11.1367C40.7734 11.0273 40.7187 10.8678 40.7187 10.6582L40.8417 8.59375L40.8691 8.32031ZM43.1796 5.92773C43.1614 5.58138 43.1386 5.28516 43.1113 5.03906C43.0839 4.79297 43.0702 4.59245 43.0702 4.4375C43.0702 4.10938 43.1204 3.88151 43.2206 3.75391C43.3209 3.6263 43.4667 3.5625 43.6581 3.5625C43.8404 3.5625 43.9771 3.64909 44.0683 3.82227C44.1594 3.98633 44.2187 4.18685 44.246 4.42383C44.2825 4.65169 44.3007 4.88867 44.3007 5.13477C44.3007 5.37174 44.3053 5.55859 44.3144 5.69531C44.3235 5.93229 44.3326 6.16016 44.3417 6.37891C44.3508 6.59766 44.3554 6.81185 44.3554 7.02148C44.3554 7.98763 44.3372 8.8125 44.3007 9.49609C44.2734 10.1797 44.2415 10.7266 44.205 11.1367C44.1777 11.3464 44.1047 11.4922 43.9863 11.5742C43.8678 11.6654 43.7402 11.7109 43.6034 11.7109C43.4485 11.7109 43.3163 11.6562 43.207 11.5469C43.0976 11.4375 43.0429 11.278 43.0429 11.0684L43.1659 8.60742C43.1842 8.42513 43.1978 8.22461 43.207 8.00586C43.2161 7.78711 43.2206 7.55013 43.2206 7.29492C43.2206 6.89388 43.207 6.43815 43.1796 5.92773ZM39.4472 4.49219C39.3925 4.48307 39.2831 4.4375 39.1191 4.35547C38.955 4.27344 38.7864 4.16406 38.6132 4.02734C38.44 3.89062 38.2851 3.73112 38.1484 3.54883C38.0208 3.36654 37.957 3.17513 37.957 2.97461C37.957 2.81055 38.0208 2.66471 38.1484 2.53711C38.2851 2.40039 38.4355 2.33203 38.5995 2.33203C38.7271 2.33203 38.8411 2.35938 38.9413 2.41406C39.0416 2.46875 39.1236 2.53711 39.1874 2.61914C39.2603 2.69206 39.315 2.77409 39.3515 2.86523C39.3971 2.94727 39.429 3.01562 39.4472 3.07031C39.4472 3.01562 39.4654 2.94727 39.5019 2.86523C39.5474 2.7832 39.6021 2.70573 39.6659 2.63281C39.7389 2.55078 39.8254 2.48242 39.9257 2.42773C40.026 2.36393 40.1445 2.33203 40.2812 2.33203C40.4452 2.33203 40.5956 2.40039 40.7323 2.53711C40.8691 2.66471 40.9374 2.81055 40.9374 2.97461C40.9374 3.17513 40.8691 3.36654 40.7323 3.54883C40.6047 3.73112 40.4544 3.89062 40.2812 4.02734C40.108 4.16406 39.9394 4.27344 39.7753 4.35547C39.6113 4.4375 39.5019 4.48307 39.4472 4.49219ZM49.3287 5.8457C49.511 5.96419 49.6431 6.13737 49.7252 6.36523C49.8163 6.5931 49.8619 6.81185 49.8619 7.02148C49.8619 7.26758 49.8345 7.53646 49.7798 7.82812C49.7343 8.11979 49.6705 8.41146 49.5884 8.70312C49.5155 8.98568 49.4335 9.25911 49.3423 9.52344C49.2603 9.77865 49.1783 9.9974 49.0962 10.1797C49.0142 10.3711 48.914 10.5033 48.7955 10.5762C48.6861 10.6491 48.5539 10.681 48.399 10.6719C48.2805 10.6719 48.1711 10.6263 48.0709 10.5352C47.9706 10.444 47.9205 10.321 47.9205 10.166C47.9205 10.0931 47.9433 9.99284 47.9888 9.86523C48.0344 9.72852 48.0845 9.57812 48.1392 9.41406C48.203 9.25 48.2668 9.08594 48.3306 8.92188C48.3944 8.7487 48.4446 8.59375 48.481 8.45703C48.6177 7.96484 48.6861 7.5638 48.6861 7.25391C48.6861 7.09896 48.6633 6.98047 48.6177 6.89844C48.5813 6.81641 48.5038 6.77083 48.3853 6.76172L45.4322 6.5293C45.177 6.43815 45.0494 6.26497 45.0494 6.00977C45.0494 5.62695 45.3228 5.43555 45.8697 5.43555C46.1249 5.43555 46.4348 5.45378 46.7994 5.49023C47.164 5.51758 47.5194 5.55404 47.8658 5.59961C48.2121 5.63607 48.522 5.67708 48.7955 5.72266C49.078 5.76823 49.2558 5.80924 49.3287 5.8457ZM51.9947 8.32031H51.3795C51.2245 8.32031 51.0559 8.32487 50.8736 8.33398C50.7004 8.3431 50.5227 8.35677 50.3404 8.375C50.149 8.36589 50.0077 8.30208 49.9166 8.18359C49.8254 8.0651 49.7798 7.94661 49.7798 7.82812C49.7798 7.67318 49.8163 7.55013 49.8892 7.45898C49.9621 7.36784 50.0578 7.30404 50.1763 7.26758C50.2948 7.22201 50.427 7.19466 50.5728 7.18555C50.7186 7.17643 50.8645 7.17188 51.0103 7.17188C51.0559 7.17188 51.0878 7.17188 51.106 7.17188C51.1334 7.17188 51.1607 7.17643 51.188 7.18555C51.2245 7.18555 51.2655 7.18555 51.3111 7.18555C51.3567 7.18555 51.4205 7.18555 51.5025 7.18555C51.5754 7.18555 51.6529 7.18555 51.7349 7.18555C51.817 7.18555 51.9127 7.18099 52.022 7.17188L51.981 6.20117C51.9628 5.98242 51.94 5.77279 51.9127 5.57227C51.8853 5.36263 51.8716 5.16667 51.8716 4.98438C51.8716 4.65625 51.9218 4.42839 52.022 4.30078C52.1223 4.17318 52.2681 4.10938 52.4595 4.10938C52.6145 4.10938 52.7284 4.15495 52.8013 4.24609C52.8834 4.32812 52.9426 4.45117 52.9791 4.61523C53.0246 4.77018 53.052 4.96159 53.0611 5.18945C53.0793 5.41732 53.0976 5.67708 53.1158 5.96875C53.1431 6.45182 53.1568 6.86654 53.1568 7.21289C53.1568 7.98763 53.1386 8.66667 53.1021 9.25C53.0748 9.82422 53.0429 10.3164 53.0064 10.7266C52.9791 10.9362 52.9061 11.082 52.7877 11.1641C52.6692 11.2552 52.5416 11.3008 52.4048 11.3008C52.2499 11.3008 52.1177 11.2461 52.0084 11.1367C51.899 11.0273 51.8443 10.8678 51.8443 10.6582L51.9673 8.59375L51.9947 8.32031ZM54.3052 5.92773C54.287 5.58138 54.2642 5.28516 54.2369 5.03906C54.2095 4.79297 54.1959 4.59245 54.1959 4.4375C54.1959 4.10938 54.246 3.88151 54.3462 3.75391C54.4465 3.6263 54.5923 3.5625 54.7837 3.5625C54.966 3.5625 55.1028 3.64909 55.1939 3.82227C55.2851 3.98633 55.3443 4.18685 55.3716 4.42383C55.4081 4.65169 55.4263 4.88867 55.4263 5.13477C55.4263 5.37174 55.4309 5.55859 55.44 5.69531C55.4491 5.93229 55.4582 6.16016 55.4673 6.37891C55.4765 6.59766 55.481 6.81185 55.481 7.02148C55.481 7.98763 55.4628 8.8125 55.4263 9.49609C55.399 10.1797 55.3671 10.7266 55.3306 11.1367C55.3033 11.3464 55.2304 11.4922 55.1119 11.5742C54.9934 11.6654 54.8658 11.7109 54.7291 11.7109C54.5741 11.7109 54.442 11.6562 54.3326 11.5469C54.2232 11.4375 54.1685 11.278 54.1685 11.0684L54.2916 8.60742C54.3098 8.42513 54.3235 8.22461 54.3326 8.00586C54.3417 7.78711 54.3462 7.55013 54.3462 7.29492C54.3462 6.89388 54.3326 6.43815 54.3052 5.92773ZM50.5728 4.49219C50.5181 4.48307 50.4087 4.4375 50.2447 4.35547C50.0806 4.27344 49.912 4.16406 49.7388 4.02734C49.5656 3.89062 49.4107 3.73112 49.274 3.54883C49.1464 3.36654 49.0826 3.17513 49.0826 2.97461C49.0826 2.81055 49.1464 2.66471 49.274 2.53711C49.4107 2.40039 49.5611 2.33203 49.7252 2.33203C49.8528 2.33203 49.9667 2.35938 50.067 2.41406C50.1672 2.46875 50.2492 2.53711 50.313 2.61914C50.386 2.69206 50.4406 2.77409 50.4771 2.86523C50.5227 2.94727 50.5546 3.01562 50.5728 3.07031C50.5728 3.01562 50.591 2.94727 50.6275 2.86523C50.6731 2.7832 50.7278 2.70573 50.7916 2.63281C50.8645 2.55078 50.9511 2.48242 51.0513 2.42773C51.1516 2.36393 51.2701 2.33203 51.4068 2.33203C51.5709 2.33203 51.7212 2.40039 51.858 2.53711C51.9947 2.66471 52.063 2.81055 52.063 2.97461C52.063 3.17513 51.9947 3.36654 51.858 3.54883C51.7304 3.73112 51.58 3.89062 51.4068 4.02734C51.2336 4.16406 51.065 4.27344 50.9009 4.35547C50.7369 4.4375 50.6275 4.48307 50.5728 4.49219ZM60.3963 9.46875C60.3416 9.33203 60.287 9.14062 60.2323 8.89453C60.1776 8.63932 60.1229 8.375 60.0682 8.10156C60.0135 7.81901 59.9679 7.54557 59.9315 7.28125C59.895 7.01693 59.8722 6.79818 59.8631 6.625L59.8358 5.76367C59.8449 5.56315 59.9133 5.41276 60.0409 5.3125C60.1776 5.20312 60.3052 5.14844 60.4237 5.14844C60.6333 5.14844 60.7791 5.21224 60.8612 5.33984C60.9523 5.46745 61.0116 5.63607 61.0389 5.8457C61.0662 6.05534 61.0799 6.29688 61.0799 6.57031C61.0799 6.83464 61.1027 7.10807 61.1483 7.39062C61.1756 7.71875 61.2212 8.04232 61.285 8.36133C61.3579 8.67122 61.4217 8.89909 61.4764 9.04492L61.5448 9.16797C61.5539 9.17708 61.5721 9.1862 61.5995 9.19531C61.6268 9.19531 61.686 9.19531 61.7772 9.19531H61.9139H62.119C62.3013 9.19531 62.5155 9.1862 62.7616 9.16797C63.0168 9.14974 63.2629 9.13151 63.4998 9.11328C63.7459 9.08594 63.9647 9.06315 64.1561 9.04492C64.3475 9.01758 64.4797 8.99479 64.5526 8.97656C64.662 8.94922 64.7668 8.93555 64.867 8.93555C65.0037 8.93555 65.1268 8.98112 65.2362 9.07227C65.3455 9.1543 65.4002 9.28646 65.4002 9.46875C65.4002 9.6237 65.3638 9.74674 65.2909 9.83789C65.2179 9.92904 65.104 10.002 64.9491 10.0566C64.8032 10.1113 64.6118 10.1569 64.3748 10.1934C64.1379 10.2207 63.8599 10.248 63.5409 10.2754C63.1216 10.321 62.7524 10.3529 62.4334 10.3711C62.1235 10.3802 61.8547 10.3848 61.6268 10.3848C61.2713 10.3848 61.0024 10.3118 60.8202 10.166C60.6379 10.0202 60.4966 9.78776 60.3963 9.46875ZM68.8045 8.07422C68.6405 8.0651 68.4673 8.06055 68.285 8.06055C68.1118 8.05143 67.925 8.04688 67.7245 8.04688H67.328C67.3097 8.61198 67.2915 9.11784 67.2733 9.56445C67.2642 10.002 67.2414 10.3893 67.2049 10.7266C67.1867 10.9362 67.1138 11.082 66.9862 11.1641C66.8586 11.2552 66.731 11.3008 66.6034 11.3008C66.4484 11.3008 66.3162 11.2461 66.2069 11.1367C66.0975 11.0273 66.0428 10.8678 66.0428 10.6582L66.1659 8.59375C66.1841 8.45703 66.1978 8.30208 66.2069 8.12891C66.216 7.94661 66.2205 7.74154 66.2205 7.51367C66.2205 7.34049 66.2114 7.14453 66.1932 6.92578C66.1841 6.70703 66.1659 6.48372 66.1385 6.25586C66.1203 6.02799 66.1021 5.80469 66.0838 5.58594C66.0747 5.36719 66.0702 5.16667 66.0702 4.98438C66.0702 4.65625 66.1203 4.42839 66.2205 4.30078C66.3208 4.17318 66.4666 4.10938 66.658 4.10938C66.813 4.10938 66.9269 4.15495 66.9998 4.24609C67.0819 4.32812 67.1411 4.45117 67.1776 4.61523C67.2232 4.77018 67.2505 4.96159 67.2596 5.18945C67.2778 5.41732 67.2961 5.67708 67.3143 5.96875L67.3553 6.89844C67.4009 6.90755 67.4419 6.91211 67.4784 6.91211C67.5148 6.91211 67.5558 6.91211 67.6014 6.91211C67.6926 6.91211 67.7791 6.91211 67.8612 6.91211C67.9523 6.90299 68.0435 6.89844 68.1346 6.89844C68.2531 6.89844 68.367 6.89844 68.4764 6.89844C68.5949 6.89844 68.7088 6.90299 68.8182 6.91211L68.7772 5.92773C68.759 5.58138 68.7362 5.28516 68.7088 5.03906C68.6815 4.79297 68.6678 4.59245 68.6678 4.4375C68.6678 4.10938 68.7179 3.88151 68.8182 3.75391C68.9185 3.6263 69.0643 3.5625 69.2557 3.5625C69.438 3.5625 69.5747 3.64909 69.6659 3.82227C69.757 3.98633 69.8162 4.18685 69.8436 4.42383C69.8801 4.65169 69.8983 4.88867 69.8983 5.13477C69.8983 5.37174 69.9028 5.55859 69.912 5.69531C69.9211 5.93229 69.9302 6.16016 69.9393 6.37891C69.9484 6.59766 69.953 6.81185 69.953 7.02148C69.953 7.98763 69.9347 8.8125 69.8983 9.49609C69.8709 10.1797 69.839 10.7266 69.8026 11.1367C69.7752 11.3464 69.7023 11.4922 69.5838 11.5742C69.4653 11.6654 69.3377 11.7109 69.201 11.7109C69.0461 11.7109 68.9139 11.6562 68.8045 11.5469C68.6952 11.4375 68.6405 11.278 68.6405 11.0684L68.7635 8.60742L68.8045 8.07422ZM65.0448 4.49219C64.9901 4.48307 64.8807 4.4375 64.7166 4.35547C64.5526 4.27344 64.384 4.16406 64.2108 4.02734C64.0376 3.89062 63.8827 3.73112 63.7459 3.54883C63.6183 3.36654 63.5545 3.17513 63.5545 2.97461C63.5545 2.81055 63.6183 2.66471 63.7459 2.53711C63.8827 2.40039 64.033 2.33203 64.1971 2.33203C64.3247 2.33203 64.4386 2.35938 64.5389 2.41406C64.6392 2.46875 64.7212 2.53711 64.785 2.61914C64.8579 2.69206 64.9126 2.77409 64.9491 2.86523C64.9946 2.94727 65.0265 3.01562 65.0448 3.07031C65.0448 3.01562 65.063 2.94727 65.0995 2.86523C65.145 2.7832 65.1997 2.70573 65.2635 2.63281C65.3364 2.55078 65.423 2.48242 65.5233 2.42773C65.6235 2.36393 65.742 2.33203 65.8787 2.33203C66.0428 2.33203 66.1932 2.40039 66.3299 2.53711C66.4666 2.66471 66.535 2.81055 66.535 2.97461C66.535 3.17513 66.4666 3.36654 66.3299 3.54883C66.2023 3.73112 66.0519 3.89062 65.8787 4.02734C65.7056 4.16406 65.537 4.27344 65.3729 4.35547C65.2088 4.4375 65.0995 4.48307 65.0448 4.49219ZM77.1925 9.26367C77.712 9.26367 78.0721 9.14062 78.2726 8.89453C78.4731 8.63932 78.5734 8.28841 78.5734 7.8418C78.5734 7.67773 78.5506 7.51367 78.505 7.34961C78.4685 7.18555 78.3956 7.03971 78.2862 6.91211C78.186 6.77539 78.0447 6.66602 77.8624 6.58398C77.6892 6.49284 77.4659 6.44727 77.1925 6.44727C76.9191 6.44727 76.6912 6.48828 76.5089 6.57031C76.3357 6.65234 76.1945 6.76172 76.0851 6.89844C75.9848 7.02604 75.9119 7.17643 75.8663 7.34961C75.8299 7.51367 75.8116 7.67773 75.8116 7.8418C75.8116 8.28841 75.9165 8.63932 76.1261 8.89453C76.3357 9.14062 76.6912 9.26367 77.1925 9.26367ZM77.1788 10.4258C76.7413 10.4258 76.3585 10.3574 76.0304 10.2207C75.7114 10.0749 75.4471 9.88802 75.2374 9.66016C75.0278 9.42318 74.8728 9.14974 74.7726 8.83984C74.6723 8.52995 74.6222 8.20182 74.6222 7.85547C74.6313 7.53646 74.6814 7.22201 74.7726 6.91211C74.8637 6.60221 75.0096 6.32878 75.2101 6.0918C75.4197 5.8457 75.6886 5.64974 76.0167 5.50391C76.354 5.35807 76.7687 5.28516 77.2609 5.28516C77.7257 5.28516 78.1176 5.36263 78.4366 5.51758C78.7556 5.67253 79.0109 5.8776 79.2023 6.13281C79.4028 6.37891 79.5486 6.66146 79.6398 6.98047C79.7309 7.29036 79.7765 7.60482 79.7765 7.92383C79.7765 8.25195 79.7218 8.57096 79.6124 8.88086C79.503 9.18164 79.339 9.44596 79.1202 9.67383C78.9015 9.90169 78.628 10.084 78.2999 10.2207C77.9809 10.3574 77.6072 10.4258 77.1788 10.4258ZM82.5655 5.92773C82.5473 5.58138 82.5245 5.28516 82.4972 5.03906C82.4698 4.79297 82.4562 4.59245 82.4562 4.4375C82.4562 4.10938 82.5063 3.88151 82.6066 3.75391C82.7068 3.6263 82.8527 3.5625 83.0441 3.5625C83.2264 3.5625 83.3631 3.64909 83.4542 3.82227C83.5454 3.98633 83.6046 4.18685 83.632 4.42383C83.6684 4.65169 83.6866 4.88867 83.6866 5.13477C83.6866 5.37174 83.6912 5.55859 83.7003 5.69531C83.7094 5.93229 83.7185 6.16016 83.7277 6.37891C83.7368 6.59766 83.7413 6.81185 83.7413 7.02148C83.7413 7.98763 83.7231 8.8125 83.6866 9.49609C83.6593 10.1797 83.6274 10.7266 83.5909 11.1367C83.5636 11.3464 83.4907 11.4922 83.3722 11.5742C83.2537 11.6654 83.1261 11.7109 82.9894 11.7109C82.8344 11.7109 82.7023 11.6562 82.5929 11.5469C82.4835 11.4375 82.4288 11.278 82.4288 11.0684L82.5519 8.60742C82.5701 8.42513 82.5838 8.22461 82.5929 8.00586C82.602 7.78711 82.6066 7.55013 82.6066 7.29492C82.6066 6.89388 82.5929 6.43815 82.5655 5.92773ZM80.6788 4.49219C80.6241 4.48307 80.5148 4.4375 80.3507 4.35547C80.1866 4.27344 80.018 4.16406 79.8448 4.02734C79.6717 3.89062 79.5167 3.73112 79.38 3.54883C79.2524 3.36654 79.1886 3.17513 79.1886 2.97461C79.1886 2.81055 79.2524 2.66471 79.38 2.53711C79.5167 2.40039 79.6671 2.33203 79.8312 2.33203C79.9588 2.33203 80.0727 2.35938 80.173 2.41406C80.2732 2.46875 80.3553 2.53711 80.4191 2.61914C80.492 2.69206 80.5467 2.77409 80.5831 2.86523C80.6287 2.94727 80.6606 3.01562 80.6788 3.07031C80.6788 3.01562 80.6971 2.94727 80.7335 2.86523C80.7791 2.7832 80.8338 2.70573 80.8976 2.63281C80.9705 2.55078 81.0571 2.48242 81.1573 2.42773C81.2576 2.36393 81.3761 2.33203 81.5128 2.33203C81.6769 2.33203 81.8273 2.40039 81.964 2.53711C82.1007 2.66471 82.1691 2.81055 82.1691 2.97461C82.1691 3.17513 82.1007 3.36654 81.964 3.54883C81.8364 3.73112 81.686 3.89062 81.5128 4.02734C81.3396 4.16406 81.171 4.27344 81.007 4.35547C80.8429 4.4375 80.7335 4.48307 80.6788 4.49219ZM88.1814 9.26367C88.7009 9.26367 89.061 9.14062 89.2615 8.89453C89.462 8.63932 89.5623 8.28841 89.5623 7.8418C89.5623 7.67773 89.5395 7.51367 89.4939 7.34961C89.4574 7.18555 89.3845 7.03971 89.2752 6.91211C89.1749 6.77539 89.0336 6.66602 88.8513 6.58398C88.6781 6.49284 88.4548 6.44727 88.1814 6.44727C87.908 6.44727 87.6801 6.48828 87.4978 6.57031C87.3246 6.65234 87.1834 6.76172 87.074 6.89844C86.9737 7.02604 86.9008 7.17643 86.8552 7.34961C86.8188 7.51367 86.8005 7.67773 86.8005 7.8418C86.8005 8.28841 86.9054 8.63932 87.115 8.89453C87.3246 9.14062 87.6801 9.26367 88.1814 9.26367ZM88.1677 10.4258C87.7302 10.4258 87.3474 10.3574 87.0193 10.2207C86.7003 10.0749 86.436 9.88802 86.2263 9.66016C86.0167 9.42318 85.8617 9.14974 85.7615 8.83984C85.6612 8.52995 85.6111 8.20182 85.6111 7.85547C85.6202 7.53646 85.6703 7.22201 85.7615 6.91211C85.8526 6.60221 85.9985 6.32878 86.199 6.0918C86.4086 5.8457 86.6775 5.64974 87.0056 5.50391C87.3429 5.35807 87.7576 5.28516 88.2498 5.28516C88.7146 5.28516 89.1065 5.36263 89.4255 5.51758C89.7446 5.67253 89.9998 5.8776 90.1912 6.13281C90.3917 6.37891 90.5375 6.66146 90.6287 6.98047C90.7198 7.29036 90.7654 7.60482 90.7654 7.92383C90.7654 8.25195 90.7107 8.57096 90.6013 8.88086C90.492 9.18164 90.3279 9.44596 90.1091 9.67383C89.8904 9.90169 89.617 10.084 89.2888 10.2207C88.9698 10.3574 88.5961 10.4258 88.1677 10.4258ZM94.1287 5.53125C94.1742 5.54036 94.2198 5.54492 94.2654 5.54492C94.3201 5.54492 94.3748 5.54492 94.4295 5.54492C94.5115 5.54492 94.6026 5.54492 94.7029 5.54492C94.8031 5.53581 94.9034 5.53125 95.0037 5.53125C95.1495 5.53125 95.2953 5.53581 95.4412 5.54492C95.5961 5.55404 95.7283 5.58138 95.8377 5.62695C95.9561 5.67253 96.0518 5.74544 96.1248 5.8457C96.1977 5.93685 96.2341 6.06445 96.2341 6.22852C96.2341 6.33789 96.184 6.44727 96.0837 6.55664C95.9835 6.66602 95.8468 6.72526 95.6736 6.73438C95.4913 6.71615 95.309 6.70247 95.1267 6.69336C94.9535 6.68424 94.7895 6.67969 94.6345 6.67969H94.1834V7.0625C94.1834 7.22656 94.1788 7.38607 94.1697 7.54102C94.1697 7.68685 94.1651 7.82812 94.156 7.96484V7.99219C94.2016 8.0013 94.2472 8.00586 94.2927 8.00586C94.3383 8.00586 94.3884 8.00586 94.4431 8.00586C94.5343 8.00586 94.6254 8.00586 94.7166 8.00586C94.8077 7.99674 94.9034 7.99219 95.0037 7.99219C95.1495 7.99219 95.2953 7.99674 95.4412 8.00586C95.5961 8.01497 95.7283 8.04232 95.8377 8.08789C95.9561 8.13346 96.0518 8.20638 96.1248 8.30664C96.1977 8.39779 96.2341 8.52539 96.2341 8.68945C96.2341 8.79883 96.184 8.9082 96.0837 9.01758C95.9835 9.12695 95.8468 9.1862 95.6736 9.19531C95.4913 9.17708 95.309 9.16341 95.1267 9.1543C94.9535 9.14518 94.7895 9.14062 94.6345 9.14062H94.1287C94.1104 9.52344 94.1013 9.87435 94.1013 10.1934C94.1013 10.5124 94.0831 10.7812 94.0466 11C94.0102 11.2279 93.9464 11.401 93.8552 11.5195C93.7641 11.6471 93.6228 11.7109 93.4314 11.7109C93.2765 11.7109 93.1443 11.6562 93.0349 11.5469C92.9255 11.4375 92.8709 11.278 92.8709 11.0684L92.9939 8.60742C93.0121 8.42513 93.0258 8.22461 93.0349 8.00586C93.044 7.78711 93.0486 7.55013 93.0486 7.29492C93.0486 7.05794 93.0395 6.78906 93.0212 6.48828C93.0121 6.17839 92.9939 5.88672 92.9666 5.61328C92.9483 5.33073 92.9301 5.08008 92.9119 4.86133C92.9028 4.64258 92.8982 4.5013 92.8982 4.4375C92.8982 4.10938 92.9483 3.88151 93.0486 3.75391C93.1489 3.6263 93.2947 3.5625 93.4861 3.5625C93.8689 3.5625 94.0649 3.85417 94.074 4.4375L94.115 5.13477C94.1241 5.19857 94.1287 5.26237 94.1287 5.32617C94.1287 5.38997 94.1287 5.45833 94.1287 5.53125ZM91.1209 4.49219C91.0662 4.48307 90.9568 4.4375 90.7927 4.35547C90.6287 4.27344 90.46 4.16406 90.2869 4.02734C90.1137 3.89062 89.9587 3.73112 89.822 3.54883C89.6944 3.36654 89.6306 3.17513 89.6306 2.97461C89.6306 2.81055 89.6944 2.66471 89.822 2.53711C89.9587 2.40039 90.1091 2.33203 90.2732 2.33203C90.4008 2.33203 90.5147 2.35938 90.615 2.41406C90.7153 2.46875 90.7973 2.53711 90.8611 2.61914C90.934 2.69206 90.9887 2.77409 91.0252 2.86523C91.0707 2.94727 91.1026 3.01562 91.1209 3.07031C91.1209 3.01562 91.1391 2.94727 91.1755 2.86523C91.2211 2.7832 91.2758 2.70573 91.3396 2.63281C91.4125 2.55078 91.4991 2.48242 91.5994 2.42773C91.6996 2.36393 91.8181 2.33203 91.9548 2.33203C92.1189 2.33203 92.2693 2.40039 92.406 2.53711C92.5427 2.66471 92.6111 2.81055 92.6111 2.97461C92.6111 3.17513 92.5427 3.36654 92.406 3.54883C92.2784 3.73112 92.128 3.89062 91.9548 4.02734C91.7817 4.16406 91.613 4.27344 91.449 4.35547C91.2849 4.4375 91.1755 4.48307 91.1209 4.49219ZM101.071 5.8457C101.253 5.96419 101.385 6.13737 101.467 6.36523C101.558 6.5931 101.604 6.81185 101.604 7.02148C101.604 7.26758 101.577 7.53646 101.522 7.82812C101.476 8.11979 101.412 8.41146 101.33 8.70312C101.258 8.98568 101.176 9.25911 101.084 9.52344C101.002 9.77865 100.92 9.9974 100.838 10.1797C100.756 10.3711 100.656 10.5033 100.537 10.5762C100.428 10.6491 100.296 10.681 100.141 10.6719C100.023 10.6719 99.9131 10.6263 99.8129 10.5352C99.7126 10.444 99.6625 10.321 99.6625 10.166C99.6625 10.0931 99.6853 9.99284 99.7309 9.86523C99.7764 9.72852 99.8266 9.57812 99.8812 9.41406C99.9451 9.25 100.009 9.08594 100.073 8.92188C100.136 8.7487 100.187 8.59375 100.223 8.45703C100.36 7.96484 100.428 7.5638 100.428 7.25391C100.428 7.09896 100.405 6.98047 100.36 6.89844C100.323 6.81641 100.246 6.77083 100.127 6.76172L97.1742 6.5293C96.919 6.43815 96.7914 6.26497 96.7914 6.00977C96.7914 5.62695 97.0648 5.43555 97.6117 5.43555C97.8669 5.43555 98.1768 5.45378 98.5414 5.49023C98.906 5.51758 99.2615 5.55404 99.6078 5.59961C99.9542 5.63607 100.264 5.67708 100.537 5.72266C100.82 5.76823 100.998 5.80924 101.071 5.8457ZM104.817 5.92773C104.799 5.58138 104.776 5.28516 104.748 5.03906C104.721 4.79297 104.707 4.59245 104.707 4.4375C104.707 4.10938 104.758 3.88151 104.858 3.75391C104.958 3.6263 105.104 3.5625 105.295 3.5625C105.478 3.5625 105.614 3.64909 105.705 3.82227C105.797 3.98633 105.856 4.18685 105.883 4.42383C105.92 4.65169 105.938 4.88867 105.938 5.13477C105.938 5.37174 105.942 5.55859 105.952 5.69531C105.961 5.93229 105.97 6.16016 105.979 6.37891C105.988 6.59766 105.993 6.81185 105.993 7.02148C105.993 7.98763 105.974 8.8125 105.938 9.49609C105.911 10.1797 105.879 10.7266 105.842 11.1367C105.815 11.3464 105.742 11.4922 105.623 11.5742C105.505 11.6654 105.377 11.7109 105.241 11.7109C105.086 11.7109 104.954 11.6562 104.844 11.5469C104.735 11.4375 104.68 11.278 104.68 11.0684L104.803 8.60742C104.821 8.42513 104.835 8.22461 104.844 8.00586C104.853 7.78711 104.858 7.55013 104.858 7.29492C104.858 6.89388 104.844 6.43815 104.817 5.92773ZM102.93 4.49219C102.875 4.48307 102.766 4.4375 102.602 4.35547C102.438 4.27344 102.269 4.16406 102.096 4.02734C101.923 3.89062 101.768 3.73112 101.631 3.54883C101.504 3.36654 101.44 3.17513 101.44 2.97461C101.44 2.81055 101.504 2.66471 101.631 2.53711C101.768 2.40039 101.918 2.33203 102.082 2.33203C102.21 2.33203 102.324 2.35938 102.424 2.41406C102.524 2.46875 102.607 2.53711 102.67 2.61914C102.743 2.69206 102.798 2.77409 102.834 2.86523C102.88 2.94727 102.912 3.01562 102.93 3.07031C102.93 3.01562 102.948 2.94727 102.985 2.86523C103.03 2.7832 103.085 2.70573 103.149 2.63281C103.222 2.55078 103.308 2.48242 103.409 2.42773C103.509 2.36393 103.627 2.33203 103.764 2.33203C103.928 2.33203 104.079 2.40039 104.215 2.53711C104.352 2.66471 104.42 2.81055 104.42 2.97461C104.42 3.17513 104.352 3.36654 104.215 3.54883C104.088 3.73112 103.937 3.89062 103.764 4.02734C103.591 4.16406 103.422 4.27344 103.258 4.35547C103.094 4.4375 102.985 4.48307 102.93 4.49219ZM110.077 5.14844C110.068 5.07552 110.054 4.98893 110.036 4.88867C110.027 4.7793 110.022 4.65625 110.022 4.51953C110.022 4.33724 110.041 4.15495 110.077 3.97266C110.123 3.79036 110.2 3.6263 110.31 3.48047C110.419 3.33464 110.574 3.21615 110.774 3.125C110.984 3.02474 111.253 2.97005 111.581 2.96094C111.9 2.95182 112.187 2.94271 112.442 2.93359C112.707 2.91536 112.93 2.88802 113.112 2.85156C113.295 2.80599 113.431 2.74219 113.522 2.66016C113.623 2.57812 113.673 2.46875 113.673 2.33203C113.673 2.21354 113.655 2.14062 113.618 2.11328C113.39 2.06771 113.153 2.04036 112.907 2.03125C112.661 2.01302 112.415 2.00391 112.169 2.00391C112.005 2.00391 111.841 2.00846 111.677 2.01758C111.513 2.01758 111.353 2.01758 111.198 2.01758C110.961 1.97201 110.806 1.89453 110.733 1.78516C110.661 1.67578 110.624 1.55273 110.624 1.41602C110.624 1.2793 110.674 1.15625 110.774 1.04688C110.884 0.928385 111.034 0.869141 111.226 0.869141C111.435 0.878255 111.618 0.882812 111.772 0.882812C111.937 0.882812 112.082 0.882812 112.21 0.882812H113.153C113.536 0.882812 113.842 0.928385 114.069 1.01953C114.297 1.11068 114.466 1.22917 114.575 1.375C114.694 1.51172 114.767 1.67122 114.794 1.85352C114.83 2.02669 114.849 2.19987 114.849 2.37305C114.849 2.64648 114.83 2.88346 114.794 3.08398C114.767 3.28451 114.675 3.45312 114.521 3.58984C114.366 3.71745 114.124 3.81771 113.796 3.89062C113.468 3.96354 113.008 4.01367 112.415 4.04102C112.151 4.05924 111.927 4.07292 111.745 4.08203C111.572 4.09115 111.435 4.10938 111.335 4.13672C111.253 4.18229 111.212 4.38737 111.212 4.75195C111.212 4.8431 111.212 4.92513 111.212 4.99805C111.221 5.07096 111.239 5.13021 111.267 5.17578C111.294 5.22135 111.34 5.25781 111.403 5.28516C111.476 5.3125 111.577 5.32617 111.704 5.32617C111.95 5.32617 112.26 5.30794 112.634 5.27148C113.017 5.22591 113.386 5.17578 113.741 5.12109C114.106 5.06641 114.425 5.01628 114.698 4.9707C114.972 4.91602 115.122 4.88411 115.149 4.875C115.268 4.82943 115.373 4.80664 115.464 4.80664C115.619 4.80664 115.751 4.86133 115.86 4.9707C115.97 5.07096 116.024 5.20312 116.024 5.36719C116.024 5.47656 116.011 5.57682 115.983 5.66797C115.956 5.75 115.874 5.82747 115.737 5.90039C115.601 5.96419 115.391 6.02799 115.108 6.0918C114.835 6.1556 114.448 6.2194 113.946 6.2832C112.88 6.41992 112.037 6.48828 111.417 6.48828C111.052 6.48828 110.779 6.41536 110.597 6.26953C110.424 6.1237 110.287 5.89128 110.187 5.57227C110.159 5.50846 110.141 5.46745 110.132 5.44922C110.123 5.42188 110.114 5.40365 110.105 5.39453C110.105 5.3763 110.1 5.35352 110.091 5.32617C110.091 5.28971 110.086 5.23047 110.077 5.14844ZM112.894 7.47266C113.796 7.46354 114.612 7.4362 115.341 7.39062C116.07 7.34505 116.722 7.28125 117.296 7.19922H117.405C117.597 7.19922 117.738 7.24479 117.829 7.33594C117.929 7.42708 117.993 7.52279 118.021 7.62305C118.021 7.81445 117.984 7.96029 117.911 8.06055C117.847 8.16081 117.72 8.24284 117.528 8.30664C116.899 8.39779 116.202 8.4707 115.437 8.52539C114.68 8.57096 113.842 8.59375 112.921 8.59375C111.991 8.59375 111.162 8.57552 110.433 8.53906C109.713 8.5026 109.079 8.45703 108.532 8.40234C108.377 8.38411 108.25 8.32487 108.149 8.22461C108.049 8.11523 107.999 7.98307 107.999 7.82812C107.999 7.68229 108.045 7.55924 108.136 7.45898C108.227 7.34961 108.345 7.28581 108.491 7.26758C109.749 7.4043 111.084 7.47266 112.497 7.47266H112.894ZM110.214 12.8594C110.205 12.7865 110.196 12.7227 110.187 12.668C110.177 12.6224 110.173 12.5677 110.173 12.5039C110.191 12.3125 110.218 12.1257 110.255 11.9434C110.291 11.7611 110.364 11.5924 110.474 11.4375C110.583 11.2917 110.738 11.1686 110.939 11.0684C111.139 10.9772 111.408 10.9271 111.745 10.918C112.456 10.8997 113.03 10.8542 113.468 10.7812C113.905 10.7083 114.124 10.5944 114.124 10.4395C114.124 10.3757 114.056 10.3301 113.919 10.3027C113.791 10.2663 113.636 10.2435 113.454 10.2344C113.272 10.2161 113.085 10.207 112.894 10.207C112.702 10.207 112.547 10.207 112.429 10.207C112.237 10.207 112.046 10.2116 111.855 10.2207C111.672 10.2207 111.504 10.2207 111.349 10.2207C111.112 10.1751 110.957 10.0977 110.884 9.98828C110.811 9.87891 110.774 9.75586 110.774 9.61914C110.774 9.48242 110.825 9.35938 110.925 9.25C111.034 9.13151 111.185 9.07227 111.376 9.07227C111.959 9.08138 112.488 9.08138 112.962 9.07227C113.445 9.06315 113.86 9.09505 114.206 9.16797C114.552 9.24089 114.821 9.38216 115.013 9.5918C115.204 9.80143 115.3 10.125 115.3 10.5625C115.3 10.8451 115.272 11.0729 115.218 11.2461C115.172 11.4193 115.058 11.556 114.876 11.6562C114.703 11.7656 114.443 11.8431 114.097 11.8887C113.759 11.9342 113.299 11.9707 112.716 11.998C112.461 12.0072 112.246 12.0117 112.073 12.0117C111.9 12.0117 111.759 12.0254 111.649 12.0527C111.549 12.0801 111.476 12.1302 111.431 12.2031C111.385 12.276 111.362 12.39 111.362 12.5449C111.362 12.6543 111.367 12.7409 111.376 12.8047C111.394 12.8685 111.44 12.9186 111.513 12.9551C111.586 13.0007 111.704 13.028 111.868 13.0371C112.032 13.0553 112.265 13.0645 112.565 13.0645C112.839 13.0645 113.117 13.0553 113.399 13.0371C113.691 13.0189 113.969 12.9915 114.233 12.9551C114.507 12.9186 114.758 12.873 114.985 12.8184C115.222 12.7728 115.423 12.7227 115.587 12.668C115.705 12.6133 115.819 12.5859 115.929 12.5859C116.084 12.5859 116.211 12.6406 116.312 12.75C116.421 12.8594 116.476 13.0007 116.476 13.1738C116.476 13.5384 116.138 13.7982 115.464 13.9531C114.789 14.1172 113.75 14.1992 112.347 14.1992C112.019 14.1992 111.741 14.1901 111.513 14.1719C111.285 14.1628 111.093 14.1263 110.939 14.0625C110.784 13.9987 110.656 13.9076 110.556 13.7891C110.465 13.6706 110.387 13.502 110.323 13.2832C110.305 13.2194 110.291 13.1784 110.282 13.1602C110.273 13.1419 110.264 13.1237 110.255 13.1055C110.255 13.0964 110.25 13.0736 110.241 13.0371C110.232 13.0098 110.223 12.9505 110.214 12.8594ZM125.766 2.40039C125.748 2.49154 125.739 2.57357 125.739 2.64648C125.739 2.7194 125.739 2.78776 125.739 2.85156C125.739 3.03385 125.757 3.19336 125.793 3.33008C125.839 3.4668 125.907 3.67188 125.998 3.94531L126.121 4.19141C126.14 4.20964 126.24 4.21875 126.422 4.21875H126.573H126.778C126.96 4.21875 127.192 4.20964 127.475 4.19141C127.757 4.17318 128.035 4.15039 128.309 4.12305C128.582 4.0957 128.824 4.07292 129.034 4.05469C129.252 4.02734 129.38 4.00911 129.416 4C129.553 3.97266 129.667 3.95898 129.758 3.95898C129.913 3.95898 130.041 4.01367 130.141 4.12305C130.241 4.22331 130.291 4.36914 130.291 4.56055C130.291 4.69727 130.259 4.80664 130.196 4.88867C130.141 4.9707 130.036 5.03906 129.881 5.09375C129.726 5.13932 129.517 5.18034 129.252 5.2168C128.997 5.24414 128.673 5.27148 128.282 5.29883C127.798 5.3444 127.384 5.3763 127.037 5.39453C126.7 5.40365 126.427 5.4082 126.217 5.4082C125.953 5.4082 125.752 5.3763 125.616 5.3125C125.479 5.23958 125.369 5.14844 125.287 5.03906C125.205 4.92057 125.128 4.78385 125.055 4.62891C124.991 4.46484 124.905 4.28711 124.795 4.0957C124.777 4.05924 124.731 3.94531 124.659 3.75391C124.586 3.55339 124.549 3.23893 124.549 2.81055C124.531 2.7832 124.526 2.70573 124.535 2.57812C124.554 2.45052 124.586 2.30924 124.631 2.1543C124.677 1.99935 124.741 1.8444 124.823 1.68945C124.914 1.52539 125.023 1.40234 125.151 1.32031C125.215 1.28385 125.328 1.2474 125.493 1.21094C125.666 1.17448 125.862 1.14714 126.08 1.12891C126.308 1.10156 126.545 1.08333 126.791 1.07422C127.047 1.05599 127.284 1.04232 127.502 1.0332C127.712 1.0332 127.926 1.03776 128.145 1.04688C128.373 1.04688 128.578 1.05143 128.76 1.06055C128.951 1.06966 129.111 1.07878 129.239 1.08789C129.375 1.08789 129.457 1.08789 129.485 1.08789C129.676 1.15169 129.813 1.23828 129.895 1.34766C129.977 1.44792 130.018 1.55729 130.018 1.67578C130.018 1.8125 129.968 1.93555 129.868 2.04492C129.767 2.1543 129.626 2.22266 129.444 2.25H128.118C127.844 2.24089 127.584 2.24544 127.338 2.26367C127.101 2.27279 126.878 2.27734 126.668 2.27734H126.162C126.099 2.27734 126.035 2.2819 125.971 2.29102C125.907 2.29102 125.843 2.29557 125.78 2.30469L125.766 2.40039ZM127.639 7.19922C128.541 7.1901 129.357 7.16276 130.086 7.11719C130.815 7.07161 131.467 7.00781 132.041 6.92578H132.151C132.342 6.92578 132.483 6.97135 132.575 7.0625C132.675 7.15365 132.739 7.24935 132.766 7.34961C132.766 7.54102 132.729 7.68685 132.657 7.78711C132.593 7.88737 132.465 7.9694 132.274 8.0332C131.645 8.12435 130.948 8.19727 130.182 8.25195C129.425 8.29753 128.587 8.32031 127.666 8.32031C126.737 8.32031 125.907 8.30208 125.178 8.26562C124.458 8.22917 123.825 8.18359 123.278 8.12891C123.123 8.11068 122.995 8.05143 122.895 7.95117C122.795 7.8418 122.744 7.70964 122.744 7.55469C122.744 7.40885 122.79 7.28581 122.881 7.18555C122.972 7.07617 123.091 7.01237 123.237 6.99414C124.494 7.13086 125.83 7.19922 127.243 7.19922H127.639ZM124.959 12.8594C124.95 12.7865 124.941 12.7227 124.932 12.668C124.923 12.6224 124.918 12.5677 124.918 12.5039C124.937 12.3125 124.964 12.1257 125 11.9434C125.037 11.7611 125.11 11.5924 125.219 11.4375C125.328 11.2917 125.483 11.1686 125.684 11.0684C125.884 10.9772 126.153 10.9271 126.491 10.918C127.201 10.8997 127.776 10.8542 128.213 10.7812C128.651 10.7083 128.869 10.5944 128.869 10.4395C128.869 10.3757 128.801 10.3301 128.664 10.3027C128.537 10.2663 128.382 10.2435 128.2 10.2344C128.017 10.2161 127.83 10.207 127.639 10.207C127.448 10.207 127.293 10.207 127.174 10.207C126.983 10.207 126.791 10.2116 126.6 10.2207C126.418 10.2207 126.249 10.2207 126.094 10.2207C125.857 10.1751 125.702 10.0977 125.629 9.98828C125.556 9.87891 125.52 9.75586 125.52 9.61914C125.52 9.48242 125.57 9.35938 125.67 9.25C125.78 9.13151 125.93 9.07227 126.121 9.07227C126.705 9.08138 127.233 9.08138 127.707 9.07227C128.19 9.06315 128.605 9.09505 128.951 9.16797C129.298 9.24089 129.567 9.38216 129.758 9.5918C129.95 9.80143 130.045 10.125 130.045 10.5625C130.045 10.8451 130.018 11.0729 129.963 11.2461C129.918 11.4193 129.804 11.556 129.621 11.6562C129.448 11.7656 129.188 11.8431 128.842 11.8887C128.505 11.9342 128.045 11.9707 127.461 11.998C127.206 12.0072 126.992 12.0117 126.819 12.0117C126.645 12.0117 126.504 12.0254 126.395 12.0527C126.295 12.0801 126.222 12.1302 126.176 12.2031C126.131 12.276 126.108 12.39 126.108 12.5449C126.108 12.6543 126.112 12.7409 126.121 12.8047C126.14 12.8685 126.185 12.9186 126.258 12.9551C126.331 13.0007 126.45 13.028 126.614 13.0371C126.778 13.0553 127.01 13.0645 127.311 13.0645C127.584 13.0645 127.862 13.0553 128.145 13.0371C128.437 13.0189 128.715 12.9915 128.979 12.9551C129.252 12.9186 129.503 12.873 129.731 12.8184C129.968 12.7728 130.168 12.7227 130.332 12.668C130.451 12.6133 130.565 12.5859 130.674 12.5859C130.829 12.5859 130.957 12.6406 131.057 12.75C131.166 12.8594 131.221 13.0007 131.221 13.1738C131.221 13.5384 130.884 13.7982 130.209 13.9531C129.535 14.1172 128.496 14.1992 127.092 14.1992C126.764 14.1992 126.486 14.1901 126.258 14.1719C126.03 14.1628 125.839 14.1263 125.684 14.0625C125.529 13.9987 125.401 13.9076 125.301 13.7891C125.21 13.6706 125.132 13.502 125.069 13.2832C125.05 13.2194 125.037 13.1784 125.028 13.1602C125.019 13.1419 125.009 13.1237 125 13.1055C125 13.0964 124.996 13.0736 124.987 13.0371C124.978 13.0098 124.968 12.9505 124.959 12.8594ZM134.308 9.79688C134.298 9.72396 134.285 9.59635 134.267 9.41406C134.257 9.23177 134.253 9.06315 134.253 8.9082C134.253 8.7168 134.271 8.52539 134.308 8.33398C134.353 8.13346 134.426 7.95117 134.526 7.78711C134.636 7.62305 134.782 7.48633 134.964 7.37695C135.146 7.26758 135.383 7.20833 135.675 7.19922C135.93 7.1901 136.176 7.18099 136.413 7.17188C136.65 7.16276 136.86 7.13997 137.042 7.10352C137.224 7.05794 137.366 6.99414 137.466 6.91211C137.575 6.83008 137.63 6.71159 137.63 6.55664C137.63 6.16471 137.616 5.95964 137.589 5.94141C137.352 5.89583 137.129 5.86849 136.919 5.85938C136.718 5.84115 136.513 5.83203 136.304 5.83203C136.167 5.83203 136.026 5.83659 135.88 5.8457C135.734 5.8457 135.584 5.8457 135.429 5.8457C135.192 5.80013 135.037 5.72266 134.964 5.61328C134.891 5.50391 134.854 5.38086 134.854 5.24414C134.854 5.10742 134.905 4.98438 135.005 4.875C135.114 4.75651 135.265 4.69727 135.456 4.69727C135.666 4.69727 135.839 4.70182 135.976 4.71094C136.121 4.72005 136.231 4.72005 136.304 4.71094H137.097C137.507 4.71094 137.826 4.76107 138.054 4.86133C138.282 4.96159 138.45 5.09375 138.56 5.25781C138.678 5.42188 138.746 5.60417 138.765 5.80469C138.792 5.99609 138.806 6.1875 138.806 6.37891C138.806 6.66146 138.797 6.91211 138.778 7.13086C138.76 7.34961 138.678 7.54102 138.532 7.70508C138.395 7.86003 138.168 7.98763 137.849 8.08789C137.539 8.17904 137.092 8.24284 136.509 8.2793C136.29 8.29753 136.103 8.3112 135.948 8.32031C135.793 8.32943 135.666 8.34766 135.565 8.375C135.483 8.42057 135.442 8.71224 135.442 9.25C135.442 9.38672 135.442 9.50065 135.442 9.5918C135.451 9.68294 135.47 9.76042 135.497 9.82422C135.524 9.87891 135.57 9.91992 135.634 9.94727C135.707 9.96549 135.807 9.97461 135.935 9.97461C136.181 9.97461 136.477 9.95638 136.823 9.91992C137.17 9.87435 137.502 9.82422 137.821 9.76953C138.149 9.71484 138.436 9.66471 138.683 9.61914C138.929 9.57357 139.07 9.54167 139.106 9.52344C139.225 9.47786 139.33 9.45508 139.421 9.45508C139.576 9.45508 139.708 9.50977 139.817 9.61914C139.927 9.7194 139.981 9.85156 139.981 10.0156C139.981 10.125 139.968 10.2253 139.94 10.3164C139.913 10.3984 139.836 10.4759 139.708 10.5488C139.58 10.6126 139.384 10.6764 139.12 10.7402C138.865 10.804 138.505 10.8678 138.04 10.9316C137.065 11.0684 136.267 11.1367 135.647 11.1367C135.283 11.1367 135.009 11.0638 134.827 10.918C134.654 10.7721 134.517 10.5397 134.417 10.2207C134.39 10.1569 134.371 10.1159 134.362 10.0977C134.353 10.0703 134.344 10.0521 134.335 10.043C134.335 10.0247 134.33 10.002 134.321 9.97461C134.321 9.93815 134.317 9.87891 134.308 9.79688ZM142.265 6.95312C142.064 6.94401 141.886 6.93945 141.731 6.93945C141.576 6.93945 141.449 6.93945 141.349 6.93945C141.194 6.93945 141.025 6.94401 140.843 6.95312C140.67 6.96224 140.492 6.97591 140.31 6.99414C140.118 6.98503 139.977 6.92122 139.886 6.80273C139.795 6.68424 139.749 6.56576 139.749 6.44727C139.749 6.29232 139.785 6.16927 139.858 6.07812C139.931 5.98698 140.027 5.92318 140.145 5.88672C140.264 5.84115 140.396 5.8138 140.542 5.80469C140.688 5.79557 140.834 5.79102 140.979 5.79102C141.089 5.79102 141.189 5.79557 141.28 5.80469C141.38 5.80469 141.504 5.80469 141.649 5.80469C141.731 5.80469 141.818 5.80469 141.909 5.80469C142 5.80469 142.101 5.80013 142.21 5.79102C142.201 5.48112 142.183 5.2168 142.155 4.99805C142.128 4.7793 142.114 4.59245 142.114 4.4375C142.114 4.10938 142.164 3.88151 142.265 3.75391C142.365 3.6263 142.511 3.5625 142.702 3.5625C142.884 3.5625 143.021 3.64909 143.112 3.82227C143.203 3.98633 143.263 4.18685 143.29 4.42383C143.326 4.65169 143.345 4.88867 143.345 5.13477C143.345 5.37174 143.349 5.55859 143.358 5.69531C143.367 5.93229 143.377 6.16016 143.386 6.37891C143.395 6.59766 143.399 6.81185 143.399 7.02148C143.399 7.98763 143.381 8.8125 143.345 9.49609C143.317 10.1797 143.285 10.7266 143.249 11.1367C143.222 11.3464 143.149 11.4922 143.03 11.5742C142.912 11.6654 142.784 11.7109 142.647 11.7109C142.492 11.7109 142.36 11.6562 142.251 11.5469C142.142 11.4375 142.087 11.278 142.087 11.0684L142.183 9.27734C142 9.26823 141.841 9.26367 141.704 9.26367C141.567 9.26367 141.449 9.26367 141.349 9.26367C141.194 9.26367 141.025 9.26823 140.843 9.27734C140.67 9.28646 140.492 9.30013 140.31 9.31836C140.118 9.30924 139.977 9.24544 139.886 9.12695C139.795 9.00846 139.749 8.88997 139.749 8.77148C139.749 8.61654 139.785 8.49349 139.858 8.40234C139.931 8.3112 140.027 8.2474 140.145 8.21094C140.264 8.16536 140.396 8.13802 140.542 8.12891C140.688 8.11979 140.834 8.11523 140.979 8.11523C141.089 8.11523 141.194 8.11979 141.294 8.12891C141.394 8.12891 141.517 8.12891 141.663 8.12891C141.754 8.12891 141.845 8.12891 141.936 8.12891C142.037 8.12891 142.142 8.12435 142.251 8.11523C142.26 7.98763 142.265 7.86003 142.265 7.73242C142.265 7.60482 142.265 7.4681 142.265 7.32227V6.95312ZM140.132 4.49219C140.077 4.48307 139.968 4.4375 139.804 4.35547C139.64 4.27344 139.471 4.16406 139.298 4.02734C139.125 3.89062 138.97 3.73112 138.833 3.54883C138.705 3.36654 138.642 3.17513 138.642 2.97461C138.642 2.81055 138.705 2.66471 138.833 2.53711C138.97 2.40039 139.12 2.33203 139.284 2.33203C139.412 2.33203 139.526 2.35938 139.626 2.41406C139.726 2.46875 139.808 2.53711 139.872 2.61914C139.945 2.69206 140 2.77409 140.036 2.86523C140.082 2.94727 140.114 3.01562 140.132 3.07031C140.132 3.01562 140.15 2.94727 140.186 2.86523C140.232 2.7832 140.287 2.70573 140.351 2.63281C140.423 2.55078 140.51 2.48242 140.61 2.42773C140.711 2.36393 140.829 2.33203 140.966 2.33203C141.13 2.33203 141.28 2.40039 141.417 2.53711C141.554 2.66471 141.622 2.81055 141.622 2.97461C141.622 3.17513 141.554 3.36654 141.417 3.54883C141.289 3.73112 141.139 3.89062 140.966 4.02734C140.793 4.16406 140.624 4.27344 140.46 4.35547C140.296 4.4375 140.186 4.48307 140.132 4.49219ZM150.601 3.58984C150.793 3.77214 151.03 3.99544 151.312 4.25977C151.595 4.52409 151.868 4.79297 152.132 5.06641C152.406 5.33073 152.634 5.58594 152.816 5.83203C153.007 6.07812 153.103 6.27865 153.103 6.43359C153.103 6.58854 153.067 6.72526 152.994 6.84375C152.93 6.95312 152.775 7.00781 152.529 7.00781C152.429 7.00781 152.315 6.96224 152.187 6.87109C152.069 6.77083 151.936 6.64779 151.791 6.50195C151.654 6.35612 151.508 6.19206 151.353 6.00977C151.198 5.82747 151.034 5.6543 150.861 5.49023C150.451 5.09831 150.109 4.78385 149.836 4.54688L149.015 5.38086C148.842 5.55404 148.637 5.7819 148.4 6.06445C148.172 6.33789 147.912 6.67057 147.621 7.0625C147.484 7.25391 147.315 7.34961 147.115 7.34961C146.796 7.29492 146.618 7.11263 146.582 6.80273C146.582 6.6569 146.636 6.48828 146.746 6.29688C146.864 6.10547 147.001 5.91406 147.156 5.72266C147.311 5.53125 147.466 5.35352 147.621 5.18945C147.785 5.01628 147.912 4.87956 148.004 4.7793L149.234 3.5625C148.906 3.57161 148.61 3.58073 148.345 3.58984C148.09 3.58984 147.862 3.59896 147.662 3.61719C147.443 3.60807 147.293 3.54427 147.211 3.42578C147.129 3.29818 147.087 3.16602 147.087 3.0293C147.087 2.88346 147.129 2.76953 147.211 2.6875C147.302 2.60547 147.429 2.54622 147.593 2.50977C147.757 2.46419 147.958 2.44141 148.195 2.44141C148.441 2.43229 148.719 2.42773 149.029 2.42773C149.758 2.42773 150.36 2.43229 150.834 2.44141C151.308 2.45052 151.681 2.47786 151.955 2.52344C152.228 2.56901 152.415 2.63737 152.515 2.72852C152.625 2.81055 152.679 2.93359 152.679 3.09766C152.679 3.23438 152.643 3.36654 152.57 3.49414C152.497 3.61263 152.342 3.67643 152.105 3.68555C151.95 3.66732 151.745 3.64909 151.49 3.63086C151.244 3.61263 150.948 3.59896 150.601 3.58984ZM150.752 9.53711L150.724 10.2207C150.706 10.3757 150.697 10.5625 150.697 10.7812C150.706 11 150.697 11.2096 150.67 11.4102C150.642 11.6107 150.587 11.7793 150.505 11.916C150.433 12.0618 150.305 12.1348 150.123 12.1348C149.995 12.1348 149.858 12.0892 149.712 11.998C149.576 11.9069 149.507 11.7565 149.507 11.5469C149.498 11.3099 149.498 11.0866 149.507 10.877C149.517 10.6673 149.526 10.4668 149.535 10.2754L149.548 9.55078C148.71 9.54167 147.958 9.52344 147.293 9.49609C146.627 9.46875 146.039 9.42318 145.529 9.35938C145.374 9.35026 145.246 9.29102 145.146 9.18164C145.046 9.07227 144.996 8.9401 144.996 8.78516C144.996 8.63932 145.041 8.51628 145.132 8.41602C145.224 8.30664 145.342 8.24284 145.488 8.22461C146.746 8.36133 148.081 8.42969 149.494 8.42969C150.487 8.42969 151.38 8.4069 152.173 8.36133C152.976 8.31576 153.682 8.2474 154.293 8.15625H154.402C154.593 8.15625 154.735 8.20182 154.826 8.29297C154.926 8.38411 154.99 8.47982 155.017 8.58008C155.017 8.77148 154.981 8.91732 154.908 9.01758C154.844 9.11784 154.716 9.19987 154.525 9.26367C153.996 9.33659 153.418 9.39583 152.789 9.44141C152.169 9.48698 151.49 9.51888 150.752 9.53711ZM162.397 4.94336C162.342 4.93424 162.214 4.92513 162.014 4.91602C161.813 4.89779 161.576 4.88411 161.303 4.875C161.03 4.85677 160.733 4.8431 160.414 4.83398C160.104 4.81576 159.808 4.80208 159.526 4.79297C159.252 4.77474 159.006 4.76107 158.787 4.75195C158.569 4.74284 158.418 4.73372 158.336 4.72461C158.081 4.62435 157.953 4.45573 157.953 4.21875C157.953 4.03646 158.017 3.89518 158.145 3.79492C158.281 3.68555 158.496 3.63086 158.787 3.63086C159.07 3.63086 159.412 3.63997 159.813 3.6582C160.214 3.67643 160.674 3.69922 161.194 3.72656C162.397 3.79948 163.108 3.88151 163.326 3.97266C163.463 4.0638 163.568 4.18229 163.641 4.32812C163.723 4.46484 163.778 4.61523 163.805 4.7793C163.841 4.93424 163.86 5.09375 163.86 5.25781C163.869 5.41276 163.873 5.55859 163.873 5.69531C163.873 5.96875 163.869 6.26953 163.86 6.59766C163.85 6.91667 163.819 7.21745 163.764 7.5C163.718 7.77344 163.645 8.0013 163.545 8.18359C163.454 8.36589 163.322 8.45703 163.149 8.45703C163.012 8.45703 162.875 8.41602 162.739 8.33398C162.611 8.24284 162.538 8.09245 162.52 7.88281C162.52 7.75521 162.529 7.5957 162.547 7.4043C162.565 7.20378 162.588 7.00326 162.615 6.80273C162.643 6.5931 162.666 6.39714 162.684 6.21484C162.702 6.02344 162.711 5.87305 162.711 5.76367C162.711 5.72721 162.711 5.66797 162.711 5.58594C162.72 5.50391 162.716 5.41732 162.697 5.32617C162.679 5.23503 162.647 5.15299 162.602 5.08008C162.556 5.00716 162.488 4.96159 162.397 4.94336ZM159.58 9.91992C159.58 9.56445 159.58 9.29102 159.58 9.09961C159.58 8.9082 159.576 8.75781 159.567 8.64844C159.567 8.53906 159.562 8.44792 159.553 8.375C159.544 8.30208 159.535 8.21094 159.526 8.10156C159.526 7.99219 159.521 7.84635 159.512 7.66406C159.503 7.47266 159.494 7.20378 159.485 6.85742C159.521 6.68424 159.589 6.55664 159.69 6.47461C159.799 6.38346 159.913 6.33789 160.031 6.33789C160.159 6.33789 160.282 6.37435 160.401 6.44727C160.519 6.52018 160.601 6.63867 160.647 6.80273C160.656 7.1582 160.665 7.4362 160.674 7.63672C160.692 7.82812 160.701 7.98307 160.701 8.10156C160.711 8.21094 160.715 8.30208 160.715 8.375C160.724 8.44792 160.729 8.54362 160.729 8.66211C160.738 8.77148 160.742 8.92643 160.742 9.12695C160.742 9.31836 160.742 9.58724 160.742 9.93359H161.016C161.918 9.93359 162.734 9.90625 163.463 9.85156C164.192 9.79688 164.844 9.73307 165.418 9.66016H165.528C165.719 9.66016 165.86 9.70573 165.951 9.79688C166.052 9.88802 166.115 9.98372 166.143 10.084C166.143 10.2754 166.106 10.4212 166.033 10.5215C165.97 10.6217 165.842 10.7038 165.651 10.7676C165.022 10.8587 164.324 10.9316 163.559 10.9863C162.802 11.0319 161.964 11.0547 161.043 11.0547C160.114 11.0547 159.284 11.0365 158.555 11C157.835 10.9635 157.201 10.918 156.655 10.8633C156.5 10.8451 156.372 10.7858 156.272 10.6855C156.171 10.5762 156.121 10.444 156.121 10.2891C156.121 10.1432 156.167 10.0202 156.258 9.91992C156.349 9.81055 156.468 9.74674 156.614 9.72852C157.087 9.7832 157.571 9.82878 158.063 9.86523C158.555 9.89258 159.061 9.91081 159.58 9.91992ZM174.107 2.29102C174.216 2.42773 174.344 2.62826 174.49 2.89258C174.636 3.1569 174.786 3.44857 174.941 3.76758C175.105 4.07747 175.265 4.40104 175.419 4.73828C175.574 5.07552 175.711 5.38997 175.83 5.68164C175.957 5.96419 176.057 6.21029 176.13 6.41992C176.203 6.62956 176.24 6.76172 176.24 6.81641C176.24 6.97135 176.212 7.11263 176.158 7.24023C176.103 7.35872 175.948 7.41797 175.693 7.41797C175.565 7.41797 175.456 7.3724 175.365 7.28125C175.274 7.1901 175.182 7.0625 175.091 6.89844C175 6.73438 174.909 6.53841 174.818 6.31055C174.727 6.07357 174.626 5.8138 174.517 5.53125C174.353 5.13021 174.207 4.79753 174.08 4.5332C173.961 4.25977 173.856 4.04557 173.765 3.89062C173.592 4.23698 173.451 4.53776 173.341 4.79297C173.232 5.03906 173.123 5.28971 173.013 5.54492C172.913 5.80013 172.799 6.07812 172.671 6.37891C172.544 6.67969 172.38 7.04427 172.179 7.47266C172.042 7.66406 171.874 7.75977 171.673 7.75977C171.354 7.70508 171.177 7.52279 171.14 7.21289C171.14 7.11263 171.172 6.96224 171.236 6.76172C171.309 6.55208 171.4 6.32422 171.509 6.07812C171.619 5.82292 171.737 5.55859 171.865 5.28516C171.992 5.01172 172.111 4.75651 172.22 4.51953C172.33 4.28255 172.448 4.02734 172.576 3.75391C172.712 3.48047 172.845 3.22982 172.972 3.00195C173.109 2.76497 173.246 2.56901 173.382 2.41406C173.519 2.25911 173.651 2.18164 173.779 2.18164C173.897 2.18164 174.007 2.2181 174.107 2.29102ZM178.728 3.54883C178.71 3.22982 178.687 2.95182 178.66 2.71484C178.632 2.47786 178.619 2.27734 178.619 2.11328C178.619 1.78516 178.669 1.55729 178.769 1.42969C178.869 1.30208 179.015 1.23828 179.207 1.23828C179.389 1.23828 179.526 1.32487 179.617 1.49805C179.708 1.66211 179.767 1.85807 179.794 2.08594C179.831 2.30469 179.849 2.53255 179.849 2.76953C179.849 2.9974 179.854 3.17969 179.863 3.31641C179.89 3.99089 179.904 4.5651 179.904 5.03906C179.904 5.4401 179.904 5.83203 179.904 6.21484C179.904 6.58854 179.881 6.92578 179.835 7.22656C179.799 7.51823 179.731 7.75521 179.63 7.9375C179.53 8.11979 179.38 8.21094 179.179 8.21094C179.024 8.21094 178.892 8.15625 178.783 8.04688C178.673 7.9375 178.619 7.77799 178.619 7.56836L178.728 5.68164C178.746 5.50846 178.76 5.33984 178.769 5.17578C178.778 5.0026 178.783 4.82487 178.783 4.64258C178.783 4.46029 178.778 4.27799 178.769 4.0957C178.76 3.91341 178.746 3.73112 178.728 3.54883ZM174.394 9.05859H174.38H174.408C174.426 9.05859 174.444 9.04948 174.462 9.03125H174.503C174.503 9.04036 174.499 9.04492 174.49 9.04492C174.617 9.03581 174.863 9.03125 175.228 9.03125C175.593 9.03125 176.085 9.03125 176.705 9.03125C176.905 9.03125 177.142 9.03581 177.416 9.04492C177.698 9.04492 177.981 9.04948 178.263 9.05859C178.555 9.05859 178.828 9.06315 179.084 9.07227C179.339 9.07227 179.535 9.07227 179.671 9.07227C179.717 9.07227 179.758 9.07227 179.794 9.07227C179.84 9.06315 179.881 9.05859 179.917 9.05859H180C180.154 9.11328 180.268 9.19076 180.341 9.29102C180.414 9.38216 180.451 9.47786 180.451 9.57812C180.451 9.69661 180.405 9.81055 180.314 9.91992C180.223 10.0202 180.109 10.0885 179.972 10.125C179.872 10.125 179.681 10.125 179.398 10.125C179.125 10.1159 178.806 10.1113 178.441 10.1113C178.076 10.1113 177.689 10.1113 177.279 10.1113C176.869 10.1022 176.481 10.0977 176.117 10.0977C175.752 10.0977 175.429 10.0977 175.146 10.0977C174.873 10.0977 174.686 10.0977 174.585 10.0977C174.412 10.0794 174.28 10.0202 174.189 9.91992C174.107 9.81055 174.066 9.6875 174.066 9.55078C174.066 9.45052 174.089 9.35938 174.134 9.27734C174.18 9.1862 174.266 9.11328 174.394 9.05859ZM178.113 12.1348L178.181 10.7266C178.218 10.3984 178.386 10.2344 178.687 10.2344C178.997 10.2344 179.175 10.3984 179.22 10.7266L179.152 12.1621C179.243 12.1712 179.325 12.1758 179.398 12.1758C179.471 12.1758 179.539 12.1758 179.603 12.1758C179.676 12.1758 179.735 12.1758 179.781 12.1758C179.826 12.1758 179.872 12.1712 179.917 12.1621H180C180.154 12.2168 180.268 12.2897 180.341 12.3809C180.414 12.4811 180.451 12.5814 180.451 12.6816C180.451 12.8001 180.405 12.9095 180.314 13.0098C180.223 13.1191 180.109 13.1921 179.972 13.2285C179.735 13.2285 179.393 13.224 178.947 13.2148C178.5 13.2057 177.94 13.2012 177.265 13.2012H174.585C174.412 13.1829 174.28 13.1191 174.189 13.0098C174.107 12.9095 174.066 12.791 174.066 12.6543C174.066 12.554 174.089 12.4583 174.134 12.3672C174.18 12.2852 174.266 12.2168 174.394 12.1621H174.38H174.408C174.426 12.1621 174.444 12.153 174.462 12.1348H174.503C174.503 12.1439 174.499 12.1484 174.49 12.1484C174.563 12.1393 174.681 12.1348 174.845 12.1348C175.018 12.1348 175.237 12.1302 175.501 12.1211L175.433 10.7266C175.47 10.3984 175.643 10.2344 175.953 10.2344C176.253 10.2344 176.427 10.3939 176.472 10.7129L176.541 12.1211C176.768 12.1302 177.01 12.1348 177.265 12.1348C177.529 12.1348 177.812 12.1348 178.113 12.1348ZM184.563 9.26367C185.082 9.26367 185.442 9.14062 185.643 8.89453C185.843 8.63932 185.944 8.28841 185.944 7.8418C185.944 7.67773 185.921 7.51367 185.875 7.34961C185.839 7.18555 185.766 7.03971 185.656 6.91211C185.556 6.77539 185.415 6.66602 185.233 6.58398C185.059 6.49284 184.836 6.44727 184.563 6.44727C184.289 6.44727 184.061 6.48828 183.879 6.57031C183.706 6.65234 183.565 6.76172 183.455 6.89844C183.355 7.02604 183.282 7.17643 183.236 7.34961C183.2 7.51367 183.182 7.67773 183.182 7.8418C183.182 8.28841 183.287 8.63932 183.496 8.89453C183.706 9.14062 184.061 9.26367 184.563 9.26367ZM184.549 10.4258C184.111 10.4258 183.729 10.3574 183.401 10.2207C183.082 10.0749 182.817 9.88802 182.608 9.66016C182.398 9.42318 182.243 9.14974 182.143 8.83984C182.042 8.52995 181.992 8.20182 181.992 7.85547C182.001 7.53646 182.052 7.22201 182.143 6.91211C182.234 6.60221 182.38 6.32878 182.58 6.0918C182.79 5.8457 183.059 5.64974 183.387 5.50391C183.724 5.35807 184.139 5.28516 184.631 5.28516C185.096 5.28516 185.488 5.36263 185.807 5.51758C186.126 5.67253 186.381 5.8776 186.572 6.13281C186.773 6.37891 186.919 6.66146 187.01 6.98047C187.101 7.29036 187.147 7.60482 187.147 7.92383C187.147 8.25195 187.092 8.57096 186.983 8.88086C186.873 9.18164 186.709 9.44596 186.49 9.67383C186.272 9.90169 185.998 10.084 185.67 10.2207C185.351 10.3574 184.977 10.4258 184.549 10.4258ZM190.373 8.06055C190.054 8.05143 189.785 8.04688 189.567 8.04688C189.348 8.04688 189.179 8.04688 189.061 8.04688C188.906 8.04688 188.737 8.05143 188.555 8.06055C188.382 8.06966 188.204 8.08333 188.022 8.10156C187.83 8.09245 187.689 8.02865 187.598 7.91016C187.507 7.79167 187.461 7.67318 187.461 7.55469C187.461 7.39974 187.498 7.27669 187.57 7.18555C187.643 7.0944 187.739 7.0306 187.858 6.99414C187.976 6.94857 188.108 6.92122 188.254 6.91211C188.4 6.90299 188.546 6.89844 188.692 6.89844C188.783 6.89844 188.865 6.90299 188.938 6.91211C189.011 6.91211 189.106 6.91211 189.225 6.91211C189.361 6.91211 189.526 6.91211 189.717 6.91211C189.917 6.90299 190.141 6.89388 190.387 6.88477L190.346 5.92773C190.328 5.58138 190.305 5.28516 190.277 5.03906C190.25 4.79297 190.236 4.59245 190.236 4.4375C190.236 4.10938 190.287 3.88151 190.387 3.75391C190.487 3.6263 190.633 3.5625 190.824 3.5625C191.007 3.5625 191.143 3.64909 191.235 3.82227C191.326 3.98633 191.385 4.18685 191.412 4.42383C191.449 4.65169 191.467 4.88867 191.467 5.13477C191.467 5.37174 191.472 5.55859 191.481 5.69531C191.49 5.93229 191.499 6.16016 191.508 6.37891C191.517 6.59766 191.522 6.81185 191.522 7.02148C191.522 7.98763 191.503 8.8125 191.467 9.49609C191.44 10.1797 191.408 10.7266 191.371 11.1367C191.344 11.3464 191.271 11.4922 191.152 11.5742C191.034 11.6654 190.906 11.7109 190.77 11.7109C190.615 11.7109 190.483 11.6562 190.373 11.5469C190.264 11.4375 190.209 11.278 190.209 11.0684L190.332 8.60742L190.373 8.06055ZM188.254 4.49219C188.199 4.48307 188.09 4.4375 187.926 4.35547C187.762 4.27344 187.593 4.16406 187.42 4.02734C187.247 3.89062 187.092 3.73112 186.955 3.54883C186.828 3.36654 186.764 3.17513 186.764 2.97461C186.764 2.81055 186.828 2.66471 186.955 2.53711C187.092 2.40039 187.242 2.33203 187.406 2.33203C187.534 2.33203 187.648 2.35938 187.748 2.41406C187.848 2.46875 187.93 2.53711 187.994 2.61914C188.067 2.69206 188.122 2.77409 188.158 2.86523C188.204 2.94727 188.236 3.01562 188.254 3.07031C188.254 3.01562 188.272 2.94727 188.309 2.86523C188.354 2.7832 188.409 2.70573 188.473 2.63281C188.546 2.55078 188.632 2.48242 188.733 2.42773C188.833 2.36393 188.951 2.33203 189.088 2.33203C189.252 2.33203 189.402 2.40039 189.539 2.53711C189.676 2.66471 189.744 2.81055 189.744 2.97461C189.744 3.17513 189.676 3.36654 189.539 3.54883C189.412 3.73112 189.261 3.89062 189.088 4.02734C188.915 4.16406 188.746 4.27344 188.582 4.35547C188.418 4.4375 188.309 4.48307 188.254 4.49219ZM198.081 6.36523C198.464 6.36523 198.742 6.2832 198.915 6.11914C199.097 5.95508 199.188 5.6543 199.188 5.2168C199.188 4.87044 199.111 4.59701 198.956 4.39648C198.801 4.19596 198.509 4.0957 198.081 4.0957C197.671 4.0957 197.384 4.19596 197.22 4.39648C197.055 4.59701 196.973 4.87044 196.973 5.2168C196.973 5.6543 197.069 5.95508 197.261 6.11914C197.461 6.2832 197.735 6.36523 198.081 6.36523ZM198.067 7.52734C197.32 7.52734 196.75 7.32227 196.358 6.91211C195.975 6.50195 195.784 5.94141 195.784 5.23047C195.784 4.9388 195.825 4.65625 195.907 4.38281C195.989 4.10026 196.121 3.85417 196.304 3.64453C196.486 3.42578 196.723 3.2526 197.014 3.125C197.306 2.9974 197.662 2.93359 198.081 2.93359C198.473 2.93359 198.81 2.99284 199.093 3.11133C199.384 3.22982 199.626 3.39388 199.817 3.60352C200.009 3.80404 200.15 4.05013 200.241 4.3418C200.341 4.62435 200.391 4.92969 200.391 5.25781C200.391 5.95964 200.182 6.51562 199.762 6.92578C199.343 7.32682 198.778 7.52734 198.067 7.52734ZM196.03 10.1797C196.012 9.86979 196.003 9.71484 196.003 9.71484V9.72852C195.985 9.72852 195.962 9.27279 195.934 8.36133C195.971 8.18815 196.039 8.06055 196.139 7.97852C196.249 7.88737 196.363 7.8418 196.481 7.8418C196.727 7.8418 196.896 7.9375 196.987 8.12891C197.078 8.32031 197.128 8.53451 197.137 8.77148C197.156 8.99935 197.156 9.20898 197.137 9.40039C197.128 9.5918 197.142 9.6875 197.179 9.6875V9.82422C197.179 9.86979 197.179 9.92448 197.179 9.98828C197.179 10.0521 197.183 10.125 197.192 10.207H198.012C198.195 10.207 198.368 10.207 198.532 10.207C198.705 10.207 198.874 10.2025 199.038 10.1934C199.02 9.87435 199.011 9.71484 199.011 9.71484V9.72852C198.992 9.72852 198.97 9.27279 198.942 8.36133C198.979 8.18815 199.047 8.06055 199.147 7.97852C199.257 7.88737 199.371 7.8418 199.489 7.8418C199.735 7.8418 199.904 7.9375 199.995 8.12891C200.086 8.32031 200.136 8.53451 200.145 8.77148C200.164 8.99935 200.164 9.20898 200.145 9.40039C200.136 9.5918 200.15 9.6875 200.186 9.6875V9.79688C200.186 9.84245 200.186 9.89258 200.186 9.94727C200.186 10.002 200.191 10.0658 200.2 10.1387C200.637 10.1204 201.052 10.084 201.444 10.0293C201.836 9.96549 202.196 9.93359 202.524 9.93359C202.716 9.93359 202.857 9.97917 202.948 10.0703C203.048 10.1615 203.112 10.2572 203.139 10.3574C203.139 10.5488 203.103 10.6947 203.03 10.7949C202.966 10.8952 202.839 10.9772 202.647 11.041C202.018 11.1322 201.321 11.2005 200.555 11.2461C199.799 11.3008 198.96 11.3281 198.04 11.3281C197.11 11.3281 196.281 11.3099 195.552 11.2734C194.832 11.237 194.198 11.1914 193.651 11.1367C193.496 11.1185 193.369 11.0592 193.268 10.959C193.168 10.8496 193.118 10.7174 193.118 10.5625C193.118 10.4167 193.164 10.2936 193.255 10.1934C193.346 10.084 193.464 10.0202 193.61 10.002C194.002 10.0475 194.399 10.084 194.8 10.1113C195.201 10.1387 195.611 10.1615 196.03 10.1797ZM206.554 9.40039H206.622C206.732 9.40039 206.828 9.42773 206.91 9.48242L206.964 9.53711C207.119 9.62826 207.247 9.77409 207.347 9.97461C207.456 10.1751 207.511 10.3802 207.511 10.5898C207.511 10.8359 207.429 11.0592 207.265 11.2598C207.101 11.4694 206.823 11.5742 206.431 11.5742C206.112 11.5742 205.875 11.4876 205.72 11.3145C205.574 11.1504 205.501 10.9271 205.501 10.6445C205.501 10.5078 205.524 10.3711 205.57 10.2344C205.615 10.0977 205.679 9.97461 205.761 9.86523C205.852 9.74674 205.962 9.64648 206.089 9.56445C206.226 9.48242 206.381 9.42773 206.554 9.40039ZM206.062 2.98828C206.089 2.82422 206.158 2.69661 206.267 2.60547C206.386 2.50521 206.509 2.45508 206.636 2.45508C206.764 2.45508 206.887 2.49609 207.005 2.57812C207.124 2.65104 207.215 2.77409 207.279 2.94727C207.279 3.80404 207.261 4.63346 207.224 5.43555C207.188 6.23763 207.169 7.06706 207.169 7.92383C207.142 8.15169 207.069 8.31576 206.951 8.41602C206.832 8.51628 206.7 8.56641 206.554 8.56641C206.417 8.56641 206.285 8.52083 206.158 8.42969C206.03 8.32943 205.966 8.17448 205.966 7.96484C205.966 7.10807 205.98 6.27865 206.007 5.47656C206.044 4.67448 206.062 3.84505 206.062 2.98828Z" fill="#1A202C"/>
</svg>
