<svg width="19" height="18" viewBox="0 0 19 18" fill="none" xmlns="http://www.w3.org/2000/svg">
<g id="icon-arrow-right-circle" clip-path="url(#clip0_410_10276)">
<g id="Shape">
<path d="M9.59747 5.46967L12.5975 8.46967C12.8904 8.76256 12.8904 9.23744 12.5975 9.53033L9.59747 12.5303C9.30458 12.8232 8.8297 12.8232 8.53681 12.5303C8.24392 12.2374 8.24392 11.7626 8.53681 11.4697L10.2565 9.75H6.06714C5.65293 9.75 5.31714 9.41421 5.31714 9C5.31714 8.58579 5.65293 8.25 6.06714 8.25H10.2565L8.53681 6.53033C8.24392 6.23744 8.24392 5.76256 8.53681 5.46967C8.8297 5.17678 9.30458 5.17678 9.59747 5.46967Z" fill="#2D3648"/>
<path fill-rule="evenodd" clip-rule="evenodd" d="M0.817139 9C0.817139 4.44365 4.51079 0.75 9.06714 0.75C13.6235 0.75 17.3171 4.44365 17.3171 9C17.3171 13.5563 13.6235 17.25 9.06714 17.25C4.51079 17.25 0.817139 13.5563 0.817139 9ZM9.06714 2.25C5.33922 2.25 2.31714 5.27208 2.31714 9C2.31714 12.7279 5.33922 15.75 9.06714 15.75C12.7951 15.75 15.8171 12.7279 15.8171 9C15.8171 5.27208 12.7951 2.25 9.06714 2.25Z" fill="#2D3648"/>
</g>
</g>
<defs>
<clipPath id="clip0_410_10276">
<rect width="18" height="18" fill="white" transform="translate(0.0671387)"/>
</clipPath>
</defs>
</svg>
