<svg xmlns="http://www.w3.org/2000/svg" width="375" height="82" viewBox="0 0 375 82" fill="none">
  <path fill-rule="evenodd" clip-rule="evenodd" d="M0 47.1459L8 36.1459C16 25.1459 31 2.14592 47 0.145915C63 -1.85408 78 17.1459 94 30.1459C109 43.1459 125 51.1459 141 45.1459C156 40.1459 172 21.1459 188 21.1459C203 21.1459 219 40.1459 234 41.1459C250 43.1459 266 28.1459 281 28.1459C297 28.1459 313 43.1459 328 55.1459C344 66.1459 359 73.1459 367 77.1459L375 81.1459H367C359 81.1459 344 81.1459 328 81.1459C313 81.1459 297 81.1459 281 81.1459C266 81.1459 250 81.1459 234 81.1459C219 81.1459 203 81.1459 188 81.1459C172 81.1459 156 81.1459 141 81.1459C125 81.1459 109 81.1459 94 81.1459C78 81.1459 63 81.1459 47 81.1459C31 81.1459 16 81.1459 8 81.1459H0V47.1459Z" fill="#FDECEE"/>
</svg>